<svg width="10" height="7" viewBox="0 0 10 7" fill="none" xmlns="http://www.w3.org/2000/svg">
<path d="M0.885106 1.49994C0.88374 1.23414 0.97652 0.978658 1.14295 0.789939C1.30989 0.600626 1.53715 0.494141 1.77422 0.494141C2.01129 0.494141 2.23854 0.600626 2.40549 0.789939L5.33067 4.09994L8.27364 0.919939C8.62042 0.532215 9.1805 0.532215 9.52729 0.919939C9.69561 1.10771 9.79028 1.3633 9.79028 1.62994C9.79028 1.89658 9.69561 2.15217 9.52729 2.33994L5.97083 6.19994C5.62511 6.58108 5.0718 6.58108 4.72607 6.19994L1.16962 2.19994C0.995547 2.01864 0.893111 1.76662 0.885106 1.49994Z" fill="#1A1A1A"/>
</svg>
