<svg width="15" height="13" viewBox="0 0 15 13" fill="none" xmlns="http://www.w3.org/2000/svg">
<path d="M14.0625 7.4279L2.94375 7.4279L6.34688 11.4761C6.67825 11.8709 6.62368 12.4571 6.225 12.7853C5.82632 13.1134 5.2345 13.0594 4.90312 12.6646L0.215625 7.09364C0.184088 7.04933 0.155887 7.00278 0.13125 6.95437C0.13125 6.90794 0.13125 6.88009 0.065625 6.83366C0.0231314 6.72721 0.000882301 6.61388 0 6.49941C0.000882301 6.38494 0.0231314 6.27161 0.065625 6.16515C0.065625 6.11873 0.065625 6.09087 0.13125 6.04445C0.155887 5.99604 0.184088 5.94949 0.215625 5.90518L4.90312 0.334256C5.08158 0.12206 5.34616 -0.000447273 5.625 9.53674e-07C5.84405 -0.000422478 6.05633 0.0751343 6.225 0.213553C6.41673 0.370977 6.53733 0.597484 6.56019 0.843094C6.58306 1.0887 6.50631 1.33323 6.34688 1.52272L2.94375 5.57092L14.0625 5.57092C14.5803 5.57092 15 5.98662 15 6.49941C15 7.0122 14.5803 7.4279 14.0625 7.4279Z" fill="url(#paint0_linear)"/>
<defs>
<linearGradient id="paint0_linear" x1="-0.000237518" y1="6.4999" x2="14.9998" y2="6.4999" gradientUnits="userSpaceOnUse">
<stop stop-color="#009846"/>
<stop offset="1" stop-color="#009A9C"/>
</linearGradient>
</defs>
</svg>
