<svg width="19" height="19" viewBox="0 0 19 19" fill="none" xmlns="http://www.w3.org/2000/svg">
<path d="M12.8855 11.1778L10.2364 9.19094V5.14372C10.2364 4.73677 9.90747 4.40784 9.50053 4.40784C9.09359 4.40784 8.76465 4.73677 8.76465 5.14372V9.55892C8.76465 9.7907 8.87356 10.0093 9.059 10.1476L12.0024 12.3552C12.1349 12.4546 12.2894 12.5024 12.4432 12.5024C12.6677 12.5024 12.8884 12.4016 13.0327 12.2073C13.277 11.8827 13.2108 11.4214 12.8855 11.1778Z" fill="url(#paint0_linear)"/>
<path d="M9.5 0C4.26138 0 0 4.26138 0 9.5C0 14.7386 4.26138 19 9.5 19C14.7386 19 19 14.7386 19 9.5C19 4.26138 14.7386 0 9.5 0ZM9.5 17.5283C5.07378 17.5283 1.47172 13.9262 1.47172 9.5C1.47172 5.07378 5.07378 1.47172 9.5 1.47172C13.927 1.47172 17.5283 5.07378 17.5283 9.5C17.5283 13.9262 13.9262 17.5283 9.5 17.5283Z" fill="url(#paint1_linear)"/>
<defs>
<linearGradient id="paint0_linear" x1="8.76458" y1="8.45517" x2="13.1801" y2="8.45517" gradientUnits="userSpaceOnUse">
<stop stop-color="#009846"/>
<stop offset="1" stop-color="#009A9C"/>
</linearGradient>
<linearGradient id="paint1_linear" x1="-0.000300857" y1="9.50014" x2="18.9997" y2="9.50014" gradientUnits="userSpaceOnUse">
<stop stop-color="#009846"/>
<stop offset="1" stop-color="#009A9C"/>
</linearGradient>
</defs>
</svg>
