<svg width="65" height="81" viewBox="0 0 65 81" fill="none" xmlns="http://www.w3.org/2000/svg">
<path d="M44.1929 0.467812C43.8215 0.07663 43.3123 -0.158203 42.7845 -0.158203H11.1865C5.35581 -0.158203 0.542969 4.63548 0.542969 10.4655V70.2176C0.542969 76.0482 5.35581 80.8419 11.1865 80.8419H54.0732C59.9039 80.8419 64.7167 76.0482 64.7167 70.2176V22.772C64.7167 22.2634 64.4819 21.7746 64.1494 21.4026L44.1929 0.467812ZM44.7602 6.74836L58.1234 20.7766H49.4365C46.8539 20.7766 44.7602 18.7026 44.7602 16.1201V6.74836ZM54.0732 76.9289H11.1865C7.52802 76.9289 4.45603 73.8964 4.45603 70.2176V10.4655C4.45603 6.80707 7.50824 3.75486 11.1865 3.75486H40.8471V16.1201C40.8471 20.8742 44.6823 24.6896 49.4365 24.6896H60.8036V70.2176C60.8036 73.8964 57.7514 76.9289 54.0732 76.9289Z" fill="url(#paint0_linear)"/>
<path d="M48.7321 63.4287H16.5278C15.4519 63.4287 14.5713 64.3087 14.5713 65.3852C14.5713 66.4611 15.4519 67.3418 16.5278 67.3418H48.7519C49.8278 67.3418 50.7084 66.4611 50.7084 65.3852C50.7084 64.3087 49.8278 63.4287 48.7321 63.4287Z" fill="url(#paint1_linear)"/>
<path d="M31.2015 56.4051C31.5735 56.7963 32.0821 57.0311 32.6296 57.0311C33.1778 57.0311 33.6864 56.7963 34.0578 56.4051L45.5232 44.0986C46.2666 43.3156 46.2079 42.0636 45.4256 41.3399C44.6426 40.5965 43.3905 40.6546 42.6669 41.4376L34.5861 50.1048V28.7399C34.5861 27.6633 33.7055 26.7833 32.6296 26.7833C31.5537 26.7833 30.6731 27.6633 30.6731 28.7399V50.1048L22.6121 41.4376C21.8687 40.6552 20.6358 40.5965 19.8535 41.3399C19.0711 42.0834 19.0124 43.3162 19.7558 44.0986L31.2015 56.4051Z" fill="url(#paint2_linear)"/>
<defs>
<linearGradient id="paint0_linear" x1="0.541953" y1="40.3425" x2="64.7157" y2="40.3425" gradientUnits="userSpaceOnUse">
<stop stop-color="#009846"/>
<stop offset="1" stop-color="#009A9C"/>
</linearGradient>
<linearGradient id="paint1_linear" x1="14.5707" y1="65.3853" x2="50.7078" y2="65.3853" gradientUnits="userSpaceOnUse">
<stop stop-color="#009846"/>
<stop offset="1" stop-color="#009A9C"/>
</linearGradient>
<linearGradient id="paint2_linear" x1="19.2305" y1="41.9074" x2="46.0476" y2="41.9074" gradientUnits="userSpaceOnUse">
<stop stop-color="#009846"/>
<stop offset="1" stop-color="#009A9C"/>
</linearGradient>
</defs>
</svg>
