<svg width="26" height="26" viewBox="0 0 26 26" fill="none" xmlns="http://www.w3.org/2000/svg">
<path d="M25.8348 12.4943C25.6025 12.1766 20.0682 4.71429 12.9999 4.71429C5.93157 4.71429 0.397009 12.1766 0.164989 12.494C-0.0549962 12.7954 -0.0549962 13.2043 0.164989 13.5057C0.397009 13.8235 5.93157 21.2857 12.9999 21.2857C20.0682 21.2857 25.6025 13.8234 25.8348 13.506C26.055 13.2046 26.055 12.7954 25.8348 12.4943ZM12.9999 19.5714C7.79331 19.5714 3.28388 14.6186 1.94899 12.9994C3.28215 11.3788 7.78214 6.42857 12.9999 6.42857C18.2062 6.42857 22.7153 11.3806 24.0508 13.0006C22.7176 14.6211 18.2176 19.5714 12.9999 19.5714Z" fill="white"/>
<path d="M12.9998 7.85715C10.1641 7.85715 7.85693 10.1643 7.85693 13C7.85693 15.8358 10.1641 18.1429 12.9998 18.1429C15.8355 18.1429 18.1427 15.8358 18.1427 13C18.1427 10.1643 15.8355 7.85715 12.9998 7.85715ZM12.9998 16.4286C11.1092 16.4286 9.57126 14.8906 9.57126 13C9.57126 11.1095 11.1093 9.57147 12.9998 9.57147C14.8904 9.57147 16.4284 11.1095 16.4284 13C16.4284 14.8906 14.8904 16.4286 12.9998 16.4286Z" fill="white"/>
</svg>
