<svg width="8" height="13" viewBox="0 0 8 13" fill="none" xmlns="http://www.w3.org/2000/svg">
<path d="M8 0.365332C8 0.165963 7.83719 0.00434166 7.63636 0.00434166H5.81818C3.91223 -0.0899098 2.28747 1.36173 2.18182 3.25326V5.2026H0.363636C0.162806 5.2026 0 5.36423 0 5.5636V7.44075C0 7.64012 0.162806 7.80174 0.363636 7.80174H2.18182V12.639C2.18182 12.8384 2.34462 13 2.54545 13H4.72727C4.9281 13 5.09091 12.8384 5.09091 12.639V7.80174H6.99636C7.16272 7.80411 7.30949 7.69409 7.35273 7.5346L7.87636 5.65745C7.90569 5.54935 7.88283 5.43386 7.81448 5.34481C7.74614 5.25576 7.64004 5.20323 7.52727 5.2026H5.09091V3.25326C5.12839 2.88295 5.44329 2.60161 5.81818 2.60347H7.63636C7.83719 2.60347 8 2.44185 8 2.24248V0.365332Z" fill="#009846"/>
</svg>
