<svg width="19" height="19" viewBox="0 0 19 19" fill="none" xmlns="http://www.w3.org/2000/svg">
<path d="M9.5 0C4.24932 0 0 4.24891 0 9.5C0 14.7507 4.24891 19 9.5 19C14.7507 19 19 14.7511 19 9.5C19 4.24932 14.7511 0 9.5 0ZM5.82417 1.95763C5.53668 2.7406 5.29536 3.53652 5.10057 4.34358C4.53128 4.17061 3.97126 3.96321 3.42163 3.72155C4.11758 2.99038 4.92857 2.39504 5.82417 1.95763ZM2.68442 4.61047C3.39584 4.93993 4.12393 5.21535 4.86652 5.43626C4.65107 6.58639 4.52786 7.75701 4.49862 8.94336H1.13191C1.23444 7.3684 1.77116 5.87775 2.68442 4.61047ZM2.68442 14.3895C1.77116 13.1222 1.23444 11.6316 1.13191 10.0566H4.49862C4.52786 11.243 4.65107 12.4136 4.86652 13.5637C4.12393 13.7846 3.39588 14.0601 2.68442 14.3895ZM3.42163 15.2785C3.97126 15.0368 4.53124 14.8294 5.10057 14.6565C5.2954 15.4635 5.53668 16.2594 5.82417 17.0424C4.92902 16.6052 4.11795 16.01 3.42163 15.2785ZM8.94336 17.8681C8.35874 17.8301 7.78566 17.7325 7.23132 17.5777C6.79102 16.5342 6.43959 15.4643 6.17749 14.3728C7.07991 14.1711 8.00323 14.0531 8.94336 14.0197V17.8681ZM8.94336 12.9058C7.92478 12.9394 6.92442 13.0656 5.94674 13.2834C5.75251 12.2247 5.64059 11.1477 5.61227 10.0566H8.94336V12.9058ZM8.94336 8.94336H5.61227C5.64059 7.85227 5.75251 6.77532 5.94674 5.71663C6.92442 5.93438 7.92478 6.06055 8.94336 6.09421V8.94336ZM8.94336 4.98026C8.00323 4.9469 7.07991 4.82893 6.17749 4.62717C6.43959 3.53574 6.79102 2.46581 7.23132 1.42229C7.78566 1.26754 8.35874 1.16995 8.94336 1.13191V4.98026ZM16.3156 4.61047C17.2288 5.87775 17.7656 7.3684 17.8681 8.94336H14.5014C14.4721 7.75701 14.3489 6.58639 14.1335 5.43626C14.8761 5.21535 15.6041 4.93993 16.3156 4.61047ZM15.5784 3.72151C15.0287 3.96321 14.4688 4.17061 13.8994 4.34354C13.7046 3.53649 13.4633 2.74056 13.1758 1.95759C14.071 2.39478 14.882 2.99001 15.5784 3.72151ZM10.0566 1.13191C10.6413 1.16995 11.2143 1.26754 11.7687 1.42229C12.209 2.46581 12.5604 3.53574 12.8225 4.62717C11.9201 4.82893 10.9968 4.9469 10.0566 4.98026V1.13191ZM10.0566 6.09421C11.0752 6.06055 12.0756 5.93438 13.0533 5.71663C13.2475 6.77532 13.3594 7.85227 13.3877 8.94336H10.0566V6.09421ZM11.7686 17.5777C11.2143 17.7325 10.6413 17.8301 10.0566 17.8681V14.0197C10.9968 14.0531 11.9201 14.1711 12.8225 14.3728C12.5604 15.4643 12.209 16.5342 11.7686 17.5777ZM10.0566 12.9058V10.0566H13.3877C13.3594 11.1477 13.2475 12.2247 13.0533 13.2834C12.0756 13.0656 11.0752 12.9394 10.0566 12.9058ZM13.1758 17.0424C13.4633 16.2594 13.7046 15.4635 13.8994 14.6564C14.4687 14.8294 15.0287 15.0368 15.5784 15.2784C14.8824 16.0096 14.0714 16.605 13.1758 17.0424ZM16.3156 14.3895C15.6042 14.0601 14.8761 13.7846 14.1335 13.5637C14.3489 12.4136 14.4721 11.243 14.5014 10.0566H17.8681C17.7656 11.6316 17.2288 13.1222 16.3156 14.3895Z" fill="url(#paint0_linear)"/>
<defs>
<linearGradient id="paint0_linear" x1="-0.000300857" y1="9.50014" x2="18.9997" y2="9.50014" gradientUnits="userSpaceOnUse">
<stop stop-color="#009846"/>
<stop offset="1" stop-color="#009A9C"/>
</linearGradient>
</defs>
</svg>
