<svg width="13" height="12" viewBox="0 0 13 12" fill="none" xmlns="http://www.w3.org/2000/svg">
<path fill-rule="evenodd" clip-rule="evenodd" d="M12.3335 6C12.3335 4.4087 11.7014 2.88258 10.5761 1.75736C9.45092 0.632141 7.9248 0 6.3335 0C3.01979 0 0.333496 2.68629 0.333496 6C0.333496 9.31371 3.01979 12 6.3335 12C9.64721 12 12.3335 9.31371 12.3335 6ZM11.0916 5.4H9.33357C9.23462 3.98888 8.75113 2.63181 7.93557 1.476C9.64431 2.08287 10.8652 3.60087 11.0916 5.4ZM8.13385 6.6H4.58185C4.70257 8.08158 5.31989 9.47902 6.33385 10.566C7.34848 9.47446 7.9803 8.08235 8.13385 6.6ZM4.58185 5.4C4.72158 3.9251 5.3364 2.53543 6.33385 1.44C7.35668 2.52367 7.98993 3.91682 8.13385 5.4H4.58185ZM3.37553 5.4C3.48641 3.98203 3.97766 2.62021 4.79753 1.458C3.05773 2.04726 1.80679 3.57774 1.57553 5.4H3.37553ZM1.57553 6.6H3.37553C3.47434 8.01676 3.96226 9.37876 4.78553 10.536C3.05219 9.94393 1.8069 8.417 1.57553 6.6ZM9.33351 6.6C9.2199 8.01465 8.72655 9.37241 7.90551 10.53C9.6324 9.93514 10.872 8.41175 11.1035 6.6H9.33351Z" fill="url(#paint0_linear)"/>
<defs>
<linearGradient id="paint0_linear" x1="0.333306" y1="6.00009" x2="12.3333" y2="6.00009" gradientUnits="userSpaceOnUse">
<stop stop-color="#009846"/>
<stop offset="1" stop-color="#009A9C"/>
</linearGradient>
</defs>
</svg>
