<svg width="11" height="15" viewBox="0 0 11 15" fill="none" xmlns="http://www.w3.org/2000/svg">
<path d="M5.5 0C3.01469 0 1 1.79085 1 3.99991C1 6.20903 3.01469 8 5.5 8C7.98531 8 10 6.20903 10 3.99991C10 1.79085 7.98531 0 5.5 0ZM5.5 5.6535C4.47266 5.6535 3.6398 4.91314 3.6398 3.99997C3.6398 3.0868 4.47266 2.3465 5.5 2.3465C6.52734 2.3465 7.3602 3.0868 7.3602 3.99997C7.3602 4.91314 6.52734 5.6535 5.5 5.6535Z" fill="#009846"/>
<path d="M7.30707 10.9299C9.26592 10.6177 10.4398 9.89191 10.5019 9.85296C11.0751 9.49332 11.1671 8.83823 10.7074 8.38973C10.2478 7.94129 9.41058 7.86925 8.83725 8.22884C8.82513 8.23651 7.57315 8.9879 5.5132 8.98899C3.45331 8.9879 2.17487 8.23651 2.16275 8.22884C1.58942 7.86925 0.752175 7.94129 0.292556 8.38973C-0.167134 8.83823 -0.0750555 9.49332 0.498138 9.85296C0.561087 9.89246 1.78338 10.6371 3.79712 10.942L0.990598 13.2367C0.480563 13.6505 0.495898 14.3094 1.02484 14.7085C1.28301 14.9032 1.61575 15 1.94821 15C2.29677 15 2.64499 14.8934 2.90603 14.6816L5.51327 12.5087L8.38386 14.6957C8.90398 15.1019 9.74619 15.1013 10.2653 14.6945C10.7845 14.2877 10.7838 13.6287 10.2639 13.2225L7.30707 10.9299Z" fill="#009846"/>
</svg>
