<svg width="17" height="16" viewBox="0 0 17 16" fill="none" xmlns="http://www.w3.org/2000/svg">
<path d="M15.0835 11.6072V13.6395C15.0843 13.8282 15.0455 14.0149 14.9698 14.1878C14.8941 14.3607 14.783 14.5158 14.6437 14.6434C14.5044 14.7709 14.34 14.868 14.1609 14.9285C13.9818 14.9889 13.792 15.0114 13.6038 14.9944C11.5151 14.7679 9.50871 14.0556 7.74593 12.9147C6.10589 11.8746 4.71543 10.4869 3.67328 8.85008C2.52613 7.08279 1.81224 5.07068 1.58943 2.97674C1.57247 2.78941 1.59478 2.60061 1.65493 2.42235C1.71509 2.24409 1.81178 2.08029 1.93884 1.94137C2.06591 1.80245 2.22056 1.69146 2.39296 1.61546C2.56536 1.53946 2.75173 1.50012 2.9402 1.49994H4.97653C5.30594 1.49671 5.6253 1.61313 5.87506 1.8275C6.12483 2.04188 6.28797 2.33958 6.33408 2.66513C6.42003 3.3155 6.57942 3.95409 6.80922 4.56871C6.90055 4.81118 6.92031 5.07469 6.86618 5.32803C6.81204 5.58136 6.68627 5.8139 6.50377 5.99809L5.64173 6.85843C6.608 8.55441 8.01504 9.95865 9.71438 10.923L10.5764 10.0627C10.761 9.88054 10.994 9.75502 11.2478 9.70099C11.5017 9.64696 11.7657 9.66669 12.0086 9.75783C12.6245 9.98718 13.2643 10.1463 13.916 10.232C14.2457 10.2785 14.5469 10.4442 14.7621 10.6978C14.9774 10.9513 15.0918 11.275 15.0835 11.6072Z" stroke="#009846" stroke-width="2" stroke-linecap="round" stroke-linejoin="round"/>
</svg>
