<svg width="13" height="13" viewBox="0 0 13 13" fill="none" xmlns="http://www.w3.org/2000/svg">
<path d="M6.5 4.46875C5.37994 4.46875 4.46875 5.37997 4.46875 6.5C4.46875 7.62003 5.37997 8.53125 6.5 8.53125C7.62003 8.53125 8.53125 7.62003 8.53125 6.5C8.53125 5.37997 7.62006 4.46875 6.5 4.46875ZM6.5 7.51562C5.93998 7.51562 5.48438 7.06002 5.48438 6.5C5.48438 5.93998 5.93998 5.48438 6.5 5.48438C7.06002 5.48438 7.51562 5.93998 7.51562 6.5C7.51562 7.06002 7.06002 7.51562 6.5 7.51562Z" fill="url(#paint0_linear)"/>
<path d="M12.7503 8.01422L11.4353 7.00664C11.4723 6.65816 11.47 6.32059 11.4353 5.99338L12.7503 4.9858C12.9541 4.8296 13.0093 4.54578 12.8787 4.32461L11.6053 2.16696C11.4785 1.95201 11.2142 1.86111 10.9819 1.95259L9.42179 2.56704C9.13685 2.36313 8.83189 2.19035 8.51016 2.05057L8.27596 0.434967C8.23975 0.18525 8.02571 0 7.7734 0H5.22662C4.97431 0 4.76027 0.18525 4.72409 0.434992L4.48989 2.0506C4.16816 2.1904 3.86319 2.36316 3.57826 2.56707L2.01813 1.95262C1.78581 1.86111 1.52157 1.95203 1.39472 2.16699L0.121302 4.32461C-0.00923146 4.54578 0.045917 4.8296 0.249753 4.9858L1.56471 5.99336C1.52774 6.34184 1.53 6.67941 1.56471 7.00662L0.249778 8.01419C0.045917 8.1704 -0.00923147 8.45422 0.121327 8.67539L1.39469 10.833C1.52154 11.048 1.78581 11.1389 2.01811 11.0474L3.57826 10.433C3.86314 10.6368 4.16814 10.8097 4.48986 10.9494L4.72406 12.565C4.76027 12.8147 4.97431 13 5.22662 13H7.7734C8.02571 13 8.23975 12.8147 8.27596 12.5651L8.51016 10.9495C8.83189 10.8097 9.13688 10.6369 9.42176 10.433L10.9819 11.0474C11.2142 11.1389 11.4785 11.048 11.6053 10.8331L12.8787 8.67542C13.0093 8.45424 12.9541 8.17042 12.7503 8.01422ZM10.9509 9.94363L9.52784 9.38318C9.35732 9.31607 9.16405 9.34593 9.02181 9.46131C8.67845 9.73992 8.29305 9.95787 7.87634 10.1091C7.70043 10.173 7.57393 10.3284 7.54707 10.5136L7.33389 11.9844H5.66611L5.45295 10.5136C5.42609 10.3284 5.29959 10.173 5.12369 10.1091C4.70698 9.95785 4.32157 9.73989 3.97821 9.46131C3.83598 9.34593 3.6426 9.31607 3.47218 9.38318L2.04911 9.94363L1.22465 8.54666L2.417 7.63301C2.56685 7.51816 2.64066 7.32969 2.60857 7.14363C2.53382 6.71008 2.53628 6.2756 2.60857 5.85635C2.64066 5.67029 2.56685 5.48179 2.417 5.36697L1.22465 4.45331L2.04911 3.05635L3.47218 3.61679C3.64268 3.68395 3.83598 3.65404 3.97821 3.53867C4.3216 3.26008 4.707 3.04213 5.12369 2.89085C5.29959 2.82699 5.42609 2.67158 5.45295 2.48638L5.66613 1.01562H7.33392L7.54707 2.48638C7.57393 2.67158 7.70043 2.82699 7.87634 2.89085C8.29302 3.04213 8.67843 3.26008 9.02181 3.53867C9.16405 3.65407 9.3574 3.68393 9.52784 3.61679L10.9509 3.05635L11.7753 4.45331L10.583 5.36697C10.4331 5.48181 10.3593 5.67029 10.3914 5.85635C10.4662 6.28989 10.4637 6.72438 10.3914 7.14363C10.3593 7.32969 10.4331 7.51819 10.583 7.63301L11.7753 8.54666L10.9509 9.94363Z" fill="url(#paint1_linear)"/>
<defs>
<linearGradient id="paint0_linear" x1="4.46869" y1="6.50003" x2="8.53119" y2="6.50003" gradientUnits="userSpaceOnUse">
<stop stop-color="#009846"/>
<stop offset="1" stop-color="#009A9C"/>
</linearGradient>
<linearGradient id="paint1_linear" x1="0.050577" y1="6.5001" x2="12.9491" y2="6.5001" gradientUnits="userSpaceOnUse">
<stop stop-color="#009846"/>
<stop offset="1" stop-color="#009A9C"/>
</linearGradient>
</defs>
</svg>
