<svg width="24" height="24" viewBox="0 0 24 24" fill="none" xmlns="http://www.w3.org/2000/svg">
<g clip-path="url(#clip0)">
<path d="M23.155 13.893C23.871 7.86602 22.811 4.06102 20.899 2.34002L20.9 2.33902C17.814 -0.599975 7.39196 -1.03498 3.69996 2.47102C2.04196 4.18602 1.45796 6.70302 1.39396 9.81903C1.32996 12.936 1.25396 18.775 6.69496 20.359H6.69996L6.69496 22.778C6.69496 22.778 6.65796 23.758 7.28396 23.955C7.99996 24.187 8.32396 23.732 10.551 21.072C14.275 21.395 17.135 20.655 17.46 20.547C18.212 20.295 22.467 19.732 23.155 13.893ZM10.918 19.37C10.918 19.37 8.56096 22.309 7.82796 23.072C7.58796 23.32 7.32496 23.297 7.32896 22.805C7.32896 22.482 7.34696 18.789 7.34696 18.789C2.73396 17.467 3.00596 12.495 3.05596 9.89402C3.10596 7.29202 3.58196 5.16102 4.98596 3.72602C8.22496 0.689025 17.362 1.36802 19.69 3.55602C22.536 6.07902 21.523 13.207 21.529 13.45C20.944 18.324 17.496 18.633 16.862 18.844C16.591 18.934 14.076 19.581 10.918 19.37Z" fill="#8B66A9"/>
<path d="M12.222 4.29688C11.837 4.29688 11.837 4.89688 12.222 4.90188C15.209 4.92488 17.669 7.00688 17.696 10.8259C17.696 11.2289 18.286 11.2239 18.281 10.8209H18.28C18.248 6.70588 15.562 4.31988 12.222 4.29688Z" fill="#8B66A9"/>
<path d="M16.151 10.193C16.142 10.591 16.731 10.61 16.736 10.207C16.785 7.93804 15.3859 6.06904 12.7569 5.87204C12.3719 5.84404 12.3319 6.44904 12.7159 6.47704C14.9959 6.65004 16.197 8.20604 16.151 10.193Z" fill="#8B66A9"/>
<path d="M15.521 12.7741C15.027 12.4881 14.524 12.6661 14.316 12.9471L13.881 13.5101C13.66 13.7961 13.247 13.7581 13.247 13.7581C10.233 12.9611 9.42697 9.8071 9.42697 9.8071C9.42697 9.8071 9.38997 9.3801 9.66597 9.1511L10.21 8.7011C10.482 8.4851 10.654 7.9651 10.377 7.4541C9.63696 6.1171 9.13997 5.6561 8.88697 5.3021C8.62097 4.9691 8.22097 4.8941 7.80497 5.1191H7.79597C6.93097 5.6251 5.98397 6.5721 6.28697 7.5471C6.80397 8.5751 7.75397 11.8521 10.782 14.3281C12.205 15.4991 14.457 16.6991 15.413 16.9761L15.422 16.9901C16.364 17.3041 17.28 16.3201 17.769 15.4291V15.4221C17.986 14.9911 17.914 14.5831 17.597 14.3161C17.035 13.7681 16.187 13.1631 15.521 12.7741Z" fill="#8B66A9"/>
<path d="M13.169 8.10417C14.13 8.16017 14.596 8.66217 14.646 9.69317C14.664 10.0962 15.249 10.0682 15.231 9.66517C15.167 8.31917 14.465 7.56917 13.201 7.49917C12.816 7.47617 12.78 8.08117 13.169 8.10417Z" fill="#8B66A9"/>
</g>
<defs>
<clipPath id="clip0">
<rect width="24" height="24" fill="white"/>
</clipPath>
</defs>
</svg>
