<svg width="15" height="9" viewBox="0 0 15 9" fill="none" xmlns="http://www.w3.org/2000/svg">
<path d="M14.3786 7.29012C13.932 6.72219 13.4065 6.23749 12.9092 5.7228C12.4605 5.25886 12.4323 4.98973 12.7929 4.45427C13.1865 3.86986 13.6098 3.30786 14.007 2.72609C14.3777 2.18239 14.7567 1.64017 14.9518 0.989178C15.0755 0.575015 14.9661 0.392078 14.5655 0.319563C14.4965 0.306873 14.4251 0.306213 14.3549 0.306213L11.9782 0.303247C11.6855 0.298632 11.5236 0.43394 11.4201 0.709005C11.2804 1.08081 11.1363 1.45229 10.9698 1.81108C10.592 2.62457 10.1701 3.41087 9.57866 4.07669C9.44823 4.22354 9.30398 4.40911 9.08604 4.33264C8.81338 4.22716 8.73301 3.75087 8.73752 3.58985L8.73518 0.681482C8.68233 0.266 8.59544 0.080756 8.20634 0L5.73749 0.000494467C5.40793 0.000494467 5.24269 0.135472 5.06672 0.354008C4.96521 0.480251 4.93459 0.56216 5.1432 0.604022C5.55297 0.686426 5.78381 0.967588 5.84506 1.40318C5.9433 2.09916 5.93646 2.79795 5.87988 3.49673C5.86325 3.70077 5.83014 3.9043 5.75381 4.09482C5.63442 4.39428 5.44167 4.45526 5.18844 4.271C4.95915 4.10422 4.7981 3.86887 4.64048 3.63254C4.04837 2.74554 3.57596 1.78899 3.19075 0.783828C3.07945 0.493436 2.88747 0.31742 2.59724 0.312641C1.88419 0.30061 1.17099 0.298632 0.457941 0.3133C0.0288987 0.32187 -0.0990367 0.542713 0.0756891 0.955063C0.852317 2.78658 1.71677 4.56716 2.84519 6.1892C3.42455 7.02165 4.08972 7.75653 4.94905 8.27732C5.92294 8.86767 6.97129 9.04533 8.07546 8.99061C8.59248 8.9649 8.74778 8.82234 8.77172 8.27601C8.78788 7.90222 8.82783 7.53058 9.00178 7.1947C9.17247 6.86508 9.43098 6.80229 9.72898 7.00731C9.87805 7.10999 10.0037 7.24068 10.1223 7.37846C10.4133 7.71599 10.6939 8.06373 10.9959 8.38989C11.3747 8.79861 11.8235 9.04006 12.3878 8.99078L14.5722 8.99127C14.9241 8.96688 15.1066 8.50937 14.9045 8.0929C14.7626 7.80119 14.5764 7.54146 14.3786 7.29012Z" fill="#009846"/>
</svg>
