<svg width="142" height="69" viewBox="0 0 142 69" fill="none" xmlns="http://www.w3.org/2000/svg">
<g clip-path="url(#clip0)">
<path fill-rule="evenodd" clip-rule="evenodd" d="M86.2597 10.9265H97.7269V11.2019H94.6748V35.875C94.6748 39.7269 98.7435 42.1117 102.165 42.1117C105.956 42.1117 109.194 39.4522 109.194 35.6916V11.2019H105.587V10.9265H135.18V22.2996H134.904C134.626 19.3646 133.978 16.2463 131.944 13.8615C129.723 11.4766 126.857 11.2012 123.897 11.2012H120.66V25.9682C121.401 25.9682 122.048 26.0595 122.695 26.0595C126.671 26.0595 127.781 23.3079 127.966 19.9141H128.244V32.8465H127.966C127.411 29.7281 126.024 26.4263 122.418 26.4263C121.863 26.4263 121.307 26.4263 120.66 26.5176V42.2937H125.562C127.966 42.2937 130.462 41.1933 132.221 39.4507C133.7 37.9829 134.809 36.0562 135.179 34.0389C135.365 32.8465 135.457 31.6541 135.457 30.5537H135.735V42.5691H112.615V42.2937H115.39V11.2019H109.656V35.7837C109.656 40.828 104.754 43.0294 100.223 43.0294C95.1367 43.0294 89.4023 40.5526 89.4023 34.7746V11.2019H86.2582V10.9265H86.2597ZM6.26477 10.9265H17.6399V11.2019H14.8655L23.3735 34.3158L30.5863 11.2019H27.7199V10.9265H33.8233V11.2019H31.1418L20.969 43.2128L9.22402 11.2019H6.26477V10.9265ZM44.366 43.4883C40.5743 43.4883 36.8754 41.4702 34.563 38.5353C31.8807 35.2327 30.5863 31.014 30.5863 26.7953C30.5863 22.8513 31.7886 18.8159 34.286 15.6055C36.6905 12.4871 40.2973 10.1944 44.4588 10.1944C48.2505 10.1944 51.7645 12.3958 54.0769 15.1474C56.7585 18.4492 58.0536 22.6679 58.0536 26.8873C58.0536 30.9227 56.8513 34.8667 54.4468 38.0771C52.0415 41.1948 48.3426 43.4883 44.366 43.4883ZM52.3192 26.7946C52.3192 22.209 50.5622 10.6517 44.366 10.6517C37.9848 10.6517 36.3207 22.2083 36.3207 26.7946C36.3207 31.4721 37.9848 43.0294 44.366 43.0294C50.5622 43.0294 52.3192 31.4721 52.3192 26.7946ZM83.114 10.285V21.4747H82.8378C82.3744 19.2733 81.6348 17.164 80.4318 15.238C79.0446 12.9445 76.8257 10.4683 73.8664 10.4683C67.2076 10.4683 66.5608 22.3004 66.5608 26.8866C66.5608 30.922 66.9306 35.1414 68.4106 38.9941C69.4279 41.6544 70.9079 42.9374 73.7751 42.9374C75.994 42.9374 78.3978 41.837 79.6008 39.9103C79.8785 39.4522 79.8785 38.9013 79.8785 38.3511V29.7295H76.9185V29.3628H87.6461V29.7295H85.148V42.5706H84.9638C84.3163 41.5616 83.2989 40.828 82.0959 40.828C81.0786 40.828 80.2469 41.1948 79.4137 41.6536L78.674 42.0204C77.0091 42.754 75.4378 43.2128 73.588 43.2128C65.2649 43.2128 60.8264 34.4992 60.8264 27.1613C60.8264 21.8415 62.9532 16.0636 67.3004 12.7611C69.2423 11.2019 71.6461 10.1016 74.1442 10.1016C75.1615 10.1016 76.0868 10.4683 77.0106 10.7438L77.6581 11.1106C78.4913 11.294 79.231 11.6608 80.1562 11.6608C81.08 11.6608 82.0974 10.9272 82.8385 10.285H83.114Z" fill="black"/>
<path fill-rule="evenodd" clip-rule="evenodd" d="M57.7751 48.8079C56.1109 51.3761 55.3706 50.7338 55.6483 48.5324C56.1102 45.3212 61.0113 39.3599 63.231 37.6181C66.9306 34.499 57.8679 48.6237 57.7751 48.8079Z" fill="white"/>
<path fill-rule="evenodd" clip-rule="evenodd" d="M76.9185 41.4703C76.1789 41.5617 75.4393 41.0115 75.2536 40.2772V40.1859C74.2363 42.2952 73.1268 44.4967 72.0159 46.7894C71.1849 48.5327 70.3517 50.184 69.4272 52.0179C68.4098 54.2193 67.4853 55.4117 66.7457 55.9612C66.006 56.6034 65.1736 56.6034 64.526 56.2366C63.9713 55.9612 63.6015 55.411 63.4166 54.6767C63.0468 53.4843 63.0468 51.4663 63.4166 49.0822C63.4166 48.8075 63.6936 45.0468 63.6936 44.6801C62.2143 46.0559 55.0007 62.1987 52.0415 61.4651C51.1169 61.0063 50.5622 59.9972 50.3773 58.6214C50.1003 56.1446 51.2098 51.5591 53.9841 46.2393C54.2611 45.597 54.6309 45.0468 54.9087 44.588C55.2785 43.9458 55.5555 43.3956 55.9253 42.8454H56.0181C56.2951 42.2945 56.6649 41.8364 57.0354 41.2855C52.9668 45.1374 48.9894 50.3666 45.4754 54.8601C41.6837 59.8131 38.5396 63.9412 36.135 65.1337V65.225C34.8407 65.7752 33.6384 65.5004 32.7131 64.8582C32.6211 64.7669 32.4361 64.5835 32.2505 64.4914C32.1584 64.308 32.0656 64.216 31.8807 64.0326C27.9048 58.7128 31.7886 47.6143 36.3199 40.4599C37.7071 38.3505 39.0943 36.5166 40.2965 35.3242C41.8686 33.765 43.3486 33.0307 44.5502 33.2141C45.6596 33.3062 46.4 34.0397 46.7698 35.3242C47.1396 36.792 46.9547 38.8101 46.4 40.2765C46.1222 40.9187 45.8452 41.4696 45.3826 41.9277C44.8279 42.4786 44.1803 42.7534 43.3479 42.662C42.7003 42.57 42.0535 42.2945 41.406 41.653C40.8513 41.1021 40.8513 40.1851 41.406 39.635C41.9607 39.0848 42.8853 39.0848 43.4407 39.635C43.4407 39.7263 43.5328 39.7263 43.5328 39.7263C43.6485 39.6007 43.7142 39.4376 43.7177 39.2675C44.1803 38.3505 44.2724 36.9747 43.9954 36.057C43.9954 35.9657 44.2724 35.9657 44.1803 35.9657C43.9026 35.8736 43.2558 36.4245 42.3305 37.2494C41.2211 38.3505 39.926 40.0018 38.7237 41.927C34.1924 50.5493 32.3426 61.1882 35.2098 61.5557C37.5215 61.8304 49.729 45.4122 58.514 37.4321C60.8264 35.4141 62.8604 33.9469 64.4325 33.3968H64.7095C66.6514 33.2134 67.5759 34.3144 67.7616 35.9657C67.8536 37.1581 67.4838 38.8094 66.9291 40.4591C66.3744 44.3118 66.1895 46.88 66.1895 50.7327C67.5766 48.5313 68.3163 47.889 69.4265 45.5963C76.1782 31.6549 81.1721 21.1987 97.6326 14.6865C98.3737 14.4117 99.2054 14.7778 99.4831 15.5121C99.7608 16.2464 99.391 17.0713 98.6499 17.3467C86.5366 22.1164 80.9865 29.3621 75.9925 38.8093C76.0861 38.7173 76.2702 38.7173 76.4559 38.6252C78.305 38.3505 80.0619 37.9837 81.9118 37.6169L82.7435 34.8646C85.3336 27.16 88.7548 22.2077 93.194 20.8312C93.9337 20.5557 94.6748 21.0146 94.951 21.7481C95.1367 22.4817 94.7669 23.3073 94.0272 23.4907C90.5125 24.5911 87.7382 28.9018 85.4257 35.7816C85.3336 36.1484 85.2416 36.5151 85.148 36.8819C86.351 36.5151 87.5525 36.2397 88.7548 35.8729C90.6788 35.3342 92.5904 34.7532 94.4884 34.1303C94.674 33.9469 94.7661 33.7635 94.9503 33.5794C95.6104 32.7425 96.3211 31.9461 97.0786 31.1946C97.9103 30.461 98.6499 29.7275 99.391 29.1766V29.0852C101.332 27.6181 103.274 27.0672 104.477 27.3426C105.309 27.4347 105.864 27.8015 106.234 28.3517C106.696 28.9018 106.882 29.6361 106.604 30.4618C106.234 31.5621 105.031 32.9386 102.535 34.2216L102.442 34.3137C100.315 35.1393 98.2808 35.8729 96.2461 36.5151C93.5639 40.001 91.8997 43.7609 93.7495 46.0544C95.9684 48.6226 99.391 47.1555 102.719 44.6786C106.512 41.7429 109.934 37.5242 111.505 35.5061C111.968 34.9559 112.892 34.8639 113.54 35.3227C114.095 35.7816 114.281 36.6985 113.725 37.2487C112.153 39.3588 108.454 43.7609 104.478 46.88C99.9457 50.2739 95.0446 52.1078 91.5299 47.797C89.4031 45.1367 90.0506 41.3768 91.9933 37.8909C91.1601 38.0743 90.3284 38.3498 89.5872 38.5332C87.7382 39.0841 85.9812 39.5422 84.2249 40.001C82.3744 46.6966 80.9872 55.0435 79.8785 64.7662C79.8785 65.4997 79.1389 66.0499 78.3978 65.9585C77.5661 65.8665 77.0106 65.2243 77.1042 64.3986C78.1215 55.3182 79.4151 47.2468 81.0793 40.6433L76.9185 41.4703ZM55.7411 50.184C55.8332 50.184 55.8332 50.184 55.9253 50.2753H56.0181C56.1102 50.2753 56.2951 50.184 56.48 49.9999C57.1275 49.3584 58.1449 47.8905 59.1623 46.3313C59.9019 45.0476 60.6415 43.7631 61.2891 42.7541C61.5668 42.2039 61.8438 41.7451 62.1215 41.3783C62.1215 41.3783 62.2136 41.1949 62.3064 40.9194C62.8611 39.9104 64.0634 37.5256 63.8785 37.3422C63.6936 37.1588 62.4913 38.3512 62.0287 38.9014C61.9366 39.0855 61.8438 39.1769 61.8438 39.1769C61.6589 39.3603 61.3819 39.727 60.9192 40.1859C59.9019 41.4704 58.1449 43.7631 56.8505 45.7804C56.2958 46.7894 55.8332 47.7071 55.6483 48.5327C55.4634 49.2663 55.4634 49.8165 55.7411 50.184ZM104.107 23.951C103.367 23.4008 103.183 22.3918 103.737 21.6583C103.922 21.2915 104.2 20.9247 104.478 20.5572C108.916 14.4117 113.54 7.89953 116.685 6.15768C118.534 5.0566 120.107 5.14866 121.123 6.98258C121.585 7.8082 121.307 8.81722 120.476 9.27606C119.736 9.73418 118.719 9.45945 118.255 8.63383C118.163 8.45044 118.349 8.90855 118.349 9.00061C114.281 9.55079 106.513 21.2915 104.107 23.951ZM100.223 32.1145C100.593 32.0231 100.963 31.8398 101.333 31.7477C102.536 31.1062 103.276 30.5553 103.645 30.0972C102.998 30.1885 102.166 30.5553 101.149 31.2896V31.3809C100.871 31.5643 100.593 31.839 100.223 32.1145Z" fill="#CC2229"/>
</g>
<defs>
<clipPath id="clip0">
<rect width="142" height="69" fill="white"/>
</clipPath>
</defs>
</svg>
