<svg width="84" height="34" viewBox="0 0 84 34" fill="none" xmlns="http://www.w3.org/2000/svg">
<path fill-rule="evenodd" clip-rule="evenodd" d="M69.9859 33.3527V17.6877H60.8159V33.3527H69.9859ZM69.9859 16.393H60.8159V0.728027H69.9859V16.393ZM81.7757 17.6993C82.9816 19.4104 83.7356 21.4682 83.7356 23.5606C83.7356 28.9476 79.3186 33.3527 73.9156 33.3527H71.2962V17.6877L81.7757 17.6993ZM71.2962 16.393L80.6054 16.4162C79.7706 15.6416 78.6342 14.8901 77.5327 14.4857C79.8054 13.1678 81.2773 10.7168 81.2773 8.06912C81.2773 4.05777 77.9391 0.728027 73.9156 0.728027H71.2962V16.393ZM44.4463 33.3527H35.2991V17.6877H44.4463V33.3527ZM44.4463 16.393H35.2991V0.728027H44.4463V16.393ZM45.7562 33.3527V17.6877L56.2365 17.6993C57.4416 19.4104 58.1956 21.4682 58.1956 23.5606C58.1956 28.9476 53.7786 33.3527 48.3765 33.3527H45.7562ZM45.7562 16.393V0.728027H48.3765C52.3991 0.728027 55.7493 4.05732 55.7493 8.06912C55.7493 10.7168 54.2654 13.1674 51.9927 14.4857C53.0942 14.8901 54.2306 15.6416 55.0654 16.4162L45.7562 16.393ZM15.9849 16.393H6.22332L11.7187 0.728472H15.9849V16.393ZM27.0447 16.393L21.5382 0.728027H17.2952V16.3926H27.0447V16.393ZM33.0036 33.3527H24.8188L22.5349 26.8325H17.2948V17.6877H27.5087L33.0036 33.3527ZM0.264404 33.3527H8.44966L10.7452 26.8325H15.9853V17.6877H5.77136L0.264404 33.3527Z" fill="#CC2229"/>
</svg>
