<svg width="121" height="57" viewBox="0 0 121 57" fill="none" xmlns="http://www.w3.org/2000/svg">
<g clip-path="url(#clip0)">
<path fill-rule="evenodd" clip-rule="evenodd" d="M-0.00160286 14.1195V40.019C0.0383212 40.8341 0.330855 41.6173 0.836248 42.2622C1.34164 42.907 2.03538 43.3822 2.82321 43.6232C20.4737 51.9057 39.6757 56.454 59.2027 56.9773C79.9557 56.6606 100.387 51.8501 119.061 42.8839C119.649 42.5182 120.13 42.0051 120.454 41.3965C120.778 40.788 120.933 40.1055 120.905 39.4183V15.3902C121.185 11.9939 118.967 10.5614 116.049 9.38314C96.719 1.50469 75.5446 0.00292969 55.1873 0.00292969C37.2169 0.151442 19.4246 3.54156 2.68314 10.0069C1.8697 10.3458 1.1784 10.9195 0.699464 11.6532C0.220528 12.3868 -0.0237918 13.2463 -0.00160286 14.1195Z" fill="white"/>
<path fill-rule="evenodd" clip-rule="evenodd" d="M1.77429 15.5504V38.8624C1.82916 39.623 2.12488 40.3472 2.61942 40.932C3.11395 41.5168 3.78215 41.9325 4.52906 42.12C21.8078 49.605 40.3949 53.6858 59.251 54.1341C79.3089 53.8712 99.0999 49.5467 117.405 41.4269C117.965 41.121 118.43 40.668 118.747 40.1177C119.064 39.5674 119.222 38.9411 119.202 38.3079V16.7056C119.459 13.6559 117.335 12.3621 114.533 11.2993C95.7168 4.2064 75.126 2.86637 55.3523 2.84326C37.9715 2.96867 20.7385 6.01553 4.38899 11.8538C3.62017 12.1264 2.95576 12.6284 2.48743 13.2905C2.0191 13.9526 1.76993 14.7422 1.77429 15.5504Z" fill="#005CA2"/>
<path d="M1.77429 2.84326H119.249V54.1341H1.77429V2.84326Z" fill="url(#paint0_radial)"/>
<path fill-rule="evenodd" clip-rule="evenodd" d="M95.2265 38.8624C96.6273 37.9152 95.4367 36.2055 93.8725 36.9679C71.9977 47.5495 50.1696 47.642 27.9446 37.1296C24.4194 35.4661 24.7696 38.1462 26.2404 39.0935C51.2435 55.2663 73.9587 53.5104 95.2265 38.8624Z" fill="#D52330"/>
<path fill-rule="evenodd" clip-rule="evenodd" d="M15.0112 18.9006H16.5987C18.3542 18.8566 20.0623 19.4668 21.3846 20.6103C21.9583 21.1963 22.3972 21.8983 22.6712 22.6679C22.9452 23.4376 23.0479 24.2568 22.972 25.0693C22.9804 26.0999 22.6959 27.1121 22.151 27.9904C21.6062 28.8686 20.8229 29.5777 19.8904 30.0367C18.3601 30.7381 16.6598 30.9945 14.9879 30.776V18.9006H15.0112ZM37.7965 26.4556C37.0825 23.8987 35.9721 21.467 34.5047 19.2471C33.0455 21.4714 31.9356 23.9019 31.213 26.4556H37.8198H37.7965ZM32.6838 15.9433H36.4658C40.131 19.9634 42.3955 25.8318 43.1426 33.5947H39.0571C38.9482 32.2393 38.7848 30.9454 38.5669 29.7132H30.3492C30.1196 30.998 29.9559 32.2935 29.859 33.5947H25.9369C26.8708 25.6931 29.0886 19.7323 32.6838 15.9433ZM43.843 33.5947H47.7417V21.5806C51.4452 24.8077 54.1963 28.9674 55.7025 33.6178H59.181V15.9433H55.2823V24.4686C53.0238 21.2232 50.2669 18.3467 47.1113 15.9433H43.843V33.5947ZM78.8613 33.5947H82.76V21.5806C86.4636 24.8077 89.2146 28.9674 90.7208 33.6178H94.316V15.9433H90.394V24.4686C88.1355 21.2232 85.3786 18.3467 82.2231 15.9433H78.9547V33.5947H78.8613ZM69.0562 15.4119C71.5084 15.4963 73.8285 16.5326 75.5148 18.2966C77.2011 20.0606 78.1181 22.4105 78.0675 24.8383C78.1297 26.0461 77.943 27.2538 77.5188 28.3879C77.0946 29.5221 76.4418 30.559 75.5999 31.4356C74.7581 32.3122 73.7449 33.0103 72.622 33.4873C71.4991 33.9642 70.2898 34.2102 69.0678 34.2102C67.8458 34.2102 66.6366 33.9642 65.5137 33.4873C64.3907 33.0103 63.3775 32.3122 62.5357 31.4356C61.6939 30.559 61.041 29.5221 60.6168 28.3879C60.1926 27.2538 60.0059 26.0461 60.0681 24.8383C60.0174 22.4144 60.9312 20.0678 62.6126 18.3044C64.2939 16.5411 66.6081 15.5023 69.0562 15.4119ZM69.0562 18.9006C70.5635 18.9841 71.9758 19.6563 72.9826 20.7697C73.9894 21.8831 74.5084 23.3464 74.4256 24.8383C74.4954 25.5778 74.4084 26.3235 74.1703 27.0278C73.9322 27.7321 73.5481 28.3795 73.0427 28.9285C72.5373 29.4776 71.9217 29.9162 71.2353 30.2163C70.5488 30.5164 69.8066 30.6714 69.0562 30.6714C68.3057 30.6714 67.5635 30.5164 66.877 30.2163C66.1906 29.9162 65.575 29.4776 65.0696 28.9285C64.5642 28.3795 64.1801 27.7321 63.942 27.0278C63.7039 26.3235 63.6169 25.5778 63.6867 24.8383C63.6039 23.3464 64.1229 21.8831 65.1297 20.7697C66.1365 19.6563 67.5488 18.9841 69.0562 18.9006ZM108.043 23.1055H99.2186C99.3355 21.9434 99.8721 20.862 100.73 20.0599C101.587 19.2578 102.709 18.7887 103.888 18.7388C104.454 18.7444 105.013 18.863 105.531 19.0877C106.05 19.3123 106.517 19.6383 106.905 20.0461C107.293 20.4539 107.594 20.9351 107.79 21.4609C107.985 21.9866 108.072 22.546 108.043 23.1055ZM111.382 30.1984L107.623 29.2974C107.152 29.7776 106.585 30.1552 105.957 30.4058C105.33 30.6565 104.657 30.7747 103.981 30.7529C102.716 30.7777 101.492 30.3055 100.577 29.4395C99.6631 28.5735 99.1325 27.3843 99.1019 26.1321H111.522C111.702 25.126 111.765 24.1027 111.708 23.0824C111.607 21.1599 110.915 19.314 109.724 17.7916C108.993 16.9731 108.077 16.3372 107.051 15.9357C106.024 15.5342 104.916 15.3785 103.818 15.4812C102.66 15.4555 101.511 15.6729 100.444 16.1189C99.3778 16.5649 98.4191 17.2295 97.6311 18.0688C95.932 20.087 95.0945 22.6811 95.2966 25.3004C95.2369 26.5998 95.4511 27.8973 95.9253 29.1104C96.3996 30.3235 97.1236 31.4257 98.0513 32.3471C98.7781 33.0195 99.6343 33.5399 100.569 33.8773C101.504 34.2148 102.497 34.3622 103.491 34.3109C105.042 34.3223 106.573 33.9601 107.952 33.2558C109.331 32.5515 110.516 31.526 111.405 30.2677L111.382 30.1984ZM10.7156 15.8277C11.5327 17.9995 11.0658 26.7328 11.0658 29.8519C11.0658 32.4395 10.9257 33.8257 10.9257 33.8257C12.4639 34.1205 14.0283 34.2598 15.5949 34.2416C18.3823 34.2802 21.1054 33.4116 23.3456 31.7695C24.4576 30.8733 25.3412 29.731 25.9251 28.4347C26.5091 27.1384 26.777 25.7245 26.7073 24.3069C26.8121 22.8582 26.5126 21.4089 25.8415 20.1173C25.1704 18.8257 24.1536 17.7414 22.902 16.9829C20.4005 15.7303 17.5926 15.2017 14.8011 15.4581C13.4336 15.5097 12.0699 15.6331 10.7156 15.8277Z" fill="white"/>
</g>
<defs>
<radialGradient id="paint0_radial" cx="0" cy="0" r="1" gradientUnits="userSpaceOnUse" gradientTransform="translate(60.6448 44.7534) scale(34.4221 37.9224)">
<stop offset="0.23" stop-color="white"/>
<stop offset="1" stop-color="#1B5CA4"/>
</radialGradient>
<clipPath id="clip0">
<rect width="121" height="57" fill="white"/>
</clipPath>
</defs>
</svg>
