<svg width="153" height="70" viewBox="0 0 153 70" fill="none" xmlns="http://www.w3.org/2000/svg">
<g clip-path="url(#clip0)">
<path fill-rule="evenodd" clip-rule="evenodd" d="M12.9699 12.7212L11.5919 19.7356H24.7007L7.96609 34.9201L6.75006 41.6833H33.5756L35.056 34.8706H20.5208L37.0411 19.7356L38.4723 12.7212H12.9699ZM38.881 20.085L47.6536 20.1902L49.1331 32.6992L54.6925 20.1894H63.161L51.889 41.8851C50.2523 45.1627 47.6036 48.6444 44.4349 48.6931L36.7363 48.6444L37.7555 42.3396L40.5098 42.3883C41.3742 42.236 42.6013 41.6315 42.5521 40.3197L38.881 20.085ZM65.759 12.7706L76.5214 12.7212L79.5313 19.4836L85.2416 12.7212L96.1072 12.7706L83.5636 27.2046L90.8518 41.7783L80.0909 41.7328L76.5699 34.6681L70.8104 41.8341L59.482 41.7783L72.5956 26.8992L65.759 12.7706ZM98.9647 12.7212L93.5093 41.7783L117.888 41.8341L119.013 34.9201L104.524 34.8706L105.288 30.7852L117.021 30.8347L118.454 24.0228H106.72L107.28 20.2412L121.258 20.085L122.534 12.7212H98.9647ZM127.634 13.1781L122.425 42.1371H145.074L146.25 35.0253L133.548 35.0732L137.117 13.1781H127.634Z" fill="#0088CC"/>
<path fill-rule="evenodd" clip-rule="evenodd" d="M7.0025 53.2355H9.14404V60.7539H9.95843V53.2355H12.1063V52.3727H7.0025V53.2355ZM34.5472 60.7539L34.4908 52.3727H33.6757V60.7539H34.5472ZM73.4108 60.7539H74.3315L74.9427 58.3304H77.5415L78.2066 60.7539H79.121L76.8818 52.3719H75.6571L73.4108 60.7539ZM77.5407 57.4763L75.2443 57.525L76.3127 53.0321L77.5407 57.4763ZM111.919 54.5952C111.919 53.0321 111.105 52.2251 109.526 52.2251C108.959 52.2251 108.352 52.4771 107.937 52.8767C107.534 53.2355 107.331 53.7881 107.331 54.5449C107.331 54.8943 107.331 55.3504 107.486 55.6526C107.633 55.9023 107.937 56.3113 108.299 56.4063C108.511 56.5622 108.755 56.6687 109.014 56.7179C109.319 56.8632 109.623 57.0178 109.83 57.0696C109.978 57.0696 110.182 57.2227 110.339 57.2227C110.489 57.3208 110.692 57.4747 110.798 57.5234C110.849 57.6215 110.998 57.7267 111.104 57.8735C111.104 58.0266 111.153 58.3783 111.153 58.679C111.153 59.1327 110.946 59.5896 110.692 59.7914C110.438 59.9971 109.978 60.1415 109.525 60.1415C108.957 60.1415 108.446 59.9406 108.298 59.5896C108.175 59.3908 108.104 59.1641 108.094 58.931C108.094 58.679 107.994 58.3775 107.994 58.1255H107.171V58.931C107.171 59.1327 107.278 59.435 107.329 59.6375C107.532 60.1415 107.936 60.5992 108.349 60.7523C108.701 60.8489 109.161 60.9493 109.524 60.9493C111.152 60.9493 112.017 60.0913 112.017 58.4827C112.017 57.9772 111.966 57.4739 111.762 57.1654C111.508 56.8608 110.997 56.5138 110.288 56.21C109.93 56.0569 109.468 55.8552 109.014 55.7068C108.809 55.6503 108.604 55.3975 108.446 55.2507C108.35 55.0976 108.298 54.8919 108.298 54.592V54.088C108.298 53.9404 108.446 53.7355 108.505 53.5824C108.604 53.4333 108.809 53.2794 108.957 53.2323C109.112 53.1263 109.368 53.0792 109.673 53.0792C110.132 53.0792 110.488 53.2802 110.692 53.5322C110.848 53.785 110.946 54.1924 110.946 54.592H111.919V54.5952ZM11.7452 57.2235C11.7452 57.7275 11.8491 58.2292 11.8491 58.6798C11.8491 59.0841 12 59.4939 12.1555 59.8432C12.2524 60.191 12.5588 60.5027 12.812 60.6958C13.0199 60.8496 13.4779 61.0059 13.9399 61.0059C14.3987 61.0059 14.8543 60.8504 15.0606 60.6958C15.3623 60.5027 15.6202 60.191 15.7234 59.8432C15.8734 59.4939 16.0266 59.0833 16.0266 58.6798C16.0806 58.2292 16.0806 57.7754 16.0806 57.3216V56.1079C16.0201 55.734 15.9345 55.3645 15.8242 55.0018C15.6774 54.6996 15.3623 54.3895 15.1646 54.1956C14.8543 54.0433 14.3987 53.836 13.9399 53.836C13.4779 53.836 13.0199 54.0433 12.812 54.1956C12.5095 54.3895 12.2516 54.7004 12.1555 55.0018C12 55.3504 11.8491 55.7594 11.8491 56.1079C11.7452 56.4628 11.7452 56.9134 11.7452 57.3216V57.2235ZM15.3623 57.3216C15.3623 58.2292 15.2646 59.0841 15.0606 59.5433C14.9598 60.0481 14.5503 60.3464 13.9399 60.3464C13.3231 60.3464 12.9183 60.0473 12.812 59.5433C12.6175 59.0841 12.5095 58.2292 12.5095 57.3216C12.5095 56.5625 12.6175 55.8575 12.812 55.4006C12.9699 54.8943 13.3787 54.5449 13.9399 54.5449C14.4979 54.5449 14.9114 54.8943 15.0606 55.4006C15.2646 55.8575 15.3623 56.5625 15.3623 57.3216ZM16.9506 54.6996H18.6794V60.8033H19.3437V54.6996H21.0797V53.9436H16.9506V54.6996ZM21.0797 60.8041H21.8925L22.3552 58.8336H24.4444L25.0047 60.8041H25.7683L23.934 53.9444H22.964L21.0797 60.8041ZM24.4452 58.1271L22.6108 58.1758L23.5244 54.497L24.4452 58.1271ZM30.2602 60.8041V60.1431H27.4574V53.9444H26.7891V60.8041H30.2602ZM39.3343 59.5433V60.3959C39.2851 60.0929 39.1383 59.7922 39.0803 59.6391L37.1459 53.9436H36.0204V60.8033H36.6864V55.3998V54.3408C36.6864 54.4962 36.788 54.7475 36.788 54.8935C36.788 55.0513 36.9435 55.2522 36.9904 55.3998L38.7747 60.8033H40.0011V53.9436H39.3343V59.5433ZM41.021 54.6996H42.7577V60.8033H43.4174V54.6996H45.1533V53.9436H41.021V54.6996ZM49.4887 60.8041V60.1431H46.8392V57.5697H49.3403V56.9142H46.8392V54.7004H49.4887V53.9444H46.1725V60.8041H49.4887ZM51.6835 54.6996H52.6558C52.7542 54.6996 53.009 54.7482 53.1074 54.7482C53.2154 54.7482 53.4194 54.7985 53.5202 54.8472C53.6758 54.895 53.8234 55.0999 53.8718 55.2036C54.0298 55.3512 54.079 55.6526 54.079 55.9031C54.079 56.1582 54.0298 56.4636 53.8718 56.5633C53.8434 56.644 53.7971 56.7174 53.7362 56.7781C53.6754 56.8389 53.6016 56.8853 53.5202 56.9142C53.4194 57.0186 53.2154 57.1175 53.1074 57.1175C53.009 57.1175 52.8519 57.1678 52.7534 57.1678H51.6343L51.6835 54.6996ZM51.6835 57.8248H52.9598C53.313 57.8248 53.675 58.0282 53.8226 58.2299C53.9766 58.4851 54.0782 58.7842 54.0782 59.1343C54.0782 59.3879 54.1274 59.6886 54.1274 59.9987C54.1274 60.3472 54.233 60.6479 54.233 60.8041H55.1474V60.6966C55.0974 60.6966 54.9958 60.549 54.9958 60.5034C54.9958 60.3959 54.891 60.2978 54.891 60.1926C54.8418 59.7451 54.7442 59.183 54.7442 58.7363C54.7442 58.3312 54.5394 57.9803 54.4402 57.7762C54.3322 57.5697 53.9758 57.4763 53.5186 57.4763V57.4205C54.3322 57.3224 54.7942 56.7666 54.8418 55.9031C54.8418 55.2036 54.6354 54.5952 54.2322 54.3895C53.8702 54.1414 53.3122 53.9444 52.6542 53.9444H50.9667V60.8041H51.6335L51.6835 57.8248ZM59.7956 59.5433V60.3959C59.7376 60.0929 59.5916 59.7922 59.5392 59.6391L57.6493 53.9436H56.4801V60.8033H57.1381V55.3998V54.3408C57.1381 54.4962 57.2453 54.7475 57.2453 54.8935C57.2453 55.0513 57.3945 55.2522 57.4437 55.3998L59.2281 60.8033H60.4528V53.9436H59.7948V59.5433H59.7956ZM65.3502 60.8041V60.1431H62.7015V57.5697H65.1502V56.9142H62.7015V54.7004H65.3502V53.9444H62.034V60.8041H65.3502ZM66.113 54.6996H67.849V60.8033H68.5165V54.6996H70.2509V53.9436H66.1138V54.6996H66.113ZM83.5636 56.1079C83.5636 55.505 83.4073 55.0018 83.1032 54.5449C82.7977 54.1956 82.2365 53.8886 81.6197 53.8886C81.2149 53.8886 80.8093 54.0912 80.5513 54.2442C80.2958 54.4452 79.9918 54.7482 79.8846 55.0999C79.787 55.4564 79.629 55.8575 79.629 56.2124C79.629 56.5625 79.5822 57.0704 79.5822 57.4198V58.6798C79.5822 59.0841 79.737 59.4939 79.8362 59.8432C79.9417 60.191 80.2458 60.5027 80.5013 60.7531C80.7553 60.9501 81.2141 61.053 81.6705 61.053C82.2857 61.053 82.7977 60.8033 83.1032 60.3464C83.2009 60.0929 83.4073 59.8432 83.4073 59.6391C83.4565 59.3879 83.5144 59.0841 83.5144 58.8336V58.4286H82.8477C82.8477 58.533 82.7985 58.7834 82.7985 58.8823C82.7985 59.0354 82.7492 59.289 82.7492 59.4358C82.7492 59.5433 82.5929 59.7922 82.4952 59.8895C82.4381 60.0473 82.2873 60.1423 82.1817 60.1918C82.0825 60.3464 81.8285 60.3959 81.6205 60.3959C81.3197 60.3959 81.0109 60.1918 80.8561 60.0481C80.6498 59.793 80.5029 59.4947 80.5029 59.1822C80.4537 58.8823 80.3958 58.533 80.3958 58.2292C80.3958 57.8743 80.2966 57.5689 80.2966 57.4198C80.2966 57.1678 80.3958 56.8632 80.3958 56.5625C80.3958 56.3113 80.4529 55.9023 80.5029 55.7091C80.5521 55.3998 80.7569 55.0999 80.9062 54.8943C81.0117 54.7985 81.3197 54.5944 81.6205 54.5944C82.0825 54.5944 82.4373 54.8464 82.5929 55.0999C82.6437 55.2036 82.7992 55.4006 82.7992 55.5537C82.7992 55.7091 82.8485 55.9023 82.8485 56.1079H83.5636ZM88.6643 56.1079C88.6643 55.505 88.5047 55.0018 88.2023 54.5449C87.8983 54.1956 87.3371 53.8886 86.7712 53.8886C86.3171 53.8886 85.9076 54.0912 85.652 54.2442C85.4456 54.4452 85.14 54.7482 84.9868 55.0999C84.8876 55.4564 84.7868 55.8575 84.7868 56.2124C84.7868 56.5625 84.6796 57.0704 84.6796 57.4198V58.6798C84.6796 59.0841 84.836 59.4939 84.9336 59.8432C85.0932 60.191 85.3464 60.5027 85.6036 60.7531C85.8576 60.9501 86.3163 61.053 86.8267 61.053C87.4363 61.053 87.8983 60.8033 88.2015 60.3464C88.2991 60.0929 88.5039 59.8432 88.5039 59.6391C88.5547 59.3879 88.6127 59.0841 88.6127 58.8336V58.4286H87.9475C87.9475 58.533 87.8983 58.7834 87.8983 58.8823C87.8983 59.0354 87.8475 59.289 87.8475 59.4358C87.8475 59.5433 87.6927 59.7922 87.5951 59.8895C87.5722 59.9616 87.5315 60.027 87.4768 60.0797C87.4221 60.1325 87.355 60.171 87.2815 60.1918C87.1807 60.3464 86.9283 60.3959 86.7712 60.3959C86.4656 60.3959 86.1616 60.1918 85.9576 60.0481C85.8076 59.793 85.6044 59.4947 85.6044 59.1822C85.5536 58.8823 85.4972 58.533 85.4972 58.2292C85.4972 57.8743 85.4464 57.5689 85.4464 57.4198C85.4464 57.1678 85.4972 56.8632 85.4972 56.5625C85.4972 56.3113 85.5528 55.9023 85.6044 55.7091C85.6528 55.3998 85.8584 55.0999 86.0076 54.8943C86.1624 54.7985 86.4664 54.5944 86.772 54.5944C87.1815 54.5944 87.5379 54.8464 87.6927 55.0999C87.7903 55.2036 87.8991 55.4006 87.8991 55.5537C87.8991 55.7091 87.9483 55.9023 87.9483 56.1079H88.6643ZM93.3029 60.8504V60.1918H90.6534V57.671H93.1481V57.0178H90.6534V54.7475H93.3029V54.0425H89.9866V60.8504H93.3029ZM98.3059 55.8575C98.3059 54.5449 97.6376 53.8886 96.362 53.8886C95.9033 53.8886 95.3913 54.1406 95.0397 54.4452C94.7341 54.7482 94.5777 55.2036 94.5777 55.8065C94.5777 56.1079 94.5777 56.4628 94.6785 56.7179C94.8333 56.9134 95.0397 57.2235 95.3421 57.3711C95.5 57.4198 95.6985 57.5234 95.9541 57.5689C96.2081 57.7267 96.4628 57.8241 96.6192 57.8743C96.7184 57.8743 96.9232 58.0274 97.0272 58.0274C97.1788 58.0761 97.336 58.175 97.3852 58.2292C97.4812 58.3304 97.59 58.4286 97.6376 58.533C97.6376 58.6806 97.6868 58.9891 97.6868 59.1822C97.6868 59.5433 97.5376 59.8895 97.3352 60.0929C97.1272 60.2978 96.7184 60.3959 96.3613 60.3959C95.9025 60.3959 95.4992 60.1918 95.3413 59.8895C95.2944 59.7922 95.1865 59.5433 95.1865 59.3871C95.1865 59.1814 95.1397 58.9883 95.1397 58.7347H94.4793V59.3871C94.4793 59.5425 94.5285 59.7922 94.5769 59.9971C94.7333 60.3951 95.0389 60.7531 95.3905 60.8496C95.6977 61.0051 96.0588 61.053 96.3613 61.053C97.6868 61.053 98.4028 60.3464 98.4028 59.0354C98.4028 58.6295 98.3536 58.175 98.198 57.9787C97.9916 57.7267 97.5884 57.419 96.9716 57.167C96.6676 57.0696 96.3128 56.8624 95.9533 56.765C95.8032 56.7171 95.5985 56.5154 95.4992 56.4055C95.3905 56.3105 95.3413 56.1072 95.3413 55.8567V55.4556C95.3413 55.3496 95.4992 55.1478 95.5477 55.0513C95.5985 54.8935 95.8032 54.7977 95.9025 54.7467C96.0096 54.698 96.2652 54.5936 96.5192 54.5936C96.8692 54.5936 97.178 54.7977 97.3344 55.001C97.4804 55.2028 97.5376 55.505 97.5376 55.8567H98.3059V55.8575ZM103.404 55.8575C103.404 54.5449 102.739 53.8886 101.514 53.8886C101.004 53.8886 100.542 54.1406 100.187 54.4452C99.8847 54.7482 99.6767 55.2036 99.6767 55.8065C99.6767 56.1079 99.6767 56.4628 99.8331 56.7179C99.9323 56.9134 100.186 57.2235 100.492 57.3711C100.599 57.4198 100.853 57.5234 101.052 57.5689C101.307 57.7267 101.56 57.8241 101.717 57.8743C101.875 57.8743 102.022 58.0274 102.177 58.0274C102.278 58.0761 102.484 58.175 102.532 58.2292C102.58 58.3304 102.688 58.4286 102.738 58.533C102.738 58.6806 102.836 58.9891 102.836 59.1822C102.836 59.5433 102.637 59.8895 102.484 60.0929C102.229 60.2978 101.875 60.3959 101.513 60.3959C101.003 60.3959 100.599 60.1918 100.492 59.8895C100.393 59.7922 100.287 59.5433 100.287 59.3871C100.287 59.1814 100.236 58.9883 100.236 58.7347H99.5807V59.3871C99.5807 59.5425 99.6299 59.7922 99.6767 59.9971C99.8847 60.3951 100.187 60.7531 100.542 60.8496C100.854 61.0051 101.209 61.053 101.514 61.053C102.837 61.053 103.553 60.3464 103.553 59.0354C103.553 58.6295 103.503 58.175 103.299 57.9787C103.094 57.7267 102.689 57.419 102.072 57.167C101.818 57.0696 101.412 56.8624 101.052 56.765C100.905 56.7171 100.698 56.5154 100.6 56.4055C100.543 56.3105 100.493 56.1072 100.493 55.8567V55.4556C100.493 55.3496 100.6 55.1478 100.651 55.0513C100.698 54.8935 100.905 54.7977 101.004 54.7467C101.159 54.698 101.363 54.5936 101.619 54.5936C101.974 54.5936 102.278 54.7977 102.484 55.001C102.58 55.2028 102.637 55.505 102.637 55.8567H103.404V55.8575ZM112.891 57.3216C112.891 57.7754 112.939 58.3304 112.939 58.7355C112.939 59.1343 113.097 59.5433 113.247 59.8903C113.352 60.2985 113.658 60.549 113.912 60.7547C114.118 60.9517 114.569 61.0545 115.031 61.0545C115.543 61.0545 115.952 60.9517 116.205 60.7547C116.462 60.549 116.715 60.2985 116.869 59.8903C116.971 59.5441 117.121 59.1343 117.121 58.7355C117.228 58.3304 117.228 57.8249 117.228 57.3719V56.1582C117.121 55.8073 117.022 55.4006 116.924 55.0528C116.768 54.7482 116.462 54.446 116.257 54.245C115.952 54.0919 115.543 53.8894 115.031 53.8894C114.569 53.8894 114.118 54.0919 113.912 54.245C113.606 54.446 113.352 54.749 113.247 55.0528C113.097 55.4006 112.939 55.8073 112.939 56.1582C112.891 56.5162 112.891 57.0186 112.891 57.3719V57.3216ZM116.461 57.3719C116.461 58.3312 116.354 59.1343 116.204 59.6399C116.049 60.0936 115.648 60.3967 115.03 60.3967C114.422 60.3967 114.01 60.0936 113.911 59.6399C113.706 59.1343 113.605 58.3312 113.605 57.3719C113.605 56.663 113.706 55.9031 113.911 55.4571C114.06 55.0026 114.469 54.5952 115.03 54.5952C115.59 54.5952 116.001 55.0026 116.204 55.4571C116.354 55.9031 116.461 56.6622 116.461 57.3719ZM122.072 60.8504V60.1918H119.315V54.0425H118.648V60.8504H122.072ZM123.296 59.1822C123.296 59.7922 123.446 60.3464 123.805 60.6471C124.253 60.908 124.761 61.0482 125.281 61.0538C126.613 61.0538 127.271 60.4469 127.271 59.289V54.0425H126.613V58.9891C126.613 59.0841 126.507 59.289 126.507 59.3879C126.507 59.4947 126.455 59.7443 126.409 59.844C126.357 59.9979 126.152 60.1431 125.996 60.1918C125.848 60.3464 125.594 60.3959 125.282 60.3959C125.026 60.3959 124.724 60.3472 124.573 60.1918C124.418 60.1431 124.261 59.9979 124.163 59.844C124.112 59.7443 124.007 59.4947 124.007 59.3879C124.007 59.289 123.956 59.0841 123.956 58.9891V54.0425H123.297V59.1822H123.296ZM128.293 54.7482H130.028V60.8504H130.693V54.7482H132.422V54.0433H128.294V54.7482H128.293ZM134.412 60.8504L134.363 54.0425H133.696V60.8504H134.412ZM135.942 57.3216C135.942 57.7754 135.992 58.3304 135.992 58.7355C135.992 59.1343 136.148 59.5433 136.304 59.8903C136.404 60.2985 136.707 60.549 136.962 60.7547C137.169 60.9517 137.627 61.0545 138.089 61.0545C138.542 61.0545 139.004 60.9517 139.209 60.7547C139.514 60.549 139.765 60.2985 139.875 59.8903C140.023 59.5441 140.179 59.1343 140.179 58.7355C140.229 58.3304 140.229 57.8249 140.229 57.3719V56.1582C140.168 55.7845 140.083 55.4153 139.973 55.0528C139.818 54.7482 139.514 54.446 139.308 54.245C139.004 54.0919 138.542 53.8894 138.089 53.8894C137.627 53.8894 137.169 54.0919 136.962 54.245C136.658 54.446 136.404 54.749 136.304 55.0528C136.149 55.4006 135.992 55.8073 135.992 56.1582C135.942 56.5162 135.942 57.0186 135.942 57.3719V57.3216ZM139.514 57.3719C139.514 58.3312 139.412 59.1343 139.209 59.6399C139.111 60.0936 138.698 60.3967 138.089 60.3967C137.473 60.3967 137.069 60.0936 136.962 59.6399C136.756 59.1343 136.658 58.3312 136.658 57.3719C136.658 56.663 136.756 55.9031 136.962 55.4571C137.117 55.0026 137.522 54.5952 138.089 54.5952C138.649 54.5952 139.052 55.0026 139.209 55.4571C139.412 55.9031 139.514 56.6622 139.514 57.3719ZM145.025 59.6391V60.4461C144.916 60.1423 144.819 59.8432 144.771 59.6878L142.831 54.0425H141.71V60.8504H142.369V55.4564V54.3895C142.369 54.5449 142.473 54.7985 142.473 55.0018C142.473 55.0999 142.575 55.3504 142.681 55.4564L144.465 60.8504H145.683V54.0425H145.026V59.6391H145.025Z" fill="black"/>
</g>
<defs>
<clipPath id="clip0">
<rect width="153" height="70" fill="white"/>
</clipPath>
</defs>
</svg>
