<svg width="127" height="93" viewBox="0 0 127 93" fill="none" xmlns="http://www.w3.org/2000/svg">
<g clip-path="url(#clip0)">
<path d="M0.00518799 0H126.997V93H0.00518799V0Z" fill="#FFCB01"/>
<path d="M23.6019 35.4048L19.6694 41.5378H41.1022C42.1861 41.5378 42.1725 42.0062 41.6428 42.8345C41.1049 43.6721 40.2049 45.1208 39.6563 45.9739C39.3779 46.4051 38.8752 47.1899 40.5401 47.1899H49.3051L51.9025 43.1385C53.5133 40.6288 52.043 35.4079 46.2834 35.4079L23.6019 35.4048Z" fill="#D80613"/>
<path d="M18.0775 55.3859L25.9776 43.064H35.7805C36.8643 43.064 36.8508 43.5356 36.3211 44.3608L34.321 47.4877C34.0426 47.9189 33.5399 48.7038 35.2048 48.7038H48.3348C47.2456 50.4224 43.6996 55.3859 37.3427 55.3859H18.0775ZM63.3162 48.7007L59.0323 55.3859H47.7321L52.016 48.7007H63.3162ZM80.6247 47.1868H52.989L60.5459 35.4048H71.8407L67.5109 42.1613H72.5515L76.8867 35.4048H88.1816L80.6247 47.1868ZM79.6544 48.7007L75.3705 55.3859H64.0757L68.3596 48.7007H79.6544ZM1.95551 51.3375H18.5991L17.691 52.7552H1.95551V51.3375ZM1.95551 48.7007H20.291L19.3802 50.1184H1.95551V48.7007ZM1.95551 53.9744H16.9099L16.0044 55.3859H1.95551V53.9744ZM125.047 52.7552H108.463L109.374 51.3375H125.047V52.7552ZM125.047 55.3859H106.779L107.682 53.9744H125.047V55.3859ZM111.063 48.7007H125.047V50.1215H110.155L111.063 48.7007ZM103.825 35.4048L96.2682 47.1868H84.2977L91.86 35.4048H103.825ZM83.3301 48.7007C83.3301 48.7007 82.5058 49.9974 82.1031 50.6178C80.6868 52.8204 81.9382 55.3828 86.568 55.3828H104.709L108.993 48.7007H83.3301Z" fill="#D80613"/>
</g>
<defs>
<clipPath id="clip0">
<rect width="127" height="93" fill="white"/>
</clipPath>
</defs>
</svg>
