<svg width="137" height="49" viewBox="0 0 137 49" fill="none" xmlns="http://www.w3.org/2000/svg">
<path d="M78.9389 26.0501H80.3955C80.3955 27.6831 80.6646 29.5645 81.0507 30.9844C81.4133 32.286 82.3551 33.5107 83.18 34.4396C84.7184 36.2264 87.4035 37.2381 90.34 37.2381C92.4518 37.2381 94.4115 36.4986 95.716 35.4336C97.0965 34.2858 97.9798 32.6351 97.9798 30.6531C97.9798 29.0024 97.2896 27.4878 96.3653 26.5353C95.4235 25.5827 93.3702 24.1864 90.9894 23.2516L87.5731 21.9323C84.695 20.8081 82.1621 19.0746 80.8927 17.4831C79.6233 15.8738 78.781 13.5191 78.781 11.2117C78.781 7.92804 80.103 5.24789 82.3493 3.30729C84.5956 1.38445 88.2049 0.354987 92.4518 0.354987C97.272 0.354987 100.612 1.17146 103.853 3.23038V11.7205H102.548C102.548 11.0578 102.379 10.4011 102.379 10.0698C102.379 9.58464 102.227 9.08174 102.227 8.75042C102.227 8.4191 101.899 8.08778 101.899 7.76238C101.572 6.94591 101.074 5.88095 100.443 4.9639C98.8865 2.65057 96.2015 1.34895 93.2591 1.34895C91.317 1.34895 89.4216 1.97018 88.2107 2.98189C86.9062 4.05277 86.2745 5.79812 86.2745 7.60263C86.2745 9.07583 86.7542 10.478 87.579 11.3892C88.4623 12.3772 90.3225 13.4303 92.6097 14.3592L95.7218 15.6608C98.9275 16.9802 101.577 18.7078 103.04 20.2816C104.596 21.9323 105.479 24.2219 105.479 26.8666C105.479 30.168 104.175 33.1558 101.583 35.1023C99.0094 37.0429 95.4001 38.2262 91.0011 38.2262C88.8718 38.2262 86.0112 37.8179 82.8582 37.2322C81.7468 37.0369 80.2668 36.6701 78.9389 36.1081V26.0501ZM110.171 26.0501H111.627C111.627 27.6831 111.896 29.5645 112.282 30.9844C112.645 32.286 113.587 33.5107 114.412 34.4396C115.95 36.2264 118.635 37.2381 121.572 37.2381C123.684 37.2381 125.643 36.4986 126.948 35.4336C128.328 34.2858 129.212 32.6351 129.212 30.6531C129.212 29.0024 128.521 27.4878 127.597 26.5353C126.655 25.5827 124.602 24.1864 122.221 23.2516L118.805 21.9323C115.927 20.8081 113.394 19.0746 112.125 17.4831C110.855 15.8738 110.013 13.5191 110.013 11.2117C110.013 7.92804 111.335 5.24789 113.587 3.30729C115.833 1.38445 119.443 0.354987 123.684 0.354987C128.504 0.354987 131.844 1.17146 135.091 3.23038V11.7205H133.786C133.786 11.0578 133.616 10.4011 133.616 10.0698C133.616 9.58464 133.464 9.08174 133.464 8.75042C133.464 8.4191 133.137 8.08778 133.137 7.76238C132.809 6.94591 132.312 5.88095 131.68 4.9639C130.124 2.65057 127.433 1.34895 124.497 1.34895C122.555 1.34895 120.659 1.97018 119.448 2.98189C118.144 4.05277 117.512 5.79812 117.512 7.60263C117.512 9.07583 117.992 10.478 118.817 11.3892C119.7 12.3772 121.56 13.4303 123.847 14.3592L126.959 15.6608C130.165 16.9802 132.815 18.7078 134.278 20.2816C135.834 21.9323 136.717 24.2219 136.717 26.8666C136.717 30.168 135.412 33.1558 132.821 35.1023C130.247 37.0429 126.638 38.2262 122.239 38.2262C120.109 38.2262 117.249 37.8179 114.096 37.2322C112.984 37.0369 111.504 36.6701 110.177 36.1081L110.171 26.0501ZM55.4873 0C60.3659 0 64.607 1.47319 67.6957 4.11785C71.7671 7.40147 73.8789 12.6789 73.8789 19.5953C73.8789 22.234 73.3992 24.7012 72.744 27.0145C71.9192 29.3042 70.6322 31.4637 69.1523 32.9369C65.9057 36.3921 61.1849 38.1966 54.9842 38.1966C49.2982 38.1966 44.7296 36.5459 41.6409 33.2623C38.3768 29.9609 36.7622 25.0266 36.7622 18.9326C36.7622 13.0103 38.3768 8.38952 41.6409 5.10589C44.9109 1.80452 49.6317 0 55.4873 0ZM55.5048 0.988046C52.2407 0.988046 49.6317 2.77481 48.0171 6.07619C46.7126 8.87467 45.8644 13.3416 45.8644 18.9326C45.8644 25.0325 46.7068 29.6118 48.0171 32.4103C49.4737 35.5578 51.8955 37.1849 55.0076 37.1849C61.5359 37.1849 64.7591 31.1264 64.7591 19.2403C64.7591 12.9866 63.9518 8.36585 62.4953 5.56738C61.8401 4.24801 60.6877 3.11797 59.3832 2.266C58.1138 1.44953 56.6163 0.98213 55.3118 0.98213H55.5048V0.988046ZM20.6345 18.9681C24.2262 18.9681 27.3149 19.7846 29.257 21.4353C31.2167 22.9321 32.1936 25.2218 32.1936 28.0203C32.1936 29.671 31.7139 31.3217 31.0587 32.641C30.2339 33.9604 28.9294 35.2798 27.467 35.9424C26.063 36.5281 24.583 36.9186 23.068 37.0902C21.4359 37.4215 18.9965 37.5753 16.0775 37.5753H0.283203V36.5814H4.17913V1.68027H0.283203V0.692224H15.7616C18.0255 0.692224 20.1606 0.846051 21.7693 1.02354C24.5538 1.35487 26.8177 2.32516 28.4497 3.82202C30.0818 5.29522 30.8891 7.43106 30.8891 9.92188C30.8891 13.2055 29.4325 15.6727 26.6656 17.1636C25.3611 17.8263 23.2493 18.483 20.4648 18.6368L20.6345 18.9681ZM12.6671 36.5814H15.124C16.7385 36.5814 18.043 36.4276 19.0024 36.2323C20.0261 35.901 20.9328 35.2857 21.6114 34.4455C22.7638 32.9664 23.419 30.8306 23.419 28.1919C23.419 25.3934 22.7638 23.0682 21.6114 21.7429C20.9562 21.0803 20.1548 20.4236 19.1954 20.11C18.1951 19.7609 16.5864 19.4474 14.931 19.4474H12.6671V36.5814ZM12.6671 18.483H14.931C17.2358 18.483 19.1954 17.8203 20.3069 16.501C21.4593 15.1816 22.1145 13.0458 22.1145 10.052C22.1145 7.76238 21.6172 5.62654 20.81 4.30126C20.3127 3.28954 19.5055 2.63282 18.6982 2.31925C17.6979 1.97018 16.2413 1.6566 14.6268 1.6566H12.6671V18.483ZM0.792131 48.9113V44.2491H1.36541V46.1897H3.7872V44.2491H4.36048V48.9113H3.7872V46.734H1.36541V48.9113H0.792131ZM20.9328 44.255H21.5061V46.9529C21.5061 47.4203 21.4476 47.8049 21.354 48.0593C21.237 48.3374 21.0381 48.5681 20.7807 48.7219C20.5116 48.8935 20.1489 48.9941 19.7044 48.9941C19.2832 48.9941 18.9146 48.9172 18.6456 48.7811C18.3882 48.6332 18.1834 48.4024 18.0723 48.1185C18.0021 47.9646 17.9611 47.799 17.9377 47.6333C17.9143 47.4085 17.9026 47.1777 17.8968 46.9529V44.255H18.4701V46.9529C18.4701 47.3611 18.511 47.6747 18.5637 47.8463C18.6397 48.0415 18.7743 48.1954 18.9673 48.29C19.1603 48.3906 19.3885 48.4439 19.64 48.4439C20.1021 48.4439 20.4297 48.3492 20.6169 48.1539C20.81 47.9587 20.9211 47.5327 20.9211 46.947L20.9328 44.255ZM37.1425 47.089V46.5447H39.0846V48.2723C38.7804 48.503 38.4703 48.6983 38.1603 48.8166C37.8503 48.9349 37.5051 48.9941 37.1834 48.9941C36.7622 49 36.3527 48.9053 35.9725 48.7219C35.6157 48.5385 35.329 48.2427 35.1477 47.8877C34.9547 47.5031 34.8552 47.0772 34.8611 46.6453C34.8611 46.1956 34.9546 45.7696 35.1301 45.3791C35.3232 44.9887 35.5923 44.6987 35.9374 44.5035C36.2825 44.3083 36.6862 44.2136 37.1483 44.2136C37.4759 44.2136 37.7801 44.2728 38.0492 44.3674C38.3183 44.4858 38.5288 44.6396 38.6634 44.8348C38.8155 45.0301 38.9325 45.2786 39.0085 45.5921L38.4703 45.7282C38.4118 45.5152 38.3183 45.32 38.2188 45.2016C38.1194 45.0833 37.9673 44.9709 37.7801 44.8881C37.5812 44.7993 37.3647 44.7579 37.1483 44.752C36.8792 44.752 36.6277 44.7934 36.4405 44.8703C36.2474 44.9472 36.0778 45.0656 35.9433 45.2194C35.8204 45.3555 35.7268 45.5152 35.6566 45.6868C35.5396 45.9767 35.4811 46.2844 35.4811 46.5979C35.4811 47.0062 35.5572 47.3552 35.6742 47.6274C35.8087 47.8995 36.0193 48.1303 36.2884 48.2486C36.5575 48.3669 36.8617 48.4439 37.1717 48.4439C37.4232 48.4439 37.6923 48.3847 37.9205 48.3078C38.172 48.2072 38.3826 48.077 38.5171 47.9587V47.0831L37.1425 47.089ZM52.2874 46.663C52.2874 45.9057 52.498 45.3022 52.8841 44.8762C53.2878 44.4503 53.8259 44.2136 54.4753 44.2136C54.8964 44.2136 55.2825 44.3319 55.6101 44.5272C55.9377 44.7224 56.2068 45.0301 56.3764 45.3791C56.5695 45.7282 56.6631 46.1542 56.6631 46.6216C56.6631 47.089 56.5695 47.515 56.3764 47.864C56.1834 48.2309 55.9143 48.5267 55.5867 48.6983C55.2416 48.8935 54.8555 48.9882 54.4753 48.9882C54.0716 48.9882 53.6738 48.8817 53.3229 48.6746C52.9836 48.4794 52.7145 48.1835 52.5565 47.8226C52.381 47.4676 52.2874 47.0712 52.2874 46.6748V46.663ZM52.9017 46.6808C52.9017 47.2251 53.0538 47.6511 53.3404 47.9646C53.627 48.2782 54.0131 48.4498 54.4519 48.4498C54.914 48.4498 55.2942 48.2959 55.5867 47.9824C55.8909 47.6688 56.0488 47.2014 56.0488 46.6216C56.0488 46.2548 55.9728 45.9235 55.8558 45.6513C55.7388 45.3791 55.5282 45.1425 55.3001 44.9887C55.0719 44.8348 54.7794 44.7579 54.4753 44.7579C54.0541 44.7579 53.668 44.9117 53.3638 45.2016C53.0596 45.4916 52.9017 46.0004 52.9017 46.6808ZM80.3545 48.9113V44.2491H82.0627C82.4078 44.2491 82.6944 44.3083 82.8875 44.3852C83.0981 44.4798 83.2677 44.6396 83.3847 44.8289C83.5017 45.0241 83.5777 45.2549 83.5777 45.4501C83.5777 45.6454 83.5192 45.8584 83.4256 46.0122C83.297 46.2015 83.1273 46.3494 82.9284 46.4559C83.1975 46.5328 83.4257 46.6689 83.5836 46.8642C83.7357 47.0594 83.8117 47.3079 83.8117 47.5623C83.8117 47.7753 83.7532 47.9883 83.6772 48.1658C83.607 48.3374 83.4958 48.4912 83.3496 48.6154C83.2151 48.7101 83.022 48.787 82.829 48.8284C82.6359 48.8698 82.3668 48.9053 82.0802 48.9053L80.3545 48.9113ZM80.9337 46.2311H81.934C82.203 46.2311 82.4136 46.2134 82.5306 46.1897C82.671 46.1542 82.7997 46.0595 82.8758 45.9353C82.9167 45.882 82.9518 45.8229 82.9752 45.7637C82.9928 45.6868 83.0103 45.6099 83.0103 45.533C83.0103 45.3791 82.9752 45.2431 82.8992 45.1247C82.8231 45.0064 82.7061 44.9117 82.5716 44.8703C82.437 44.8289 82.1914 44.7934 81.8638 44.7934H80.9395L80.9337 46.2311ZM80.9337 48.3669H82.0861C82.2791 48.3669 82.4312 48.3492 82.5072 48.3492C82.6418 48.3314 82.7763 48.2723 82.8524 48.2309C82.9635 48.1776 83.0513 48.0889 83.1039 47.9765C83.1624 47.8581 83.1975 47.722 83.1975 47.5682C83.1975 47.4144 83.139 47.2606 83.063 47.1422C82.9869 47.0239 82.8348 46.9115 82.6769 46.8701C82.5248 46.8109 82.2733 46.7754 82.0042 46.7754H80.9278V48.3669H80.9337ZM97.5996 46.663C97.5996 45.9057 97.8102 45.3022 98.1963 44.8762C98.5999 44.4503 99.1381 44.2136 99.7874 44.2136C100.209 44.2136 100.595 44.3319 100.922 44.5272C101.25 44.7224 101.519 45.0301 101.694 45.3791C101.887 45.7282 101.981 46.1542 101.981 46.6216C101.981 47.089 101.887 47.515 101.694 47.864C101.501 48.2309 101.232 48.5267 100.905 48.6983C100.56 48.8935 100.173 48.9882 99.7932 48.9882C99.3896 48.9882 98.9918 48.8817 98.6408 48.6746C98.3016 48.4794 98.0325 48.1835 97.8745 47.8226C97.699 47.4676 97.6054 47.0712 97.6054 46.6748L97.5996 46.663ZM98.2138 46.6808C98.2138 47.2251 98.3659 47.6511 98.6525 47.9646C98.9392 48.2782 99.3253 48.4498 99.764 48.4498C100.226 48.4498 100.612 48.2959 100.899 47.9824C101.209 47.6688 101.361 47.2014 101.361 46.6216C101.361 46.2548 101.285 45.9235 101.168 45.6513C101.051 45.3791 100.84 45.1425 100.612 44.9887C100.384 44.8348 100.092 44.7579 99.7874 44.7579C99.3662 44.7579 98.9801 44.9117 98.6759 45.2016C98.3659 45.4975 98.2138 46.0004 98.2138 46.6808ZM115.664 47.4381L116.243 47.3966C116.26 47.6096 116.336 47.8049 116.412 47.941C116.506 48.0948 116.681 48.2309 116.892 48.3078C116.986 48.3492 117.103 48.4024 117.22 48.4024C117.337 48.4202 117.471 48.4439 117.582 48.4439C117.81 48.4439 118.021 48.4024 118.197 48.3492C118.366 48.29 118.524 48.1954 118.6 48.077C118.676 47.9587 118.735 47.8049 118.735 47.6688C118.735 47.5327 118.694 47.3966 118.618 47.302C118.542 47.1837 118.39 47.089 118.197 47.0121C117.927 46.9292 117.658 46.8582 117.389 46.7991C116.968 46.7044 116.641 46.5861 116.488 46.5092C116.278 46.3909 116.102 46.237 116.009 46.0832C115.903 45.9057 115.851 45.7045 115.857 45.4975C115.857 45.2667 115.933 45.0537 116.05 44.8585C116.167 44.6632 116.377 44.4917 116.605 44.3911C116.869 44.2728 117.161 44.2136 117.448 44.2136C117.775 44.2136 118.08 44.2728 118.331 44.3674C118.6 44.4858 118.811 44.6573 118.928 44.8762C119.074 45.0833 119.156 45.3377 119.156 45.5921L118.577 45.6513C118.559 45.3614 118.442 45.1247 118.273 44.9887C118.097 44.8348 117.81 44.7579 117.465 44.7579C117.12 44.7579 116.834 44.8348 116.681 44.9532C116.529 45.0892 116.43 45.2608 116.43 45.4561C116.43 45.6099 116.488 45.7696 116.605 45.8643C116.722 45.9649 117.027 46.0773 117.506 46.1956C117.986 46.3139 118.331 46.4086 118.524 46.4855C118.793 46.6038 119.004 46.7754 119.121 46.9707C119.162 47.0476 119.214 47.1659 119.255 47.2606C119.296 47.3789 119.314 47.4913 119.314 47.6096C119.314 47.8404 119.238 48.0948 119.103 48.3078C118.957 48.5267 118.752 48.7042 118.507 48.8107C118.22 48.929 117.916 48.9882 117.606 48.9882C117.202 48.9882 116.834 48.929 116.57 48.8107C116.307 48.6983 116.079 48.5089 115.915 48.2664C115.833 48.1421 115.769 48.012 115.722 47.8759C115.687 47.7398 115.664 47.586 115.664 47.4381ZM133.061 47.4381L133.64 47.3966C133.657 47.6096 133.733 47.8049 133.81 47.941C133.903 48.0948 134.079 48.2309 134.289 48.3078C134.383 48.3492 134.5 48.4024 134.617 48.4024C134.734 48.4202 134.868 48.4439 134.979 48.4439C135.208 48.4439 135.418 48.4024 135.594 48.3492C135.763 48.29 135.921 48.1954 135.997 48.077C136.073 47.9587 136.132 47.8049 136.132 47.6688C136.132 47.5327 136.091 47.3966 136.015 47.302C135.939 47.1837 135.787 47.089 135.594 47.0121C135.325 46.9292 135.056 46.8582 134.786 46.7991C134.365 46.7044 134.038 46.5861 133.886 46.5092C133.675 46.3909 133.499 46.237 133.406 46.0832C133.306 45.9057 133.248 45.7045 133.254 45.4975C133.254 45.2667 133.33 45.0537 133.447 44.8585C133.564 44.6632 133.774 44.4917 134.003 44.3911C134.266 44.2728 134.558 44.2136 134.845 44.2136C135.173 44.2136 135.477 44.2728 135.728 44.3674C135.997 44.4858 136.208 44.6573 136.325 44.8762C136.471 45.0833 136.553 45.3377 136.553 45.5921L135.974 45.6513C135.956 45.3614 135.839 45.1247 135.67 44.9887C135.494 44.8348 135.208 44.7579 134.862 44.7579C134.517 44.7579 134.231 44.8348 134.079 44.9532C133.927 45.0892 133.827 45.2608 133.827 45.4561C133.827 45.6099 133.886 45.7696 133.997 45.8643C134.114 45.9649 134.418 46.0773 134.898 46.1956C135.377 46.3139 135.722 46.4086 135.915 46.4855C136.185 46.6038 136.395 46.7754 136.512 46.9707C136.553 47.0476 136.606 47.1659 136.647 47.2606C136.688 47.3789 136.705 47.4913 136.705 47.6096C136.705 47.8404 136.629 48.0948 136.495 48.3078C136.348 48.5267 136.144 48.7042 135.898 48.8107C135.611 48.929 135.307 48.9882 134.997 48.9882C134.593 48.9882 134.225 48.929 133.962 48.8107C133.698 48.6983 133.47 48.5089 133.306 48.2664C133.225 48.1421 133.16 48.012 133.113 47.8759C133.078 47.7398 133.061 47.586 133.061 47.4381Z" fill="black"/>
</svg>
