<svg width="129" height="60" viewBox="0 0 129 60" fill="none" xmlns="http://www.w3.org/2000/svg">
<path fill-rule="evenodd" clip-rule="evenodd" d="M83.3699 3.47508V0.158691H70.1429V18.3675H83.3699V15.364H73.8236V10.4207H82.1838V7.16691H73.8236V3.47508H83.3699ZM79.6893 20.2447V27.2529H72.4511V20.2447H68.7099V38.3919H72.4511V30.2565H79.6893V38.3919H83.3699V20.2447H79.6893ZM83.3699 43.5211V40.2691H70.1429V58.7265H83.3699V55.4118H73.8236V50.5302H82.1838V47.5276H73.8236V43.5211H83.3699ZM68.0228 0.158691H64.3422V7.16691H57.1057V0.158691H53.4251V18.3675H57.1057V10.233H64.3422V18.3675H68.0228V0.158691ZM37.5798 0.158691V3.47508H43.1942V18.3675H46.8749V3.47508H52.4893V0.158691H37.5798ZM25.9765 19.7441C20.1748 19.7441 17.118 23.0605 17.118 29.3179C17.118 35.8881 20.1748 39.1419 25.9765 39.1419C31.7781 39.1419 34.7725 35.8881 34.7725 29.3179C34.7725 23.0605 31.7781 19.7441 25.9765 19.7441ZM21.1106 29.3179C21.1106 25.1254 22.7325 23.0605 25.9765 23.0605C29.4699 23.0605 31.0919 25.1254 31.0919 29.3179C31.0919 33.7614 29.4699 35.8881 25.9765 35.8881C22.7325 35.8881 21.1106 33.7614 21.1106 29.3179ZM11.8155 20.2447V33.0723L4.57901 20.2447H0.648865V38.3919H4.14233V25.626L11.5659 38.3919H15.4961V20.2447H11.8155ZM28.9709 47.777V43.5211H38.266V40.2691H25.2902V58.7265H28.9709V51.0308H37.1431V47.777H28.9709ZM67.3374 23.4985V20.2447H52.4893V23.4985H58.0415V38.3919H61.7844V23.4985H67.3374ZM44.3171 31.4462C45.5024 31.4462 46.4382 31.6331 46.8749 32.1337L47.5611 38.3919H51.7407V37.9538C51.3041 37.7027 51.0545 36.5772 51.0545 34.4489C51.0545 31.8842 50.1188 30.5068 48.7464 29.8184C50.6179 29.0676 51.5536 27.691 51.5536 25.3757C51.5536 22.1219 49.6821 20.2447 45.752 20.2447H36.644V38.3919H40.387V31.4462H44.3171ZM40.387 28.3793V23.4985H45.0034C46.8749 23.4985 47.8106 24.1868 47.8106 25.8137C47.8106 27.4407 46.8749 28.3793 44.8162 28.3793H40.387ZM46.8749 40.2691H42.4456L35.9578 58.7265H39.8879L41.3227 54.7226H48.0601L49.183 58.7265H53.1756L46.8749 40.2691ZM44.5667 44.4597L46.8749 51.72H42.2585L44.5667 44.4597ZM65.0292 46.3369H68.7099C68.5218 44.7109 68.0228 43.3343 66.899 42.1445C65.2779 40.7679 63.4064 39.8293 60.8487 39.8293C58.291 39.8293 56.4195 40.7679 54.7975 42.3957C53.4251 44.0217 52.4893 46.3369 52.4893 49.4039C52.4893 55.9115 55.2342 59.1636 60.5992 59.1636C65.2779 59.1636 67.8348 56.8484 68.7099 52.4065H65.0292C64.5302 54.5332 62.9073 55.6604 60.8487 55.6604C57.7919 55.6604 56.4195 53.5963 56.4195 49.5907C56.4195 45.2115 57.7919 43.0831 60.8487 43.0831C62.9073 43.0831 64.0935 44.2729 65.0292 46.3369ZM18.74 58.477H18.8024H18.74ZM18.8024 58.477C19.4262 58.477 19.9253 58.2259 20.3005 57.9139C20.6124 57.5384 20.861 57.0378 20.861 56.3504C20.861 55.5986 20.6115 55.0981 20.3005 54.7852C19.9262 54.4732 19.4271 54.2846 18.8024 54.2846H18.74C17.9914 54.2846 17.4923 54.4732 17.1804 54.7852C16.8694 55.0972 16.6814 55.5986 16.6814 56.3504V56.4112C16.6814 57.0378 16.8685 57.5384 17.1804 57.9139C17.4923 58.2259 17.9923 58.477 18.74 58.477H18.8024ZM18.74 58.9776C17.8666 58.9776 17.2428 58.6656 16.8061 58.2259C16.3694 57.7878 16.1823 57.163 16.1823 56.4112V56.3504C16.1823 55.4726 16.3694 54.8478 16.8061 54.4106C17.2428 53.9726 17.8666 53.784 18.74 53.784H18.8024C19.551 53.784 20.1748 53.9726 20.6115 54.4106C21.0482 54.8486 21.3601 55.4735 21.3601 56.3504C21.3601 57.1639 21.0482 57.7878 20.6115 58.2259C20.3749 58.4654 20.093 58.6553 19.7824 58.7844C19.4718 58.9134 19.1386 58.9791 18.8024 58.9776H18.74ZM18.9895 56.0992H19.0519C19.3015 56.0992 19.4262 55.9732 19.4262 55.6612V55.5987C19.4262 55.5987 19.3638 55.5987 19.3638 55.5361C19.3015 55.4735 19.1767 55.4735 18.9895 55.4735H18.3033V56.1001H18.9895V56.0992ZM19.4262 56.5373L19.9253 57.1639C19.9877 57.2881 19.9253 57.4133 19.8629 57.4759C19.7381 57.6019 19.551 57.5384 19.4886 57.4759L18.8648 56.5998H18.3033V57.2873C18.3033 57.4133 18.1786 57.5384 18.0538 57.5384C17.929 57.5384 17.8043 57.4124 17.8043 57.2873V55.2232C17.8043 55.0972 17.929 54.9738 18.0538 54.9738H19.0519C19.3015 54.9738 19.551 55.0346 19.6758 55.1606C19.7381 55.2232 19.8005 55.2232 19.8005 55.2867C19.9253 55.4127 19.9253 55.5361 19.9253 55.6621C19.9253 56.1618 19.8005 56.4112 19.4262 56.5373ZM85.9268 0.158691C97.5309 0.158691 107.574 4.41367 115.684 12.5482C124.043 20.933 128.223 30.9448 128.223 42.6451V58.7265H111.255V42.1445C111.255 35.6386 108.947 30.0062 104.268 25.3757C103.145 24.1868 101.96 23.2482 100.588 22.3096C96.8447 19.7441 92.4155 18.6178 87.7991 18.6178H85.9276V0.158691H85.9268ZM109.632 58.7265H96.4063V45.8989C96.4063 43.7723 95.7209 42.1445 94.2861 40.7679C92.9137 39.3305 91.0422 38.6413 89.1707 38.6413H85.9268V20.2447H87.7983C92.6633 20.2447 96.843 21.6213 100.587 24.4371C101.523 24.8751 102.458 25.8137 103.144 26.5021C107.574 30.9456 109.632 36.0766 109.632 42.1454V58.7265ZM94.7852 58.7265H85.9259V40.2691H89.1707C90.6055 40.2691 91.9779 40.7679 93.1624 41.8951C94.0981 42.8337 94.7852 44.2729 94.7852 45.8989V58.7265Z" fill="black"/>
</svg>
