<svg width="101" height="37" viewBox="0 0 101 37" fill="none" xmlns="http://www.w3.org/2000/svg">
<path fill-rule="evenodd" clip-rule="evenodd" d="M0.850769 18.7885C0.850769 13.1116 2.3038 8.66956 5.22044 5.46123C8.13708 2.25165 11.8967 0.643722 16.5104 0.643722C19.526 0.643722 22.2509 1.40036 24.672 2.90422C27.0924 4.41749 28.9427 6.5194 30.2139 9.21745C31.4864 11.9092 32.1177 14.974 32.1177 18.3898C32.1177 21.8602 31.4553 24.9657 30.1155 27.697C28.7758 30.4358 26.8802 32.5057 24.4279 33.915C21.9701 35.3235 19.328 36.025 16.4886 36.025C13.4045 36.025 10.6559 35.2527 8.23544 33.6912C5.80626 32.139 3.97098 30.0133 2.72277 27.3221C1.47456 24.6404 0.850769 21.79 0.850769 18.7885ZM5.31071 18.8606C5.31071 22.9848 6.36904 26.2251 8.48633 28.5978C10.6105 30.9699 13.2675 32.1566 16.4649 32.1566C19.7227 32.1566 22.4034 30.9624 24.5045 28.5652C26.6056 26.1681 27.6639 22.7698 27.6639 18.3667C27.6639 15.5877 27.207 13.1592 26.308 11.0811C25.4097 9.00369 24.0924 7.39514 22.3648 6.24859C20.6285 5.11019 18.688 4.53722 16.5328 4.53722C13.4649 4.53722 10.8309 5.63551 8.62267 7.84147C6.41511 10.0393 5.31071 13.7171 5.31071 18.8606ZM50.1187 21.6421V17.637L63.6697 17.6131V30.2954C61.5904 32.0707 59.4457 33.4003 57.2325 34.3005C55.0194 35.1919 52.7483 35.6382 50.4243 35.6382C47.2805 35.6382 44.4198 34.9211 41.8574 33.4805C39.2876 32.0475 37.3508 29.9613 36.0397 27.2469C34.7286 24.5238 34.0725 21.4828 34.0725 18.1228C34.0725 14.7941 34.7286 11.6898 36.0322 8.80748C37.3278 5.9176 39.2048 3.77558 41.6483 2.37452C44.0918 0.981607 46.9069 0.280762 50.095 0.280762C52.404 0.280762 54.4983 0.678199 56.3672 1.48248C58.2373 2.2786 59.7047 3.39255 60.763 4.82621C61.8282 6.25987 62.6331 8.12231 63.1909 10.4236L59.3691 11.5463C58.8866 9.80232 58.2896 8.43323 57.5818 7.43776C56.8671 6.44291 55.8467 5.64679 54.5201 5.05001C53.2021 4.45197 51.7267 4.14982 50.1174 4.14982C48.1807 4.14982 46.5048 4.46827 45.0972 5.09702C43.6821 5.7264 42.5491 6.55387 41.6781 7.58132C40.8246 8.5893 40.1424 9.73246 39.6592 10.9645C38.8468 13.0746 38.4378 15.3677 38.4378 17.8438C38.4378 20.8929 38.9296 23.4412 39.9126 25.4942C40.8956 27.5484 42.3256 29.0692 44.2032 30.0641C46.0808 31.0596 48.0692 31.5611 50.1778 31.5611C52.0174 31.5611 53.8054 31.1799 55.5479 30.4233C57.2985 29.6748 58.6183 28.8705 59.5192 28.0111V21.6421H50.1187ZM96.6791 36.2193V2.0241H100.608V36.2193H96.6791ZM80.9006 21.6421V17.637L94.4522 17.6131V30.2954C92.3729 32.0707 90.2282 33.4003 88.0151 34.3005C85.8019 35.1919 83.5309 35.6382 81.2069 35.6382C78.0624 35.6382 75.2024 34.9211 72.6394 33.4805C70.0701 32.0475 68.1334 29.9613 66.8223 27.2469C65.5106 24.5238 64.855 21.4828 64.855 18.1228C64.855 14.7941 65.5106 11.6898 66.8148 8.80748C68.1097 5.9176 69.9873 3.77558 72.4308 2.37452C74.8737 0.981607 77.6895 0.280762 80.8776 0.280762C83.1866 0.280762 85.2802 0.678199 87.1491 1.48248C89.0193 2.2786 90.4866 3.39255 91.5449 4.82621C92.6101 6.25987 93.4151 8.12231 93.9729 10.4236L90.1511 11.5463C89.6686 9.80232 89.0715 8.43323 88.3637 7.43776C87.649 6.44291 86.6274 5.64679 85.302 5.05001C83.9841 4.45197 82.5093 4.14982 80.8994 4.14982C78.9626 4.14982 77.2867 4.46827 75.8791 5.09702C74.4641 5.7264 73.3316 6.55387 72.4601 7.58132C71.6067 8.58933 70.9247 9.73249 70.4418 10.9645C69.6293 13.0746 69.2197 15.3677 69.2197 17.8438C69.2197 20.8929 69.7121 23.4412 70.6945 25.4942C71.6782 27.5484 73.1081 29.0692 74.9858 30.0641C76.8634 31.0596 78.8524 31.5611 80.9597 31.5611C82.7994 31.5611 84.588 31.1799 86.3305 30.4233C88.0811 29.6748 89.4009 28.8705 90.3017 28.0111V21.6421H80.9006Z" fill="black"/>
</svg>
