<svg width="109" height="63" viewBox="0 0 109 63" fill="none" xmlns="http://www.w3.org/2000/svg">
<path fill-rule="evenodd" clip-rule="evenodd" d="M54.5 0.333984C24.7501 0.333984 0.632568 14.3998 0.632568 31.7502C0.632568 42.6561 10.1619 52.2652 24.6297 57.8982L35.8088 18.654C36.884 14.9239 40.771 7.13228 49.2067 6.80042C51.5223 6.63477 56.1562 8.29236 56.155 12.8513C56.155 14.5989 54.6365 16.0164 52.7632 16.0164C50.89 16.0164 49.3714 14.5989 49.3714 12.8513C49.3714 11.1031 50.89 9.68619 52.7632 9.68619C52.1845 8.95551 50.4477 7.9605 49.2067 7.9605C47.9658 7.9605 45.0715 8.45801 43.2524 14.6745L40.3575 24.6212H51.1917L46.5601 41.0332H40.8125L44.9062 26.6107H39.8197L30.3526 59.8403C37.6153 61.9688 45.8178 63.1664 54.4994 63.1664C84.2488 63.1664 108.367 49.1006 108.367 31.7496C108.368 14.3998 84.2494 0.333984 54.5 0.333984ZM31.2169 26.0999C29.3149 33.3114 22.7812 33.2289 20.631 33.2289H16.4128L14.0973 41.0205H7.89413L14.2625 18.6402H11.1195L11.6159 16.9826H24.7656C32.0439 16.982 32.1268 22.2041 31.2169 26.0999ZM63.359 41.0395H49.8776L59.4708 26.6164H53.9305L54.5092 24.627H68.0724L58.4786 39.0501H63.9372L63.359 41.0395ZM85.0308 33.2468H73.535C72.7081 35.8994 72.2111 39.2977 74.4448 39.3808C76.6774 39.4639 77.9178 37.2257 78.6624 34.9875H84.2862C82.4677 41.0384 77.3391 41.619 74.1143 41.4533C67.2489 41.0384 66.3402 36.7282 67.8282 32.0867C69.7303 25.9533 73.7838 23.7976 78.7448 23.7976C85.9413 23.9632 85.9413 29.931 85.0308 33.2468ZM101.882 30.2196C100.17 30.2196 98.6556 28.8125 98.7817 26.8231C97.5851 27.0712 95.7619 29.5166 95.4302 30.7598L92.4531 41.0384H86.1681L90.3028 26.6159H87.8214L88.4007 24.6264H97.1682L96.4236 27.279C98.2433 24.8752 100.806 24.2536 101.882 24.2137C103.594 24.2137 104.982 25.3969 104.982 27.1128C104.982 27.9368 104.655 28.727 104.074 29.3097C103.492 29.8923 102.704 30.2196 101.882 30.2196ZM74.1178 31.5684C74.6971 29.7446 75.5234 25.6001 78.4188 25.6001C81.3142 25.6001 79.8245 29.9934 79.411 31.5684H74.1178ZM20.6379 18.62H23.2016C25.1866 18.7031 26.0135 20.5263 24.9384 25.2515C23.8632 29.976 21.3819 31.5511 19.4798 31.5511H16.9161L20.6379 18.62Z" fill="black"/>
</svg>
