<svg width="134" height="66" viewBox="0 0 134 66" fill="none" xmlns="http://www.w3.org/2000/svg">
<g clip-path="url(#clip0)">
<path d="M41.3883 20.6177H49.8926V23.4041H45.8471V42.9814H41.3883V20.6177ZM54.9346 34.5859L55.6988 23.4041H55.9547L56.7189 34.5859H54.9346ZM49.9968 42.9814H54.3625L54.7754 37.0422H56.8778L57.2927 42.9814H61.6564L59.3312 20.6177H52.3221L49.9968 42.9814ZM68.0422 35.1542V39.3702C68.0422 39.9385 68.4809 40.1035 68.7368 40.1035C69.1572 40.1035 69.4498 39.7552 69.4498 39.3702V34.1646C69.4498 33.4678 69.3217 32.698 67.6582 32.698H65.8483V30.2418H67.7313C68.9927 30.2418 69.4498 29.9484 69.4498 28.5735V24.1373C69.4498 23.7523 69.1572 23.4041 68.7366 23.4041C68.4809 23.4041 68.0422 23.5506 68.0422 24.1373V27.7851H63.5814V24.614C63.5814 23.0558 63.7642 20.6177 66.8901 20.6177H70.5829C73.709 20.6177 73.9102 23.0558 73.9102 24.614V28.1883C73.9102 30.6264 72.21 31.2864 70.8755 31.2313V31.4513C73.8735 31.378 73.9102 33.6875 73.9102 34.4759V38.9854C73.9102 40.5618 73.709 42.9814 70.5829 42.9814H66.8901C63.7642 42.9814 63.5814 40.5616 63.5814 38.9852V35.1542H68.0422ZM76.8353 20.6177H87.1641V42.9814H82.7035V23.4041H81.2959V42.9814H76.8353V20.6177ZM94.5497 32.9179V23.4043H95.1348C95.6099 23.4043 95.9573 23.8072 95.9573 24.5223V31.7996C95.9573 32.5147 95.6099 32.9177 95.1346 32.9177L94.5497 32.9179ZM90.089 42.9814H94.5497V35.3741H97.1087C100.217 35.3741 100.418 32.9544 100.418 31.3778V24.614C100.418 23.0558 100.217 20.6177 97.1089 20.6177H90.089V42.9814ZM109.211 39.3702C109.211 39.7552 108.918 40.1035 108.498 40.1035C108.242 40.1035 107.803 39.9385 107.803 39.3702V24.1373C107.803 23.5506 108.242 23.4041 108.498 23.4041C108.918 23.4041 109.211 23.7523 109.211 24.1373V39.3702ZM103.343 38.9854C103.343 40.5618 103.544 42.9814 106.652 42.9814H110.363C113.47 42.9814 113.672 40.5616 113.672 38.9852V24.614C113.672 23.0558 113.471 20.6177 110.363 20.6177H106.652C103.544 20.6177 103.343 23.0558 103.343 24.614V38.9854ZM128.187 20.6177H134V42.9814H129.54V28.9583H129.375L127.072 42.9814H123.507L121.222 28.9583H121.057V42.9814H116.597V20.6177H122.392L125.298 36.3456L128.187 20.6177ZM35.6077 12.369C34.2423 6.37476 30.8199 1.49884 30.3483 0.710449C29.6024 1.82854 26.8731 6.13653 25.4856 10.9024C23.97 16.2366 23.747 20.966 24.2701 25.6037C24.7892 30.2597 26.7506 35.0442 26.7506 35.0442C27.7927 37.5372 29.3538 40.2317 30.3703 41.5516C31.8601 39.6086 35.2843 33.8159 36.3518 26.2637C36.946 22.0475 36.9716 18.3632 35.6077 12.369ZM30.3483 40.0485C29.6775 38.7837 28.6353 36.3822 28.5366 32.6427C28.511 29.05 29.9497 25.952 30.3703 25.3105C30.7451 25.9522 31.9844 28.6466 32.1326 32.3312C32.233 35.9241 31.0412 38.7651 30.3483 40.0485ZM35.2112 22.5424C35.16 24.8339 34.8875 27.2536 34.5402 28.7017C34.6645 26.2088 34.3666 22.7075 33.7961 19.9579C33.2257 17.2265 31.6115 12.644 30.3229 10.5358C29.1328 12.5523 27.6664 16.5116 26.8987 19.9396C26.1272 23.3673 26.1054 27.5285 26.1054 28.775C25.9005 27.73 25.3887 23.9724 25.5331 20.2145C25.6538 17.1167 26.3776 13.9088 26.7744 12.4423C28.288 7.54797 30.001 4.41337 30.3227 3.91833C30.6446 4.41337 32.8016 8.28124 33.9204 12.3322C35.0339 16.3834 35.2587 20.2695 35.2112 22.5426" fill="#0079C2"/>
<path d="M32.6645 42.9446H22.2827V49.9287C22.292 49.9287 22.2993 49.9104 22.3083 49.9104C24.7543 47.4541 28.7214 47.4541 31.1692 49.9104C33.6152 52.3484 33.6152 56.3261 31.1692 58.7826C31.1582 58.8007 31.1472 58.8007 31.1363 58.8191C31.1235 58.8191 31.1107 58.8375 31.0997 58.8559C28.6592 61.2755 25.471 62.4853 22.2827 62.4853C19.08 62.4853 15.8771 61.2755 13.4348 58.8191C9.12766 54.5113 8.61761 47.8206 11.9009 42.9446C12.3517 42.2738 12.8653 41.6478 13.4348 41.0749C15.8771 38.6187 19.08 37.4087 22.2827 37.4087V20.6177C9.97597 20.6177 0 30.608 0 42.9446C0 55.2813 9.97597 65.29 22.2827 65.29C28.6994 65.29 34.4799 62.5586 38.5455 58.2142V42.9446H32.6645ZM134 49.5151H41.3883V65.29H134V49.5151ZM125.992 60.5276H127.167V58.1465H125.992V60.5276ZM125.992 56.3607H127.77L128.96 56.9561L129.254 57.5513L129.548 58.7419V59.3371C129.517 63.6018 126.78 62.0406 123.905 62.3136V52.4914H125.992V56.3607ZM110.547 52.4914V54.2772H109.063V62.3136H106.698V54.2772H105.214V52.4914H110.547ZM88.8877 59.6348H89.1814L89.7689 59.3371V55.1701H88.8877V59.6348ZM86.5069 55.1703H85.6101V59.3371L86.213 59.6348H86.5069V55.1703ZM88.8877 52.4914V53.3843H90.3719L91.2532 53.9795L91.856 54.5749L92.1497 55.7655V59.0396L91.8562 60.2302L91.2532 60.8253L90.3719 61.4205H88.8877V62.3134H86.5069V61.4205H85.0227L84.1261 60.8253L83.5386 60.2302L83.2449 59.0396V55.7655L83.5384 54.5749L84.1261 53.9795L85.0227 53.3843H86.5069V52.4914H88.8877ZM69.5875 52.4914V54.2772H67.8065V56.3607H69.5875V58.1465H67.8065V60.5276H69.8844V62.3134H65.4318V52.4914H69.5875ZM48.2155 56.3607H49.4029V52.4914H51.4807V62.3136H49.4029V58.1465H48.2155V62.3136H45.8408V52.4914H48.2155V56.3607Z" fill="#0079C2"/>
</g>
<defs>
<clipPath id="clip0">
<rect width="134" height="66" fill="white"/>
</clipPath>
</defs>
</svg>
