<svg width="135" height="31" viewBox="0 0 135 31" fill="none" xmlns="http://www.w3.org/2000/svg">
<path d="M10.6596 22.0606C12.8205 25.9796 16.7837 28.6089 21.1945 28.6089C27.7116 28.6089 31.2992 22.3879 31.2992 22.3879L31.761 24.045C28.7438 28.3855 23.3537 31.0003 17.3232 31.0003C10.3802 31.0003 4.39229 27.3367 1.63709 22.0534C0.599715 20.0635 0.0206299 17.8408 0.0206299 15.4999C0.0206299 6.93927 7.76643 0 17.323 0C24.0752 0 29.5117 3.1991 32.3655 7.8352L21.0358 15.3395L27.5017 4.35757C25.6518 3.07071 23.3823 1.86568 21.0358 1.86568C14.4026 1.86568 8.9393 7.98838 8.9393 15.3252C8.9393 17.7835 9.57044 20.0933 10.6596 22.0606ZM40.9957 22.0562C40.9618 22.3065 40.9448 22.5593 40.9449 22.8124C40.9449 25.5975 42.9863 27.8557 45.5044 27.8557C48.0225 27.8557 50.0636 25.5977 50.0636 22.8124C50.0637 22.5584 50.0466 22.3047 50.0125 22.0534C49.6828 19.6299 47.7901 17.7694 45.5041 17.7694C43.2184 17.7694 41.3255 19.6299 40.9957 22.0562ZM57.9138 22.0534L60.1798 30.4964H52.231L50.6681 24.715C49.6215 28.0464 46.0894 30.4964 41.8936 30.4964C36.8734 30.4964 32.8041 26.9893 32.8041 22.6623C32.8041 22.4598 32.8131 22.2587 32.8305 22.0534C33.1877 18.0149 37.1088 14.8282 41.8936 14.8282C44.6095 14.8282 47.0471 15.8547 48.7126 17.4821L46.5475 9.47497H37.4246C37.4246 9.47497 38.9424 8.46802 45.6735 5.75904C52.4046 3.05033 54.5376 9.47497 54.5376 9.47497L57.9138 22.0534ZM83.328 22.0534V30.4964H75.1491V11.9465C75.1491 11.291 74.9137 10.6624 74.4946 10.1989C74.0756 9.73536 73.5073 9.47497 72.9147 9.47497C72.4646 9.47485 72.025 9.62507 71.6534 9.90596C71.2819 10.1869 70.9956 10.5853 70.8322 11.0492V30.4964H62.805V9.47497H58.1235C58.1235 9.47497 64.6361 5.11079 66.8944 5.11079C69.0347 5.11079 70.6188 6.92963 70.8168 9.24658C73.9665 7.3674 77.0898 5.11079 79.2388 5.11079C81.459 5.11079 83.2663 7.06793 83.328 9.50803V22.0534ZM95.9277 22.0534L97.0659 26.2149C97.0878 27.9984 98.4129 29.4252 100.039 29.4252C101.702 29.4252 103.05 27.9348 103.05 26.0958C103.05 25.9655 103.043 25.8374 103.03 25.7112L102.062 22.0534L98.6639 9.20774C98.4966 7.54317 97.2211 6.24915 95.6716 6.24915C94.1379 6.24915 92.6756 7.83437 92.4888 9.47469L95.9277 22.0534ZM108.944 22.0551C107.395 27.2502 102.971 31.0003 97.7553 31.0003C92.5391 31.0003 88.1151 27.2505 86.5657 22.0534C86.1735 20.7363 85.9743 19.3582 85.9756 17.9714C85.9756 10.7756 91.2494 4.94273 97.7553 4.94273C104.261 4.94273 109.535 10.7756 109.535 17.9714C109.535 19.3976 109.327 20.7707 108.944 22.0551ZM122.486 22.0534V30.4964H114.459V9.47497H109.97C109.97 9.47497 116.29 5.11079 118.548 5.11079C120.689 5.11079 122.273 6.92963 122.471 9.24658C125.621 7.3674 128.744 5.11079 130.893 5.11079C133.113 5.11079 134.921 7.06793 134.982 9.50803V30.4964H126.803V11.9465C126.803 11.291 126.568 10.6624 126.149 10.1989C125.73 9.73536 125.161 9.47497 124.569 9.47497C124.119 9.47485 123.679 9.62507 123.307 9.90596C122.936 10.1869 122.65 10.5853 122.486 11.0492V22.0534Z" fill="#CC2229"/>
</svg>
