<svg width="124" height="39" viewBox="0 0 124 39" fill="none" xmlns="http://www.w3.org/2000/svg">
<path fill-rule="evenodd" clip-rule="evenodd" d="M86.6357 38.5586L89.506 33.8828H111.048L114.034 38.688L123.147 28.936H119.305L106.773 8.37768H98.2829L84.9414 28.8214H80.9912L86.6357 38.5586ZM92.6253 28.8027L100.211 16.4477L107.891 28.8027H92.6253ZM80.2284 8.37768H92.237C87.8515 15.5214 83.1228 23.0018 78.349 28.8053C76.1579 31.4696 73.6609 33.8969 68.8936 33.8834C65.4429 33.8744 62.804 32.6514 60.8894 30.5819V24.8215C62.5863 26.8736 65.0631 28.4622 67.3104 28.4951C68.4681 28.5292 69.5578 27.9254 71.2684 24.8215L71.4371 24.4906C69.2257 23.5528 66.7973 21.3462 65.0167 18.8042C63.2341 16.2591 61.7326 13.5639 59.6232 11.2305C58.5178 10.0082 57.2209 9.07673 55.8554 8.37768H66.3855C67.7987 11.2402 69.3362 14.093 71.1861 16.8725C71.6802 17.6153 72.2189 18.3607 72.8739 18.9562C73.2314 19.2812 73.5811 19.4679 73.8302 19.7434C75.8834 15.9179 78.0948 12.171 80.2284 8.37768ZM28.6167 33.8828H39.1612V26.9721C39.1612 26.7004 39.3801 26.826 39.5187 26.9296C41.4758 28.311 46.8942 28.58 49.1971 28.6824C56.7267 28.7654 59.0231 24.4063 59.2369 18.7952C59.3892 14.8056 55.9325 8.37768 47.5687 8.37768H28.6167V33.8828ZM39.1331 14.6762V20.7102C41.283 21.7221 43.1342 22.156 44.6873 22.1785C45.5927 22.192 46.5019 22.0214 47.0805 21.4846C47.5733 21.0282 48.095 20.0588 48.0793 19.083C48.0172 15.3045 44.6867 14.6762 41.8314 14.6762H39.1331ZM0.852478 0.299316H28.0363V8.37768H19.9248V33.8834H8.98617V8.37768H0.852478V0.299316Z" fill="black"/>
</svg>
