<svg width="157" height="115" viewBox="0 0 157 115" fill="none" xmlns="http://www.w3.org/2000/svg">
<g clip-path="url(#clip0)">
<path d="M0.00585938 0H156.996V115H0.00585938V0Z" fill="#FFCB01"/>
<path d="M29.1779 43.7803L24.3164 51.3641H50.8122C52.152 51.3641 52.1353 51.9434 51.4804 52.9676C50.8155 54.0033 49.7029 55.7947 49.0246 56.8496C48.6805 57.3828 48.059 58.3534 50.1172 58.3534H60.9527L64.1636 53.3435C66.155 50.2402 64.3374 43.7842 57.2173 43.7842L29.1779 43.7803Z" fill="#D80613"/>
<path d="M22.3482 68.4881L32.1146 53.2515H44.2331C45.573 53.2515 45.5563 53.8345 44.9014 54.8549L42.4289 58.7216C42.0847 59.2548 41.4633 60.2253 43.5215 60.2253H59.753C58.4065 62.3505 54.0229 68.4881 46.1643 68.4881H22.3482ZM78.2733 60.2215L72.9775 68.4881H59.0079L64.3037 60.2215H78.2733ZM99.6704 58.3495H65.5066L74.8486 43.7803H88.8115L83.4589 52.1352H89.6902L95.0495 43.7803H109.012L99.6704 58.3495ZM98.4709 60.2215L93.1751 68.4881H79.2122L84.508 60.2215H98.4709ZM2.41797 63.4821H22.9931L21.8705 65.2352H2.41797V63.4821ZM2.41797 60.2215H25.0847L23.9587 61.9746H2.41797V60.2215ZM2.41797 66.7427H20.9048L19.7855 68.4881H2.41797V66.7427ZM154.586 65.2352H134.085L135.211 63.4821H154.586V65.2352ZM154.586 68.4881H132.003L133.119 66.7427H154.586V68.4881ZM137.299 60.2215H154.586V61.9784H136.176L137.299 60.2215ZM128.351 43.7803L119.009 58.3495H104.211L113.56 43.7803H128.351ZM103.015 60.2215C103.015 60.2215 101.996 61.825 101.498 62.5922C99.7472 65.3157 101.294 68.4843 107.018 68.4843H129.444L134.74 60.2215H103.015Z" fill="#D80613"/>
</g>
<defs>
<clipPath id="clip0">
<rect width="157" height="115" fill="white"/>
</clipPath>
</defs>
</svg>
