<svg width="191" height="92" viewBox="0 0 191 92" fill="none" xmlns="http://www.w3.org/2000/svg">
<path d="M58.9939 28.3644H71.1158V32.3328H65.3494V60.2157H58.9939V28.3644ZM78.3025 48.2585L79.3917 32.3328H79.7565L80.8457 48.2585H78.3025ZM71.2643 60.2157H77.487L78.0756 51.7568H81.0723L81.6637 60.2157H87.8836L84.5692 28.3644H74.5787L71.2643 60.2157ZM96.9857 49.0679V55.0724C96.9857 55.8819 97.611 56.1168 97.9758 56.1168C98.575 56.1168 98.992 55.6208 98.992 55.0724V47.6584C98.992 46.666 98.8095 45.5696 96.4384 45.5696H93.8586V42.0714H96.5425C98.3405 42.0714 98.992 41.6536 98.992 39.6954V33.3772C98.992 32.8288 98.575 32.3328 97.9755 32.3328C97.611 32.3328 96.9857 32.5416 96.9857 33.3772V38.5725H90.6274V34.0561C90.6274 31.8368 90.8879 28.3644 95.3435 28.3644H100.607C105.063 28.3644 105.35 31.8368 105.35 34.0561V39.1468C105.35 42.6191 102.926 43.5591 101.024 43.4806V43.7941C105.298 43.6897 105.35 46.9789 105.35 48.1018V54.5244C105.35 56.7695 105.063 60.2157 100.607 60.2157H95.3435C90.8879 60.2157 90.6274 56.7692 90.6274 54.5241V49.0679H96.9857ZM109.519 28.3644H124.242V60.2157H117.884V32.3328H115.877V60.2157H109.519V28.3644ZM134.769 45.8828V32.3331H135.603C136.28 32.3331 136.775 32.907 136.775 33.9255V44.2901C136.775 45.3085 136.28 45.8825 135.602 45.8825L134.769 45.8828ZM128.411 60.2157H134.769V49.3811H138.416C142.846 49.3811 143.133 45.9348 143.133 43.6894V34.0561C143.133 31.8368 142.846 28.3644 138.417 28.3644H128.411V60.2157ZM155.667 55.0724C155.667 55.6208 155.25 56.1168 154.65 56.1168C154.285 56.1168 153.66 55.8819 153.66 55.0724V33.3772C153.66 32.5416 154.286 32.3328 154.65 32.3328C155.25 32.3328 155.667 32.8288 155.667 33.3772V55.0724ZM147.302 54.5244C147.302 56.7695 147.589 60.2157 152.019 60.2157H157.308C161.738 60.2157 162.025 56.7692 162.025 54.5241V34.0561C162.025 31.8368 161.738 28.3644 157.308 28.3644H152.019C147.589 28.3644 147.302 31.8368 147.302 34.0561V54.5244ZM182.714 28.3644H191V60.2157H184.642V40.2435H184.408L181.125 60.2157H176.043L172.786 40.2435H172.552V60.2157H166.194V28.3644H174.454L178.597 50.7647L182.714 28.3644ZM50.7545 16.6162C48.8083 8.07896 43.9301 1.13445 43.2578 0.0115967C42.1947 1.60402 38.3044 7.73965 36.3267 14.5274C34.1664 22.1247 33.8486 28.8604 34.5941 35.4656C35.334 42.097 38.1297 48.9112 38.1297 48.9112C39.6152 52.4618 41.8403 56.2994 43.2893 58.1794C45.4127 55.412 50.2934 47.1618 51.8151 36.4056C52.662 30.4008 52.6985 25.1534 50.7545 16.6162ZM43.2578 56.0386C42.3017 54.2371 40.8162 50.8168 40.6755 45.4909C40.639 40.374 42.6898 35.9616 43.2893 35.0481C43.8234 35.9619 45.5899 39.7995 45.8011 45.0472C45.9443 50.1643 44.2454 54.2107 43.2578 56.0386ZM50.1893 31.1056C50.1162 34.3692 49.7279 37.8154 49.2328 39.878C49.41 36.3274 48.9854 31.3408 48.1722 27.4247C47.3593 23.5345 45.0584 17.0078 43.2216 14.0053C41.5253 16.8773 39.4352 22.5163 38.3409 27.3985C37.2413 32.2805 37.2101 38.2071 37.2101 39.9824C36.9181 38.494 36.1885 33.1422 36.3944 27.7902C36.5665 23.3781 37.5982 18.8093 38.1637 16.7205C40.3212 9.74988 42.7628 5.28546 43.2213 4.5804C43.6802 5.28546 46.7547 10.7942 48.3494 16.5638C49.9365 22.3337 50.2569 27.8684 50.1893 31.1058" fill="#0079C2"/>
<path d="M46.5591 60.1635H31.7612V70.1106C31.7744 70.1106 31.7848 70.0844 31.7977 70.0844C35.2842 66.5861 40.9388 66.5861 44.4278 70.0844C47.9143 73.5568 47.9143 79.222 44.4278 82.7206C44.4121 82.7464 44.3963 82.7464 44.3809 82.7726C44.3626 82.7726 44.3444 82.7988 44.3287 82.8249C40.85 86.2712 36.3057 87.9941 31.7612 87.9941C27.1961 87.9941 22.6307 86.2712 19.1496 82.7726C13.0103 76.6373 12.2833 67.108 16.9632 60.1635C17.6057 59.2081 18.3378 58.3164 19.1496 57.5006C22.6307 54.0023 27.1961 52.279 31.7612 52.279V28.3645C14.2195 28.3645 0 42.5931 0 60.1635C0 77.734 14.2195 91.9887 31.7612 91.9887C40.9073 91.9887 49.1467 88.0985 54.9417 81.9111V60.1635H46.5591ZM191 69.5214H58.9938V91.9887H191V69.5214ZM179.585 85.206H181.26V81.8146H179.585V85.206ZM179.585 79.2712H182.12L183.816 80.1192L184.235 80.9669L184.654 82.6626V83.5103C184.61 89.5843 180.709 87.3608 176.61 87.7496V73.7605H179.585V79.2712ZM157.571 73.7605V76.3039H155.456V87.7496H152.084V76.3039H149.969V73.7605H157.571ZM126.698 83.9343H127.117L127.954 83.5103V77.5756H126.698V83.9343ZM123.305 77.5758H122.026V83.5103L122.886 83.9343H123.305V77.5758ZM126.698 73.7605V75.0322H128.814L130.07 75.8799L130.929 76.7279L131.348 78.4235V83.0866L130.929 84.7823L130.07 85.63L128.814 86.4777H126.698V87.7494H123.305V86.4777H121.189L119.911 85.63L119.074 84.7823L118.655 83.0866V78.4235L119.073 76.7279L119.911 75.8799L121.189 75.0322H123.305V73.7605H126.698ZM99.1881 73.7605V76.3039H96.6496V79.2712H99.1881V81.8146H96.6496V85.206H99.6113V87.7494H93.2648V73.7605H99.1881ZM68.7251 79.2712H70.4175V73.7605H73.3792V87.7496H70.4175V81.8146H68.7251V87.7496H65.3403V73.7605H68.7251V79.2712Z" fill="#0079C2"/>
</svg>
