<svg width="212" height="103" viewBox="0 0 212 103" fill="none" xmlns="http://www.w3.org/2000/svg">
<path fill-rule="evenodd" clip-rule="evenodd" d="M128.783 16.3101H145.903V16.7213H141.346V53.5521C141.346 59.3021 147.42 62.8621 152.529 62.8621C158.189 62.8621 163.023 58.892 163.023 53.2783V16.7213H157.638V16.3101H201.818V33.2875H201.406C200.991 28.9062 200.024 24.2513 196.987 20.6913C193.672 17.1314 189.393 16.7202 184.974 16.7202H180.14V38.7637C181.247 38.7637 182.214 38.9 183.178 38.9C189.115 38.9 190.771 34.7926 191.049 29.7264H191.463V49.0313H191.049C190.219 44.3763 188.148 39.4476 182.766 39.4476C181.936 39.4476 181.107 39.4476 180.14 39.5839V63.1336H187.459C191.049 63.1336 194.775 61.4911 197.4 58.8898C199.609 56.6987 201.265 53.8226 201.817 50.8112C202.094 49.0313 202.232 47.2513 202.232 45.6088H202.646V63.5448H168.13V63.1336H172.272V16.7213H163.712V53.4158C163.712 60.9457 156.394 64.2319 149.629 64.2319C142.036 64.2319 133.474 60.5346 133.474 51.9095V16.7213H128.78V16.3101H128.783ZM9.35352 16.3101H26.3361V16.7213H22.1941L34.8961 51.2246L45.6646 16.7213H41.3851V16.3101H50.4973V16.7213H46.4939L31.3062 64.5057L13.7716 16.7213H9.35352V16.3101ZM66.237 64.9169C60.5762 64.9169 55.0539 61.9044 51.6015 57.5232C47.597 52.5934 45.6646 46.2959 45.6646 39.9983C45.6646 34.1109 47.4595 28.0872 51.188 23.2948C54.7778 18.6398 60.1626 15.2172 66.3756 15.2172C72.0365 15.2172 77.2827 18.5034 80.7351 22.6109C84.7385 27.5396 86.672 33.8372 86.672 40.1358C86.672 46.1595 84.8771 52.047 81.2872 56.8394C77.6962 61.4933 72.174 64.9169 66.237 64.9169ZM78.1109 39.9973C78.1109 33.1522 75.4878 15.9 66.237 15.9C56.7103 15.9 54.2257 33.1511 54.2257 39.9973C54.2257 46.9797 56.7103 64.2319 66.237 64.2319C75.4878 64.2319 78.1109 46.9797 78.1109 39.9973ZM124.086 15.3525V32.0561H123.674C122.982 28.7699 121.878 25.6211 120.082 22.7461C118.011 19.3225 114.698 15.6263 110.28 15.6263C100.339 15.6263 99.3729 33.2885 99.3729 40.1347C99.3729 46.1584 99.925 52.4571 102.135 58.2082C103.653 62.1793 105.863 64.0945 110.144 64.0945C113.456 64.0945 117.045 62.452 118.841 59.5759C119.256 58.892 119.256 58.0696 119.256 57.2484V44.3785H114.837V43.831H130.852V44.3785H127.123V63.547H126.848C125.881 62.0408 124.362 60.9457 122.566 60.9457C121.047 60.9457 119.806 61.4933 118.562 62.1782L117.457 62.7257C114.972 63.8208 112.626 64.5057 109.864 64.5057C97.4383 64.5057 90.8118 51.4984 90.8118 40.5448C90.8118 32.6036 93.987 23.9786 100.477 19.0488C103.376 16.7213 106.965 15.0787 110.695 15.0787C112.213 15.0787 113.595 15.6262 114.974 16.0374L115.941 16.585C117.185 16.8587 118.289 17.4062 119.67 17.4062C121.05 17.4062 122.568 16.3112 123.675 15.3525H124.086Z" fill="black"/>
<path fill-rule="evenodd" clip-rule="evenodd" d="M86.2565 72.8582C83.772 76.6919 82.6667 75.7332 83.0813 72.447C83.7709 67.6535 91.0881 58.7548 94.4018 56.1546C99.9252 51.4986 86.3951 72.5834 86.2565 72.8582Z" fill="white"/>
<path fill-rule="evenodd" clip-rule="evenodd" d="M114.837 61.9047C113.733 62.041 112.628 61.2198 112.351 60.1237V59.9873C110.832 63.1361 109.176 66.4223 107.517 69.8448C106.277 72.4471 105.033 74.912 103.653 77.6496C102.134 80.9358 100.753 82.7158 99.6491 83.5359C98.5449 84.4947 97.3021 84.4946 96.3353 83.9471C95.5072 83.5359 94.9551 82.7147 94.679 81.6186C94.1269 79.8386 94.1269 76.8262 94.679 73.2673C94.679 72.8572 95.0925 67.2435 95.0925 66.696C92.8841 68.7498 82.1145 92.847 77.6964 91.752C76.3161 91.067 75.488 89.5608 75.2119 87.5071C74.7984 83.8097 76.4547 76.9647 80.5967 69.0235C81.0102 68.0648 81.5624 67.2435 81.977 66.5586C82.5291 65.5999 82.9426 64.7786 83.4948 63.9574H83.6333C84.0469 63.135 84.599 62.4511 85.1522 61.6288C79.0778 67.3788 73.1398 75.1847 67.8936 81.8923C62.2327 89.286 57.5386 95.4482 53.9488 97.2282V97.3645C52.0163 98.1858 50.2214 97.7757 48.84 96.817C48.7025 96.6807 48.4265 96.4069 48.1493 96.2695C48.0118 95.9958 47.8733 95.8583 47.5972 95.5846C41.6614 87.6434 47.4597 71.0762 54.2248 60.3963C56.2958 57.2476 58.3668 54.51 60.1617 52.73C62.5088 50.4025 64.7184 49.3064 66.5122 49.5802C68.1685 49.7176 69.2739 50.8126 69.826 52.73C70.3781 54.9212 70.1021 57.9336 69.2739 60.1226C68.8592 61.0813 68.4457 61.9036 67.755 62.5875C66.9268 63.4098 65.9601 63.8199 64.7173 63.6836C63.7505 63.5462 62.7848 63.135 61.8181 62.1774C60.9899 61.355 60.9899 59.9862 61.8181 59.165C62.6463 58.3437 64.0266 58.3437 64.8558 59.165C64.8558 59.3013 64.9933 59.3013 64.9933 59.3013C65.1661 59.1137 65.2642 58.8703 65.2694 58.6164C65.9601 57.2476 66.0976 55.1938 65.684 53.824C65.684 53.6876 66.0976 53.6876 65.9601 53.6876C65.5454 53.5502 64.5798 54.3726 63.1984 55.6039C61.542 57.2476 59.6085 59.7125 57.8136 62.5864C51.0485 75.4574 48.2868 91.3386 52.5674 91.8872C56.0187 92.2973 74.244 67.7889 87.3596 55.8766C90.812 52.8642 93.8486 50.6741 96.1957 49.8528H96.6092C99.5084 49.5791 100.889 51.2227 101.166 53.6876C101.303 55.4676 100.751 57.9325 99.923 60.3952C99.0948 66.1463 98.8188 69.98 98.8188 75.7311C100.89 72.4449 101.994 71.4862 103.651 68.0637C113.731 47.2527 121.187 31.6441 145.762 21.923C146.868 21.5129 148.11 22.0593 148.525 23.1554C148.939 24.2516 148.387 25.4829 147.281 25.8941C129.196 33.014 120.91 43.8302 113.454 57.9325C113.594 57.7951 113.869 57.7951 114.146 57.6577C116.907 57.2476 119.53 56.7001 122.291 56.1525L123.533 52.044C127.4 40.5429 132.508 33.1503 139.135 31.0955C140.24 30.6843 141.346 31.3693 141.759 32.4643C142.036 33.5593 141.484 34.7918 140.379 35.0655C135.132 36.7081 130.99 43.143 127.538 53.4128C127.4 53.9603 127.263 54.5078 127.123 55.0553C128.919 54.5078 130.713 54.0966 132.508 53.5491C135.38 52.7449 138.234 51.8777 141.068 50.9479C141.345 50.6741 141.483 50.4003 141.757 50.1255C142.743 48.8762 143.804 47.6873 144.935 46.5656C146.177 45.4705 147.281 44.3755 148.387 43.5531V43.4168C151.285 41.2267 154.185 40.4044 155.981 40.8155C157.222 40.953 158.052 41.5005 158.604 42.3218C159.293 43.143 159.57 44.2392 159.156 45.4716C158.604 47.1142 156.808 49.169 153.081 51.0842L152.942 51.2216C149.766 52.4541 146.73 53.5491 143.692 54.5078C139.688 59.7114 137.203 65.324 139.965 68.7476C143.277 72.5813 148.387 70.3912 153.356 66.6939C159.018 62.3115 164.127 56.014 166.473 53.0016C167.165 52.1803 168.544 52.0429 169.511 52.7278C170.34 53.4128 170.617 54.7816 169.788 55.6028C167.44 58.7527 161.917 65.324 155.982 69.98C149.215 75.0462 141.898 77.7838 136.651 71.3488C133.476 67.3777 134.442 61.7651 137.343 56.5615C136.099 56.8353 134.857 57.2465 133.751 57.5202C130.99 58.3426 128.367 59.0264 125.745 59.7114C122.982 69.7063 120.911 82.1661 119.256 96.6796C119.256 97.7746 118.152 98.5959 117.045 98.4596C115.804 98.3221 114.974 97.3635 115.114 96.131C116.633 82.5762 118.564 70.5275 121.049 60.6701L114.837 61.9047ZM83.2198 74.912C83.3573 74.912 83.3573 74.912 83.4948 75.0484H83.6333C83.7708 75.0484 84.0469 74.912 84.3229 74.6372C85.2897 73.6796 86.8086 71.4884 88.3274 69.1609C89.4317 67.2446 90.5359 65.3272 91.5027 63.821C91.9173 62.9998 92.3308 62.3148 92.7455 61.7673C92.7455 61.7673 92.883 61.4935 93.0215 61.0824C93.8497 59.5761 95.6446 56.0162 95.3686 55.7424C95.0925 55.4687 93.2976 57.2487 92.6069 58.0699C92.4694 58.3448 92.3308 58.4811 92.3308 58.4811C92.0548 58.7549 91.6412 59.3024 90.9505 59.9873C89.4317 61.9047 86.8086 65.3272 84.8761 68.3386C84.048 69.8448 83.3573 71.2147 83.0812 72.4471C82.8052 73.5422 82.8052 74.3634 83.2198 74.912ZM155.427 35.7527C154.323 34.9314 154.048 33.4252 154.875 32.3301C155.152 31.7826 155.567 31.2351 155.982 30.6865C162.608 21.5129 169.511 11.7918 174.206 9.1916C176.967 7.54797 179.315 7.68539 180.832 10.423C181.522 11.6554 181.107 13.1616 179.866 13.8466C178.761 14.5304 177.243 14.1203 176.551 12.8879C176.413 12.6141 176.69 13.298 176.69 13.4354C170.617 14.2567 159.019 31.7826 155.427 35.7527ZM149.63 47.9387C150.182 47.8024 150.734 47.5286 151.286 47.3912C153.082 46.4336 154.187 45.6112 154.739 44.9274C153.772 45.0637 152.53 45.6112 151.011 46.7073V46.8437C150.597 47.1174 150.182 47.5275 149.63 47.9387Z" fill="#CC2229"/>
</svg>
