<svg width="141" height="82" viewBox="0 0 141 82" fill="none" xmlns="http://www.w3.org/2000/svg">
<path fill-rule="evenodd" clip-rule="evenodd" d="M70.5002 0.0518188C31.6376 0.0518188 0.132812 18.4456 0.132812 41.1346C0.132812 55.3961 12.581 67.9618 31.4804 75.3281L46.0838 24.0088C47.4882 19.1309 52.5659 8.9419 63.5856 8.50793C66.6103 8.29131 72.6637 10.4589 72.6622 16.4206C72.6622 18.706 70.6785 20.5596 68.2314 20.5596C65.7844 20.5596 63.8007 18.706 63.8007 16.4206C63.8007 14.1345 65.7844 12.2816 68.2314 12.2816C67.4754 11.3261 65.2066 10.025 63.5856 10.025C61.9645 10.025 58.1837 10.6755 55.8073 18.8048L52.0258 31.812H66.1786L60.1282 53.2738H52.6201L57.9678 34.4136H51.3232L38.9563 77.8678C48.4436 80.6513 59.1586 82.2173 70.4995 82.2173C109.361 82.2173 140.868 63.8236 140.868 41.1338C140.868 18.4456 109.362 0.0518188 70.5002 0.0518188ZM40.0854 33.7457C37.6007 43.1762 29.0657 43.0682 26.2568 43.0682H20.7466L17.7218 53.2572H9.61864L17.9377 23.9907H13.832L14.4804 21.823H31.658C41.1656 21.8223 41.2739 28.6512 40.0854 33.7457ZM82.0728 53.2821H64.4619L76.9936 34.4212H69.7562L70.5122 31.8196H88.2299L75.6975 50.6805H82.828L82.0728 53.2821ZM110.383 43.0916H95.3657C94.2855 46.5604 93.6363 51.0043 96.5543 51.113C99.4707 51.2217 101.091 48.2948 102.064 45.3679H109.41C107.035 53.2806 100.335 54.0399 96.1225 53.8233C87.1542 53.2806 85.9671 47.6442 87.9109 41.5746C90.3956 33.554 95.6907 30.735 102.171 30.735C111.572 30.9516 111.572 38.7556 110.383 43.0916ZM132.395 39.133C130.159 39.133 128.181 37.293 128.346 34.6914C126.783 35.0159 124.401 38.2137 123.968 39.8395L120.079 53.2806H111.868L117.27 34.4204H114.028L114.785 31.8188H126.238L125.265 35.2876C127.642 32.1441 130.991 31.3313 132.396 31.2792C134.632 31.2792 136.445 32.8264 136.445 35.0702C136.445 36.1478 136.018 37.1812 135.259 37.9431C134.499 38.705 133.469 39.133 132.395 39.133ZM96.127 40.8968C96.8837 38.5119 97.9632 33.0921 101.746 33.0921C105.528 33.0921 103.582 38.8372 103.042 40.8968H96.127ZM26.2659 23.9642H29.6149C32.2078 24.0729 33.2881 26.4571 31.8836 32.6362C30.4792 38.8145 27.2378 40.8742 24.7531 40.8742H21.4041L26.2659 23.9642Z" fill="black"/>
</svg>
