<svg width="192" height="44" viewBox="0 0 192 44" fill="none" xmlns="http://www.w3.org/2000/svg">
<path d="M15.1603 31.3118C18.2336 36.8742 23.8701 40.6062 30.1432 40.6062C39.4121 40.6062 44.5144 31.7764 44.5144 31.7764L45.1712 34.1284C40.88 40.2891 33.2141 44.0004 24.6374 44.0004C14.7629 44.0004 6.24677 38.8005 2.32826 31.3017C0.852885 28.4772 0.0292969 25.3224 0.0292969 21.9998C0.0292969 9.84929 11.0455 0 24.6371 0C34.2403 0 41.9721 4.54065 46.0309 11.1209L29.9176 21.7722L39.1134 6.18494C36.4826 4.35843 33.2548 2.64806 29.9176 2.64806C20.4837 2.64806 12.7136 11.3383 12.7136 21.7519C12.7136 25.2411 13.6112 28.5195 15.1603 31.3118ZM58.305 31.3056C58.2567 31.6609 58.2325 32.0197 58.2327 32.3789C58.2327 36.3319 61.136 39.5372 64.7173 39.5372C68.2986 39.5372 71.2015 36.3323 71.2015 32.3789C71.2017 32.0184 71.1774 31.6583 71.1289 31.3017C70.6599 27.8618 67.9681 25.2211 64.7169 25.2211C61.4662 25.2211 58.774 27.8618 58.305 31.3056ZM82.3662 31.3017L85.589 43.2852H74.284L72.0612 35.0794C70.5727 39.8078 65.5494 43.2852 59.582 43.2852C52.4421 43.2852 46.6547 38.3074 46.6547 32.1658C46.6547 31.8784 46.6674 31.593 46.6922 31.3017C47.2002 25.5695 52.7769 21.0465 59.582 21.0465C63.4445 21.0465 66.9114 22.5035 69.2802 24.8133L66.2008 13.4483H53.226C53.226 13.4483 55.3847 12.0191 64.9578 8.17412C74.5309 4.3295 77.5646 13.4483 77.5646 13.4483L82.3662 31.3017ZM118.511 31.3017V43.2852H106.879V16.9563C106.879 16.0259 106.544 15.1337 105.948 14.4758C105.352 13.8179 104.544 13.4483 103.701 13.4483C103.061 13.4482 102.436 13.6614 101.907 14.0601C101.379 14.4588 100.971 15.0243 100.739 15.6827V43.2852H89.3226V13.4483H82.6644C82.6644 13.4483 91.9269 7.25402 95.1387 7.25402C98.1826 7.25402 100.436 9.83561 100.717 13.1242C105.197 10.457 109.639 7.25402 112.695 7.25402C115.853 7.25402 118.423 10.0319 118.511 13.4953V31.3017ZM136.43 31.3017L138.049 37.2082C138.08 39.7397 139.965 41.7649 142.278 41.7649C144.643 41.7649 146.559 39.6494 146.559 37.0393C146.559 36.8543 146.55 36.6725 146.531 36.4934L145.155 31.3017L140.322 13.069C140.084 10.7064 138.27 8.86976 136.066 8.86976C133.885 8.86976 131.805 11.1198 131.54 13.448L136.43 31.3017ZM154.943 31.304C152.74 38.6777 146.448 44.0004 139.03 44.0004C131.611 44.0004 125.319 38.6781 123.116 31.3017C122.558 29.4321 122.274 27.4761 122.276 25.5077C122.276 15.2944 129.777 7.01549 139.03 7.01549C148.282 7.01549 155.782 15.2944 155.782 25.5077C155.782 27.5321 155.488 29.481 154.943 31.304ZM174.202 31.3017V43.2852H162.786V13.4483H156.401C156.401 13.4483 165.39 7.25402 168.602 7.25402C171.646 7.25402 173.899 9.83561 174.181 13.1242C178.661 10.457 183.102 7.25402 186.159 7.25402C189.317 7.25402 191.887 10.0319 191.974 13.4953V43.2852H180.342V16.9563C180.342 16.0259 180.007 15.1337 179.411 14.4758C178.815 13.8179 178.007 13.4483 177.164 13.4483C176.524 13.4482 175.899 13.6614 175.37 14.0601C174.842 14.4588 174.435 15.0243 174.202 15.6827V31.3017Z" fill="#CC2229"/>
</svg>
