<svg width="184" height="59" viewBox="0 0 184 59" fill="none" xmlns="http://www.w3.org/2000/svg">
<path fill-rule="evenodd" clip-rule="evenodd" d="M128.758 58.3382L133.04 51.3245H165.182L169.637 58.5323L183.235 43.9044H177.503L158.804 13.0669H146.136L126.23 43.7325H120.336L128.758 58.3382ZM137.695 43.7045L149.012 25.1719L160.472 43.7045H137.695ZM119.198 13.0669H137.115C130.572 23.7825 123.516 35.003 116.393 43.7083C113.124 47.7047 109.398 51.3458 102.285 51.3255C97.1366 51.312 93.1992 49.4775 90.3425 46.3732V37.7326C92.8745 40.8108 96.57 43.1937 99.9231 43.243C101.65 43.2941 103.276 42.3885 105.829 37.7326L106.08 37.2363C102.781 35.8295 99.1575 32.5197 96.5007 28.7067C93.841 24.889 91.6007 20.8463 88.4533 17.3462C86.804 15.5126 84.869 14.1155 82.8315 13.0669H98.543C100.652 17.3607 102.946 21.6399 105.706 25.8091C106.443 26.9234 107.247 28.0415 108.224 28.9346C108.758 29.4222 109.279 29.7022 109.651 30.1155C112.715 24.3772 116.014 18.7568 119.198 13.0669ZM42.1897 51.3245H57.9227V40.9585C57.9227 40.551 58.2494 40.7393 58.4562 40.8948C61.3763 42.9668 69.4608 43.3704 72.8968 43.5239C84.1316 43.6485 87.558 37.1098 87.8769 28.6932C88.1041 22.7088 82.9466 13.0669 70.4673 13.0669H42.1897V51.3245ZM57.8807 22.5147V31.5657C61.0886 33.0835 63.8507 33.7343 66.1681 33.7681C67.5189 33.7884 68.8756 33.5325 69.7387 32.7272C70.4741 32.0427 71.2524 30.5886 71.229 29.1248C71.1364 23.4571 66.1671 22.5147 61.9069 22.5147H57.8807ZM0.763672 0.949341H41.3236V13.0669H29.2208V51.3255H12.8997V13.0669H0.763672V0.949341Z" fill="black"/>
</svg>
