<svg width="187" height="67" viewBox="0 0 187 67" fill="none" xmlns="http://www.w3.org/2000/svg">
<path d="M107.788 35.6195H109.782C109.782 37.8523 110.151 40.4249 110.679 42.3665C111.175 44.1462 112.465 45.8208 113.594 47.0909C115.699 49.5341 119.375 50.9174 123.394 50.9174C126.285 50.9174 128.967 49.9062 130.753 48.45C132.643 46.8806 133.852 44.6235 133.852 41.9134C133.852 39.6564 132.907 37.5854 131.642 36.2829C130.352 34.9804 127.542 33.0712 124.283 31.793L119.607 29.989C115.667 28.4519 112.2 26.0816 110.463 23.9055C108.725 21.705 107.572 18.4853 107.572 15.3302C107.572 10.8404 109.382 7.17568 112.457 4.52222C115.531 1.89302 120.472 0.48539 126.285 0.48539C132.883 0.48539 137.455 1.60179 141.891 4.41705V16.026H140.105C140.105 15.1199 139.873 14.2219 139.873 13.7689C139.873 13.1055 139.665 12.4179 139.665 11.9649C139.665 11.5118 139.216 11.0588 139.216 10.6139C138.768 9.49747 138.087 8.0413 137.223 6.78737C135.093 3.62425 131.417 1.84448 127.39 1.84448C124.731 1.84448 122.137 2.69391 120.48 4.07728C118.694 5.54154 117.829 7.92804 117.829 10.3954C117.829 12.4098 118.486 14.3271 119.615 15.5729C120.824 16.9239 123.37 18.3639 126.501 19.634L130.761 21.4138C135.149 23.2178 138.776 25.5801 140.778 27.732C142.908 29.989 144.117 33.1198 144.117 36.7359C144.117 41.2501 142.331 45.3354 138.784 47.997C135.261 50.6505 130.32 52.2684 124.299 52.2684C121.385 52.2684 117.469 51.7102 113.153 50.9093C111.632 50.6424 109.606 50.1408 107.788 49.3723V35.6195ZM150.538 35.6195H152.532C152.532 37.8523 152.9 40.4249 153.429 42.3665C153.925 44.1462 155.215 45.8208 156.344 47.0909C158.449 49.5341 162.125 50.9174 166.144 50.9174C169.035 50.9174 171.717 49.9062 173.503 48.45C175.392 46.8806 176.601 44.6235 176.601 41.9134C176.601 39.6564 175.657 37.5854 174.392 36.2829C173.102 34.9804 170.292 33.0712 167.033 31.793L162.357 29.989C158.417 28.4519 154.95 26.0816 153.213 23.9055C151.475 21.705 150.322 18.4853 150.322 15.3302C150.322 10.8404 152.132 7.17568 155.215 4.52222C158.289 1.89302 163.23 0.48539 169.035 0.48539C175.633 0.48539 180.205 1.60179 184.649 4.41705V16.026H182.863C182.863 15.1199 182.631 14.2219 182.631 13.7689C182.631 13.1055 182.423 12.4179 182.423 11.9649C182.423 11.5118 181.974 11.0588 181.974 10.6139C181.526 9.49747 180.845 8.0413 179.98 6.78737C177.851 3.62425 174.167 1.84448 170.148 1.84448C167.489 1.84448 164.895 2.69391 163.238 4.07728C161.452 5.54154 160.587 7.92804 160.587 10.3954C160.587 12.4098 161.244 14.3271 162.373 15.5729C163.582 16.9239 166.128 18.3639 169.259 19.634L173.519 21.4138C177.907 23.2178 181.534 25.5801 183.536 27.732C185.666 29.989 186.875 33.1198 186.875 36.7359C186.875 41.2501 185.089 45.3354 181.542 47.997C178.019 50.6505 173.078 52.2684 167.057 52.2684C164.142 52.2684 160.227 51.7102 155.911 50.9093C154.39 50.6424 152.364 50.1408 150.546 49.3723L150.538 35.6195ZM75.688 0C82.3659 0 88.1711 2.01437 92.3988 5.63052C97.9718 10.1204 100.862 17.3365 100.862 26.7935C100.862 30.4016 100.206 33.7751 99.3089 36.9382C98.1799 40.069 96.4184 43.0217 94.3926 45.0361C89.9486 49.7606 83.4869 52.228 74.9994 52.228C67.2165 52.228 60.9629 49.9709 56.7352 45.481C52.2672 40.9669 50.0573 34.22 50.0573 25.8875C50.0573 17.7895 52.2672 11.4714 56.7352 6.98153C61.2112 2.4674 67.6729 0 75.688 0ZM75.712 1.351C71.2441 1.351 67.6729 3.79413 65.4629 8.30826C63.6774 12.1348 62.5163 18.2426 62.5163 25.8875C62.5163 34.2281 63.6693 40.4896 65.4629 44.3161C67.4567 48.6199 70.7716 50.8446 75.0314 50.8446C83.9673 50.8446 88.3793 42.5606 88.3793 26.3081C88.3793 17.7572 87.2743 11.439 85.2805 7.61253C84.3837 5.8085 82.8063 4.26334 81.0207 3.09841C79.2832 1.98201 77.2334 1.34291 75.4478 1.34291H75.712V1.351ZM27.9817 25.936C32.8981 25.936 37.1258 27.0524 39.7842 29.3095C42.4665 31.3562 43.8037 34.487 43.8037 38.3135C43.8037 40.5705 43.1471 42.8276 42.2504 44.6316C41.1213 46.4356 39.3358 48.2397 37.334 49.1457C35.4123 49.9466 33.3865 50.4806 31.3127 50.7152C29.0787 51.1682 25.7397 51.3785 21.7442 51.3785H0.125V50.0194H5.45773V2.29751H0.125V0.94651H21.3118C24.4105 0.94651 27.3331 1.15685 29.5351 1.39954C33.3465 1.85257 36.4452 3.1793 38.6792 5.22603C40.9132 7.2404 42.0181 10.1608 42.0181 13.5667C42.0181 18.0565 40.0244 21.43 36.237 23.4686C34.4514 24.3747 31.5609 25.2726 27.7495 25.483L27.9817 25.936ZM17.076 50.0194H20.439C22.649 50.0194 24.4346 49.8091 25.7477 49.5421C27.149 49.0891 28.3901 48.2478 29.3189 47.099C30.8963 45.0766 31.7931 42.1561 31.7931 38.5481C31.7931 34.7216 30.8963 31.5423 29.3189 29.7301C28.4221 28.8241 27.3251 27.9261 26.012 27.4973C24.6427 27.02 22.4408 26.5913 20.1748 26.5913H17.076V50.0194ZM17.076 25.2726H20.1748C23.3296 25.2726 26.012 24.3666 27.5333 22.5625C29.1107 20.7585 30.0075 17.8381 30.0075 13.7446C30.0075 10.6139 29.3269 7.69343 28.2219 5.88131C27.5413 4.49795 26.4363 3.59998 25.3314 3.17121C23.9621 2.69391 21.9684 2.26515 19.7584 2.26515H17.076V25.2726ZM0.821617 66.8787V60.5039H1.60631V63.1573H4.92125V60.5039H5.70595V66.8787H4.92125V63.9016H1.60631V66.8787H0.821617ZM28.3901 60.512H29.1748V64.2009C29.1748 64.84 29.0947 65.3659 28.9666 65.7137C28.8064 66.0939 28.5342 66.4095 28.1819 66.6198C27.8136 66.8544 27.3171 66.9919 26.7086 66.9919C26.1321 66.9919 25.6276 66.8867 25.2593 66.7007C24.907 66.4984 24.6267 66.1829 24.4746 65.7946C24.3785 65.5843 24.3225 65.3578 24.2904 65.1313C24.2584 64.8238 24.2424 64.5083 24.2344 64.2009V60.512H25.0191V64.2009C25.0191 64.7591 25.0751 65.1879 25.1472 65.4225C25.2513 65.6895 25.4354 65.8998 25.6997 66.0292C25.9639 66.1668 26.2762 66.2396 26.6205 66.2396C27.2531 66.2396 27.7015 66.1101 27.9577 65.8432C28.2219 65.5762 28.3741 64.9937 28.3741 64.1928L28.3901 60.512ZM50.5777 64.387V63.6427H53.2361V66.005C52.8197 66.3205 52.3954 66.5874 51.971 66.7492C51.5466 66.911 51.0742 66.9919 50.6338 66.9919C50.0573 67 49.4968 66.8706 48.9763 66.6198C48.4879 66.369 48.0955 65.9645 47.8473 65.4791C47.5831 64.9533 47.447 64.3708 47.455 63.7803C47.455 63.1654 47.5831 62.583 47.8233 62.049C48.0875 61.5151 48.4559 61.1187 48.9283 60.8517C49.4007 60.5848 49.9532 60.4553 50.5857 60.4553C51.0341 60.4553 51.4505 60.5362 51.8188 60.6657C52.1872 60.8275 52.4754 61.0378 52.6596 61.3048C52.8678 61.5717 53.0279 61.9115 53.132 62.3403L52.3953 62.5263C52.3153 62.2351 52.1872 61.9681 52.051 61.8063C51.9149 61.6445 51.7067 61.4908 51.4505 61.3776C51.1783 61.2562 50.882 61.1996 50.5857 61.1915C50.2174 61.1915 49.8731 61.2481 49.6169 61.3533C49.3526 61.4585 49.1204 61.6203 48.9363 61.8306C48.7681 62.0167 48.64 62.2351 48.5439 62.4697C48.3838 62.8661 48.3037 63.2868 48.3037 63.7155C48.3037 64.2737 48.4078 64.751 48.568 65.1232C48.7521 65.4953 49.0404 65.8108 49.4087 65.9726C49.777 66.1344 50.1934 66.2396 50.6178 66.2396C50.9621 66.2396 51.3304 66.1587 51.6427 66.0535C51.987 65.916 52.2752 65.738 52.4594 65.5762V64.3789L50.5777 64.387ZM71.3081 63.8045C71.3081 62.769 71.5964 61.9439 72.1248 61.3614C72.6773 60.7789 73.414 60.4553 74.3028 60.4553C74.8793 60.4553 75.4078 60.6171 75.8561 60.8841C76.3045 61.1511 76.6729 61.5717 76.9051 62.049C77.1693 62.5263 77.2974 63.1088 77.2974 63.7479C77.2974 64.387 77.1693 64.9695 76.9051 65.4468C76.6409 65.9483 76.2725 66.3528 75.8241 66.5874C75.3517 66.8544 74.8232 66.9838 74.3028 66.9838C73.7503 66.9838 73.2058 66.8382 72.7254 66.5551C72.261 66.2881 71.8926 65.8836 71.6764 65.3901C71.4362 64.9047 71.3081 64.3627 71.3081 63.8207V63.8045ZM72.1489 63.8288C72.1489 64.5731 72.357 65.1555 72.7494 65.5843C73.1417 66.013 73.6702 66.2477 74.2707 66.2477C74.9033 66.2477 75.4238 66.0373 75.8241 65.6086C76.2405 65.1798 76.4567 64.5407 76.4567 63.7479C76.4567 63.2463 76.3526 62.7933 76.1925 62.4212C76.0323 62.049 75.7441 61.7254 75.4318 61.5151C75.1195 61.3048 74.7191 61.1996 74.3028 61.1996C73.7263 61.1996 73.1978 61.4099 72.7814 61.8063C72.3651 62.2027 72.1489 62.8985 72.1489 63.8288ZM109.726 66.8787V60.5039H112.064C112.537 60.5039 112.929 60.5848 113.193 60.6899C113.482 60.8194 113.714 61.0378 113.874 61.2967C114.034 61.5636 114.138 61.8791 114.138 62.1461C114.138 62.4131 114.058 62.7043 113.93 62.9146C113.754 63.1735 113.522 63.3758 113.249 63.5214C113.618 63.6265 113.93 63.8126 114.146 64.0796C114.354 64.3465 114.458 64.6863 114.458 65.0342C114.458 65.3254 114.378 65.6166 114.274 65.8593C114.178 66.0939 114.026 66.3043 113.826 66.4742C113.642 66.6036 113.377 66.7088 113.113 66.7654C112.849 66.822 112.481 66.8706 112.088 66.8706L109.726 66.8787ZM110.519 63.214H111.888C112.256 63.214 112.545 63.1897 112.705 63.1573C112.897 63.1088 113.073 62.9794 113.177 62.8095C113.233 62.7367 113.281 62.6558 113.313 62.5749C113.337 62.4697 113.361 62.3645 113.361 62.2594C113.361 62.049 113.313 61.863 113.209 61.7012C113.105 61.5394 112.945 61.4099 112.761 61.3533C112.577 61.2967 112.24 61.2481 111.792 61.2481H110.527L110.519 63.214ZM110.519 66.1344H112.096C112.361 66.1344 112.569 66.1101 112.673 66.1101C112.857 66.0859 113.041 66.005 113.145 65.9483C113.297 65.8755 113.417 65.7542 113.49 65.6005C113.57 65.4387 113.618 65.2526 113.618 65.0423C113.618 64.8319 113.538 64.6216 113.433 64.4598C113.329 64.298 113.121 64.1443 112.905 64.0877C112.697 64.0068 112.353 63.9582 111.984 63.9582H110.511V66.1344H110.519ZM133.331 63.8045C133.331 62.769 133.619 61.9439 134.148 61.3614C134.7 60.7789 135.437 60.4553 136.326 60.4553C136.902 60.4553 137.431 60.6171 137.879 60.8841C138.328 61.1511 138.696 61.5717 138.936 62.049C139.2 62.5263 139.328 63.1088 139.328 63.7479C139.328 64.387 139.2 64.9695 138.936 65.4468C138.672 65.9483 138.304 66.3528 137.855 66.5874C137.383 66.8544 136.854 66.9838 136.334 66.9838C135.781 66.9838 135.237 66.8382 134.756 66.5551C134.292 66.2881 133.924 65.8836 133.707 65.3901C133.467 64.9047 133.339 64.3627 133.339 63.8207L133.331 63.8045ZM134.172 63.8288C134.172 64.5731 134.38 65.1555 134.772 65.5843C135.165 66.013 135.693 66.2477 136.294 66.2477C136.926 66.2477 137.455 66.0373 137.847 65.6086C138.271 65.1798 138.48 64.5407 138.48 63.7479C138.48 63.2463 138.376 62.7933 138.215 62.4212C138.055 62.049 137.767 61.7254 137.455 61.5151C137.143 61.3048 136.742 61.1996 136.326 61.1996C135.749 61.1996 135.221 61.4099 134.804 61.8063C134.38 62.2108 134.172 62.8985 134.172 63.8288ZM158.057 64.8643L158.85 64.8077C158.874 65.0989 158.978 65.3659 159.082 65.5519C159.21 65.7623 159.45 65.9483 159.739 66.0535C159.867 66.1101 160.027 66.1829 160.187 66.1829C160.347 66.2072 160.531 66.2396 160.683 66.2396C160.996 66.2396 161.284 66.1829 161.524 66.1101C161.756 66.0292 161.973 65.8998 162.077 65.738C162.181 65.5762 162.261 65.3659 162.261 65.1798C162.261 64.9937 162.205 64.8077 162.101 64.6782C161.997 64.5164 161.788 64.387 161.524 64.2818C161.156 64.1686 160.787 64.0715 160.419 63.9906C159.843 63.8612 159.394 63.6994 159.186 63.5942C158.898 63.4324 158.658 63.2221 158.529 63.0117C158.385 62.769 158.313 62.494 158.321 62.2108C158.321 61.8953 158.425 61.6041 158.586 61.3371C158.746 61.0702 159.034 60.8356 159.346 60.698C159.706 60.5362 160.107 60.4553 160.499 60.4553C160.948 60.4553 161.364 60.5362 161.708 60.6657C162.077 60.8275 162.365 61.0621 162.525 61.3614C162.725 61.6445 162.837 61.9924 162.837 62.3403L162.045 62.4212C162.021 62.0248 161.86 61.7012 161.628 61.5151C161.388 61.3048 160.996 61.1996 160.523 61.1996C160.051 61.1996 159.658 61.3048 159.45 61.4666C159.242 61.6526 159.106 61.8872 159.106 62.1542C159.106 62.3645 159.186 62.583 159.346 62.7124C159.506 62.8499 159.923 63.0036 160.579 63.1654C161.236 63.3272 161.708 63.4567 161.973 63.5618C162.341 63.7236 162.629 63.9582 162.789 64.2252C162.845 64.3304 162.917 64.4922 162.973 64.6216C163.029 64.7834 163.053 64.9371 163.053 65.0989C163.053 65.4144 162.949 65.7623 162.765 66.0535C162.565 66.3528 162.285 66.5955 161.948 66.7411C161.556 66.9029 161.14 66.9838 160.715 66.9838C160.163 66.9838 159.658 66.9029 159.298 66.7411C158.938 66.5874 158.626 66.3286 158.401 65.9969C158.289 65.827 158.201 65.649 158.137 65.4629C158.089 65.2769 158.057 65.0665 158.057 64.8643ZM181.87 64.8643L182.663 64.8077C182.687 65.0989 182.791 65.3659 182.895 65.5519C183.023 65.7623 183.263 65.9483 183.552 66.0535C183.68 66.1101 183.84 66.1829 184 66.1829C184.16 66.2072 184.344 66.2396 184.496 66.2396C184.809 66.2396 185.097 66.1829 185.337 66.1101C185.569 66.0292 185.786 65.8998 185.89 65.738C185.994 65.5762 186.074 65.3659 186.074 65.1798C186.074 64.9937 186.018 64.8077 185.914 64.6782C185.81 64.5164 185.601 64.387 185.337 64.2818C184.969 64.1686 184.601 64.0715 184.232 63.9906C183.656 63.8612 183.207 63.6994 182.999 63.5942C182.711 63.4324 182.471 63.2221 182.343 63.0117C182.206 62.769 182.126 62.494 182.134 62.2108C182.134 61.8953 182.238 61.6041 182.399 61.3371C182.559 61.0702 182.847 60.8356 183.159 60.698C183.52 60.5362 183.92 60.4553 184.312 60.4553C184.761 60.4553 185.177 60.5362 185.521 60.6657C185.89 60.8275 186.178 61.0621 186.338 61.3614C186.538 61.6445 186.65 61.9924 186.65 62.3403L185.858 62.4212C185.834 62.0248 185.674 61.7012 185.441 61.5151C185.201 61.3048 184.809 61.1996 184.336 61.1996C183.864 61.1996 183.472 61.3048 183.263 61.4666C183.055 61.6526 182.919 61.8872 182.919 62.1542C182.919 62.3645 182.999 62.583 183.151 62.7124C183.311 62.8499 183.728 63.0036 184.384 63.1654C185.041 63.3272 185.513 63.4567 185.778 63.5618C186.146 63.7236 186.434 63.9582 186.594 64.2252C186.65 64.3304 186.722 64.4922 186.779 64.6216C186.835 64.7834 186.859 64.9371 186.859 65.0989C186.859 65.4144 186.754 65.7623 186.57 66.0535C186.37 66.3528 186.09 66.5955 185.754 66.7411C185.361 66.9029 184.945 66.9838 184.521 66.9838C183.968 66.9838 183.464 66.9029 183.103 66.7411C182.743 66.5874 182.431 66.3286 182.206 65.9969C182.094 65.827 182.006 65.649 181.942 65.4629C181.894 65.2769 181.87 65.0665 181.87 64.8643Z" fill="black"/>
</svg>
