<svg width="197" height="90" viewBox="0 0 197 90" fill="none" xmlns="http://www.w3.org/2000/svg">
<path fill-rule="evenodd" clip-rule="evenodd" d="M16.6999 16.3556L14.9257 25.3742H31.8043L10.2571 44.8971L8.69141 53.5927H43.2315L45.1376 44.8335H26.4224L47.6936 25.3742L49.5363 16.3556H16.6999ZM50.0627 25.8233L61.358 25.9586L63.2631 42.0416L70.4213 25.9576H81.3252L66.8115 53.8521C64.7041 58.0661 61.2936 62.5426 57.2137 62.6052L47.3012 62.5426L48.6135 54.4365L52.1598 54.4991C53.2728 54.3032 54.8529 53.526 54.7895 51.8394L50.0627 25.8233ZM84.6702 16.4192L98.5278 16.3556L102.403 25.0502L109.756 16.3556L123.746 16.4192L107.595 34.9772L116.979 53.7148L103.124 53.6562L98.5901 44.5731L91.1743 53.7864L76.5881 53.7148L93.4729 34.5845L84.6702 16.4192ZM127.425 16.3556L120.401 53.7148L151.79 53.7864L153.239 44.8971L134.584 44.8335L135.567 39.5808L150.674 39.6444L152.52 30.8863H137.411L138.132 26.0242L156.13 25.8233L157.772 16.3556H127.425ZM164.34 16.9431L157.632 54.1761H186.794L188.309 45.0323L171.955 45.0939L176.55 16.9431H164.34Z" fill="#0088CC"/>
<path fill-rule="evenodd" clip-rule="evenodd" d="M9.01562 68.4454H11.773V78.1119H12.8216V68.4454H15.5872V67.3361H9.01562V68.4454ZM44.4817 78.1119L44.4091 67.3361H43.3595V78.1119H44.4817ZM94.5217 78.1119H95.7072L96.4942 74.9961H99.8403L100.697 78.1119H101.874L98.991 67.3351H97.414L94.5217 78.1119ZM99.8393 73.8979L96.8826 73.9605L98.2582 68.184L99.8393 73.8979ZM144.104 70.1936C144.104 68.184 143.056 67.1463 141.023 67.1463C140.293 67.1463 139.511 67.4704 138.977 67.9841C138.458 68.4454 138.197 69.156 138.197 70.129C138.197 70.5781 138.197 71.1646 138.396 71.5532C138.586 71.8741 138.976 72.4 139.443 72.5221C139.715 72.7226 140.03 72.8596 140.363 72.9229C140.757 73.1096 141.148 73.3084 141.415 73.375C141.605 73.375 141.868 73.5719 142.07 73.5719C142.263 73.698 142.525 73.8959 142.661 73.9584C142.726 74.0846 142.918 74.2199 143.054 74.4086C143.054 74.6054 143.118 75.0576 143.118 75.4442C143.118 76.0276 142.852 76.6151 142.525 76.8745C142.198 77.1389 141.605 77.3246 141.021 77.3246C140.291 77.3246 139.633 77.0662 139.442 76.6151C139.283 76.3594 139.193 76.068 139.179 75.7682C139.179 75.4442 139.051 75.0566 139.051 74.7326H137.991V75.7682C137.991 76.0276 138.129 76.4162 138.195 76.6766C138.456 77.3246 138.975 77.9131 139.508 78.1099C139.961 78.2341 140.553 78.3632 141.02 78.3632C143.117 78.3632 144.231 77.26 144.231 75.1919C144.231 74.5419 144.165 73.8949 143.901 73.4982C143.574 73.1066 142.917 72.6604 142.004 72.2698C141.543 72.073 140.948 71.8136 140.363 71.6228C140.1 71.5501 139.836 71.2251 139.633 71.0364C139.509 70.8396 139.442 70.5751 139.442 70.1895V69.5415C139.442 69.3518 139.633 69.0883 139.708 68.8915C139.836 68.6997 140.1 68.5019 140.291 68.4413C140.49 68.3051 140.82 68.2445 141.213 68.2445C141.803 68.2445 142.262 68.5029 142.524 68.8269C142.725 69.1519 142.851 69.6758 142.851 70.1895H144.104V70.1936ZM15.1222 73.5729C15.1222 74.2209 15.2561 74.8659 15.2561 75.4452C15.2561 75.965 15.4502 76.4919 15.6506 76.9411C15.7752 77.3882 16.1697 77.7889 16.4958 78.0372C16.7635 78.2351 17.3532 78.4359 17.9481 78.4359C18.5388 78.4359 19.1254 78.2361 19.3911 78.0372C19.7795 77.7889 20.1117 77.3882 20.2445 76.9411C20.4377 76.4919 20.6349 75.964 20.6349 75.4452C20.7044 74.8659 20.7044 74.2824 20.7044 73.699V72.1386C20.6266 71.6578 20.5163 71.1827 20.3743 70.7164C20.1853 70.3278 19.7795 69.9291 19.525 69.6798C19.1254 69.484 18.5388 69.2175 17.9481 69.2175C17.3532 69.2175 16.7635 69.484 16.4958 69.6798C16.1064 69.9291 15.7742 70.3288 15.6506 70.7164C15.4502 71.1646 15.2561 71.6904 15.2561 72.1386C15.1222 72.5948 15.1222 73.1742 15.1222 73.699V73.5729ZM19.7795 73.699C19.7795 74.8659 19.6538 75.965 19.3911 76.5555C19.2614 77.2045 18.734 77.5881 17.9481 77.5881C17.154 77.5881 16.6327 77.2035 16.4958 76.5555C16.2454 75.965 16.1064 74.8659 16.1064 73.699C16.1064 72.723 16.2454 71.8166 16.4958 71.2292C16.6992 70.5781 17.2255 70.129 17.9481 70.129C18.6665 70.129 19.199 70.5781 19.3911 71.2292C19.6538 71.8166 19.7795 72.723 19.7795 73.699ZM21.8246 70.3278H24.0505V78.1755H24.906V70.3278H27.1411V69.3558H21.8246V70.3278ZM27.1411 78.1765H28.1877L28.7835 75.6431H31.4734L32.195 78.1765H33.1782L30.8163 69.3568H29.5674L27.1411 78.1765ZM31.4745 74.7346L29.1126 74.7972L30.2889 70.0674L31.4745 74.7346ZM38.9618 78.1765V77.3266H35.353V69.3568H34.4925V78.1765H38.9618ZM50.6455 76.5555V77.6517C50.5821 77.262 50.393 76.8755 50.3184 76.6786L47.8278 69.3558H46.3785V78.1755H47.236V71.2282V69.8665C47.236 70.0664 47.3668 70.3894 47.3668 70.5771C47.3668 70.78 47.5672 71.0384 47.6274 71.2282L49.9249 78.1755H51.504V69.3558H50.6455V76.5555ZM52.8173 70.3278H55.0534V78.1755H55.9027V70.3278H58.1379V69.3558H52.8173V70.3278ZM63.7201 78.1765V77.3266H60.3086V74.018H63.529V73.1752H60.3086V70.3288H63.7201V69.3568H59.4501V78.1765H63.7201ZM66.546 70.3278H67.798C67.9247 70.3278 68.2528 70.3904 68.3795 70.3904C68.5185 70.3904 68.7812 70.455 68.911 70.5176C69.1113 70.5791 69.3014 70.8426 69.3637 70.9758C69.5671 71.1656 69.6305 71.5532 69.6305 71.8751C69.6305 72.2032 69.5671 72.5958 69.3637 72.724C69.3271 72.8278 69.2674 72.9222 69.1891 73.0003C69.1108 73.0783 69.0157 73.1381 68.911 73.1752C68.7812 73.3094 68.5185 73.4366 68.3795 73.4366C68.2528 73.4366 68.0504 73.5012 67.9237 73.5012H66.4827L66.546 70.3278ZM66.546 74.346H68.1894C68.6442 74.346 69.1103 74.6075 69.3003 74.8669C69.4986 75.1949 69.6294 75.5795 69.6294 76.0296C69.6294 76.3557 69.6928 76.7422 69.6928 77.1409C69.6928 77.5891 69.8287 77.9757 69.8287 78.1765H71.0061V78.0382C70.9417 78.0382 70.8109 77.8485 70.8109 77.7899C70.8109 77.6517 70.676 77.5255 70.676 77.3902C70.6126 76.8149 70.4869 76.0922 70.4869 75.5179C70.4869 74.9971 70.2232 74.5459 70.0955 74.2835C69.9565 74.018 69.4976 73.8979 68.9089 73.8979V73.8262C69.9565 73.7001 70.5513 72.9854 70.6126 71.8751C70.6126 70.9758 70.3469 70.1936 69.8277 69.9291C69.3617 69.6102 68.6432 69.3568 67.7959 69.3568H65.6231V78.1765H66.4816L66.546 74.346ZM76.991 76.5555V77.6517C76.9164 77.262 76.7284 76.8755 76.6609 76.6786L74.2275 69.3558H72.7221V78.1755H73.5693V71.2282V69.8665C73.5693 70.0664 73.7073 70.3894 73.7073 70.5771C73.7073 70.78 73.8994 71.0384 73.9628 71.2282L76.2603 78.1755H77.8373V69.3558H76.99V76.5555H76.991ZM84.1431 78.1765V77.3266H80.7326V74.018H83.8856V73.1752H80.7326V70.3288H84.1431V69.3568H79.8731V78.1765H84.1431ZM85.1253 70.3278H87.3604V78.1755H88.2199V70.3278H90.453V69.3558H85.1263V70.3278H85.1253ZM107.594 72.1386C107.594 71.3634 107.393 70.7164 107.002 70.129C106.608 69.6798 105.886 69.2852 105.091 69.2852C104.57 69.2852 104.048 69.5456 103.716 69.7424C103.387 70.0008 102.995 70.3904 102.857 70.8426C102.732 71.3008 102.528 71.8166 102.528 72.2728C102.528 72.723 102.468 73.376 102.468 73.8252V75.4452C102.468 75.965 102.667 76.4919 102.795 76.9411C102.931 77.3882 103.322 77.7889 103.651 78.1109C103.978 78.3643 104.569 78.4965 105.157 78.4965C105.949 78.4965 106.608 78.1755 107.002 77.5881C107.127 77.2621 107.393 76.9411 107.393 76.6786C107.456 76.3557 107.531 75.965 107.531 75.6431V75.1222H106.672C106.672 75.2565 106.609 75.5785 106.609 75.7056C106.609 75.9025 106.546 76.2285 106.546 76.4172C106.546 76.5555 106.344 76.8755 106.219 77.0006C106.145 77.2035 105.951 77.3256 105.815 77.3892C105.687 77.5881 105.36 77.6517 105.092 77.6517C104.705 77.6517 104.308 77.3892 104.108 77.2045C103.842 76.8765 103.653 76.4929 103.653 76.0912C103.59 75.7056 103.515 75.2565 103.515 74.8659C103.515 74.4096 103.388 74.017 103.388 73.8252C103.388 73.5012 103.515 73.1096 103.515 72.723C103.515 72.4 103.589 71.8741 103.653 71.6258C103.717 71.2282 103.98 70.8426 104.173 70.5781C104.309 70.455 104.705 70.1926 105.092 70.1926C105.687 70.1926 106.144 70.5166 106.344 70.8426C106.41 70.9758 106.61 71.2292 106.61 71.426C106.61 71.6258 106.673 71.8741 106.673 72.1386H107.594ZM114.162 72.1386C114.162 71.3634 113.956 70.7164 113.567 70.129C113.176 69.6798 112.453 69.2852 111.724 69.2852C111.14 69.2852 110.612 69.5456 110.283 69.7424C110.018 70.0008 109.624 70.3904 109.427 70.8426C109.299 71.3008 109.169 71.8166 109.169 72.2728C109.169 72.723 109.031 73.376 109.031 73.8252V75.4452C109.031 75.965 109.233 76.4919 109.358 76.9411C109.564 77.3882 109.89 77.7889 110.221 78.1109C110.548 78.3643 111.139 78.4965 111.796 78.4965C112.581 78.4965 113.176 78.1755 113.566 77.5881C113.692 77.2621 113.955 76.9411 113.955 76.6786C114.021 76.3557 114.095 75.965 114.095 75.6431V75.1222H113.239C113.239 75.2565 113.176 75.5785 113.176 75.7056C113.176 75.9025 113.11 76.2285 113.11 76.4172C113.11 76.5555 112.911 76.8755 112.785 77.0006C112.756 77.0933 112.703 77.1773 112.633 77.2452C112.562 77.313 112.476 77.3625 112.381 77.3892C112.252 77.5881 111.927 77.6517 111.724 77.6517C111.331 77.6517 110.939 77.3892 110.677 77.2045C110.484 76.8765 110.222 76.4929 110.222 76.0912C110.157 75.7056 110.084 75.2565 110.084 74.8659C110.084 74.4096 110.019 74.017 110.019 73.8252C110.019 73.5012 110.084 73.1096 110.084 72.723C110.084 72.4 110.155 71.8741 110.222 71.6258C110.284 71.2282 110.549 70.8426 110.741 70.5781C110.94 70.455 111.332 70.1926 111.725 70.1926C112.253 70.1926 112.712 70.5166 112.911 70.8426C113.037 70.9758 113.177 71.2292 113.177 71.426C113.177 71.6258 113.24 71.8741 113.24 72.1386H114.162ZM120.134 78.2361V77.3892H116.723V74.1482H119.935V73.3084H116.723V70.3894H120.134V69.483H115.864V78.2361H120.134ZM126.576 71.8166C126.576 70.129 125.716 69.2852 124.073 69.2852C123.483 69.2852 122.823 69.6092 122.371 70.0008C121.977 70.3904 121.776 70.9758 121.776 71.751C121.776 72.1386 121.776 72.5948 121.906 72.9229C122.105 73.1742 122.371 73.5729 122.76 73.7626C122.963 73.8252 123.219 73.9584 123.548 74.017C123.875 74.2199 124.203 74.345 124.404 74.4096C124.532 74.4096 124.796 74.6064 124.93 74.6064C125.125 74.669 125.327 74.7962 125.391 74.8659C125.514 74.9961 125.654 75.1222 125.716 75.2565C125.716 75.4462 125.779 75.8429 125.779 76.0912C125.779 76.5555 125.587 77.0006 125.326 77.262C125.059 77.5255 124.532 77.6517 124.072 77.6517C123.482 77.6517 122.962 77.3892 122.759 77.0006C122.699 76.8755 122.56 76.5555 122.56 76.3546C122.56 76.0902 122.499 75.8419 122.499 75.5159H121.649V76.3546C121.649 76.5545 121.712 76.8755 121.775 77.1389C121.976 77.6507 122.37 78.1109 122.822 78.2351C123.218 78.4349 123.683 78.4965 124.072 78.4965C125.779 78.4965 126.701 77.5881 126.701 75.9025C126.701 75.3806 126.638 74.7962 126.437 74.5439C126.172 74.2199 125.652 73.8242 124.858 73.5002C124.467 73.375 124.01 73.1086 123.547 72.9834C123.354 72.9218 123.09 72.6624 122.962 72.5211C122.822 72.399 122.759 72.1376 122.759 71.8156V71.2998C122.759 71.1636 122.962 70.9042 123.025 70.78C123.09 70.5771 123.354 70.454 123.482 70.3884C123.62 70.3258 123.949 70.1916 124.276 70.1916C124.726 70.1916 125.124 70.454 125.325 70.7154C125.513 70.9748 125.587 71.3634 125.587 71.8156H126.576V71.8166ZM133.141 71.8166C133.141 70.129 132.284 69.2852 130.707 69.2852C130.05 69.2852 129.455 69.6092 128.998 70.0008C128.609 70.3904 128.341 70.9758 128.341 71.751C128.341 72.1386 128.341 72.5948 128.543 72.9229C128.67 73.1742 128.997 73.5729 129.391 73.7626C129.529 73.8252 129.856 73.9584 130.111 74.017C130.44 74.2199 130.767 74.345 130.968 74.4096C131.171 74.4096 131.361 74.6064 131.561 74.6064C131.69 74.669 131.956 74.7962 132.017 74.8659C132.08 74.9961 132.219 75.1222 132.283 75.2565C132.283 75.4462 132.409 75.8429 132.409 76.0912C132.409 76.5555 132.153 77.0006 131.956 77.262C131.627 77.5255 131.171 77.6517 130.706 77.6517C130.049 77.6517 129.529 77.3892 129.391 77.0006C129.263 76.8755 129.127 76.5555 129.127 76.3546C129.127 76.0902 129.062 75.8419 129.062 75.5159H128.218V76.3546C128.218 76.5545 128.281 76.8755 128.341 77.1389C128.609 77.6507 128.998 78.1109 129.455 78.2351C129.857 78.4349 130.314 78.4965 130.707 78.4965C132.41 78.4965 133.332 77.5881 133.332 75.9025C133.332 75.3806 133.268 74.7962 133.005 74.5439C132.741 74.2199 132.22 73.8242 131.426 73.5002C131.099 73.375 130.575 73.1086 130.112 72.9834C129.922 72.9218 129.656 72.6624 129.53 72.5211C129.456 72.399 129.392 72.1376 129.392 71.8156V71.2998C129.392 71.1636 129.53 70.9042 129.595 70.78C129.656 70.5771 129.922 70.454 130.05 70.3884C130.249 70.3258 130.513 70.1916 130.842 70.1916C131.299 70.1916 131.69 70.454 131.956 70.7154C132.08 70.9748 132.153 71.3634 132.153 71.8156H133.141V71.8166ZM145.356 73.699C145.356 74.2824 145.418 74.9961 145.418 75.5169C145.418 76.0296 145.622 76.5555 145.814 77.0016C145.95 77.5265 146.343 77.8485 146.67 78.1129C146.936 78.3663 147.516 78.4985 148.111 78.4985C148.77 78.4985 149.297 78.3663 149.623 78.1129C149.954 77.8485 150.28 77.5265 150.477 77.0016C150.609 76.5565 150.802 76.0296 150.802 75.5169C150.94 74.9961 150.94 74.346 150.94 73.7636V72.2032C150.802 71.752 150.674 71.2292 150.549 70.782C150.347 70.3904 149.954 70.0018 149.69 69.7434C149.297 69.5466 148.77 69.2862 148.111 69.2862C147.516 69.2862 146.936 69.5466 146.67 69.7434C146.277 70.0018 145.95 70.3914 145.814 70.782C145.622 71.2292 145.418 71.752 145.418 72.2032C145.356 72.6635 145.356 73.3094 145.356 73.7636V73.699ZM149.953 73.7636C149.953 74.9971 149.815 76.0296 149.622 76.6797C149.422 77.2631 148.905 77.6527 148.11 77.6527C147.327 77.6527 146.797 77.2631 146.669 76.6797C146.405 76.0296 146.276 74.9971 146.276 73.7636C146.276 72.8522 146.405 71.8751 146.669 71.3018C146.861 70.7174 147.388 70.1936 148.11 70.1936C148.831 70.1936 149.36 70.7174 149.622 71.3018C149.815 71.8751 149.953 72.8512 149.953 73.7636ZM157.176 78.2361V77.3892H153.627V69.483H152.769V78.2361H157.176ZM158.753 76.0912C158.753 76.8755 158.946 77.5881 159.409 77.9746C159.985 78.3101 160.64 78.4904 161.308 78.4975C163.023 78.4975 163.872 77.7173 163.872 76.2285V69.483H163.023V75.8429C163.023 75.965 162.887 76.2285 162.887 76.3557C162.887 76.4929 162.82 76.8139 162.762 76.9421C162.694 77.1399 162.431 77.3267 162.229 77.3892C162.039 77.5881 161.712 77.6517 161.31 77.6517C160.98 77.6517 160.591 77.5891 160.397 77.3892C160.198 77.3267 159.995 77.1399 159.869 76.9421C159.804 76.8139 159.668 76.4929 159.668 76.3557C159.668 76.2285 159.603 75.965 159.603 75.8429V69.483H158.754V76.0912H158.753ZM165.187 70.3904H167.421V78.2361H168.278V70.3904H170.504V69.484H165.188V70.3904H165.187ZM173.066 78.2361L173.002 69.483H172.144V78.2361H173.066ZM175.036 73.699C175.036 74.2824 175.1 74.9961 175.1 75.5169C175.1 76.0296 175.301 76.5555 175.501 77.0016C175.631 77.5265 176.02 77.8485 176.35 78.1129C176.615 78.3663 177.206 78.4985 177.801 78.4985C178.383 78.4985 178.978 78.3663 179.242 78.1129C179.635 77.8485 179.958 77.5265 180.1 77.0016C180.29 76.5565 180.492 76.0296 180.492 75.5169C180.555 74.9961 180.555 74.346 180.555 73.7636V72.2032C180.478 71.7228 180.368 71.248 180.226 70.782C180.027 70.3904 179.635 70.0018 179.37 69.7434C178.978 69.5466 178.383 69.2862 177.801 69.2862C177.206 69.2862 176.615 69.5466 176.35 69.7434C175.958 70.0018 175.631 70.3914 175.501 70.782C175.302 71.2292 175.1 71.752 175.1 72.2032C175.036 72.6635 175.036 73.3094 175.036 73.7636V73.699ZM179.635 73.7636C179.635 74.9971 179.503 76.0296 179.242 76.6797C179.116 77.2631 178.585 77.6527 177.801 77.6527C177.007 77.6527 176.487 77.2631 176.35 76.6797C176.084 76.0296 175.958 74.9971 175.958 73.7636C175.958 72.8522 176.084 71.8751 176.35 71.3018C176.549 70.7174 177.07 70.1936 177.801 70.1936C178.521 70.1936 179.04 70.7174 179.242 71.3018C179.503 71.8751 179.635 72.8512 179.635 73.7636ZM186.731 76.6786V77.7163C186.591 77.3256 186.465 76.9411 186.404 76.7412L183.905 69.483H182.462V78.2361H183.31V71.3008V69.9291C183.31 70.129 183.444 70.455 183.444 70.7164C183.444 70.8426 183.576 71.1646 183.712 71.3008L186.01 78.2361H187.578V69.483H186.732V76.6786H186.731Z" fill="black"/>
</svg>
