<svg width="185" height="67" viewBox="0 0 185 67" fill="none" xmlns="http://www.w3.org/2000/svg">
<path fill-rule="evenodd" clip-rule="evenodd" d="M0.300781 34.1878C0.300781 23.7169 2.97678 15.5239 8.34826 9.6063C13.7197 3.6864 20.6436 0.720669 29.1405 0.720669C34.6943 0.720669 39.7127 2.11624 44.1715 4.89004C48.6292 7.68118 52.0367 11.558 54.3779 16.5344C56.7214 21.4993 57.884 27.1521 57.884 33.4524C57.884 39.8533 56.6641 45.5813 54.1967 50.619C51.7294 55.6705 48.2382 59.4884 43.7221 62.0876C39.1956 64.6857 34.3297 65.9795 29.1004 65.9795C23.4205 65.9795 18.3586 64.555 13.9009 61.6748C9.42714 58.812 6.04718 54.8912 3.74839 49.9275C1.4496 44.9812 0.300781 39.7238 0.300781 34.1878ZM8.51451 34.3207C8.51451 41.9276 10.4636 47.9041 14.3629 52.2805C18.2749 56.6557 23.1683 58.8444 29.0568 58.8444C35.0566 58.8444 39.9936 56.6418 43.8631 52.2203C47.7326 47.7989 49.6817 41.531 49.6817 33.4096C49.6817 28.2841 48.8402 23.8048 47.1846 19.9719C45.5301 16.1402 43.1041 13.1733 39.9225 11.0585C36.7248 8.95882 33.1511 7.90202 29.1818 7.90202C23.5317 7.90202 18.6808 9.92774 14.614 13.9965C10.5484 18.0503 8.51451 24.8339 8.51451 34.3207ZM91.0358 39.4509V32.0638L115.992 32.0198V55.4115C112.163 58.686 108.213 61.1384 104.137 62.7987C100.061 64.4429 95.8788 65.2661 91.5988 65.2661C85.8088 65.2661 80.5405 63.9434 75.8214 61.2864C71.0885 58.6432 67.5217 54.7953 65.1071 49.7888C62.6925 44.7661 61.4841 39.1573 61.4841 32.9599C61.4841 26.8203 62.6925 21.0946 65.0933 15.7783C67.4793 10.448 70.936 6.4972 75.4362 3.91302C79.9363 1.34388 85.1209 0.0512085 90.9923 0.0512085C95.2447 0.0512085 99.1016 0.784259 102.544 2.2677C105.988 3.73612 108.69 5.79074 110.639 8.43504C112.601 11.0793 114.083 14.5145 115.111 18.759L108.072 20.8298C107.184 17.6132 106.084 15.088 104.78 13.2519C103.464 11.417 101.585 9.94855 99.1418 8.84781C96.7146 7.74477 93.9973 7.18747 91.0335 7.18747C87.4667 7.18747 84.3802 7.77484 81.7879 8.93454C79.1819 10.0954 77.0952 11.6216 75.4912 13.5167C73.9192 15.3759 72.6629 17.4843 71.773 19.7568C70.2768 23.6487 69.5235 27.8782 69.5235 32.4453C69.5235 38.0692 70.4293 42.7693 72.2396 46.556C74.05 50.3449 76.6836 53.15 80.1415 54.9849C83.5994 56.821 87.2614 57.746 91.1447 57.746C94.5327 57.746 97.8256 57.043 101.035 55.6474C104.259 54.2669 106.689 52.7834 108.348 51.1982V39.4509H91.0358ZM176.785 66.3379V3.26669H184.02V66.3379H176.785ZM147.726 39.4509V32.0638L172.683 32.0198V55.4115C168.854 58.686 164.904 61.1384 160.828 62.7987C156.753 64.4429 152.57 65.2661 148.29 65.2661C142.499 65.2661 137.232 63.9434 132.511 61.2864C127.78 58.6432 124.213 54.7953 121.798 49.7888C119.383 44.7661 118.175 39.1573 118.175 32.9599C118.175 26.8203 119.383 21.0946 121.785 15.7783C124.169 10.448 127.627 6.4972 132.127 3.91302C136.626 1.34388 141.812 0.0512085 147.683 0.0512085C151.936 0.0512085 155.792 0.784259 159.234 2.2677C162.678 3.73612 165.38 5.79074 167.329 8.43504C169.291 11.0793 170.773 14.5145 171.801 18.759L164.762 20.8298C163.874 17.6132 162.774 15.088 161.47 13.2519C160.154 11.417 158.273 9.94855 155.832 8.84781C153.405 7.74477 150.689 7.18747 147.724 7.18747C144.157 7.18747 141.07 7.77484 138.478 8.93454C135.872 10.0954 133.786 11.6216 132.181 13.5167C130.61 15.3759 129.354 17.4844 128.464 19.7568C126.968 23.6487 126.214 27.8782 126.214 32.4453C126.214 38.0692 127.12 42.7693 128.93 46.556C130.741 50.3449 133.375 53.15 136.833 54.9849C140.291 56.821 143.954 57.746 147.835 57.746C151.223 57.746 154.517 57.043 157.726 55.6474C160.95 54.2669 163.381 52.7834 165.04 51.1982V39.4509H147.726Z" fill="black"/>
</svg>
