<svg width="174" height="68" viewBox="0 0 174 68" fill="none" xmlns="http://www.w3.org/2000/svg">
<path fill-rule="evenodd" clip-rule="evenodd" d="M145.338 68V35.3493H126.223V68H145.338ZM145.338 32.6507H126.223V0H145.338V32.6507ZM169.914 35.3734C172.428 38.9399 174 43.2289 174 47.5902C174 58.8184 164.793 68 153.53 68H148.069V35.3493L169.914 35.3734ZM148.069 32.6507L167.475 32.6989C165.735 31.0844 163.366 29.5182 161.07 28.6752C165.807 25.9284 168.875 20.8197 168.875 15.3011C168.875 6.94021 161.917 0 153.53 0H148.069V32.6507ZM92.0994 68H73.0317V35.3493H92.0994V68ZM92.0994 32.6507H73.0317V0H92.0994V32.6507ZM94.83 68V35.3493L116.677 35.3734C119.189 38.9399 120.761 43.2289 120.761 47.5902C120.761 58.8184 111.553 68 100.292 68H94.83ZM94.83 32.6507V0H100.292C108.677 0 115.661 6.93928 115.661 15.3011C115.661 20.8197 112.568 25.9275 107.83 28.6752C110.126 29.5182 112.495 31.0844 114.235 32.6989L94.83 32.6507ZM32.7701 32.6507H12.4217L23.877 0.000926831H32.7701V32.6507ZM55.8249 32.6507L44.3463 0H35.5016V32.6498H55.8249V32.6507ZM68.2466 68H51.185L46.4241 54.4098H35.5007V35.3493H56.7922L68.2466 68ZM0 68H17.0626L21.8477 54.4098H32.771V35.3493H11.4795L0 68Z" fill="#CC2229"/>
</svg>
