<svg width="158" height="74" viewBox="0 0 158 74" fill="none" xmlns="http://www.w3.org/2000/svg">
<path fill-rule="evenodd" clip-rule="evenodd" d="M102.51 4.39139V0.299744H86.1939V22.7652H102.51V19.0596H90.7341V12.9607H101.047V8.94624H90.7341V4.39139H102.51ZM97.9697 25.0812V33.7277H89.0412V25.0812H84.4262V47.4705H89.0412V37.4334H97.9697V47.4705H102.51V25.0812H97.9697ZM102.51 53.7989V49.7866H86.1939V72.5587H102.51V68.4692H90.7341V62.4464H101.047V58.7419H90.7341V53.7989H102.51ZM83.5786 0.299744H79.0385V8.94624H70.1121V0.299744H65.5719V22.7652H70.1121V12.7291H79.0385V22.7652H83.5786V0.299744ZM46.0262 0.299744V4.39139H52.9518V22.7652H57.492V4.39139H64.4176V0.299744H46.0262ZM31.7131 24.4636C24.5566 24.4636 20.786 28.5553 20.786 36.2753C20.786 44.3814 24.5566 48.3959 31.7131 48.3959C38.8696 48.3959 42.5633 44.3814 42.5633 36.2753C42.5633 28.5553 38.8696 24.4636 31.7131 24.4636ZM25.7109 36.2753C25.7109 31.1029 27.7116 28.5552 31.7131 28.5552C36.0224 28.5552 38.0232 31.1029 38.0232 36.2753C38.0232 41.7577 36.0224 44.3814 31.7131 44.3814C27.7116 44.3814 25.7109 41.7577 25.7109 36.2753ZM14.2451 25.0812V40.9074L5.31867 25.0812H0.470703V47.4705H4.78V31.7205L13.9373 47.4705H18.7852V25.0812H14.2451ZM35.4068 59.0496V53.7989H46.8726V49.7866H30.8667V72.5587H35.4068V63.064H45.4875V59.0496H35.4068ZM82.7332 29.0957V25.0812H64.4176V29.0957H71.2663V47.4705H75.8835V29.0957H82.7332ZM54.337 38.9012C55.799 38.9012 56.9533 39.1318 57.492 39.7494L58.3385 47.4705H63.4942V46.9301C62.9556 46.6202 62.6478 45.2317 62.6478 42.6058C62.6478 39.4416 61.4935 37.7421 59.8005 36.8929C62.1091 35.9665 63.2634 34.2681 63.2634 31.4117C63.2634 27.3972 60.9548 25.0812 56.1068 25.0812H44.8719V47.4705H49.489V38.9012H54.337ZM49.489 35.1173V29.0957H55.1834C57.492 29.0957 58.6463 29.9449 58.6463 31.9521C58.6463 33.9593 57.492 35.1173 54.9526 35.1173H49.489ZM57.492 49.7866H52.0284L44.0254 72.5587H48.8734L50.6433 67.6189H58.9541L60.3392 72.5587H65.2641L57.492 49.7866ZM54.6448 54.9569L57.492 63.9143H51.7976L54.6448 54.9569ZM79.886 57.2729H84.4262C84.1943 55.2667 83.5786 53.5683 82.1924 52.1004C80.1928 50.402 77.8842 49.244 74.7292 49.244C71.5742 49.244 69.2656 50.402 67.2649 52.4103C65.5719 54.4165 64.4176 57.2729 64.4176 61.0568C64.4176 69.0857 67.8035 73.098 74.4214 73.098C80.1928 73.098 83.3467 70.2416 84.4262 64.7614H79.886C79.2704 67.3851 77.2686 68.7758 74.7292 68.7758C70.9585 68.7758 69.2656 66.2293 69.2656 61.2873C69.2656 55.8843 70.9585 53.2584 74.7292 53.2584C77.2686 53.2584 78.7318 54.7263 79.886 57.2729ZM22.7867 72.2509H22.8637H22.7867ZM22.8637 72.2509C23.6332 72.2509 24.2488 71.9411 24.7116 71.5561C25.0963 71.0929 25.4031 70.4753 25.4031 69.6272C25.4031 68.6997 25.0953 68.0821 24.7116 67.6961C24.2499 67.3111 23.6343 67.0785 22.8637 67.0785H22.7867C21.8633 67.0785 21.2477 67.3111 20.8629 67.6961C20.4792 68.081 20.2473 68.6997 20.2473 69.6272V69.7022C20.2473 70.4753 20.4782 71.0929 20.8629 71.5561C21.2477 71.9411 21.8644 72.2509 22.7867 72.2509H22.8637ZM22.7867 72.8685C21.7094 72.8685 20.9399 72.4836 20.4012 71.9411C19.8626 71.4007 19.6317 70.6297 19.6317 69.7022V69.6272C19.6317 68.5442 19.8626 67.7733 20.4012 67.2339C20.9399 66.6935 21.7094 66.4609 22.7867 66.4609H22.8637C23.7871 66.4609 24.5566 66.6935 25.0953 67.2339C25.6339 67.7744 26.0187 68.5453 26.0187 69.6272C26.0187 70.6308 25.6339 71.4007 25.0953 71.9411C24.8034 72.2366 24.4557 72.4709 24.0725 72.6301C23.6894 72.7893 23.2784 72.8704 22.8637 72.8685H22.7867ZM23.0945 69.3173H23.1715C23.4793 69.3173 23.6332 69.1618 23.6332 68.7769V68.6997C23.6332 68.6997 23.5562 68.6997 23.5562 68.6225C23.4793 68.5453 23.3254 68.5453 23.0945 68.5453H22.2481V69.3184H23.0945V69.3173ZM23.6332 69.8577L24.2488 70.6308C24.3258 70.7841 24.2488 70.9385 24.1719 71.0157C24.018 71.1712 23.7871 71.0929 23.7101 71.0157L22.9406 69.9349H22.2481V70.783C22.2481 70.9385 22.0942 71.0929 21.9403 71.0929C21.7863 71.0929 21.6324 70.9374 21.6324 70.783V68.2365C21.6324 68.081 21.7863 67.9287 21.9403 67.9287H23.1715C23.4793 67.9287 23.7871 68.0038 23.941 68.1593C24.018 68.2365 24.0949 68.2365 24.0949 68.3148C24.2488 68.4702 24.2488 68.6225 24.2488 68.778C24.2488 69.3945 24.0949 69.7022 23.6332 69.8577ZM105.664 0.299744C119.978 0.299744 132.366 5.5494 142.37 15.5855C152.681 25.9304 157.838 38.2826 157.838 52.718V72.5587H136.907V52.1004C136.907 44.0737 134.06 37.1245 128.289 31.4117C126.903 29.9449 125.441 28.7869 123.749 27.6288C119.131 24.4636 113.668 23.074 107.973 23.074H105.665V0.299744H105.664ZM134.904 72.5587H118.591V56.7325C118.591 54.1087 117.745 52.1004 115.975 50.402C114.282 48.6285 111.974 47.7783 109.665 47.7783H105.664V25.0812H107.972C113.974 25.0812 119.129 26.7796 123.747 30.2537C124.902 30.7941 126.056 31.9521 126.901 32.8013C132.366 38.2836 134.904 44.6141 134.904 52.1015V72.5587ZM116.591 72.5587H105.663V49.7866H109.665C111.435 49.7866 113.128 50.402 114.589 51.7927C115.743 52.9507 116.591 54.7263 116.591 56.7325V72.5587Z" fill="black"/>
</svg>
