<svg width="181" height="85" viewBox="0 0 181 85" fill="none" xmlns="http://www.w3.org/2000/svg">
<g clip-path="url(#clip0)">
<path fill-rule="evenodd" clip-rule="evenodd" d="M-0.00183018 21.0544V59.6766C0.057891 60.8921 0.495483 62.06 1.25148 63.0216C2.00748 63.9832 3.04523 64.6919 4.22371 65.0513C30.6265 77.4024 59.3502 84.1848 88.56 84.9653C119.604 84.493 150.166 77.3194 178.1 63.9488C178.98 63.4034 179.699 62.6383 180.183 61.7308C180.668 60.8233 180.901 59.8056 180.858 58.7808V22.9494C181.278 17.8847 177.96 15.7486 173.595 13.9915C144.679 2.24294 113.005 0.003479 82.5534 0.003479C55.6722 0.224944 29.0571 5.28038 4.01418 14.9218C2.7974 15.4271 1.7633 16.2826 1.04687 17.3766C0.330448 18.4707 -0.035022 19.7524 -0.00183018 21.0544Z" fill="white"/>
<path fill-rule="evenodd" clip-rule="evenodd" d="M2.65438 23.1891V57.9524C2.73647 59.0867 3.17882 60.1667 3.91858 61.0388C4.65835 61.9109 5.65788 62.5307 6.77516 62.8103C32.6219 73.9722 60.4257 80.0575 88.632 80.7261C118.636 80.3341 148.241 73.8852 175.622 61.7767C176.461 61.3207 177.156 60.6451 177.63 59.8244C178.105 59.0038 178.34 58.0699 178.311 57.1255V24.9117C178.695 20.3639 175.518 18.4345 171.327 16.8497C143.18 6.27249 112.379 4.2742 82.8 4.23975C56.8006 4.42675 31.0224 8.97033 6.56563 17.6765C5.41557 18.083 4.42171 18.8316 3.72115 19.8189C3.02059 20.8063 2.64786 21.9838 2.65438 23.1891Z" fill="#005CA2"/>
<path d="M2.6543 4.23975H178.381V80.7261H2.6543V4.23975Z" fill="url(#paint0_radial)"/>
<path fill-rule="evenodd" clip-rule="evenodd" d="M142.447 57.9524C144.542 56.5398 142.761 53.9902 140.421 55.1272C107.699 70.9068 75.0475 71.0446 41.8018 55.3684C36.5286 52.8877 37.0525 56.8843 39.2525 58.2969C76.6539 82.4142 110.633 79.7958 142.447 57.9524Z" fill="#D52330"/>
<path fill-rule="evenodd" clip-rule="evenodd" d="M22.4549 28.185H24.8296C27.4555 28.1193 30.0106 29.0293 31.9886 30.7345C32.8468 31.6085 33.5034 32.6552 33.9133 33.803C34.3232 34.9507 34.4767 36.1723 34.3633 37.384C34.3757 38.9208 33.9502 40.4302 33.1351 41.7399C32.3201 43.0496 31.1484 44.107 29.7536 44.7915C27.4644 45.8375 24.921 46.2198 22.42 45.894V28.185H22.4549ZM56.5386 39.4512C55.4707 35.6384 53.8096 32.0121 51.6147 28.7018C49.4318 32.0187 47.7716 35.643 46.6907 39.4512H56.5736H56.5386ZM48.8908 23.775H54.5481C60.0308 29.7698 63.4182 38.521 64.5357 50.0973H58.4244C58.2615 48.076 58.017 46.1466 57.6911 44.3091H45.3986C45.055 46.225 44.8103 48.1569 44.6652 50.0973H38.7983C40.1952 38.3142 43.5128 29.4253 48.8908 23.775ZM65.5834 50.0973H71.4154V32.1816C76.9554 36.9939 81.0706 43.197 83.3237 50.1317H88.5271V23.775H82.6951V36.4882C79.3167 31.6485 75.1927 27.359 70.4725 23.775H65.5834V50.0973ZM117.966 50.0973H123.798V32.1816C129.338 36.9939 133.453 43.197 135.706 50.1317H141.084V23.775H135.218V36.4882C131.839 31.6485 127.715 27.359 122.995 23.775H118.106V50.0973H117.966ZM103.299 22.9825C106.967 23.1085 110.438 24.6538 112.96 27.2843C115.483 29.9148 116.854 33.4191 116.779 37.0395C116.872 38.8406 116.593 40.6415 115.958 42.3328C115.323 44.0241 114.347 45.5703 113.088 46.8776C111.828 48.1848 110.313 49.2258 108.633 49.937C106.953 50.6483 105.144 51.0151 103.316 51.0151C101.489 51.0151 99.6797 50.6483 97.9999 49.937C96.3201 49.2258 94.8045 48.1848 93.5453 46.8776C92.286 45.5703 91.3095 44.0241 90.6749 42.3328C90.0403 40.6415 89.7611 38.8406 89.8541 37.0395C89.7783 33.4248 91.1452 29.9255 93.6602 27.296C96.1753 24.6665 99.637 23.1173 103.299 22.9825ZM103.299 28.185C105.554 28.3095 107.666 29.312 109.172 30.9723C110.678 32.6325 111.455 34.8148 111.331 37.0395C111.435 38.1422 111.305 39.2543 110.949 40.3046C110.593 41.3549 110.018 42.3202 109.262 43.139C108.506 43.9577 107.586 44.6117 106.559 45.0593C105.532 45.5068 104.422 45.7379 103.299 45.7379C102.176 45.7379 101.066 45.5068 100.039 45.0593C99.0125 44.6117 98.0916 43.9577 97.3356 43.139C96.5796 42.3202 96.0051 41.3549 95.6489 40.3046C95.2927 39.2543 95.1626 38.1422 95.267 37.0395C95.1431 34.8148 95.9195 32.6325 97.4256 30.9723C98.9316 29.312 101.044 28.3095 103.299 28.185ZM161.618 34.4555H148.418C148.593 32.7225 149.396 31.1099 150.679 29.9138C151.962 28.7176 153.639 28.0182 155.402 27.9438C156.249 27.952 157.085 28.129 157.861 28.464C158.637 28.7989 159.336 29.2851 159.916 29.8932C160.497 30.5014 160.947 31.219 161.239 32.003C161.532 32.7869 161.661 33.6211 161.618 34.4555ZM166.612 45.0326L160.99 43.689C160.285 44.4051 159.436 44.9681 158.498 45.3419C157.56 45.7157 156.553 45.892 155.542 45.8595C153.649 45.8965 151.819 45.1923 150.451 43.9009C149.083 42.6095 148.289 40.8361 148.243 38.9689H166.822C167.092 37.4685 167.185 35.9425 167.101 34.421C166.949 31.5542 165.914 28.8014 164.133 26.5312C163.04 25.3107 161.669 24.3624 160.134 23.7637C158.598 23.165 156.941 22.9327 155.298 23.0859C153.566 23.0476 151.846 23.3717 150.251 24.0369C148.656 24.702 147.222 25.693 146.043 26.9447C143.502 29.9542 142.249 33.8226 142.551 37.7285C142.462 39.6663 142.782 41.6011 143.492 43.4101C144.201 45.2191 145.284 46.8628 146.672 48.2368C147.759 49.2395 149.04 50.0156 150.438 50.5187C151.836 51.0219 153.323 51.2418 154.809 51.1653C157.13 51.1822 159.42 50.6422 161.482 49.5919C163.544 48.5416 165.317 47.0124 166.647 45.136L166.612 45.0326ZM16.0293 23.6027C17.2516 26.8413 16.5531 39.8646 16.5531 44.5158C16.5531 48.3746 16.3436 50.4418 16.3436 50.4418C18.6444 50.8813 20.9846 51.0891 23.328 51.062C27.4976 51.1194 31.5711 49.8242 34.922 47.3755C36.5854 46.039 37.9072 44.3356 38.7807 42.4025C39.6542 40.4695 40.055 38.361 39.9508 36.2471C40.1075 34.0868 39.6595 31.9255 38.6556 29.9994C37.6517 28.0733 36.1306 26.4564 34.2585 25.3253C30.5166 23.4573 26.3163 22.6692 22.1406 23.0514C20.0951 23.1285 18.0551 23.3125 16.0293 23.6027Z" fill="white"/>
</g>
<defs>
<radialGradient id="paint0_radial" cx="0" cy="0" r="1" gradientUnits="userSpaceOnUse" gradientTransform="translate(90.7167 66.7373) scale(51.4909 56.5509)">
<stop offset="0.23" stop-color="white"/>
<stop offset="1" stop-color="#1B5CA4"/>
</radialGradient>
<clipPath id="clip0">
<rect width="181" height="85" fill="white"/>
</clipPath>
</defs>
</svg>
