<svg width="67" height="80" viewBox="0 0 67 80" fill="none" xmlns="http://www.w3.org/2000/svg">
<path d="M61.6087 36.1835L61.0475 35.0557C58.7881 30.489 57.5951 25.421 57.5924 20.4744C57.7283 18.0377 58.6415 14.9092 59.3079 12.6258C59.5051 11.9473 59.6865 11.3261 59.8303 10.789C60.3875 8.70029 60.3956 6.84332 59.8543 5.26918C58.1816 0.403856 55.3077 0 52.2592 0C49.2107 0 46.3368 0.403856 44.6639 5.26918C44.1227 6.84347 44.1308 8.70029 44.6879 10.7904C44.8318 11.3262 45.0131 11.9475 45.2104 12.6259C45.8769 14.9093 46.7899 18.0377 46.9233 20.3999C46.9233 25.4212 45.7303 30.4891 43.4709 35.0559L42.9351 36.1317C42.9327 36.1364 42.9303 36.1412 42.9281 36.1458L42.3859 35.0551C40.1265 30.4896 38.9335 25.4218 38.9309 20.4737C39.0668 18.0384 39.98 14.91 40.6463 12.6266C40.8436 11.9467 41.0249 11.3269 41.1688 10.7898C41.7259 8.70093 41.734 6.84411 41.1928 5.26998C39.5199 0.403379 36.646 0.000794054 33.5975 0.000794054C30.549 0.000794054 27.6751 0.403379 26.0022 5.26998C25.461 6.84427 25.4691 8.70109 26.0262 10.7898C26.1701 11.327 26.3514 11.9467 26.5487 12.6266C27.2152 14.91 28.1282 18.0384 28.2616 20.4005C28.2616 25.4218 27.0686 30.4898 24.8092 35.0553L24.2671 36.146C24.2647 36.1412 24.2623 36.1364 24.2601 36.1318L23.7242 35.0561C21.4648 30.4893 20.2718 25.4213 20.2691 20.4747C20.4051 18.038 21.3183 14.9095 21.9846 12.6261C22.1819 11.9477 22.3632 11.3264 22.5071 10.7893C23.0642 8.70061 23.0723 6.84363 22.5311 5.2695C20.8585 0.403856 17.9847 0 14.9361 0C11.8876 0 9.01375 0.403856 7.34084 5.26918C6.79961 6.84347 6.80771 8.70029 7.36482 10.7904C7.5087 11.3262 7.69006 11.9475 7.8873 12.6259C8.55383 14.9093 9.46684 18.0377 9.60024 20.3999C9.60024 25.4212 8.40725 30.4891 6.14785 35.0559L5.58661 36.1836C3.28465 40.7983 0.42129 46.5408 0.273438 51.9859V58.6507C0.273438 63.2121 1.56648 67.2951 2.89143 71.0874C4.92961 76.9178 7.7115 79.9997 10.9373 79.9997H18.9351C20.9158 79.9997 22.7042 78.8743 24.2713 76.6499C25.838 78.857 27.6361 80.0003 29.599 80.0003H37.5968C39.5597 80.0003 41.3578 78.857 42.9245 76.6499C44.4916 78.8743 46.28 79.9997 48.2607 79.9997H56.2585C59.4843 79.9997 62.2662 76.9178 64.3044 71.0874C65.6293 67.2951 66.9224 63.2123 66.9224 58.6507V51.9499C66.7739 46.5406 63.9107 40.7982 61.6087 36.1835ZM47.1846 6.13693C48.3242 2.82048 49.7079 2.6658 52.2592 2.6658C54.8105 2.6658 56.1941 2.82048 57.3338 6.13693C57.6991 7.20064 57.6724 8.53497 57.2538 10.1012C57.1152 10.6209 56.9392 11.2222 56.7486 11.8794C56.3961 13.0855 55.9789 14.5151 55.6309 15.9957H48.8896C48.5413 14.5213 48.1231 13.0881 47.7698 11.8794C47.5792 11.2222 47.4032 10.6211 47.2646 10.1012C46.8461 8.53497 46.8195 7.20064 47.1846 6.13693ZM49.4122 18.6617H55.1116C55.0246 19.253 54.9601 19.8363 54.9293 20.3997C54.9293 22.0431 55.0493 23.6908 55.2817 25.3265H49.2332C49.4678 23.6715 49.5885 21.9996 49.588 20.3251C49.558 19.7885 49.4962 19.2302 49.4122 18.6617ZM28.523 6.13756C29.6626 2.82112 31.0464 2.66643 33.5977 2.66643C36.149 2.66643 37.5325 2.82112 38.6723 6.13756C39.0376 7.20001 39.0109 8.53417 38.5923 10.1018C38.4536 10.6203 38.2777 11.2214 38.0871 11.88C37.7345 13.086 37.3175 14.5155 36.9694 15.9957H30.2279C29.8796 14.5215 29.4616 13.0886 29.1082 11.88C28.9177 11.2216 28.7417 10.6203 28.6031 10.1018C28.1844 8.53417 28.1578 7.19985 28.523 6.13756ZM30.7505 18.6617H36.4501C36.363 19.2531 36.2986 19.8366 36.2676 20.4004C36.2676 22.0434 36.3877 23.6909 36.62 25.3267H30.5714C30.8059 23.6717 30.9266 22.0001 30.9263 20.3257C30.8965 19.7889 30.8345 19.2304 30.7505 18.6617ZM9.86148 6.13693C11.0011 2.82048 12.3848 2.6658 14.9361 2.6658C17.4874 2.6658 18.871 2.82048 20.0108 6.13693C20.376 7.20064 20.3493 8.53497 19.9307 10.1012C19.7921 10.6209 19.6161 11.2222 19.4255 11.8794C19.073 13.0855 18.6558 14.5151 18.3078 15.9957H11.5665C11.2182 14.5213 10.8001 13.0881 10.4467 11.8794C10.2561 11.2222 10.0802 10.6211 9.94152 10.1012C9.5229 8.53497 9.49622 7.20064 9.86148 6.13693ZM12.0891 18.6617H17.7885C17.7015 19.253 17.6372 19.8363 17.6062 20.3997C17.6062 22.0431 17.7263 23.6908 17.9586 25.3265H11.9101C12.1447 23.6715 12.2654 21.9996 12.2649 20.3251C12.2347 19.7885 12.173 19.2302 12.0891 18.6617ZM18.935 77.3335H10.9371C9.00565 77.3335 6.99145 74.737 5.40795 70.2088C4.1589 66.6324 2.93924 62.7949 2.93924 58.6506V52.0231C3.06994 47.203 5.78783 41.7526 7.97259 37.3725L8.53779 36.2368C9.83369 33.6172 10.8015 30.8426 11.427 27.9925H18.4423C19.0681 30.8353 20.0366 33.6137 21.3343 36.2368L21.8728 37.3205C22.1711 37.918 22.4771 38.5337 22.785 39.1624C20.8833 43.1483 19.0525 47.6612 18.935 51.9864V58.6512C18.935 63.2113 20.228 67.2956 21.553 71.0878C21.9314 72.1706 22.3358 73.1581 22.7636 74.049C21.8441 75.6624 20.5118 77.3335 18.935 77.3335ZM37.5965 77.334H29.5986C27.6672 77.334 25.653 74.736 24.0695 70.208C22.8204 66.6316 21.6008 62.7941 21.6008 58.6512V52.0223C21.7315 47.2022 24.4494 41.7531 26.6341 37.3729L27.1993 36.2373C28.4952 33.6172 29.4629 30.8423 30.0884 27.9925H37.1039C37.7296 30.8352 38.698 33.6137 39.9957 36.2373L40.5609 37.3729C42.7456 41.7531 45.4635 47.2022 45.5942 51.9862V58.6511C45.5942 62.7939 44.3746 66.6316 43.1255 70.2079C41.5422 74.736 39.5281 77.334 37.5965 77.334ZM64.2559 58.6506C64.2559 62.7947 63.0363 66.6324 61.7872 70.2074C60.2037 74.7368 58.1895 77.3334 56.2581 77.3334H48.2603C46.6835 77.3334 45.3514 75.6622 44.4319 74.0489C44.8597 73.1578 45.2641 72.1703 45.6425 71.0877C46.9675 67.2954 48.2605 63.2111 48.2605 58.6511V51.9502C48.143 47.6537 46.3122 43.1467 44.4105 39.1621C44.7184 38.5335 45.0244 37.9178 45.3227 37.3204L45.8612 36.2367C47.1571 33.6171 48.1249 30.8425 48.7504 27.9923H55.7657C56.3915 30.8352 57.36 33.6136 58.6577 36.2367L59.2229 37.3723C61.4077 41.7525 64.1255 47.203 64.2562 51.9856V58.6506H64.2559Z" fill="#343A3F"/>
</svg>
