<svg width="84" height="90" viewBox="0 0 84 90" fill="none" xmlns="http://www.w3.org/2000/svg">
<path d="M80.9688 86.6875V43.5625H78.2812V37.8125H75.5938V29.1875H72.9062V23.4375H70.2188V29.1875H67.5312V37.8125H64.8438V5.87125L56.7812 7.59625V3.3125H54.0938V8.17125L51.4062 8.74625V0.4375H48.7188V9.32125L46.0312 9.89625V3.3125H43.3438V10.4727L35.2812 12.1977V20.5625H11.0938V23.4375H13.7812V40.8183C13.3405 40.7407 12.8944 40.6875 12.4375 40.6875C7.25197 40.6875 3.03125 45.8467 3.03125 52.1875C3.03125 57.9691 6.54381 62.7546 11.0938 63.5567V65.4298C9.96903 64.3416 8.57556 63.6875 7.0625 63.6875C3.35778 63.6875 0.34375 67.5558 0.34375 72.3125C0.34375 76.4784 2.65634 79.9614 5.71875 80.7636V86.6875H0.34375V89.5625H83.6562V86.6875H80.9688ZM21.8438 85.25C21.8438 82.8724 23.6524 80.9375 25.875 80.9375C27.3263 80.9375 28.6727 81.7784 29.3889 83.1326L29.8055 83.9218L31.25 83.8125C31.6451 83.8125 32.0616 83.8944 32.5239 84.0612L33.83 84.5298L34.2372 83.1225C35.1119 80.0966 37.6919 78.0625 40.6562 78.0625C43.0992 78.0625 45.354 79.4871 46.5405 81.7813L47.3804 83.4086L48.6408 82.1292C50.1552 80.5939 52.6559 80.5939 54.1703 82.1292L55.4308 83.4086L56.2706 81.7813C57.4585 79.4871 59.7133 78.0625 62.1562 78.0625C65.0735 78.0625 67.6401 80.0577 68.5431 83.0276L68.9207 84.2682L70.1126 83.9864C72.7759 83.3539 75.3788 84.5269 76.9093 86.6875H22.1044C21.9513 86.2246 21.8438 85.7459 21.8438 85.25ZM78.2812 46.4375V84.0094C77.5019 83.1556 76.5975 82.4526 75.5938 81.938V49.3125H56.7812V77.0131C56.0274 77.5766 55.3408 78.2465 54.7629 79.0314C54.5479 78.8977 54.3222 78.7841 54.0938 78.6792V46.4375H78.2812ZM62.1562 75.1875C61.2318 75.1875 60.3301 75.3485 59.4688 75.6245V52.1875H64.8438V75.6044C63.9878 75.3327 63.0848 75.1875 62.1562 75.1875ZM67.5312 52.1875H72.9062V81.0726C72.1766 80.9591 71.4335 80.9044 70.6743 80.9835C69.9634 79.3548 68.8643 78.0064 67.5312 77.0103V52.1875ZM56.7812 43.5625V40.6875H75.5938V43.5625H56.7812ZM70.2188 32.0625H72.9062V37.8125H70.2188V32.0625ZM62.1562 9.37875V37.8125H54.0938V43.5625H51.4062V78.0841C50.2345 78.0841 49.0641 78.4003 48.0496 79.0314C46.2825 76.6293 43.5655 75.1875 40.6562 75.1875C39.7264 75.1875 38.8234 75.3312 37.9688 75.6001V14.5523L62.1562 9.37875ZM16.4688 23.4375H35.2812V77.0002C33.9375 78.0007 32.8329 79.362 32.1221 81.0094C31.8386 80.9677 31.551 80.9447 31.2527 80.9418C29.9936 79.1464 28.0022 78.0625 25.875 78.0625C22.1703 78.0625 19.1562 81.2868 19.1562 85.25C19.1562 85.7359 19.2167 86.2146 19.3068 86.6875H13.7812V81.4679L21.8438 71.4069V67.8692C26.3937 67.0671 29.9062 62.2816 29.9062 56.5C29.9062 52.1731 27.939 48.3997 25.0432 46.4375H27.2188V43.5625H24.5312V46.1256C23.3071 45.4111 21.9432 45 20.5 45C20.2689 45 20.0324 45.0158 19.7932 45.0402C18.905 43.6761 17.7682 42.5706 16.4688 41.8131V23.4375ZM21.8438 52.1875C21.8438 50.6781 21.5978 49.2392 21.1638 47.9181C24.5581 48.3479 27.2188 52.0322 27.2188 56.5C27.2188 61.2567 24.2047 65.125 20.5 65.125C18.8042 65.125 17.193 64.2898 15.9635 62.8408C19.4062 61.1316 21.8438 57.0031 21.8438 52.1875ZM13.7812 64.5227C15.2231 66.3311 17.103 67.5127 19.1562 67.8735V70.3446L13.7812 77.0534V64.5227ZM5.71875 52.1875C5.71875 47.4308 8.73278 43.5625 12.4375 43.5625C16.1422 43.5625 19.1562 47.4308 19.1562 52.1875C19.1562 56.3534 16.8437 59.8364 13.7812 60.6386V50.75H11.0938V60.6386C8.03134 59.8364 5.71875 56.3534 5.71875 52.1875ZM3.03125 72.3125C3.03125 69.1414 4.83994 66.5625 7.0625 66.5625C9.28506 66.5625 11.0938 69.1414 11.0938 72.3125C11.0938 75.4836 9.28506 78.0625 7.0625 78.0625C4.83994 78.0625 3.03125 75.4836 3.03125 72.3125ZM8.40625 80.7636C9.40063 80.5034 10.3117 79.9528 11.0938 79.1967V86.6875H8.40625V80.7636Z" fill="#343A3F"/>
<path d="M48.7188 17.6875H40.6562V29.1875H48.7188V17.6875ZM46.0312 26.3125H43.3438V20.5625H46.0312V26.3125Z" fill="#343A3F"/>
<path d="M48.7188 32.0625H40.6562V43.5625H48.7188V32.0625ZM46.0312 40.6875H43.3438V34.9375H46.0312V40.6875Z" fill="#343A3F"/>
<path d="M48.7188 46.4375H40.6562V57.9375H48.7188V46.4375ZM46.0312 55.0625H43.3438V49.3125H46.0312V55.0625Z" fill="#343A3F"/>
<path d="M48.7188 60.8125H40.6562V72.3125H48.7188V60.8125ZM46.0312 69.4375H43.3438V63.6875H46.0312V69.4375Z" fill="#343A3F"/>
<path d="M59.4688 17.6875H51.4062V29.1875H59.4688V17.6875ZM56.7812 26.3125H54.0938V20.5625H56.7812V26.3125Z" fill="#343A3F"/>
<path d="M19.1562 26.3125H21.8438V29.1875H19.1562V26.3125Z" fill="#343A3F"/>
<path d="M24.5312 26.3125H27.2188V29.1875H24.5312V26.3125Z" fill="#343A3F"/>
<path d="M29.9062 26.3125H32.5938V29.1875H29.9062V26.3125Z" fill="#343A3F"/>
<path d="M19.1562 32.0625H21.8438V34.9375H19.1562V32.0625Z" fill="#343A3F"/>
<path d="M24.5312 32.0625H27.2188V34.9375H24.5312V32.0625Z" fill="#343A3F"/>
<path d="M29.9062 32.0625H32.5938V34.9375H29.9062V32.0625Z" fill="#343A3F"/>
<path d="M24.5312 37.8125H27.2188V40.6875H24.5312V37.8125Z" fill="#343A3F"/>
<path d="M19.1562 37.8125H21.8438V40.6875H19.1562V37.8125Z" fill="#343A3F"/>
<path d="M29.9062 37.8125H32.5938V40.6875H29.9062V37.8125Z" fill="#343A3F"/>
<path d="M29.9062 43.5625H32.5938V46.4375H29.9062V43.5625Z" fill="#343A3F"/>
</svg>
