<svg width="80" height="80" viewBox="0 0 80 80" fill="none" xmlns="http://www.w3.org/2000/svg">
<g clip-path="url(#clip0)">
<path d="M58.3042 3.14469L12.1417 0.0570293C10.6369 -0.0426581 9.33172 1.09844 9.23094 2.60281L8.86984 8.00234H2.73438C1.22672 8.00234 0 9.22906 0 10.7367V77.2158C0 78.7234 1.22672 79.9501 2.73438 79.9501H38.0689C38.3752 79.9501 38.6786 79.825 38.8958 79.6087L44.2298 74.2983C44.2841 74.3098 44.3394 74.3191 44.3962 74.3228L53.5028 74.9319C54.9562 75.0278 56.3161 73.8456 56.4136 72.3861L60.85 6.05562C60.9498 4.56687 59.7928 3.24422 58.3042 3.14469ZM39.2408 75.9419V67.8012C39.2408 67.5859 39.4161 67.4106 39.6314 67.4106H47.7408L39.2408 75.9419ZM54.075 72.2298C54.0369 72.4658 53.8983 72.587 53.6594 72.5934L46.4281 72.1097L51.3894 67.1705C51.6103 66.9506 51.7345 66.6517 51.7345 66.34V10.7369C51.7345 9.22922 50.5078 8.0025 49.0002 8.0025H36.8138C35.2986 8.0025 35.2986 10.3462 36.8138 10.3462H49.0002C49.2156 10.3462 49.3908 10.5216 49.3908 10.7369V65.0669H39.6314C38.1238 65.0669 36.897 66.2936 36.897 67.8012V77.6064H2.73438C2.51906 77.6064 2.34375 77.4311 2.34375 77.2158V10.7369C2.34375 10.5216 2.51906 10.3462 2.73438 10.3462H30.5731C32.0883 10.3462 32.0883 8.0025 30.5731 8.0025H11.2188L11.5694 2.75937C11.6075 2.52328 11.7461 2.40219 11.9852 2.39578L58.1477 5.48328C58.3837 5.5214 58.505 5.66 58.5114 5.89906L54.075 72.2298Z" fill="#343A3F"/>
<path d="M41.8481 37.0386H9.88672C9.23953 37.0386 8.71484 37.5633 8.71484 38.2104C8.71484 38.8576 9.23953 39.3823 9.88672 39.3823H41.8481C42.4955 39.3823 43.02 38.8576 43.02 38.2104C43.02 37.5633 42.4955 37.0386 41.8481 37.0386Z" fill="#343A3F"/>
<path d="M41.8481 45.2081H9.88672C9.23953 45.2081 8.71484 45.7328 8.71484 46.3799C8.71484 47.0271 9.23953 47.5518 9.88672 47.5518H41.8481C42.4955 47.5518 43.02 47.0271 43.02 46.3799C43.02 45.7328 42.4955 45.2081 41.8481 45.2081Z" fill="#343A3F"/>
<path d="M8.71484 30.041C8.71484 30.6881 9.23953 31.2128 9.88672 31.2128H41.8481C42.4955 31.2128 43.02 30.6881 43.02 30.041C43.02 29.3938 42.4955 28.8691 41.8481 28.8691H9.88672C9.23953 28.8691 8.71484 29.3938 8.71484 30.041Z" fill="#343A3F"/>
<path d="M14.3447 21.8715C14.3447 22.5186 14.8694 23.0433 15.5166 23.0433H36.2177C36.8649 23.0433 37.3896 22.5186 37.3896 21.8715C37.3896 21.2243 36.8649 20.6996 36.2177 20.6996H15.5166C14.8694 20.6996 14.3447 21.2243 14.3447 21.8715Z" fill="#343A3F"/>
<path d="M30.4307 68.5605C28.3231 68.5661 26.2154 68.5707 24.1077 68.574C23.3993 68.575 22.691 68.576 21.9827 68.5765C20.6991 68.5774 19.8343 68.3197 19.5468 66.9079C19.3037 65.7141 17.6149 65.8746 17.2868 66.9079C16.4759 69.4605 15.1346 68.4604 14.3834 66.7433C13.6338 65.0304 13.4416 63.1132 13.1143 61.2902C12.8737 59.9507 10.8477 60.3261 10.8124 61.6018C10.7659 63.2816 10.609 64.9347 10.1826 66.564C9.74274 68.2449 9.08352 69.8604 8.42914 71.4665C7.85867 72.8666 10.1271 73.469 10.6891 72.0896C11.269 70.6665 11.8496 69.2355 12.2818 67.7593C13.0849 69.6905 14.7465 71.8749 17.1141 70.5876C17.5546 70.348 17.966 70.0076 18.3271 69.6105C19.5584 71.0333 21.391 70.9211 23.1059 70.9191C25.5476 70.916 27.9893 70.9107 30.431 70.9043C31.9387 70.9004 31.9415 68.5566 30.4307 68.5605Z" fill="#343A3F"/>
<path d="M79.0521 38.506C78.4431 37.9001 77.606 37.5893 76.756 37.5663L75.8703 37.5707V35.8959C75.8703 34.8757 75.2644 33.7979 74.3964 33.2612V30.9021C74.3964 26.0476 66.8383 26.0687 66.8383 30.9249V33.2843C65.9541 33.8309 65.361 34.8063 65.361 35.9174V37.6334C61.46 37.899 61.4489 43.8435 65.3653 44.0759C65.3903 49.322 65.3891 54.4821 65.361 59.816C65.3533 61.287 67.6967 61.3732 67.7047 59.8284C67.7328 54.4899 67.7341 49.3253 67.7092 44.0748L73.5235 44.0459C73.5235 44.0459 73.516 61.3659 73.516 69.1684C73.516 72.9712 67.7005 72.9965 67.7005 69.1288L67.7025 66.9918C67.7939 65.4793 65.4546 65.3382 65.363 66.8506V68.8559C65.363 70.5746 65.8946 72.0303 66.9236 73.0542C67.0152 75.5062 68.0483 77.8788 69.7938 79.6098C70.2945 80.1067 70.9878 79.9548 71.4725 79.5813C73.2483 77.8024 74.2489 75.4573 74.3114 72.9542C75.085 72.1837 75.8596 71.4079 75.8596 68.7517L75.8605 58.0718C77.8871 58.6482 80.0002 57.0799 80.0002 54.9553V40.7878C80.0002 39.9248 79.6635 39.1145 79.0521 38.506ZM67.7047 37.6112V35.9173C67.7047 35.5706 67.9427 35.2798 68.263 35.1934L72.9544 35.1701C73.0856 35.2026 73.2067 35.2646 73.3049 35.3624C73.4478 35.5048 73.5266 35.6942 73.5266 35.8959V37.5824L67.7047 37.6112ZM70.6221 29.4862C71.3414 29.4862 72.0525 30.1915 72.0525 30.9021V32.8031L69.1819 32.8173V30.9249C69.1821 30.1354 69.8277 29.4901 70.6221 29.4862ZM70.6203 76.9707C70.0755 76.1985 69.6814 75.3253 69.4614 74.4073C69.8242 74.4859 70.1917 74.5268 70.5594 74.5268C70.9699 74.5268 71.3802 74.4759 71.7842 74.3773C71.5696 75.3092 71.1761 76.1878 70.6203 76.9707ZM77.6564 54.9553C77.6564 56.0648 75.8671 56.1521 75.8671 54.9757C75.8671 54.9757 75.8691 43.886 75.8703 42.8695C75.8711 42.2138 75.3261 41.6962 74.6894 41.6962L65.5661 41.7415C64.4346 41.7415 64.461 39.971 65.5777 39.9656L76.7675 39.9101C77.3086 39.9562 77.6049 40.2488 77.6563 40.7878V54.9553H77.6564Z" fill="#343A3F"/>
</g>
<defs>
<clipPath id="clip0">
<rect width="80" height="80" fill="white"/>
</clipPath>
</defs>
</svg>
