<svg width="80" height="80" viewBox="0 0 80 80" fill="none" xmlns="http://www.w3.org/2000/svg">
<path d="M23.1255 80C20.3679 80 18.1255 77.7576 18.1255 75C18.1255 72.2424 20.3679 70 23.1255 70C23.8164 70 24.3755 70.5585 24.3755 71.25C24.3755 71.9415 23.8164 72.5 23.1255 72.5C21.7467 72.5 20.6255 73.6212 20.6255 75C20.6255 76.3788 21.7467 77.5 23.1255 77.5C23.8164 77.5 24.3755 78.0585 24.3755 78.75C24.3755 79.4415 23.8164 80 23.1255 80Z" fill="#343A3F"/>
<path d="M69.3755 72.5H23.1255C22.434 72.5 21.8755 71.9415 21.8755 71.25C21.8755 70.5585 22.434 70 23.1255 70H69.3755C70.0664 70 70.6255 70.5585 70.6255 71.25C70.6255 71.9415 70.0664 72.5 69.3755 72.5Z" fill="#343A3F"/>
<path d="M69.3755 80H23.1255C22.434 80 21.8755 79.4415 21.8755 78.75C21.8755 78.0585 22.434 77.5 23.1255 77.5H69.3755C70.0664 77.5 70.6255 78.0585 70.6255 78.75C70.6255 79.4415 70.0664 80 69.3755 80Z" fill="#343A3F"/>
<path d="M69.3755 72.5C68.684 72.5 68.1255 71.9415 68.1255 71.25C68.1255 70.5585 68.684 70 69.3755 70C70.7537 70 71.8755 68.8788 71.8755 67.5C71.8755 66.8085 72.434 66.25 73.1255 66.25C73.8164 66.25 74.3755 66.8085 74.3755 67.5C74.3755 70.2576 72.1324 72.5 69.3755 72.5Z" fill="#343A3F"/>
<path d="M73.1255 6.25C72.434 6.25 71.8755 5.6897 71.8755 5C71.8755 3.62122 70.7537 2.5 69.3755 2.5C68.684 2.5 68.1255 1.9397 68.1255 1.25C68.1255 0.560303 68.684 0 69.3755 0C72.1324 0 74.3755 2.24243 74.3755 5C74.3755 5.6897 73.8164 6.25 73.1255 6.25Z" fill="#343A3F"/>
<path d="M19.3755 6.25C18.684 6.25 18.1255 5.6897 18.1255 5C18.1255 2.24243 20.3679 0 23.1255 0C23.8164 0 24.3755 0.560303 24.3755 1.25C24.3755 1.9397 23.8164 2.5 23.1255 2.5C21.7467 2.5 20.6255 3.62122 20.6255 5C20.6255 5.6897 20.0664 6.25 19.3755 6.25Z" fill="#343A3F"/>
<path d="M69.3755 80C68.684 80 68.1255 79.4415 68.1255 78.75C68.1255 78.0585 68.684 77.5 69.3755 77.5C70.7537 77.5 71.8755 76.3788 71.8755 75C71.8755 74.3085 72.434 73.75 73.1255 73.75C73.8164 73.75 74.3755 74.3085 74.3755 75C74.3755 77.7576 72.1324 80 69.3755 80Z" fill="#343A3F"/>
<path d="M73.1255 30C72.805 30 72.4852 29.8773 72.2417 29.6338C71.7528 29.1449 71.7528 28.3551 72.2417 27.8662L76.8755 23.2324V8.75H73.1255C72.4339 8.75 71.8755 8.1897 71.8755 7.5C71.8755 6.8103 72.4339 6.25 73.1255 6.25H78.1255C78.8164 6.25 79.3755 6.8103 79.3755 7.5V23.75C79.3755 24.0814 79.2436 24.4 79.0086 24.6338L74.0086 29.6338C73.7651 29.8773 73.4453 30 73.1255 30Z" fill="#343A3F"/>
<path d="M69.3755 2.5H23.1255C22.434 2.5 21.8755 1.9397 21.8755 1.25C21.8755 0.560303 22.434 0 23.1255 0H69.3755C70.0664 0 70.6255 0.560303 70.6255 1.25C70.6255 1.9397 70.0664 2.5 69.3755 2.5Z" fill="#343A3F"/>
<path d="M19.3755 76.25C18.684 76.25 18.1255 75.6915 18.1255 75V5C18.1255 4.3103 18.684 3.75 19.3755 3.75C20.0664 3.75 20.6255 4.3103 20.6255 5V75C20.6255 75.6915 20.0664 76.25 19.3755 76.25Z" fill="#343A3F"/>
<path d="M68.1255 76.25H24.3755C23.684 76.25 23.1255 75.6915 23.1255 75C23.1255 74.3085 23.684 73.75 24.3755 73.75H68.1255C68.8164 73.75 69.3755 74.3085 69.3755 75C69.3755 75.6915 68.8164 76.25 68.1255 76.25Z" fill="#343A3F"/>
<path d="M68.1255 76.25C67.434 76.25 66.8755 75.6915 66.8755 75V71.25C66.8755 70.5585 67.434 70 68.1255 70C68.8164 70 69.3755 70.5585 69.3755 71.25V75C69.3755 75.6915 68.8164 76.25 68.1255 76.25Z" fill="#343A3F"/>
<path d="M24.3755 76.25C23.684 76.25 23.1255 75.6915 23.1255 75V71.25C23.1255 70.5585 23.684 70 24.3755 70C25.0664 70 25.6255 70.5585 25.6255 71.25V75C25.6255 75.6915 25.0664 76.25 24.3755 76.25Z" fill="#343A3F"/>
<path d="M73.1255 76.25C72.434 76.25 71.8755 75.6915 71.8755 75V5C71.8755 4.3103 72.434 3.75 73.1255 3.75C73.8164 3.75 74.3755 4.3103 74.3755 5V75C74.3755 75.6915 73.8164 76.25 73.1255 76.25Z" fill="#343A3F"/>
<path d="M19.3737 8.75H1.87549C1.18396 8.75 0.625488 8.1897 0.625488 7.5C0.625488 6.8103 1.18396 6.25 1.87549 6.25H19.3737C20.0652 6.25 20.6237 6.8103 20.6237 7.5C20.6237 8.1897 20.0652 8.75 19.3737 8.75Z" fill="#343A3F"/>
<path d="M19.3737 71.25H8.12549C7.43396 71.25 6.87549 70.6915 6.87549 70C6.87549 69.3085 7.43396 68.75 8.12549 68.75H19.3737C20.0652 68.75 20.6237 69.3085 20.6237 70C20.6237 70.6915 20.0652 71.25 19.3737 71.25Z" fill="#343A3F"/>
<path d="M1.87549 65C1.18396 65 0.625488 64.4415 0.625488 63.75V7.5C0.625488 6.8103 1.18396 6.25 1.87549 6.25C2.56641 6.25 3.12549 6.8103 3.12549 7.5V63.75C3.12549 64.4415 2.56641 65 1.87549 65Z" fill="#343A3F"/>
<path d="M8.12546 71.25C7.80502 71.25 7.4852 71.1273 7.24167 70.8838L0.991669 64.6338C0.502777 64.1449 0.502777 63.3551 0.991669 62.8662C1.47995 62.3773 2.27036 62.3773 2.75864 62.8662L9.00864 69.1162C9.49753 69.6051 9.49753 70.3949 9.00864 70.8838C8.76511 71.1273 8.44528 71.25 8.12546 71.25Z" fill="#343A3F"/>
<path d="M8.12549 71.25C7.43396 71.25 6.87549 70.6915 6.87549 70V63.75C6.87549 63.0585 7.43396 62.5 8.12549 62.5C8.81641 62.5 9.37549 63.0585 9.37549 63.75V70C9.37549 70.6915 8.81641 71.25 8.12549 71.25Z" fill="#343A3F"/>
<path d="M8.12549 65H1.87549C1.18396 65 0.625488 64.4415 0.625488 63.75C0.625488 63.0585 1.18396 62.5 1.87549 62.5H8.12549C8.81641 62.5 9.37549 63.0585 9.37549 63.75C9.37549 64.4415 8.81641 65 8.12549 65Z" fill="#343A3F"/>
<path d="M19.3755 26.25H10.6255C9.93396 26.25 9.37549 25.6897 9.37549 25C9.37549 24.3103 9.93396 23.75 10.6255 23.75H19.3755C20.0664 23.75 20.6255 24.3103 20.6255 25C20.6255 25.6897 20.0664 26.25 19.3755 26.25Z" fill="#343A3F"/>
<path d="M19.3755 33.75H10.6255C9.93396 33.75 9.37549 33.1897 9.37549 32.5C9.37549 31.8103 9.93396 31.25 10.6255 31.25H19.3755C20.0664 31.25 20.6255 31.8103 20.6255 32.5C20.6255 33.1897 20.0664 33.75 19.3755 33.75Z" fill="#343A3F"/>
<path d="M19.3755 41.25H10.6255C9.93396 41.25 9.37549 40.6897 9.37549 40C9.37549 39.3103 9.93396 38.75 10.6255 38.75H19.3755C20.0664 38.75 20.6255 39.3103 20.6255 40C20.6255 40.6897 20.0664 41.25 19.3755 41.25Z" fill="#343A3F"/>
<path d="M19.3755 48.75H10.6255C9.93396 48.75 9.37549 48.1915 9.37549 47.5C9.37549 46.8085 9.93396 46.25 10.6255 46.25H19.3755C20.0664 46.25 20.6255 46.8085 20.6255 47.5C20.6255 48.1915 20.0664 48.75 19.3755 48.75Z" fill="#343A3F"/>
<path d="M58.1162 21.2726H35.6187C34.9277 21.2726 34.3687 20.7123 34.3687 20.0226C34.3687 19.3323 34.9277 18.7726 35.6187 18.7726H58.1162C58.8077 18.7726 59.3662 19.3323 59.3662 20.0226C59.3662 20.7123 58.8077 21.2726 58.1162 21.2726Z" fill="#343A3F"/>
<path d="M46.8687 46.2775C46.1777 46.2775 45.6187 45.719 45.6187 45.0275V16.2726C45.6187 15.5823 46.1777 15.0226 46.8687 15.0226C47.5602 15.0226 48.1187 15.5823 48.1187 16.2726V45.0287C48.1187 45.719 47.5602 46.2775 46.8687 46.2775Z" fill="#343A3F"/>
<path d="M56.8687 46.2775H36.8687C36.1777 46.2775 35.6187 45.719 35.6187 45.0275C35.6187 44.3365 36.1777 43.7775 36.8687 43.7775H56.8687C57.5602 43.7775 58.1187 44.3365 58.1187 45.0275C58.1187 45.719 57.5602 46.2775 56.8687 46.2775Z" fill="#343A3F"/>
<path d="M61.8735 55.0238H31.8638C31.1729 55.0238 30.6138 54.4647 30.6138 53.7738C30.6138 53.0823 31.1729 52.5238 31.8638 52.5238H61.8735C62.5651 52.5238 63.1235 53.0823 63.1235 53.7738C63.1235 54.4647 62.5651 55.0238 61.8735 55.0238Z" fill="#343A3F"/>
<path d="M54.3735 58.7726H39.3662C38.6753 58.7726 38.1162 58.2135 38.1162 57.5226C38.1162 56.8311 38.6753 56.2726 39.3662 56.2726H54.3735C55.0651 56.2726 55.6235 56.8311 55.6235 57.5226C55.6235 58.2135 55.0651 58.7726 54.3735 58.7726Z" fill="#343A3F"/>
<path d="M35.6187 36.275C32.8611 36.275 30.6187 34.0326 30.6187 31.275C30.6187 30.5847 31.1777 30.025 31.8687 30.025C32.5602 30.025 33.1187 30.5847 33.1187 31.275C33.1187 32.6538 34.2399 33.775 35.6187 33.775C36.9974 33.775 38.1187 32.6538 38.1187 31.275C38.1187 30.5847 38.6777 30.025 39.3687 30.025C40.0602 30.025 40.6187 30.5847 40.6187 31.275C40.6187 34.0314 38.3762 36.275 35.6187 36.275Z" fill="#343A3F"/>
<path d="M39.3687 32.525H31.8687C31.1777 32.525 30.6187 31.9647 30.6187 31.275C30.6187 30.5847 31.1777 30.025 31.8687 30.025H39.3687C40.0602 30.025 40.6187 30.5847 40.6187 31.275C40.6187 31.9647 40.0602 32.525 39.3687 32.525Z" fill="#343A3F"/>
<path d="M31.8691 32.5251C31.7391 32.5251 31.6054 32.5037 31.4742 32.4597C30.8205 32.2412 30.4653 31.5338 30.6844 30.8789L34.4344 19.6265C34.6529 18.9728 35.3542 18.6151 36.0152 18.8361C36.6695 19.0552 37.0241 19.7626 36.8056 20.4175L33.0556 31.67C32.8804 32.1936 32.3928 32.5251 31.8691 32.5251Z" fill="#343A3F"/>
<path d="M39.3692 32.525C38.8455 32.525 38.3578 32.1936 38.1845 31.6699L34.4345 20.4175C34.2154 19.7626 34.5694 19.0552 35.2243 18.836C35.8829 18.6163 36.5878 18.9728 36.8057 19.6265L40.5557 30.8789C40.7742 31.5338 40.4208 32.2412 39.7653 32.4597C39.6329 32.5037 39.5004 32.525 39.3692 32.525Z" fill="#343A3F"/>
<path d="M58.1162 36.275C55.3586 36.275 53.1162 34.0326 53.1162 31.275C53.1162 30.5847 53.6753 30.025 54.3662 30.025C55.0577 30.025 55.6162 30.5847 55.6162 31.275C55.6162 32.6538 56.7374 33.775 58.1162 33.775C59.495 33.775 60.6162 32.6538 60.6162 31.275C60.6162 30.5847 61.1753 30.025 61.8662 30.025C62.5577 30.025 63.1162 30.5847 63.1162 31.275C63.1162 34.0314 60.8738 36.275 58.1162 36.275Z" fill="#343A3F"/>
<path d="M61.8662 32.525H54.3662C53.6753 32.525 53.1162 31.9647 53.1162 31.275C53.1162 30.5847 53.6753 30.025 54.3662 30.025H61.8662C62.5577 30.025 63.1162 30.5847 63.1162 31.275C63.1162 31.9647 62.5577 32.525 61.8662 32.525Z" fill="#343A3F"/>
<path d="M54.3666 32.5251C54.2366 32.5251 54.103 32.5037 53.9717 32.4597C53.3181 32.2412 52.9628 31.5338 53.1819 30.8789L56.9319 19.6265C57.1504 18.9728 57.8505 18.6151 58.5127 18.8361C59.1664 19.0552 59.5217 19.7626 59.3031 20.4175L55.5532 31.67C55.378 32.1936 54.8903 32.5251 54.3666 32.5251Z" fill="#343A3F"/>
<path d="M61.8668 32.525C61.3431 32.525 60.8554 32.1936 60.6821 31.6699L56.9321 20.4175C56.7129 19.7626 57.0669 19.0552 57.7219 18.836C58.3804 18.6163 59.0842 18.9728 59.3033 19.6265L63.0533 30.8789C63.2718 31.5338 62.9184 32.2412 62.2629 32.4597C62.1304 32.5037 61.998 32.525 61.8668 32.525Z" fill="#343A3F"/>
</svg>
