<svg width="361" height="126" viewBox="0 0 361 126" fill="none" xmlns="http://www.w3.org/2000/svg">
<path d="M283.29 -47.727C250.828 -47.6932 225.165 -35.2887 200.347 -23.2927C175.716 -11.3871 150.246 0.923311 118.228 0.956673C86.2101 0.990035 60.7156 -11.2672 36.0599 -23.1215C22.8474 -29.4738 9.18416 -36.0427 -5.35494 -40.6736L-5.94508 -39.4495C8.47316 -34.856 22.0789 -28.3149 35.2369 -21.9892C60.0795 -10.0457 85.7686 2.30536 118.23 2.27154C150.691 2.23771 176.354 -10.1668 201.173 -22.1628C225.803 -34.0684 251.272 -46.3788 283.292 -46.4122C315.31 -46.4455 340.805 -34.1883 365.46 -22.334C390.302 -10.3897 415.992 1.96128 448.454 1.92746L448.452 0.612356C416.433 0.645719 390.938 -11.6115 366.283 -23.4658C341.44 -35.4101 315.751 -47.7611 283.29 -47.7273L283.29 -47.727Z" fill="#009A9C" fill-opacity="0.14"/>
<path d="M283.299 -38.9064C250.837 -38.8726 225.174 -26.4681 200.356 -14.4721C175.725 -2.56672 150.255 9.74388 118.237 9.77724C86.2191 9.81061 60.7241 -2.44689 36.0687 -14.3009C22.8559 -20.6532 9.19319 -27.2223 -5.3459 -31.8533L-5.93604 -30.6289C8.48219 -26.0364 22.0877 -19.4945 35.245 -13.1686C60.0888 -1.22532 85.7776 11.1257 118.239 11.0919C150.7 11.058 176.363 -1.34648 201.182 -13.3424C225.812 -25.2478 251.282 -37.5584 283.301 -37.5918C315.319 -37.6251 340.814 -25.3677 365.469 -13.5136C390.311 -1.56941 416.001 10.7816 448.463 10.7478L448.461 9.43292C416.442 9.46628 390.947 -2.79122 366.292 -14.6453C341.449 -26.5895 315.76 -38.9405 283.299 -38.9067L283.299 -38.9064Z" fill="#009A9C" fill-opacity="0.14"/>
<path d="M283.308 -30.0869C250.846 -30.053 225.183 -17.6485 200.365 -5.65255C175.734 6.25309 150.265 18.5635 118.247 18.5968C86.2284 18.6302 60.7333 6.37292 36.0779 -5.48137C22.8652 -11.8343 9.20247 -18.4025 -5.33663 -23.0344L-5.92677 -21.81C8.49147 -17.2168 22.097 -10.6757 35.2552 -4.34972C60.0978 7.59449 85.7869 19.9455 118.248 19.9117C150.709 19.8779 176.372 7.47334 201.191 -4.52262C225.822 -16.4283 251.291 -28.7386 283.31 -28.772C315.328 -28.8053 340.823 -16.5481 365.478 -4.6938C390.321 7.25041 416.01 19.6014 448.472 19.5676L448.471 18.2525C416.451 18.2859 390.956 6.02861 366.301 -5.82568C341.459 -17.7699 315.769 -30.1209 283.308 -30.0871L283.308 -30.0869Z" fill="#009A9C" fill-opacity="0.14"/>
<path d="M283.317 -21.2661C250.855 -21.2323 225.192 -8.82896 200.375 3.16725C175.743 15.0729 150.274 27.3833 118.256 27.4166C86.2377 27.45 60.7426 15.1927 36.0872 3.33939C22.8744 -3.01286 9.21174 -9.58202 -5.32735 -14.2137L-5.91749 -12.9886C8.50075 -8.39609 22.1062 -1.85491 35.2645 4.4708C60.1071 16.4143 85.7961 28.7653 118.258 28.7315C150.719 28.6977 176.382 16.2931 201.201 4.2979C225.831 -7.60752 251.3 -19.9181 283.319 -19.9515C315.337 -19.9849 340.832 -7.72735 365.487 4.12672C390.33 16.0702 416.019 28.4212 448.481 28.3874L448.48 27.0723C416.461 27.1057 390.966 14.8484 366.31 2.99412C341.468 -8.9501 315.778 -21.3002 283.317 -21.2664L283.317 -21.2661Z" fill="#009A9C" fill-opacity="0.14"/>
<path d="M283.327 -12.4469C250.865 -12.4131 225.202 -0.00860102 200.384 11.9873C175.753 23.8927 150.283 36.2033 118.265 36.2367C86.247 36.2701 60.7525 24.0126 36.0968 12.1592C22.8843 5.80628 9.22102 -0.761912 -5.31807 -5.39382L-5.90821 -4.16943C8.51002 0.423781 22.1158 6.96496 35.2737 13.2909C60.1164 25.2351 85.8054 37.5851 118.267 37.5513C150.728 37.5175 176.391 25.1142 201.21 13.117C225.84 1.21164 251.309 -11.099 283.328 -11.1323C315.347 -11.1657 340.842 1.09181 365.496 12.9459C390.339 24.891 416.029 37.2411 448.491 37.2072L448.489 35.8924C416.47 35.9257 390.975 23.6683 366.32 11.8142C341.477 -0.129989 315.788 -12.481 283.327 -12.4472L283.327 -12.4469Z" fill="#009A9C" fill-opacity="0.14"/>
<path d="M283.336 -3.62691C250.874 -3.59308 225.211 8.81144 200.393 20.8074C175.762 32.7131 150.293 45.0234 118.274 45.0568C86.2562 45.0901 60.7612 32.8329 36.1058 20.9786C22.893 14.6263 9.2303 8.05813 -5.3088 3.42645L-5.89893 4.65062C8.5193 9.24311 22.1248 15.7852 35.2821 22.111C60.1259 34.0544 85.8147 46.4055 118.276 46.3716C150.737 46.3378 176.4 33.9333 201.219 21.9373C225.849 10.0317 251.319 -2.27869 283.338 -2.31206C315.356 -2.34542 340.851 9.91185 365.506 21.7661C390.348 33.7104 416.038 46.0614 448.5 46.0276L448.499 44.7125C416.479 44.7458 390.984 32.4885 366.329 20.6343C341.486 8.69004 315.797 -3.66098 283.336 -3.62715L283.336 -3.62691Z" fill="#009A9C" fill-opacity="0.14"/>
<path d="M283.345 5.19414C250.883 5.22796 225.22 17.6313 200.402 29.6284C175.771 41.5329 150.302 53.8445 118.284 53.8778C86.2658 53.9112 60.7719 41.6537 36.1165 29.7996C22.9034 23.4474 9.24046 16.8792 -5.29952 12.2473L-5.88966 13.4717C8.52917 18.0649 22.1358 24.6061 35.2935 30.932C60.1361 42.8752 85.8243 55.2263 118.285 55.1924C150.746 55.1586 176.41 42.7541 201.228 30.7581C225.859 18.8527 251.328 6.54212 283.347 6.50876C315.365 6.4754 340.86 18.7329 365.515 30.5869C390.358 42.5312 416.047 54.8822 448.509 54.8484L448.508 53.5335C416.489 53.5669 390.993 41.3084 366.338 29.4553C341.496 17.5101 315.806 5.16008 283.345 5.19391L283.345 5.19414Z" fill="#009A9C" fill-opacity="0.14"/>
<path d="M283.355 14.0142C250.893 14.0481 225.23 26.4518 200.412 38.4478C175.781 50.3532 150.311 62.6638 118.293 62.6972C86.2748 62.7305 60.78 50.473 36.124 38.619C22.911 32.2667 9.24886 25.6985 -5.29024 21.0666L-5.88038 22.291C8.53786 26.8842 22.1434 33.4254 35.3007 39.7513C60.1439 51.6946 85.8327 64.0456 118.295 64.0118C150.756 63.9779 176.419 51.5734 201.238 39.5784C225.868 27.6728 251.337 15.3624 283.356 15.3291C315.374 15.2957 340.87 27.553 365.524 39.4073C390.367 51.3505 416.057 63.7015 448.519 63.6677L448.517 62.3528C416.498 62.3862 391.003 50.1287 366.348 38.2747C341.505 26.3305 315.816 13.9802 283.355 14.014L283.355 14.0142Z" fill="#009A9C" fill-opacity="0.14"/>
<path d="M283.364 22.8345C250.902 22.8683 225.239 35.2717 200.421 47.2679C175.789 59.1733 150.32 71.4839 118.302 71.5172C86.2838 71.5506 60.7893 59.2931 36.1336 47.44C22.9212 41.0868 9.25789 34.5186 -5.28121 29.8867L-5.87135 31.1111C8.54689 35.7045 22.1527 42.2457 35.3106 48.5714C60.1532 60.5149 85.8423 72.8659 118.304 72.8321C150.765 72.7983 176.428 60.3937 201.247 48.3985C225.877 36.4931 251.346 24.1825 283.365 24.1491C315.383 24.1158 340.878 36.3733 365.533 48.2273C390.376 60.1708 416.066 72.5218 448.528 72.488L448.526 71.1729C416.507 71.2063 391.012 58.9488 366.357 47.0947C341.514 35.1505 315.825 22.8004 283.364 22.8343L283.364 22.8345Z" fill="#009A9C" fill-opacity="0.14"/>
<path d="M283.373 31.6536C250.911 31.6874 225.248 44.092 200.43 56.0879C175.799 67.9933 150.329 80.3039 118.311 80.3373C86.2931 80.3707 60.7986 68.1132 36.1429 56.2598C22.9304 49.9069 9.26716 43.3387 -5.27193 38.7067L-5.86207 39.9311C8.55676 44.5236 22.162 51.0655 35.3205 57.3905C60.1628 69.3357 85.8516 81.6857 118.313 81.6519C150.774 81.6181 176.437 69.2148 201.256 57.2176C225.886 45.3129 251.355 33.0016 283.375 32.9682C315.393 32.9349 340.888 45.1931 365.543 57.0464C390.385 68.9916 416.075 81.3417 448.537 81.3078L448.535 79.993C416.516 80.0263 391.021 67.7688 366.366 55.9148C341.523 43.9706 315.834 31.6196 283.373 31.6534L283.373 31.6536Z" fill="#009A9C" fill-opacity="0.14"/>
<path d="M283.382 40.4737C250.92 40.5075 225.257 52.9121 200.439 64.908C175.808 76.8134 150.339 89.124 118.321 89.1574C86.3024 89.1907 60.8079 76.9332 36.1522 65.0792C22.9397 58.7269 9.27644 52.158 -5.26265 47.5261L-5.85279 48.7505C8.56544 53.3437 22.1712 59.8859 35.3292 66.2115C60.1718 78.155 85.8608 90.506 118.322 90.4722C150.783 90.4384 176.446 78.0339 201.265 66.0379C225.895 54.1323 251.365 41.8219 283.384 41.7886C315.402 41.7552 340.897 54.0125 365.552 65.8667C390.394 77.811 416.084 90.162 448.546 90.1281L448.545 88.813C416.525 88.8464 391.03 76.5889 366.375 64.7349C341.533 52.7907 315.843 40.4396 283.382 40.4735L283.382 40.4737Z" fill="#009A9C" fill-opacity="0.14"/>
<path d="M283.391 49.2943C250.929 49.3281 225.266 61.7326 200.449 73.7286C175.817 85.633 150.348 97.9446 118.33 97.9779C86.3116 98.0113 60.8166 85.7528 36.1612 73.8997C22.9484 67.5475 9.28572 60.9783 -5.25338 56.3464L-5.84351 57.5708C8.57472 62.1643 22.1802 68.7052 35.3376 75.0311C60.1814 86.9753 85.8701 99.3264 118.331 99.2925C150.793 99.2587 176.456 86.8542 201.275 74.8582C225.905 62.9529 251.374 50.6423 283.393 50.6089C315.411 50.5755 340.906 62.833 365.561 74.6871C390.404 86.6313 416.093 98.9823 448.555 98.9485L448.554 97.6336C416.535 97.667 391.04 85.4085 366.384 73.5554C341.542 61.6112 315.852 49.2602 283.391 49.294L283.391 49.2943Z" fill="#009A9C" fill-opacity="0.14"/>
<path d="M283.401 58.1148C250.939 58.1486 225.276 70.5524 200.458 82.5484C175.827 94.4538 150.357 106.764 118.339 106.798C86.3209 106.831 60.8264 94.5736 36.1708 82.7203C22.9583 76.368 9.29499 69.7991 -5.2441 65.1679L-5.83424 66.3923C8.584 70.9848 22.1898 77.526 35.3477 83.8519C60.1903 95.7961 85.8794 108.146 118.341 108.112C150.802 108.079 176.465 95.6752 201.284 83.679C225.914 71.7734 251.383 59.463 283.402 59.4297C315.421 59.3963 340.916 71.6536 365.57 83.5078C390.413 95.4521 416.103 107.802 448.565 107.768L448.563 106.453C416.544 106.487 391.049 94.2293 366.394 82.3752C341.551 70.431 315.862 58.0807 283.401 58.1146L283.401 58.1148Z" fill="#009A9C" fill-opacity="0.14"/>
<path d="M283.41 66.9337C250.948 66.9675 225.285 79.372 200.467 91.368C175.836 103.273 150.367 115.584 118.348 115.617C86.3302 115.651 60.8357 103.393 36.18 91.5401C22.9675 85.1869 9.30427 78.6187 -5.23482 73.9868L-5.82496 75.2112C8.59386 79.8037 22.1991 86.3456 35.3576 92.6715C60.1999 104.615 85.8887 116.966 118.35 116.932C150.811 116.898 176.474 104.494 201.293 92.4979C225.923 80.5923 251.393 68.2819 283.412 68.2485C315.43 68.2152 340.925 80.4724 365.58 92.3267C390.422 104.271 416.112 116.622 448.574 116.588L448.573 115.273C416.553 115.306 391.058 103.049 366.403 91.1948C341.56 79.2506 315.871 66.8996 283.41 66.9334L283.41 66.9337Z" fill="#009A9C" fill-opacity="0.14"/>
<path d="M283.419 75.7535C250.957 75.7873 225.294 88.1911 200.476 100.188C175.845 112.092 150.376 124.404 118.358 124.437C86.3395 124.471 60.845 112.213 36.1893 100.359C22.9768 94.0069 9.31355 87.4378 -5.22554 82.8068L-5.81568 84.0303C8.60255 88.6237 22.2083 95.1656 35.3663 101.492C60.2089 113.435 85.898 125.786 118.359 125.752C150.82 125.718 176.483 113.314 201.302 101.318C225.933 89.4123 251.402 77.1017 283.421 77.0683C315.439 77.035 340.934 89.2925 365.589 101.147C390.432 113.091 416.121 125.442 448.583 125.408L448.582 124.093C416.563 124.126 391.067 111.868 366.412 100.015C341.57 88.0697 315.88 75.7194 283.419 75.7532L283.419 75.7535Z" fill="#009A9C" fill-opacity="0.14"/>
</svg>
