<svg width="44" height="44" viewBox="0 0 44 44" fill="none" xmlns="http://www.w3.org/2000/svg">
<g clip-path="url(#clip0)">
<path d="M43.6379 5.55327C43.6118 5.52869 38.4434 0.599749 38.4434 0.599749C38.2458 0.410171 38.0415 0.214233 37.6599 0.214233H16.8527C16.245 0.214233 15.7505 0.708632 15.7505 1.31638V4.70086L8.417 5.95795C7.82918 6.06108 7.43387 6.62362 7.53571 7.21083L7.9079 9.38093C5.52425 10.1831 3.07701 11.01 0.714504 11.8586C0.156254 12.0627 -0.136707 12.6834 0.0624963 13.245L4.76199 26.3089C4.85652 26.5718 5.10428 26.7355 5.36854 26.7355C5.4409 26.7355 5.51463 26.7232 5.58665 26.6972C5.92163 26.5768 6.09548 26.2076 5.975 25.8726L1.34503 13.0019C3.57081 12.205 5.87582 11.425 8.1285 10.6668L10.3432 23.5785L12.8916 38.4484C12.9836 38.9733 13.445 39.3468 13.9658 39.3468C14.0248 39.3468 14.0846 39.342 14.1446 39.3321L21.0467 38.1476L26.4402 37.2231L18.3284 40.1387L11.9317 42.4387L6.96379 28.6209C6.8434 28.2859 6.47429 28.112 6.13922 28.2324C5.80424 28.3528 5.63039 28.722 5.75079 29.057L10.7891 43.0712C10.9503 43.5119 11.3677 43.7858 11.809 43.7858C11.931 43.7858 12.0548 43.7649 12.1755 43.7208L18.7644 41.3518L33.7256 35.9744L36.5838 35.4844H42.8977C43.5055 35.4844 43.9999 34.9889 43.9999 34.3798V6.27953C44 5.89376 43.7907 5.69696 43.6379 5.55327ZM41.9302 5.7059H38.705L38.6251 5.70624C38.4706 5.70727 38.1091 5.70994 38.0174 5.61884C37.9963 5.59779 37.9715 5.52749 37.9715 5.39695L37.964 1.92379L41.9302 5.7059ZM42.711 34.1952H17.0395V21.634C17.0395 21.278 16.751 20.9895 16.395 20.9895C16.0391 20.9895 15.7505 21.278 15.7505 21.634V34.3796C15.7505 34.9887 16.245 35.4843 16.8527 35.4843H28.9537L20.8288 36.877L14.1272 38.0271L11.6137 23.3605L8.84058 7.19313L15.7504 6.00865V18.6434C15.7504 18.9993 16.039 19.2879 16.3949 19.2879C16.7509 19.2879 17.0394 18.9993 17.0394 18.6434V1.50321H36.674L36.6824 5.39841C36.6824 5.87055 36.826 6.25246 37.1092 6.53365C37.5443 6.96565 38.1594 6.99573 38.5412 6.99573C38.574 6.99573 38.6051 6.99547 38.6343 6.9953L42.711 6.99505V34.1952Z" fill="black"/>
<path d="M20.1464 10.2222C20.1464 10.5781 20.4349 10.8667 20.7909 10.8667H39.219C39.5749 10.8667 39.8635 10.5781 39.8635 10.2222C39.8635 9.86621 39.5749 9.57764 39.219 9.57764H20.7909C20.4349 9.57764 20.1464 9.86621 20.1464 10.2222Z" fill="black"/>
<path d="M39.219 14.1566H20.7909C20.4349 14.1566 20.1464 14.4451 20.1464 14.8011C20.1464 15.157 20.4349 15.4456 20.7909 15.4456H39.219C39.5749 15.4456 39.8635 15.157 39.8635 14.8011C39.8635 14.4451 39.5749 14.1566 39.219 14.1566Z" fill="black"/>
<path d="M39.219 18.7355H20.7909C20.4349 18.7355 20.1464 19.0241 20.1464 19.38C20.1464 19.736 20.4349 20.0245 20.7909 20.0245H39.219C39.5749 20.0245 39.8635 19.736 39.8635 19.38C39.8635 19.0241 39.5749 18.7355 39.219 18.7355Z" fill="black"/>
<path d="M39.219 23.3144H20.7909C20.4349 23.3144 20.1464 23.603 20.1464 23.9589C20.1464 24.3149 20.4349 24.6035 20.7909 24.6035H39.219C39.5749 24.6035 39.8635 24.3149 39.8635 23.9589C39.8635 23.603 39.5749 23.3144 39.219 23.3144Z" fill="black"/>
<path d="M39.219 27.8934H20.7909C20.4349 27.8934 20.1464 28.182 20.1464 28.538C20.1464 28.8939 20.4349 29.1825 20.7909 29.1825H39.219C39.5749 29.1825 39.8635 28.8939 39.8635 28.538C39.8635 28.182 39.5749 27.8934 39.219 27.8934Z" fill="black"/>
</g>
<defs>
<clipPath id="clip0">
<rect width="44" height="44" fill="white"/>
</clipPath>
</defs>
</svg>
