<svg width="44" height="41" viewBox="0 0 44 41" fill="none" xmlns="http://www.w3.org/2000/svg">
<path d="M44 22.8106C44 21.1568 42.5564 19.8109 40.7815 19.8109C39.9221 19.8109 39.114 20.1232 38.5055 20.6899L35.4839 23.5055V0H7.5126L0 7.00038V41H35.4839V31.9886L43.0575 24.9314C43.6649 24.3654 44 23.6121 44 22.8106ZM26.6108 34.3006L28.4574 36.0213L25.8727 36.7242L26.6108 34.3006ZM29.8064 35.4074L29.0365 34.69L39.1684 25.2482L39.9391 25.9663L29.8064 35.4074ZM28.0323 33.7549L27.2616 33.0367L37.3949 23.595L38.1656 24.3131L28.0323 33.7549ZM7.09677 2.25769V6.6129H2.42288L7.09677 2.25769ZM34.0645 39.6774H1.41935V7.93548H8.51613V1.32258H34.0645V24.8281L25.6257 32.6909L23.8054 38.6635L30.1797 36.9312L34.0645 33.3112V39.6774ZM42.0539 23.9963L40.9433 25.0312L38.3985 22.6598L39.5091 21.625C39.849 21.3082 40.3012 21.1335 40.7815 21.1335C41.7729 21.1335 42.5806 21.8862 42.5806 22.8106C42.5806 23.2588 42.3932 23.6802 42.0539 23.9963Z" fill="black"/>
<path d="M13.3976 27.3292L10.5516 30.4603C9.71236 29.6186 8.55316 29.0968 7.27417 29.0968C4.72233 29.0968 2.64514 31.1739 2.64514 33.7258C2.64514 36.2776 4.72233 38.3548 7.27417 38.3548C9.82602 38.3548 11.9032 36.2776 11.9032 33.7258C11.9032 32.9369 11.7043 32.1943 11.3543 31.5437L14.3766 28.2191L13.3976 27.3292ZM10.5806 33.7258C10.5806 35.5489 9.09724 37.0322 7.27417 37.0322C5.4511 37.0322 3.96772 35.5489 3.96772 33.7258C3.96772 31.9027 5.4511 30.4193 7.27417 30.4193C8.21122 30.4193 9.0543 30.8155 9.65682 31.4442L7.16762 34.1827L5.65743 33.1762L4.92382 34.2766L7.38137 35.9153L10.3769 32.6202C10.5005 32.9673 10.5806 33.3357 10.5806 33.7258Z" fill="black"/>
<path d="M10.5516 18.5571C9.71236 17.7154 8.55316 17.1936 7.27417 17.1936C4.72233 17.1936 2.64514 19.2707 2.64514 21.8226C2.64514 24.3744 4.72233 26.4516 7.27417 26.4516C9.82602 26.4516 11.9032 24.3744 11.9032 21.8226C11.9032 21.0338 11.7043 20.2911 11.3543 19.6405L14.3766 16.3159L13.3976 15.426L10.5516 18.5571ZM10.5806 21.8226C10.5806 23.6457 9.09724 25.129 7.27417 25.129C5.4511 25.129 3.96772 23.6457 3.96772 21.8226C3.96772 19.9995 5.4511 18.5161 7.27417 18.5161C8.21122 18.5161 9.0543 18.9123 9.65682 19.541L7.16762 22.2795L5.65743 21.273L4.92382 22.3734L7.38137 24.0121L10.3769 20.717C10.5005 21.0641 10.5806 21.4325 10.5806 21.8226Z" fill="black"/>
<path d="M29.0968 21.1613H30.4194V22.4838H29.0968V21.1613Z" fill="black"/>
<path d="M14.5484 21.1613H27.7742V22.4838H14.5484V21.1613Z" fill="black"/>
<path d="M14.5484 18.5161H30.4194V19.8387H14.5484V18.5161Z" fill="black"/>
<path d="M14.5484 23.8065H30.4194V25.129H14.5484V23.8065Z" fill="black"/>
<path d="M14.5484 33.0645H21.8226V34.3871H14.5484V33.0645Z" fill="black"/>
<path d="M14.5484 35.7097H21.8226V37.0322H14.5484V35.7097Z" fill="black"/>
<path d="M14.5484 30.4194H21.8226V31.7419H14.5484V30.4194Z" fill="black"/>
<path d="M12.5645 14.5484H27.1129C28.936 14.5484 30.4193 13.065 30.4193 11.2419V5.95159C30.4193 4.12852 28.936 2.64514 27.1129 2.64514H12.5645C10.7414 2.64514 9.25806 4.12852 9.25806 5.95159V11.2419C9.25806 13.065 10.7414 14.5484 12.5645 14.5484ZM10.5806 5.95159C10.5806 4.85795 11.4709 3.96772 12.5645 3.96772H27.1129C28.2065 3.96772 29.0968 4.85795 29.0968 5.95159V11.2419C29.0968 12.3356 28.2065 13.2258 27.1129 13.2258H12.5645C11.4709 13.2258 10.5806 12.3356 10.5806 11.2419V5.95159Z" fill="black"/>
<path d="M27.7742 6.61292H23.8065V10.5807H27.7742V6.61292ZM26.4516 9.25808H25.129V7.9355H26.4516V9.25808Z" fill="black"/>
<path d="M21.8226 6.61292H17.8549V10.5807H21.8226V6.61292ZM20.5 9.25808H19.1774V7.9355H20.5V9.25808Z" fill="black"/>
<path d="M15.8709 6.61292H11.9032V10.5807H15.8709V6.61292ZM14.5484 9.25808H13.2258V7.9355H14.5484V9.25808Z" fill="black"/>
</svg>
