<svg width="44" height="44" viewBox="0 0 44 44" fill="none" xmlns="http://www.w3.org/2000/svg">
<path d="M42.8438 14.8125H38.1C36.4061 14.8143 34.7437 14.3549 33.2913 13.4834C31.8388 12.6119 30.651 11.3613 29.8555 9.86583L28.9761 8.21688C28.0892 6.55002 26.6342 5.25631 24.875 4.57049V3.3125C24.875 2.55 24.5721 1.81874 24.0329 1.27957C23.4938 0.740401 22.7625 0.4375 22 0.4375C21.2375 0.4375 20.5062 0.740401 19.9671 1.27957C19.4279 1.81874 19.125 2.55 19.125 3.3125V4.57049C17.3658 5.25632 15.9108 6.55002 15.0239 8.21689L14.1445 9.86583C13.349 11.3613 12.1612 12.6119 10.7088 13.4834C9.25626 14.3548 7.59386 14.8143 5.89998 14.8125H1.15625C0.965626 14.8125 0.78281 14.8882 0.648019 15.023C0.513228 15.1578 0.437502 15.3406 0.4375 15.5312V18.4062C0.437502 18.5969 0.513228 18.7797 0.648019 18.9145C0.78281 19.0493 0.965626 19.125 1.15625 19.125H5.88007L3.52779 25.5938H2.59375C2.40313 25.5938 2.22031 25.6695 2.08552 25.8043C1.95073 25.9391 1.875 26.1219 1.875 26.3125C1.875 27.8375 2.4808 29.3 3.55914 30.3784C4.63747 31.4567 6.10001 32.0625 7.625 32.0625C9.14999 32.0625 10.6125 31.4567 11.6909 30.3784C12.7692 29.3 13.375 27.8375 13.375 26.3125C13.375 26.1219 13.2993 25.9391 13.1645 25.8043C13.0297 25.6695 12.8469 25.5938 12.6562 25.5938H11.7222L9.36994 19.125H11.1231C13.2123 19.1252 15.2306 18.3669 16.8027 16.9909L18.6943 15.3358C18.8316 15.2161 18.9754 15.104 19.125 15V34.0491L17.962 36.375H16.25C16.1384 36.375 16.0284 36.401 15.9286 36.4509C15.8288 36.5008 15.742 36.5732 15.675 36.6625L13.7344 39.25H10.5C10.3094 39.25 10.1266 39.3257 9.99177 39.4605C9.85698 39.5953 9.78125 39.7781 9.78125 39.9688V42.8438C9.78125 43.0344 9.85698 43.2172 9.99177 43.352C10.1266 43.4868 10.3094 43.5625 10.5 43.5625H33.5C33.6906 43.5625 33.8734 43.4868 34.0082 43.352C34.143 43.2172 34.2188 43.0344 34.2188 42.8438V39.9688C34.2188 39.7781 34.143 39.5953 34.0082 39.4605C33.8734 39.3257 33.6906 39.25 33.5 39.25H30.2656L28.325 36.6625C28.258 36.5732 28.1712 36.5008 28.0714 36.4509C27.9716 36.401 27.8616 36.375 27.75 36.375H26.038L24.875 34.0491V15C25.0246 15.104 25.1684 15.2161 25.3057 15.3358H25.3057L27.1973 16.9909C28.7694 18.3669 30.7877 19.1252 32.8769 19.125H34.6301L32.2778 25.5938H31.3438C31.1531 25.5938 30.9703 25.6695 30.8355 25.8043C30.7007 25.9391 30.625 26.1219 30.625 26.3125C30.625 27.8375 31.2308 29.3 32.3091 30.3784C33.3875 31.4567 34.85 32.0625 36.375 32.0625C37.9 32.0625 39.3625 31.4567 40.4409 30.3784C41.5192 29.3 42.125 27.8375 42.125 26.3125C42.125 26.1219 42.0493 25.9391 41.9145 25.8043C41.7797 25.6695 41.5969 25.5938 41.4062 25.5938H40.4722L38.1199 19.125H42.8438C43.0344 19.125 43.2172 19.0493 43.352 18.9145C43.4868 18.7797 43.5625 18.5969 43.5625 18.4062V15.5312C43.5625 15.3406 43.4868 15.1578 43.352 15.023C43.2172 14.8882 43.0344 14.8125 42.8438 14.8125ZM20.5625 3.3125C20.5625 2.93125 20.714 2.56562 20.9835 2.29603C21.2531 2.02645 21.6188 1.875 22 1.875C22.3812 1.875 22.7469 2.02645 23.0165 2.29603C23.2861 2.56562 23.4375 2.93125 23.4375 3.3125V4.16312C22.4872 3.98729 21.5128 3.98729 20.5625 4.16312V3.3125ZM7.625 30.625C6.60618 30.6237 5.6206 30.2623 4.84243 29.6047C4.06426 28.9471 3.54357 28.0356 3.37238 27.0312H11.8776C11.7064 28.0356 11.1857 28.9471 10.4076 29.6047C9.62939 30.2623 8.64382 30.6237 7.625 30.625ZM10.1926 25.5938H5.05743L7.40971 19.125H7.84029L10.1926 25.5938ZM32.7812 42.125H11.2188V40.6875H32.7812V42.125ZM28.4688 39.25H15.5312L16.6094 37.8125H27.3906L28.4688 39.25ZM23.5134 34.5402L24.4308 36.375H19.5692L20.4866 34.5402C20.5365 34.4404 20.5625 34.3303 20.5625 34.2188V14.3052C21.5001 14.0233 22.4999 14.0233 23.4375 14.3052V34.2188C23.4375 34.3303 23.4635 34.4404 23.5134 34.5402ZM36.375 30.625C35.3562 30.6237 34.3706 30.2623 33.5924 29.6047C32.8143 28.9471 32.2936 28.0356 32.1224 27.0312H40.6276C40.4564 28.0356 39.9357 28.9471 39.1576 29.6047C38.3794 30.2623 37.3938 30.6237 36.375 30.625ZM38.9426 25.5938H33.8074L36.1597 19.125H36.5903L38.9426 25.5938ZM42.125 17.6875H32.8769C31.1359 17.6877 29.454 17.0558 28.1439 15.9091L26.2523 14.254H26.2523C25.0751 13.224 23.5641 12.6562 22 12.6562C20.4358 12.6562 18.9248 13.224 17.7477 14.254L15.8561 15.9091C14.546 17.0558 12.8641 17.6877 11.1231 17.6875H1.875V16.25H5.89998C7.85446 16.2521 9.77262 15.722 11.4486 14.7164C13.1245 13.7108 14.495 12.2678 15.4129 10.5423L16.2922 8.89334C16.844 7.85886 17.6665 6.99378 18.6718 6.39058C19.6772 5.78738 20.8276 5.46875 22 5.46875C23.1724 5.46875 24.3228 5.78738 25.3281 6.39058C26.3335 6.99378 27.156 7.85886 27.7077 8.89334L28.5872 10.5423C29.505 12.2678 30.8755 13.7108 32.5514 14.7164C34.2274 15.722 36.1455 16.2521 38.1 16.25H42.125V17.6875Z" fill="black"/>
</svg>
