<svg width="42" height="42" viewBox="0 0 42 42" fill="none" xmlns="http://www.w3.org/2000/svg">
<path d="M38.7745 7.43285C39.1144 7.43285 39.3898 7.15739 39.3898 6.81762V4.22461C39.3898 1.89517 37.4943 0 35.1643 0H15.0905C13.7201 0 12.4327 0.533367 11.4653 1.50166L4.11173 8.85437C3.14343 9.82357 2.61023 11.1113 2.61023 12.4802V37.7754C2.61023 40.1048 4.50573 42 6.83566 42H35.1643C37.4942 42 39.3898 40.1048 39.3898 37.7754V9.27691C39.3898 8.93714 39.1144 8.66168 38.7745 8.66168C38.4347 8.66168 38.1593 8.93714 38.1593 9.27691V37.7754C38.1593 39.4263 36.8158 40.7695 35.1643 40.7695H6.83566C5.18421 40.7695 3.8407 39.4263 3.8407 37.7754V13.2523C3.8407 13.2518 3.84078 13.2512 3.84078 13.2508C3.84078 12.1344 4.74895 11.2262 5.86539 11.2262H9.61176C11.9412 11.2262 13.8364 9.33105 13.8364 7.00161V3.25525C13.8364 2.13888 14.7445 1.23071 15.8609 1.23071C15.8622 1.23071 15.8635 1.23055 15.8648 1.23055H35.1643C36.8158 1.23055 38.1593 2.57373 38.1593 4.22469V6.8177C38.1593 7.15739 38.4347 7.43285 38.7745 7.43285ZM12.6059 7.00161C12.6059 8.65257 11.2627 9.99575 9.61176 9.99575H5.86539C5.38305 9.99575 4.92532 10.1021 4.51311 10.2911C4.6501 10.0901 4.80629 9.90011 4.98192 9.72431L12.3355 2.37161C12.511 2.19598 12.7006 2.03987 12.9013 1.90288C12.7122 2.31509 12.6059 2.77282 12.6059 3.25525V7.00161Z" fill="black"/>
<path d="M22.9738 11.4695C23.2909 11.5904 23.6467 11.4312 23.7677 11.1136L24.1365 10.1453H26.6399L27.0047 11.1118C27.0976 11.3581 27.3318 11.51 27.5804 11.51C27.6526 11.51 27.726 11.4972 27.7975 11.4702C28.1154 11.3503 28.2759 10.9952 28.1558 10.6774L26.0882 5.19834C26.0861 5.19268 26.0838 5.1871 26.0815 5.18144C25.9668 4.90245 25.6978 4.72223 25.3961 4.72223C25.396 4.72223 25.3957 4.72223 25.3956 4.72223C25.0936 4.72239 24.8245 4.90319 24.7102 5.18259C24.7083 5.18726 24.7064 5.19202 24.7046 5.19678L22.6179 10.6756C22.4967 10.9932 22.6561 11.3486 22.9738 11.4695ZM25.3938 6.8438L26.1754 8.91493H24.6049L25.3938 6.8438Z" fill="black"/>
<path d="M32.9483 11.2486C33.068 11.4189 33.2584 11.5099 33.452 11.5099C33.5742 11.5099 33.6978 11.4735 33.8055 11.3978C34.0834 11.2023 34.1502 10.8185 33.9546 10.5406L32.1103 7.91896L33.6792 5.69181C33.875 5.41406 33.8084 5.03023 33.5306 4.8345C33.2526 4.63878 32.869 4.70539 32.6734 4.98314L31.3583 6.84993L30.0453 4.98347C29.8499 4.70572 29.4663 4.6387 29.1881 4.83426C28.9102 5.02974 28.8434 5.41356 29.039 5.69149L30.6056 7.91847L28.7586 10.5403C28.5629 10.818 28.6294 11.2019 28.9072 11.3976C29.0149 11.4735 29.1386 11.5099 29.261 11.5099C29.4543 11.5099 29.6447 11.419 29.7645 11.2489L31.3576 8.98742L32.9483 11.2486Z" fill="black"/>
<path d="M22.5272 4.72229H19.4584C19.1185 4.72229 18.8431 4.99775 18.8431 5.33752C18.8431 5.6773 19.1185 5.95276 19.4584 5.95276H20.3714V10.8946C20.3714 11.2344 20.6468 11.5099 20.9866 11.5099C21.3265 11.5099 21.6019 11.2344 21.6019 10.8946V5.95276H22.5272C22.8671 5.95276 23.1425 5.6773 23.1425 5.33752C23.1425 4.99775 22.8671 4.72229 22.5272 4.72229Z" fill="black"/>
<path d="M6.71576 17.8586C6.71576 18.1984 6.99114 18.4738 7.33099 18.4738H29.7608C30.1007 18.4738 30.376 18.1984 30.376 17.8586C30.376 17.5188 30.1007 17.2433 29.7608 17.2433H7.33099C6.99122 17.2433 6.71576 17.5188 6.71576 17.8586Z" fill="black"/>
<path d="M33.705 17.2536C33.3168 17.1163 32.889 16.9518 32.6596 16.7719C32.6452 16.7607 32.6187 16.6921 32.6381 16.5891C32.6474 16.5395 32.6904 16.3738 32.8497 16.3257C33.2343 16.2101 33.4783 16.4 33.5049 16.422C33.7662 16.6388 34.1542 16.6031 34.3713 16.3417C34.5883 16.0805 34.5528 15.693 34.2916 15.4759C34.1273 15.3393 33.9051 15.2148 33.6427 15.1379V15.0917C33.6427 14.752 33.3673 14.4765 33.0275 14.4765C32.6876 14.4765 32.4122 14.752 32.4122 15.0917V15.1757C31.9066 15.3609 31.5333 15.8075 31.4289 16.3613C31.3267 16.9036 31.5073 17.432 31.9002 17.7402C32.2685 18.0291 32.7882 18.2347 33.2949 18.4138C33.5346 18.4986 33.6361 18.6602 33.5968 18.8941C33.5667 19.0733 33.4128 19.3766 33.0272 19.3813C33.0257 19.3813 33.0242 19.3816 33.0227 19.3816C32.6188 19.3841 32.5223 19.3693 32.2263 19.1757C31.9419 18.9896 31.5607 19.0694 31.3747 19.3537C31.1887 19.638 31.2684 20.0194 31.5528 20.2053C31.8761 20.4168 32.1324 20.5221 32.4123 20.5718V20.6256C32.4123 20.9654 32.6877 21.2409 33.0275 21.2409C33.3674 21.2409 33.6428 20.9654 33.6428 20.6256V20.5017C34.2423 20.2833 34.6993 19.7585 34.8103 19.0981C34.9482 18.2773 34.504 17.536 33.705 17.2536Z" fill="black"/>
<path d="M33.705 25.0689C33.3168 24.9317 32.889 24.7671 32.6596 24.5872C32.6452 24.576 32.6187 24.5074 32.6381 24.4044C32.6474 24.3548 32.6904 24.1891 32.8497 24.141C33.2343 24.0254 33.4783 24.2153 33.5049 24.2373C33.7662 24.4541 34.1542 24.4185 34.3713 24.157C34.5883 23.8958 34.5528 23.5083 34.2916 23.2912C34.1273 23.1546 33.905 23.0301 33.6427 22.9532V22.907C33.6427 22.5673 33.3673 22.2918 33.0275 22.2918C32.6876 22.2918 32.4122 22.5673 32.4122 22.907V22.991C31.9066 23.1762 31.5333 23.6228 31.4289 24.1766C31.3267 24.719 31.5073 25.2473 31.9002 25.5555C32.2685 25.8444 32.7882 26.05 33.2949 26.2291C33.5346 26.3139 33.6361 26.4755 33.5968 26.7094C33.5667 26.8886 33.4128 27.1919 33.0272 27.1966C33.0257 27.1966 33.0242 27.1969 33.0227 27.1969C32.6175 27.1997 32.5222 27.1846 32.2263 26.991C31.9419 26.8049 31.5607 26.8847 31.3747 27.169C31.1887 27.4533 31.2684 27.8347 31.5528 28.0206C31.8761 28.2321 32.1324 28.3374 32.4123 28.3871V28.441C32.4123 28.7807 32.6877 29.0562 33.0275 29.0562C33.3674 29.0562 33.6428 28.7807 33.6428 28.441V28.317C34.2423 28.0986 34.6993 27.5738 34.8103 26.9135C34.9482 26.0926 34.504 25.3513 33.705 25.0689Z" fill="black"/>
<path d="M33.0275 36.8715C33.3673 36.8715 33.6427 36.5961 33.6427 36.2563V36.1323C34.2423 35.914 34.6992 35.3891 34.8102 34.7288C34.9482 33.9081 34.504 33.1668 33.7049 32.8844C33.3167 32.7471 32.8889 32.5826 32.6596 32.4027C32.6452 32.3915 32.6186 32.3229 32.638 32.2199C32.6474 32.1703 32.6903 32.0046 32.8496 31.9565C33.2342 31.8408 33.4782 32.0308 33.5048 32.0528C33.7662 32.2696 34.1542 32.2339 34.3712 31.9725C34.5882 31.7113 34.5527 31.3238 34.2915 31.1067C34.1273 30.9701 33.9051 30.8456 33.6426 30.7687V30.7225C33.6426 30.3828 33.3673 30.1073 33.0274 30.1073C32.6875 30.1073 32.4122 30.3828 32.4122 30.7225V30.8065C31.9065 30.9917 31.5332 31.4382 31.4289 31.992C31.3266 32.5344 31.5072 33.0627 31.9001 33.3709C32.2684 33.6598 32.7881 33.8654 33.2948 34.0446C33.5345 34.1293 33.6361 34.2909 33.5968 34.5248C33.5666 34.704 33.4127 35.0073 33.0272 35.012C33.0256 35.012 33.0241 35.0122 33.0226 35.0123C32.6187 35.0153 32.5223 35 32.2263 34.8064C31.9419 34.6203 31.5607 34.7001 31.3746 34.9844C31.1886 35.2687 31.2683 35.6501 31.5527 35.836C31.876 36.0475 32.1324 36.1528 32.4123 36.2025V36.2564C32.4123 36.5961 32.6877 36.8715 33.0275 36.8715Z" fill="black"/>
<path d="M28.5465 26.2893H29.7609C30.1007 26.2893 30.3761 26.0139 30.3761 25.6741C30.3761 25.3343 30.1007 25.0589 29.7609 25.0589H28.4548C28.2837 24.2828 27.8983 23.5447 27.2961 22.9421L25.3317 20.9785C24.5168 20.1632 23.4331 19.7141 22.2806 19.7141C21.1279 19.7141 20.0443 20.1631 19.2296 20.9783L15.1486 25.0589H7.33105C6.9912 25.0589 6.71582 25.3343 6.71582 25.6741C6.71582 26.0139 6.9912 26.2893 7.33105 26.2893H13.918L11.2003 29.0067C10.96 29.247 10.96 29.6366 11.2002 29.8768C11.4405 30.117 11.8301 30.1171 12.0702 29.8768L20.0996 21.8483C20.6821 21.2655 21.4566 20.9445 22.2805 20.9445C23.1043 20.9445 23.8788 21.2655 24.4616 21.8485L26.426 23.8121C27.6285 25.0153 27.6285 26.9724 26.426 28.1749L16.7916 37.8095C16.2087 38.3923 15.4339 38.7133 14.6099 38.7133C13.7858 38.7133 13.0114 38.3923 12.4286 37.8094L10.4642 35.8457C9.29866 34.6795 9.25313 32.811 10.3606 31.5921C10.5891 31.3406 10.5705 30.9514 10.3189 30.723C10.0675 30.4945 9.6783 30.5131 9.44984 30.7646C8.89145 31.3792 8.54364 32.1119 8.40197 32.8739H7.33105C6.9912 32.8739 6.71582 33.1494 6.71582 33.4891C6.71582 33.8289 6.9912 34.1044 7.33105 34.1044H8.35177C8.44963 35.0586 8.86446 35.9856 9.59421 36.7158L11.5586 38.6794C12.3735 39.4947 13.4571 39.9438 14.6099 39.9438C15.7626 39.9438 16.8463 39.4948 17.6616 38.6795L22.2367 34.1044H29.7608C30.1006 34.1044 30.376 33.8289 30.376 33.4891C30.376 33.1494 30.1006 32.8739 29.7608 32.8739H23.4672L27.2961 29.0449C28.0622 28.279 28.4782 27.294 28.5465 26.2893Z" fill="black"/>
<path d="M15.761 29.0298C15.4906 28.917 15.1821 28.978 14.9751 29.1854C14.7681 29.3928 14.7075 29.7015 14.8209 29.9717C14.8228 29.9763 14.8248 29.9809 14.8268 29.9854L16.8069 34.4015C16.9092 34.6298 17.1336 34.7653 17.3686 34.7653C17.4528 34.7653 17.5382 34.748 17.6199 34.7113C17.9299 34.5722 18.0687 34.2082 17.9296 33.8982L17.6099 33.1853L18.9664 31.8288L19.6759 32.1495C19.9856 32.2895 20.3499 32.1518 20.4899 31.8422C20.6298 31.5327 20.4923 31.1682 20.1827 31.0282L15.7774 29.0369C15.772 29.0345 15.7665 29.0321 15.761 29.0298ZM17.768 31.2871L17.0712 31.9838L16.5024 30.715L17.768 31.2871Z" fill="black"/>
<path d="M17.6936 26.4669C17.4533 26.7072 17.4533 27.0968 17.6936 27.3369L20.9373 30.5807C21.0575 30.7009 21.2149 30.7609 21.3724 30.7609C21.5298 30.7609 21.6873 30.7009 21.8075 30.5807C22.0478 30.3404 22.0478 29.9509 21.8075 29.7107L18.5638 26.4669C18.3235 26.2266 17.934 26.2266 17.6936 26.4669Z" fill="black"/>
<path d="M22.753 28.7682C22.8683 28.8826 23.0241 28.9468 23.1865 28.9468H23.1887C23.3518 28.9463 23.5082 28.8808 23.6231 28.765C23.6499 28.7379 24.2836 28.0995 24.5334 27.8408C25.4856 26.8547 25.347 25.3094 24.204 24.1663C23.0025 22.9647 21.5094 22.843 20.4888 23.8635L19.5972 24.7552C19.4817 24.8707 19.4169 25.0274 19.4171 25.1908C19.4172 25.3542 19.4824 25.5107 19.5981 25.626L22.753 28.7682ZM21.3588 24.7336C21.555 24.5375 22.2771 23.9795 23.3339 25.0363C24.106 25.8085 24.0481 26.572 23.6482 26.986C23.5413 27.0968 23.3569 27.2844 23.1828 27.4608C22.8121 27.0924 21.2884 25.5735 20.9031 25.1894L21.3588 24.7336Z" fill="black"/>
<path d="M13.3671 31.5763C12.8555 31.5831 12.3756 31.7849 12.016 32.1446L11.1126 33.0479C10.9971 33.1635 10.9322 33.3204 10.9325 33.4839C10.9327 33.6474 10.9981 33.804 11.1141 33.9193C11.1142 33.9193 14.3564 37.1617 14.3564 37.1617C14.4766 37.2818 14.634 37.3419 14.7915 37.3419C14.9489 37.3419 15.1064 37.2818 15.2266 37.1617C15.4669 36.9214 15.4669 36.5318 15.2266 36.2916L14.2503 35.3153C14.4229 35.1409 14.6073 34.955 14.7168 34.8455C15.4713 34.091 15.4793 32.8713 14.7347 32.1268C14.373 31.7648 13.8914 31.57 13.3671 31.5763ZM12.8861 33.0147C13.0177 32.8831 13.1943 32.8092 13.3835 32.8066H13.3934C13.5747 32.8066 13.7417 32.8739 13.8645 32.9967C14.125 33.2571 14.1168 33.7053 13.8467 33.9754C13.738 34.0842 13.5558 34.2678 13.384 34.4413C13.2043 34.2633 12.607 33.6686 12.419 33.4816L12.8861 33.0147Z" fill="black"/>
</svg>
