<svg width="272" height="101" viewBox="0 0 272 101" fill="none" xmlns="http://www.w3.org/2000/svg">
<path fill-rule="evenodd" clip-rule="evenodd" d="M16.4962 12.148L23.9633 18.3074L34.7505 23.9607L42.3998 28.8855L45.933 33.5156L46.0146 27.8918L48.2281 23.4801L51.474 21.4277L54.9425 20.184L60.9339 21.2285L62.3692 16.3108L63.2894 16.2214L64.1724 18.1265L64.2551 13.6L66.4526 11.1503L67.8879 12.4701L68.0162 9.9686L69.955 7.85826L71.9702 6.7345L72.3698 8.09093L74.2843 5.19111L76.0345 4.87512L75.4175 7.41831L76.7405 6.23562L78.3316 5.78652L76.0652 11.0842L74.5112 25.3445L72.4387 29.485L72.4197 34.4687L70.9356 39.9676L70.7151 47.5484L68.4805 48.792L67.2232 51.7203L61.8095 56.384L58.9654 57.1277L57.1856 59.0989L57.6414 61.1229L56.4011 64.2269L57.3573 67.3624L57.5121 68.5675L56.7032 69.4454L54.5619 66.4947L54.193 72.018L52.7216 72.4803L50.9959 69.8355L49.9326 72.0627L48.8832 73.0188L47.5401 72.6175L47.01 70.7063L45.438 72.3472L43.7472 73.0493L42.9786 72.1166L42.95 70.7022L41.0239 72.018L39.7264 72.2161L39.3077 70.3984L40.6264 67.1267L37.548 69.9575L35.9526 70.1312L35.5116 68.5299L35.855 66.3779L33.7529 67.6276L32.8222 67.2994L33.031 65.3415L34.2013 63.2322L31.2438 64.3214L30.8547 63.474L31.6922 61.9601L33.5855 60.5793L42.1783 56.0578L34.1685 58.03L35.4056 56.004L46.1122 53.3267L46.5585 50.9288L45.5684 50.5498L43.4546 50.3679L41.29 50.7469L40.2967 49.8396L39.1953 49.9016L37.8204 49.927L36.8261 48.7422L34.2692 48.5258L34.2724 46.5852L30.8781 46.322L30.8812 44.5266L28.7166 44.6191L27.2993 43.5766L27.1329 42.3005L24.9884 41.9225L22.6149 39.4545L23.9071 39.0877L21.0545 38.0208L19.458 36.5841L20.8287 35.5488L18.1733 34.5419L16.1825 31.5638L17.1492 30.5671L15.9842 30.3578L13.8588 26.8453L14.6369 25.0895L12.82 22.8278L12.6811 20.3964L14.8691 20.4655L12.9196 17.7688L13.3935 16.5343L14.2235 16.1381L13.6828 14.87L14.2892 13.7605L15.7447 14.8843L15.4086 12.7089L16.4962 12.148Z" fill="#FEFEFE"/>
<path d="M16.8005 11.8067L24.2315 17.9365C32.1311 22.0769 35.5063 23.9069 42.7295 28.5573L45.4846 32.1674L45.5482 27.7862C46.3136 26.2468 47.0885 24.7095 47.8623 23.1743L51.2609 21.0253L54.899 19.7207L60.5979 20.7144L62.0046 15.8943L63.5777 15.7429L63.742 16.0964L63.7908 13.4303L66.4197 10.499L67.4702 11.4643L67.5561 9.78878C68.2536 9.02776 68.949 8.26368 69.6518 7.50774C70.5168 7.01902 71.3882 6.53944 72.2564 6.0558L72.5352 7.00073L73.9981 4.78573L76.6535 4.30615L76.2221 6.08425L76.5019 5.8343L79.1341 5.09258L76.5242 11.193L74.9691 25.4655L72.9062 29.5866L72.8871 34.5277L71.402 40.0306L71.1762 47.8106L68.8526 49.104L67.6155 51.9865C65.7551 53.5817 63.8925 55.18 62.0427 56.7864L59.2262 57.523L57.6922 59.2219L58.129 61.1585L56.8951 64.2473C57.5089 66.2611 57.7612 66.8331 58.0039 68.7108L56.6587 70.1698L54.9435 67.8075L54.6403 72.3493L52.5192 73.0158L51.0595 70.7785L50.3195 72.329L49.0051 73.5249L47.1531 72.9721L46.7768 71.6137L45.7168 72.7201L43.603 73.598L42.5143 72.2761L42.4995 71.5608L41.2073 72.4438L39.3649 72.7262L38.8211 70.3639L39.4317 68.848L37.7578 70.3873L35.6027 70.621L35.0335 68.5533L35.2381 67.2731L33.8049 68.1255L32.3208 67.6013L32.5752 65.2064L33.1996 64.0806L30.9947 64.8925L30.3353 63.4558L31.3275 61.6614C33.9968 59.6974 35.4967 59.0603 38.6981 57.3757L33.2007 58.7301L35.1013 55.6159L45.704 52.965L46.0316 51.2082L45.4592 50.9898L43.4779 50.8191L41.1405 51.2286L40.1218 50.2989C39.2684 50.3466 38.4575 50.3629 37.5999 50.3791L36.5875 49.1731L33.8017 48.9363L33.8038 46.9987L30.4095 46.7356L30.4127 44.9951L28.5661 45.0743L26.8573 43.8175L26.7089 42.6815L24.7488 42.335L21.7616 39.229L22.4644 39.0288L20.8011 38.407L18.7415 36.5537L19.899 35.6778L17.8616 34.9056L15.592 31.512L16.2281 30.8567L15.6874 30.7591L13.3373 26.8758L14.1005 25.1536L12.362 22.9894L12.1882 19.931L13.9563 19.9869L12.397 17.8309L13.0182 16.2092L13.6267 15.9186L13.1687 14.8457L14.1397 13.0676L15.1055 13.8134L14.8966 12.462L16.5577 11.6055L16.8005 11.8056V11.8067ZM23.658 18.6478L16.4348 12.6886L15.9196 12.9548L16.3839 15.9552L14.4387 14.4525L14.197 14.8945L14.8203 16.3555L13.7687 16.8565L13.4433 17.7059L15.7839 20.943L13.1761 20.8607L13.279 22.6652L15.1744 25.0235L14.3804 26.8148L16.2811 29.9554L18.0704 30.2765L16.7719 31.6136L18.486 34.1761L21.7584 35.4167L20.1747 36.6136L21.3079 37.6327L25.3499 39.1436L23.4672 39.6791L25.2258 41.508L27.5548 41.9195L27.7403 43.3348L28.8661 44.1639L31.3498 44.0572L31.3456 45.9065L34.7399 46.1696L34.7367 48.1133L37.0646 48.3105L38.0409 49.4738L39.1698 49.4525L40.4727 49.3793L41.4405 50.2643L43.4313 49.9158L45.6775 50.1089L47.0864 50.6484L46.5203 53.6884L35.7098 56.3911L35.1374 57.3289L45.6585 54.738L33.8388 60.9573L32.0568 62.2568L31.3742 63.4913L31.4929 63.7494L35.202 62.3838L33.4858 65.4767L33.3236 66.9987L33.6999 67.1318L36.4709 65.4838L35.9875 68.5086L36.2992 69.6425L37.337 69.5297L41.8189 65.4086L39.7942 70.435L40.0868 71.7082L40.8394 71.5923L43.3984 69.8447L43.4408 71.9581L43.8892 72.5017L45.1581 71.9754L47.2433 69.8L47.9249 72.2629L48.7591 72.5118L49.5457 71.7965L50.9323 68.8917L52.9241 71.9459L53.7457 71.6878L54.1803 65.1831L56.7477 68.7209L57.0212 68.4243L56.8961 67.4438L55.9092 64.2066L57.1548 61.0883L56.6788 58.977L58.7046 56.7335L61.5763 55.9817L66.8331 51.4541L68.1094 48.4822L70.2561 47.2863L70.4713 39.9046L71.9543 34.4108L71.9744 29.3834L74.0564 25.2237L75.6094 10.9765L77.5323 6.48152L76.9821 6.63596L74.6171 8.75241L75.4185 5.44413L74.5726 5.59654L72.2066 9.18118L71.6861 7.41528L70.2593 8.21085L68.4773 10.1505L68.3077 13.476L66.4876 11.8036L64.7226 13.7717L64.6049 20.1566L63.0021 16.701L62.736 16.7274L61.2721 21.7437L54.988 20.6484L51.6881 21.8311L48.5948 23.787L46.4821 27.9985L46.3825 34.865L42.0712 29.2147L34.5088 24.3458L23.6962 18.6782L23.6612 18.6498L23.658 18.6478Z" fill="url(#paint0_linear)"/>
<path d="M70.3015 26.5314L67.5464 25.4076L64.6514 27.2233L63.3083 29.7452L58.4755 26.3708L50.4169 26.6919L48.7707 29.5247L48.6466 32.5637L49.818 35.8628C51.4272 37.0943 51.459 37.1583 52.9314 38.6753L56.4699 40.3548L60.1769 40.9187L63.5288 40.5255L67.0026 37.9102L69.8902 34.8285L70.2379 32.3107L70.3015 26.5334V26.5314ZM67.6821 24.4881L71.2428 25.94C71.1972 29.7258 71.2608 31.7041 70.7785 35.2217C69.7333 36.3353 68.686 37.4479 67.646 38.5655C66.3941 39.5013 65.1475 40.4442 63.9009 41.3861C62.6585 41.5304 61.414 41.6736 60.1726 41.824L56.1794 41.2174L52.3632 39.4068L50.6735 37.6663L49.0198 36.4003L47.7064 32.6988L47.8452 29.2768L49.8551 25.8181C52.8233 25.6982 55.7914 25.5763 58.7596 25.4635L62.9701 28.4029L63.9284 26.6045L67.451 24.3956L67.6821 24.4901V24.4881Z" fill="url(#paint1_linear)"/>
<path d="M67.8667 31.3117L66.1452 31.455L65.0003 32.2485L64.5424 33.6253L65.1106 33.5704L66.7335 33.1305L67.8667 31.3127V31.3117ZM65.9385 30.57L69.6094 30.2642L67.3452 33.8966L65.2897 34.4544L63.2194 34.6555L64.2042 31.6958L65.8134 30.5812L65.9395 30.571L65.9385 30.57Z" fill="url(#paint2_linear)"/>
<path d="M53.4784 29.1975L56.3035 29.5195L57.7716 30.435L60.2787 34.7756C58.7299 34.3631 57.1823 33.9465 55.6324 33.538L53.4837 31.7061L52.801 29.1202L53.4773 29.1975H53.4784ZM55.9812 30.3873L54.0445 30.1668L54.3222 31.2174L56.0978 32.7303L58.3833 33.3389L57.0699 31.065L55.9812 30.3873Z" fill="url(#paint3_linear)"/>
<path d="M62.6002 36.1228L61.3833 35.9003L61.3102 36.3301L61.6632 36.9031L62.0077 37.9161L62.4624 37.2405L62.6002 36.1238V36.1228ZM61.0854 34.933L63.6349 35.3994L63.3688 37.5504L61.7299 39.9889L60.8056 37.274L60.3349 36.5079L60.6169 34.8477L61.0875 34.934L61.0854 34.933Z" fill="url(#paint4_linear)"/>
<path fill-rule="evenodd" clip-rule="evenodd" d="M79.1404 34.0349L81.2043 30.3303L86.3307 32.0078L79.1404 34.0349Z" fill="#FEFEFE"/>
<path d="M78.728 33.8243L80.9796 29.7825L87.8763 32.0401L78.2043 34.7662L78.7291 33.8233L78.728 33.8243ZM81.428 30.8778L80.0775 33.3031L84.7841 31.9761L81.428 30.8768V30.8778Z" fill="#009A9C"/>
<path d="M30.2926 19.1197L33.4179 20.2845L28.9166 21.36L30.2926 19.1197Z" fill="#FEFEFE" stroke="url(#paint5_linear)"/>
<path d="M62.4133 67.4248L60.5599 75.7269L56.349 60.0113L62.4133 67.4248Z" fill="#FEFEFE" stroke="url(#paint6_linear)"/>
<path d="M52.3648 78.44L52.5543 64.4196L55.8633 81.6101L52.3648 78.44Z" fill="#FEFEFE" stroke="url(#paint7_linear)"/>
<path d="M43.7348 67.4002L48.8516 60.5748L46.9583 74.1605L41.224 77.7254L43.7348 67.4002Z" fill="#FEFEFE" stroke="url(#paint8_linear)"/>
<path fill-rule="evenodd" clip-rule="evenodd" d="M42.3829 61.3352L32.5943 76.2021L27.5813 76.2356L42.3829 61.3352Z" fill="#FEFEFE"/>
<path d="M42.7782 61.574L32.8539 76.6482L26.4819 76.6908L45.2926 57.7546L42.7782 61.574ZM32.3345 75.7561L39.4718 64.9168L28.6794 75.7815L32.3345 75.7571V75.7561Z" fill="#009846"/>
<path fill-rule="evenodd" clip-rule="evenodd" d="M45.0128 47.529L32.3514 53.1387L25.9921 50.3445L35.8782 47.0271L45.0128 47.529Z" fill="#FEFEFE"/>
<path d="M45.2089 47.9375L32.3536 53.6325L24.7434 50.2896C28.4324 49.0511 32.1193 47.8023 35.8125 46.575C39.5111 46.768 43.2096 46.9814 46.9082 47.1856L45.2089 47.9385V47.9375ZM32.3504 52.6449L43.1174 47.8755L35.944 47.4813L27.2409 50.4014L32.3493 52.6449H32.3504Z" fill="#009846"/>
<path fill-rule="evenodd" clip-rule="evenodd" d="M26.1375 33.7767L8.92005 27.719L2.48444 18.1519L26.1375 33.7767Z" fill="#FEFEFE"/>
<path d="M25.9763 34.1983L8.61252 28.0888L0.822144 16.5088L29.4522 35.4216L25.9763 34.1983ZM9.22841 27.3481L22.8237 32.1316L4.14649 19.7937L9.22841 27.3481Z" fill="#009846"/>
<path fill-rule="evenodd" clip-rule="evenodd" d="M37.6401 39.6565L10.0998 37.8022L6.48291 31.4539L37.6401 39.6565Z" fill="#FEFEFE"/>
<path d="M37.6082 40.1046L9.81341 38.234L5.54456 30.7437L42.3084 40.4216L37.6082 40.1056V40.1046ZM10.3869 37.3724L32.9704 38.8924L7.42086 32.1661L10.3869 37.3724Z" fill="#009846"/>
<path fill-rule="evenodd" clip-rule="evenodd" d="M35.7765 41.5758L17.2753 48.7898L14.6389 45.1564L35.7765 41.5758Z" fill="#FEFEFE"/>
<path d="M35.9525 41.9925L17.1047 49.3406L13.8354 44.8364L40.0454 40.3962L35.9525 41.9914V41.9925ZM17.446 48.2382L31.5077 42.7555L15.4414 45.4775L17.445 48.2382H17.446Z" fill="#009846"/>
<path fill-rule="evenodd" clip-rule="evenodd" d="M25.9476 28.284L4.61713 10.876L9.82095 10.496L22.7102 22.0963L25.9476 28.284Z" fill="#FEFEFE"/>
<path d="M25.6456 28.6244L3.45007 10.5112L9.9917 10.0326L23.0909 21.8229C24.523 24.5683 25.9615 27.3106 27.3979 30.0539L25.6467 28.6244H25.6456ZM5.78432 11.2407L24.4997 26.514L22.3308 22.3695L9.65248 10.9582L5.78432 11.2417V11.2407Z" fill="#009846"/>
<path fill-rule="evenodd" clip-rule="evenodd" d="M69.7515 19.361L80.4347 14.9838L85.4022 4.01453L69.7515 19.361Z" fill="#FEFEFE"/>
<path d="M71.7306 18.0625L80.0807 14.6404L83.9637 6.06694L71.7306 18.0625ZM80.6181 15.3963L67.7734 20.6605L86.8428 1.96106C84.8244 6.41544 82.7997 10.8678 80.7898 15.3262L80.6192 15.3963H80.6181Z" fill="#009A9C"/>
<path fill-rule="evenodd" clip-rule="evenodd" d="M76.0365 0.871704L68.968 4.19014L71.791 13.1162L76.0365 0.871704Z" fill="#FEFEFE"/>
<path d="M75.2415 1.74355L69.5309 4.42492L71.8111 11.6369L75.2426 1.74355H75.2415ZM68.7624 3.78785L76.8316 0L71.7698 14.5946L68.4052 3.9555L68.7624 3.78785Z" fill="#009A9A"/>
<path fill-rule="evenodd" clip-rule="evenodd" d="M72.5638 23.2097L80.0394 21.3076L81.7228 17.9567L76.2772 19.8963L72.5638 23.2097Z" fill="#FEFEFE"/>
<path d="M74.2524 22.3167L79.7117 20.9267L80.7972 18.7636L76.5294 20.2836L74.2524 22.3157V22.3167ZM80.1591 21.7416L70.8762 24.1039C72.5924 22.5717 74.3054 21.0344 76.0259 19.5073C78.2319 18.7178 80.44 17.9355 82.647 17.149L80.3679 21.6878L80.158 21.7406L80.1591 21.7416Z" fill="#009A9C"/>
<path d="M52.9112 9.47276L55.308 10.5518L55.4776 15.6504L51.5649 14.9442L52.3292 9.21265L52.9091 9.47377L52.9112 9.47276ZM54.3921 11.1279L53.0957 10.5447L52.6059 14.2177L54.5066 14.5612L54.3921 11.1279Z" fill="url(#paint9_linear)"/>
<path d="M22.3912 58.978L23.4777 57.1359L27.966 57.3238L27.0777 60.499L22.0753 59.5134L22.3912 58.978ZM24.0088 58.0554L23.5212 58.8825L26.4014 59.4504L26.7597 58.1712L24.0088 58.0564V58.0554Z" fill="#009846"/>
<path fill-rule="evenodd" clip-rule="evenodd" d="M62.8822 61.6451L63.8373 57.2111L66.5458 59.8101L65.7486 61.6908L62.8822 61.6451Z" fill="#FEFEFE"/>
<path d="M62.4243 61.5555L63.5564 56.3055L67.0981 59.7053L66.0635 62.1448L62.3119 62.0838L62.4253 61.5555H62.4243ZM64.1204 58.1162L63.4546 61.206L65.4348 61.2375L65.9956 59.9156L64.1204 58.1151V58.1162Z" fill="#009A99"/>
<path fill-rule="evenodd" clip-rule="evenodd" d="M73.4235 46.2639L74.0521 45.4236L76.7478 45.9489L76.3863 47.1986L74.4401 47.0859L73.4235 46.2639Z" fill="#FEFEFE"/>
<path d="M73.0438 46.0019L73.8495 44.9269L77.3328 45.6046L76.736 47.6682L74.2597 47.5239L72.7926 46.3382L73.0449 46.0008L73.0438 46.0019ZM74.2555 45.9196L74.0551 46.1878L74.6212 46.645L76.0364 46.7273L76.1625 46.2894L74.2555 45.9185V45.9196Z" fill="#009A99"/>
<path d="M53.5484 42.3808L54.0932 43.597L51.689 46.1057L50.153 44.5501L51.5618 42.5911L53.3766 41.9988L53.5484 42.3818V42.3808ZM52.994 43.4172L52.8593 43.1154L52.1555 43.345L51.3519 44.4627L51.6763 44.7919L52.9929 43.4172H52.994Z" fill="url(#paint10_linear)"/>
<path d="M36.4349 26.0772L39.0429 24.9547L39.1413 25.8043L36.8879 27.2212L36.4349 26.0772Z" fill="#FEFEFE" stroke="url(#paint11_linear)"/>
<path d="M58.0685 53.1244L56.7413 47.8927L60.1388 49.5631L58.4671 54.6972L58.0675 53.1244H58.0685ZM58.1332 49.5824L58.5795 51.3412L59.012 50.0142L58.1343 49.5824H58.1332Z" fill="#009A99"/>
<path d="M64.8221 44.9665L65.3638 44.176L64.6578 44.3478L64.8221 44.9675V44.9665ZM66.8086 43.7026L64.4394 47.1643L63.5172 43.6975L67.4691 42.7373L66.8086 43.7026Z" fill="#009A99"/>
<path d="M102 39.2236V22.0976H112.383V24.0553H104.229V28.9736C105.155 28.876 106.091 28.8263 107.034 28.8263C109.062 28.8263 110.639 29.2753 111.767 30.1716C112.894 31.068 113.457 32.2997 113.457 33.8652C113.457 35.6099 112.841 36.9553 111.609 37.9013C110.376 38.8473 108.642 39.3212 106.405 39.3212C106.038 39.3212 105.207 39.3053 103.915 39.2715C103.67 39.2715 103.396 39.268 103.09 39.2591C102.784 39.2502 102.548 39.2431 102.382 39.2343C102.217 39.2254 102.089 39.2218 102.002 39.2218L102 39.2236ZM106.903 30.7822C106.099 30.7822 105.209 30.8319 104.229 30.9295V37.2659C105.19 37.3316 106.028 37.3635 106.745 37.3635C108.214 37.3635 109.328 37.0742 110.087 36.4956C110.848 35.917 111.228 35.0899 111.228 34.0125C111.228 33.0008 110.857 32.211 110.114 31.6395C109.372 31.068 108.301 30.7822 106.901 30.7822H106.903ZM125.518 28.2139H127.903L123.184 39.2236C122.328 41.1654 121.584 42.4522 120.955 43.0893C120.291 43.7745 119.53 44.117 118.674 44.117C117.906 44.117 117.162 43.888 116.445 43.4319L117.126 41.9392C117.685 42.1842 118.123 42.3066 118.437 42.3066C118.926 42.3066 119.367 42.1114 119.76 41.7191C120.154 41.3269 120.552 40.6915 120.953 39.8111L121.215 39.2236L115.553 28.2139H118.07L121.529 35.2106C121.6 35.3242 121.835 35.8797 122.237 36.8736C122.395 36.3359 122.577 35.7732 122.788 35.1857L125.514 28.2139H125.518ZM137.865 28.2139H140.303L136.083 33.5226L140.566 39.2236H137.996L134.537 34.7704L131.024 39.2236H128.586L133.042 33.6203L128.846 28.2139H131.416L134.615 32.3725L137.865 28.2139ZM143.87 39.2236H141.614L149.505 22H151.419L159.31 39.2236H156.925L154.564 34.0374H146.201L143.868 39.2236H143.87ZM153.701 32.0796L150.397 24.7635L147.093 32.0796H153.701ZM170.035 36.2134L171.031 37.6333C170.018 38.8562 168.506 39.4685 166.495 39.4685C164.609 39.4685 163.079 38.9467 161.908 37.9031C160.755 36.8595 160.177 35.4644 160.177 33.7197C160.177 32.1045 160.746 30.7432 161.881 29.6338C163.017 28.5245 164.441 27.9708 166.155 27.9708C168.217 27.9708 169.765 28.4517 170.796 29.4137L169.826 30.9544C168.917 30.1876 167.789 29.8042 166.444 29.8042C165.343 29.8042 164.39 30.1787 163.587 30.9295C162.8 31.6625 162.408 32.5926 162.408 33.7179C162.408 34.9088 162.809 35.8548 163.614 36.5559C164.436 37.273 165.449 37.6315 166.655 37.6315C168.019 37.6315 169.145 37.1576 170.037 36.2116L170.035 36.2134ZM182.2 36.2134L183.196 37.6333C182.183 38.8562 180.671 39.4685 178.66 39.4685C176.773 39.4685 175.244 38.9467 174.073 37.9031C172.92 36.8595 172.342 35.4644 172.342 33.7197C172.342 32.1045 172.911 30.7432 174.046 29.6338C175.182 28.5245 176.606 27.9708 178.32 27.9708C180.381 27.9708 181.93 28.4517 182.961 29.4137L181.991 30.9544C181.081 30.1876 179.954 29.8042 178.609 29.8042C177.508 29.8042 176.555 30.1787 175.752 30.9295C174.965 31.6625 174.573 32.5926 174.573 33.7179C174.573 34.9088 174.974 35.8548 175.779 36.5559C176.6 37.273 177.614 37.6315 178.82 37.6315C180.184 37.6315 181.31 37.1576 182.202 36.2116L182.2 36.2134ZM194.836 31.0271L188.02 39.2236H185.922V28.2139H188.02V36.4104L194.836 28.2139H196.934V39.2236H194.836V31.0271ZM209.807 36.2134L210.803 37.6333C209.79 38.8562 208.277 39.4685 206.267 39.4685C204.38 39.4685 202.851 38.9467 201.68 37.9031C200.527 36.8595 199.949 35.4644 199.949 33.7197C199.949 32.1045 200.518 30.7432 201.653 29.6338C202.788 28.5245 204.213 27.9708 205.927 27.9708C207.988 27.9708 209.537 28.4517 210.567 29.4137L209.597 30.9544C208.688 30.1876 207.56 29.8042 206.216 29.8042C205.115 29.8042 204.162 30.1787 203.359 30.9295C202.572 31.6625 202.18 32.5926 202.18 33.7179C202.18 34.9088 202.581 35.8548 203.386 36.5559C204.207 37.273 205.221 37.6315 206.427 37.6315C207.791 37.6315 208.917 37.1576 209.809 36.2116L209.807 36.2134ZM216.203 30.1699H211.878V28.2121H222.628V30.1699H218.303V39.2218H216.205V30.1699H216.203ZM233.821 36.4814L234.477 38.022C233.341 38.984 231.864 39.465 230.045 39.465C228.122 39.465 226.593 38.9432 225.458 37.8995C224.305 36.8559 223.727 35.4608 223.727 33.7161C223.727 32.069 224.269 30.6988 225.353 29.6054C226.418 28.5121 227.906 27.9672 229.81 27.9672C231.382 27.9672 232.685 28.4411 233.716 29.3871C234.764 30.3172 235.289 31.5241 235.289 33.0079C235.289 33.4818 235.245 33.922 235.158 34.3284H226.087C226.175 35.3561 226.59 36.1637 227.333 36.7512C228.075 37.3387 229.034 37.6315 230.203 37.6315C231.742 37.6315 232.948 37.2482 233.821 36.4814ZM229.705 29.8024C228.674 29.8024 227.822 30.0722 227.149 30.61C226.475 31.1478 226.078 31.8578 225.956 32.7381H233.113C233.062 31.8241 232.733 31.107 232.13 30.5852C231.527 30.0634 230.719 29.8024 229.705 29.8024ZM248.896 39.2218H246.798V34.5734H240.244V39.2218H238.146V28.2121H240.244V32.7381H246.798V28.2121H248.896V39.2218ZM255.528 30.1699H251.203V28.2121H261.953V30.1699H257.628V39.2218H255.53V30.1699H255.528Z" fill="url(#paint12_linear)"/>
<path d="M109.729 48.0829H111.171L106.803 52.6889L111.395 57.8829H109.869L105.431 52.7729L109.729 48.0829ZM105.193 57.8829H104.003V48.0829H105.193V57.8829ZM112.202 57.0989C111.586 56.4643 111.278 55.6756 111.278 54.7329C111.278 53.7809 111.586 52.9969 112.202 52.3809C112.827 51.7556 113.639 51.4429 114.638 51.4429C115.636 51.4429 116.444 51.7556 117.06 52.3809C117.685 52.9969 117.998 53.7809 117.998 54.7329C117.998 55.6849 117.685 56.4736 117.06 57.0989C116.444 57.7149 115.636 58.0229 114.638 58.0229C113.648 58.0229 112.836 57.7149 112.202 57.0989ZM113.084 53.1229C112.673 53.5336 112.468 54.0703 112.468 54.7329C112.468 55.3956 112.668 55.9323 113.07 56.3429C113.48 56.7629 114.003 56.9729 114.638 56.9729C115.272 56.9729 115.79 56.7676 116.192 56.3569C116.602 55.9369 116.808 55.3956 116.808 54.7329C116.808 54.0889 116.602 53.5523 116.192 53.1229C115.79 52.7029 115.272 52.4929 114.638 52.4929C114.003 52.4929 113.485 52.7029 113.084 53.1229ZM124.993 57.8829H123.873V55.2229H120.373V57.8829H119.253V51.5829H120.373V54.1729H123.873V51.5829H124.993V57.8829ZM131.501 56.1609L132.033 56.9729C131.492 57.6729 130.684 58.0229 129.611 58.0229C128.603 58.0229 127.786 57.7243 127.161 57.1269C126.545 56.5296 126.237 55.7316 126.237 54.7329C126.237 53.8089 126.54 53.0296 127.147 52.3949C127.754 51.7603 128.514 51.4429 129.429 51.4429C130.53 51.4429 131.356 51.7183 131.907 52.2689L131.389 53.1509C130.904 52.7123 130.302 52.4929 129.583 52.4929C128.995 52.4929 128.486 52.7076 128.057 53.1369C127.637 53.5569 127.427 54.0889 127.427 54.7329C127.427 55.4143 127.642 55.9556 128.071 56.3569C128.51 56.7676 129.051 56.9729 129.695 56.9729C130.423 56.9729 131.025 56.7023 131.501 56.1609ZM133.468 52.9129L133.174 52.0169C133.799 51.6343 134.499 51.4429 135.274 51.4429C136.123 51.4429 136.739 51.6529 137.122 52.0729C137.505 52.4929 137.696 53.1416 137.696 54.0189V57.8829H136.632V57.0709C136.137 57.6776 135.465 57.9809 134.616 57.9809C134.037 57.9809 133.571 57.8083 133.216 57.4629C132.861 57.1083 132.684 56.6323 132.684 56.0349C132.684 55.4189 132.903 54.9336 133.342 54.5789C133.781 54.2149 134.355 54.0329 135.064 54.0329C135.727 54.0329 136.249 54.1683 136.632 54.4389C136.632 53.7296 136.534 53.2209 136.338 52.9129C136.142 52.6049 135.764 52.4509 135.204 52.4509C134.635 52.4509 134.056 52.6049 133.468 52.9129ZM135.008 56.9729C135.633 56.9729 136.175 56.7023 136.632 56.1609V55.3629C136.24 55.0829 135.769 54.9429 135.218 54.9429C134.835 54.9429 134.513 55.0363 134.252 55.2229C134 55.4003 133.874 55.6523 133.874 55.9789C133.874 56.2869 133.972 56.5296 134.168 56.7069C134.373 56.8843 134.653 56.9729 135.008 56.9729ZM144.642 57.8829H143.522V52.7029H141.31L141.24 53.7669C141.166 54.6349 141.054 55.3583 140.904 55.9369C140.764 56.5063 140.578 56.9356 140.344 57.2249C140.12 57.5049 139.882 57.7009 139.63 57.8129C139.378 57.9156 139.07 57.9669 138.706 57.9669L138.622 56.8749C138.725 56.8843 138.832 56.8703 138.944 56.8329C139.056 56.7863 139.178 56.6929 139.308 56.5529C139.448 56.4129 139.57 56.2263 139.672 55.9929C139.784 55.7596 139.882 55.4329 139.966 55.0129C140.06 54.5836 140.12 54.0936 140.148 53.5429L140.26 51.5829H144.642V57.8829ZM147.812 52.7029H145.502V51.5829H151.242V52.7029H148.932V57.8829H147.812V52.7029ZM156.865 53.1929L153.225 57.8829H152.105V51.5829H153.225V56.2729L156.865 51.5829H157.985V57.8829H156.865V53.1929ZM165.4 57.8829H164.28V55.2229H160.78V57.8829H159.66V51.5829H160.78V54.1729H164.28V51.5829H165.4V57.8829ZM168.185 57.8829H167.065V51.5829H171.055V52.6329H168.185V57.8829ZM172.075 57.0989C171.459 56.4643 171.151 55.6756 171.151 54.7329C171.151 53.7809 171.459 52.9969 172.075 52.3809C172.7 51.7556 173.512 51.4429 174.511 51.4429C175.509 51.4429 176.317 51.7556 176.933 52.3809C177.558 52.9969 177.871 53.7809 177.871 54.7329C177.871 55.6849 177.558 56.4736 176.933 57.0989C176.317 57.7149 175.509 58.0229 174.511 58.0229C173.521 58.0229 172.709 57.7149 172.075 57.0989ZM172.957 53.1229C172.546 53.5336 172.341 54.0703 172.341 54.7329C172.341 55.3956 172.541 55.9323 172.943 56.3429C173.353 56.7629 173.876 56.9729 174.511 56.9729C175.145 56.9729 175.663 56.7676 176.065 56.3569C176.475 55.9369 176.681 55.3956 176.681 54.7329C176.681 54.0889 176.475 53.5523 176.065 53.1229C175.663 52.7029 175.145 52.4929 174.511 52.4929C173.876 52.4929 173.358 52.7029 172.957 53.1229ZM179.126 57.8829V51.5829C179.172 51.5829 179.238 51.5829 179.322 51.5829C179.406 51.5736 179.527 51.5689 179.686 51.5689C179.844 51.5596 179.989 51.5549 180.12 51.5549C180.81 51.5363 181.24 51.5269 181.408 51.5269C183.218 51.5269 184.124 52.0683 184.124 53.1509C184.124 53.5243 184.007 53.8463 183.774 54.1169C183.54 54.3783 183.237 54.5369 182.864 54.5929V54.6209C183.844 54.7983 184.334 55.2929 184.334 56.1049C184.334 57.3276 183.368 57.9389 181.436 57.9389C181.342 57.9389 180.932 57.9296 180.204 57.9109C180.064 57.9109 179.91 57.9063 179.742 57.8969C179.574 57.8969 179.443 57.8923 179.35 57.8829C179.256 57.8829 179.182 57.8829 179.126 57.8829ZM181.59 55.0549H180.246V56.9869C180.918 57.0149 181.347 57.0289 181.534 57.0289C182.607 57.0289 183.144 56.6929 183.144 56.0209C183.144 55.3769 182.626 55.0549 181.59 55.0549ZM181.492 52.4369C181.221 52.4369 180.806 52.4509 180.246 52.4789V54.3549H181.66C182.042 54.3549 182.35 54.2663 182.584 54.0889C182.817 53.9116 182.934 53.6736 182.934 53.3749C182.934 52.7496 182.453 52.4369 181.492 52.4369ZM187.713 57.8829H185.683V51.5829H186.803V53.4729H187.839C188.697 53.4729 189.327 53.6689 189.729 54.0609C190.13 54.4436 190.331 54.9709 190.331 55.6429C190.331 56.2776 190.121 56.8096 189.701 57.2389C189.299 57.6683 188.637 57.8829 187.713 57.8829ZM192.655 57.8829H191.535V51.5829H192.655V57.8829ZM187.629 54.5229H186.803V56.8329H187.615C188.147 56.8329 188.534 56.7396 188.777 56.5529C189.019 56.3663 189.141 56.0769 189.141 55.6849C189.141 54.9103 188.637 54.5229 187.629 54.5229ZM199.274 56.3149L199.624 57.1969C199.017 57.7476 198.228 58.0229 197.258 58.0229C196.231 58.0229 195.414 57.7243 194.808 57.1269C194.192 56.5296 193.884 55.7316 193.884 54.7329C193.884 53.7903 194.173 53.0063 194.752 52.3809C195.321 51.7556 196.114 51.4429 197.132 51.4429C197.972 51.4429 198.667 51.7136 199.218 52.2549C199.778 52.7869 200.058 53.4776 200.058 54.3269C200.058 54.5976 200.034 54.8496 199.988 55.0829H195.144C195.19 55.6709 195.41 56.1329 195.802 56.4689C196.203 56.8049 196.716 56.9729 197.342 56.9729C198.163 56.9729 198.807 56.7536 199.274 56.3149ZM197.076 52.4929C196.525 52.4929 196.068 52.6469 195.704 52.9549C195.349 53.2629 195.139 53.6689 195.074 54.1729H198.896C198.868 53.6503 198.69 53.2396 198.364 52.9409C198.046 52.6423 197.617 52.4929 197.076 52.4929ZM208.452 51.5829H209.726L207.206 57.8829C206.748 58.9936 206.352 59.7309 206.016 60.0949C205.661 60.4869 205.255 60.6829 204.798 60.6829C204.387 60.6829 203.99 60.5523 203.608 60.2909L203.972 59.4369C204.27 59.5769 204.504 59.6469 204.672 59.6469C204.933 59.6469 205.166 59.5349 205.372 59.3109C205.586 59.0869 205.801 58.7229 206.016 58.2189L206.156 57.8829L203.132 51.5829H204.476L206.324 55.5869C206.361 55.6523 206.487 55.9696 206.702 56.5389C206.786 56.2309 206.884 55.9089 206.996 55.5729L208.452 51.5829ZM215.113 56.1609L215.645 56.9729C215.104 57.6729 214.297 58.0229 213.223 58.0229C212.215 58.0229 211.399 57.7243 210.773 57.1269C210.157 56.5296 209.849 55.7316 209.849 54.7329C209.849 53.8089 210.153 53.0296 210.759 52.3949C211.366 51.7603 212.127 51.4429 213.041 51.4429C214.143 51.4429 214.969 51.7183 215.519 52.2689L215.001 53.1509C214.516 52.7123 213.914 52.4929 213.195 52.4929C212.607 52.4929 212.099 52.7076 211.669 53.1369C211.249 53.5569 211.039 54.0889 211.039 54.7329C211.039 55.4143 211.254 55.9556 211.683 56.3569C212.122 56.7676 212.663 56.9729 213.307 56.9729C214.035 56.9729 214.637 56.7023 215.113 56.1609ZM222.053 57.8829H220.933V52.7029H218.721L218.651 53.7669C218.576 54.6349 218.464 55.3583 218.315 55.9369C218.175 56.5063 217.988 56.9356 217.755 57.2249C217.531 57.5049 217.293 57.7009 217.041 57.8129C216.789 57.9156 216.481 57.9669 216.117 57.9669L216.033 56.8749C216.136 56.8843 216.243 56.8703 216.355 56.8329C216.467 56.7863 216.588 56.6929 216.719 56.5529C216.859 56.4129 216.98 56.2263 217.083 55.9929C217.195 55.7596 217.293 55.4329 217.377 55.0129C217.47 54.5836 217.531 54.0936 217.559 53.5429L217.671 51.5829H222.053V57.8829ZM228.163 51.5829H229.437L226.917 57.8829C226.46 58.9936 226.063 59.7309 225.727 60.0949C225.372 60.4869 224.966 60.6829 224.509 60.6829C224.098 60.6829 223.702 60.5523 223.319 60.2909L223.683 59.4369C223.982 59.5769 224.215 59.6469 224.383 59.6469C224.644 59.6469 224.878 59.5349 225.083 59.3109C225.298 59.0869 225.512 58.7229 225.727 58.2189L225.867 57.8829L222.843 51.5829H224.187L226.035 55.5869C226.072 55.6523 226.198 55.9696 226.413 56.5389C226.497 56.2309 226.595 55.9089 226.707 55.5729L228.163 51.5829ZM231.347 57.8829H230.227V51.5829H234.217V52.6329H231.347V57.8829ZM239.698 53.1929L236.058 57.8829H234.938V51.5829H236.058V56.2729L239.698 51.5829H240.818V57.8829H239.698V53.1929Z" fill="black"/>
<defs>
<linearGradient id="paint0_linear" x1="12.1871" y1="38.9526" x2="79.133" y2="38.9526" gradientUnits="userSpaceOnUse">
<stop stop-color="#009846"/>
<stop offset="1" stop-color="#009A9C"/>
</linearGradient>
<linearGradient id="paint1_linear" x1="47.706" y1="33.1099" x2="71.2425" y2="33.1099" gradientUnits="userSpaceOnUse">
<stop stop-color="#009846"/>
<stop offset="1" stop-color="#009A9C"/>
</linearGradient>
<linearGradient id="paint2_linear" x1="63.2193" y1="32.4599" x2="69.6093" y2="32.4599" gradientUnits="userSpaceOnUse">
<stop stop-color="#009846"/>
<stop offset="1" stop-color="#009A9C"/>
</linearGradient>
<linearGradient id="paint3_linear" x1="52.8009" y1="31.948" x2="60.2786" y2="31.948" gradientUnits="userSpaceOnUse">
<stop stop-color="#009846"/>
<stop offset="1" stop-color="#009A9C"/>
</linearGradient>
<linearGradient id="paint4_linear" x1="60.3348" y1="37.4183" x2="63.6348" y2="37.4183" gradientUnits="userSpaceOnUse">
<stop stop-color="#009846"/>
<stop offset="1" stop-color="#009A9C"/>
</linearGradient>
<linearGradient id="paint5_linear" x1="27.8588" y1="20.3172" x2="35.1308" y2="20.3172" gradientUnits="userSpaceOnUse">
<stop stop-color="#009846"/>
<stop offset="1" stop-color="#009A9C"/>
</linearGradient>
<linearGradient id="paint6_linear" x1="55.2645" y1="67.8599" x2="62.9541" y2="67.8599" gradientUnits="userSpaceOnUse">
<stop stop-color="#009846"/>
<stop offset="1" stop-color="#009A9C"/>
</linearGradient>
<linearGradient id="paint7_linear" x1="51.8617" y1="71.2536" x2="56.6373" y2="71.2536" gradientUnits="userSpaceOnUse">
<stop stop-color="#009846"/>
<stop offset="1" stop-color="#009A9C"/>
</linearGradient>
<linearGradient id="paint8_linear" x1="40.449" y1="68.76" x2="49.6143" y2="68.76" gradientUnits="userSpaceOnUse">
<stop stop-color="#009846"/>
<stop offset="1" stop-color="#009A9C"/>
</linearGradient>
<linearGradient id="paint9_linear" x1="51.5649" y1="12.4316" x2="55.4776" y2="12.4316" gradientUnits="userSpaceOnUse">
<stop stop-color="#009846"/>
<stop offset="1" stop-color="#009A9C"/>
</linearGradient>
<linearGradient id="paint10_linear" x1="50.153" y1="44.0522" x2="54.0932" y2="44.0522" gradientUnits="userSpaceOnUse">
<stop stop-color="#009846"/>
<stop offset="1" stop-color="#009A9C"/>
</linearGradient>
<linearGradient id="paint11_linear" x1="35.7912" y1="26.0974" x2="39.6742" y2="26.0974" gradientUnits="userSpaceOnUse">
<stop stop-color="#009846"/>
<stop offset="1" stop-color="#009A9C"/>
</linearGradient>
<linearGradient id="paint12_linear" x1="101.997" y1="33.0587" x2="261.95" y2="33.0587" gradientUnits="userSpaceOnUse">
<stop stop-color="#009846"/>
<stop offset="1" stop-color="#009A9C"/>
</linearGradient>
</defs>
</svg>
