<svg width="207" height="184" viewBox="0 0 207 184" fill="none" xmlns="http://www.w3.org/2000/svg">
<g opacity="0.2">
<path fill-rule="evenodd" clip-rule="evenodd" d="M42.3116 33.6292L62.4686 50.2561L91.5882 65.517L112.237 78.8114L121.775 91.3103L121.995 76.1289L127.97 64.2197L136.733 58.6792L146.096 55.322L162.269 58.1416L166.144 44.8665L168.628 44.6251L171.012 49.7678L171.235 37.5487L177.167 30.9358L181.042 34.4987L181.388 27.7459L186.622 22.0491L192.062 19.0155L193.14 22.6772L198.308 14.8492L203.033 13.9962L201.367 20.8614L204.939 17.6688L209.234 16.4565L203.116 30.7575L198.921 69.2527L193.326 80.4296L193.275 93.8831L189.269 108.727L188.673 129.191L182.641 132.548L179.247 140.453L164.633 153.043L156.956 155.05L152.151 160.371L153.381 165.835L150.033 174.214L152.614 182.679L153.032 185.932L150.849 188.301L145.068 180.336L144.073 195.246L140.101 196.494L135.442 189.355L132.572 195.367L129.739 197.948L126.113 196.864L124.682 191.705L120.439 196.135L115.874 198.03L113.8 195.512L113.723 191.694L108.523 195.246L105.02 195.781L103.89 190.874L107.45 182.042L99.1399 189.684L94.8332 190.153L93.6428 185.83L94.57 180.021L88.8954 183.394L86.3829 182.508L86.9467 177.223L90.1059 171.529L82.122 174.469L81.0718 172.182L83.3325 168.095L88.4433 164.368L111.639 152.162L90.0172 157.486L93.3566 152.017L122.259 144.789L123.463 138.316L120.791 137.293L115.085 136.802L109.241 137.825L106.56 135.376L103.587 135.543L99.8753 135.612L97.1912 132.414L90.289 131.83L90.2976 126.591L81.1348 125.881L81.1434 121.034L75.3 121.284L71.474 118.47L71.0248 115.025L65.2358 114.004L58.8287 107.342L62.3169 106.352L54.6164 103.472L50.3069 99.5936L54.0069 96.7987L46.8386 94.0805L41.4645 86.0414L44.0743 83.3507L40.9294 82.7857L35.1919 73.3038L37.2923 68.5643L32.3876 62.4588L32.0127 55.8953L37.919 56.0818L32.6566 48.8024L33.9357 45.4699L36.1763 44.4002L34.7169 40.9772L36.3537 37.982L40.2827 41.0156L39.3756 35.1432L42.3116 33.6292Z" fill="#FEFEFE"/>
<path d="M43.1329 32.7076L63.1927 49.2549C84.5172 60.4318 93.6285 65.3716 113.127 77.9254L120.565 87.6706L120.736 75.8436C122.802 71.6883 124.894 67.5384 126.983 63.394L136.158 57.593L145.978 54.0713L161.362 56.7537L165.16 43.7419L169.406 43.3332L169.85 44.2877L169.982 37.0906L177.078 29.1776L179.914 31.7832L180.146 27.2604C182.029 25.206 183.906 23.1434 185.803 21.1028C188.138 19.7835 190.491 18.4889 192.834 17.1833L193.587 19.7341L197.536 13.7548L204.704 12.4602L203.539 17.2601L204.295 16.5854L211.4 14.5831L204.355 31.0509L200.157 69.5791L194.588 80.7039L194.537 94.0421L190.528 108.897L189.918 129.899L183.646 133.39L180.306 141.172C175.284 145.478 170.256 149.792 165.263 154.129L157.659 156.117L153.519 160.703L154.698 165.931L151.367 174.269C153.024 179.705 153.705 181.25 154.36 186.318L150.729 190.257L146.099 183.88L145.28 196.14L139.554 197.939L135.614 191.9L133.616 196.085L130.068 199.314L125.069 197.822L124.053 194.154L121.191 197.141L115.485 199.511L112.547 195.943L112.506 194.012L109.018 196.395L104.045 197.158L102.577 190.781L104.225 186.688L99.7066 190.844L93.8889 191.475L92.3523 185.893L92.9046 182.437L89.0357 184.738L85.0295 183.323L85.7162 176.858L87.4017 173.819L81.4496 176.011L79.6697 172.132L82.3481 167.289C89.5536 161.987 93.6028 160.267 102.245 155.72L87.4046 159.376L92.5354 150.969L121.157 143.813L122.041 139.071L120.496 138.481L115.148 138.02L108.838 139.126L106.088 136.616C103.784 136.745 101.595 136.789 99.2802 136.833L96.5474 133.577L89.0271 132.938L89.0328 127.707L79.87 126.997L79.8786 122.298L74.8937 122.512L70.2808 119.12L69.8802 116.053L64.5891 115.118L56.5252 106.733L58.4224 106.193L53.9326 104.514L48.3725 99.5113L51.4973 97.147L45.9974 95.0624L39.8707 85.9015L41.5877 84.1324L40.1282 83.8691L33.7841 73.3861L35.8444 68.737L31.1514 62.8949L30.6821 54.639L35.4553 54.7899L31.2459 48.9697L32.9228 44.5921L34.5653 43.8077L33.3291 40.9113L35.9503 36.1114L38.5572 38.1246L37.9935 34.4767L42.4776 32.1645L43.1329 32.7048V32.7076ZM61.6445 51.1749L42.1457 35.0883L40.7549 35.8069L42.0083 43.9064L36.7573 39.8498L36.1048 41.0429L37.7875 44.9871L34.9488 46.3393L34.0703 48.6323L40.3886 57.3708L33.3491 57.1487L33.6267 62.0199L38.7432 68.3859L36.5999 73.2215L41.7307 81.6995L46.5611 82.5662L43.0556 86.1758L47.6828 93.0931L56.5166 96.4421L52.2414 99.6731L55.3004 102.424L66.2116 106.503L61.1295 107.948L65.8768 112.885L72.1637 113.996L72.6645 117.817L75.7035 120.055L82.4082 119.767L82.3968 124.759L91.5596 125.469L91.551 130.716L97.8351 131.248L100.471 134.389L103.518 134.331L107.035 134.134L109.648 136.523L115.022 135.582L121.086 136.103L124.889 137.559L123.36 145.766L94.178 153.062L92.6327 155.593L121.034 148.599L89.1273 165.388L84.3169 168.896L82.4741 172.228L82.7946 172.925L92.8073 169.239L88.1743 177.588L87.7365 181.697L88.7524 182.056L96.2326 177.607L94.9277 185.772L95.769 188.833L98.5705 188.529L110.669 177.404L105.204 190.973L105.993 194.41L108.025 194.097L114.933 189.379L115.048 195.084L116.258 196.552L119.683 195.131L125.312 189.258L127.152 195.907L129.404 196.579L131.527 194.648L135.27 186.806L140.647 195.051L142.865 194.355L144.038 176.795L150.969 186.346L151.707 185.545L151.37 182.898L148.706 174.159L152.068 165.742L150.783 160.042L156.252 153.986L164.004 151.956L178.194 139.734L181.64 131.712L187.434 128.483L188.015 108.557L192.019 93.7267L192.073 80.1553L197.693 68.9263L201.885 30.4667L207.076 18.3325L205.591 18.7495L199.207 24.4627L201.37 15.5321L199.087 15.9436L192.7 25.6202L191.295 20.8532L187.443 23.0008L182.633 28.2368L182.175 37.214L177.261 32.6993L172.497 38.0121L172.179 55.2479L167.852 45.9197L167.134 45.991L163.182 59.5322L146.219 56.5754L137.311 59.7681L128.961 65.048L123.257 76.4169L122.988 94.9527L111.35 79.7L90.9358 66.5565L61.7476 51.2571L61.6531 51.1803L61.6445 51.1749Z" fill="url(#paint0_linear)"/>
<path d="M187.557 72.4565L180.12 69.423L172.305 74.3244L168.679 81.132L155.633 72.0232L133.88 72.8899L129.436 80.5368L129.101 88.7405L132.263 97.6464C136.607 100.971 136.693 101.143 140.667 105.239L150.219 109.772L160.226 111.295L169.275 110.233L178.652 103.173L186.447 94.8542L187.386 88.0576L187.557 72.462V72.4565ZM180.486 66.9408L190.098 70.8602C189.975 81.0799 190.147 86.4201 188.845 95.9157C186.023 98.9218 183.196 101.925 180.389 104.942C177.009 107.468 173.644 110.014 170.279 112.556C166.925 112.946 163.566 113.333 160.215 113.738L149.435 112.101L139.133 107.213L134.572 102.515L130.108 99.0974L126.562 89.1053L126.937 79.8676L132.363 70.5311C140.375 70.2074 148.388 69.8783 156.4 69.5738L167.767 77.5088L170.353 72.654L179.862 66.6912L180.486 66.9462V66.9408Z" fill="url(#paint1_linear)"/>
<path d="M180.984 85.3608L176.337 85.7475L173.246 87.8897L172.01 91.6061L173.544 91.458L177.925 90.2704L180.984 85.3635V85.3608ZM175.779 83.3585L185.689 82.533L179.576 92.3385L174.028 93.8443L168.439 94.3873L171.097 86.3976L175.441 83.3887L175.782 83.3613L175.779 83.3585Z" fill="url(#paint2_linear)"/>
<path d="M142.144 79.6534L149.77 80.5229L153.733 82.9941L160.501 94.7114C156.32 93.5978 152.142 92.4733 147.958 91.3707L142.158 86.4254L140.315 79.4449L142.141 79.6534H142.144ZM148.9 82.8652L143.672 82.27L144.421 85.1061L149.214 89.1901L155.384 90.8331L151.839 84.6947L148.9 82.8652Z" fill="url(#paint3_linear)"/>
<path d="M166.767 98.3482L163.482 97.7475L163.285 98.9078L164.238 100.455L165.168 103.189L166.395 101.365L166.767 98.351V98.3482ZM162.678 95.1364L169.56 96.3953L168.842 102.202L164.418 108.785L161.923 101.456L160.652 99.3877L161.413 94.906L162.684 95.1391L162.678 95.1364Z" fill="url(#paint4_linear)"/>
<path d="M79.4067 52.0207L89.189 55.6664L75.0999 59.0326L79.4067 52.0207Z" fill="#FEFEFE" stroke="url(#paint5_linear)" stroke-width="2"/>
<path d="M166.371 182.821L161.269 205.676L149.676 162.412L166.371 182.821Z" fill="#FEFEFE" stroke="url(#paint6_linear)" stroke-width="2.5"/>
<path d="M139.037 212.625L139.562 173.757L148.736 221.414L139.037 212.625Z" fill="#FEFEFE" stroke="url(#paint7_linear)" stroke-width="2.5"/>
<path d="M115.98 182.846L129.425 164.912L124.404 200.939L109.296 210.331L115.98 182.846Z" fill="#FEFEFE" stroke="url(#paint8_linear)" stroke-width="3"/>
<path fill-rule="evenodd" clip-rule="evenodd" d="M112.192 166.408L85.7681 206.541L72.2356 206.631L112.192 166.408Z" fill="#FEFEFE"/>
<path d="M113.259 167.053L86.4684 207.745L69.2673 207.86L120.046 156.743L113.259 167.053ZM85.0662 205.337L104.333 176.077L75.1994 205.405L85.0662 205.34V205.337Z" fill="#009846"/>
<path fill-rule="evenodd" clip-rule="evenodd" d="M119.291 129.139L85.1118 144.282L67.9451 136.739L94.6323 127.784L119.291 129.139Z" fill="#FEFEFE"/>
<path d="M119.82 130.241L85.1176 145.615L64.5742 136.591C74.5326 133.248 84.4852 129.877 94.4549 126.563C104.439 127.084 114.423 127.66 124.407 128.212L119.82 130.244V130.241ZM85.109 142.949L114.174 130.074L94.8098 129.01L71.3161 136.893L85.1061 142.949H85.109Z" fill="#009846"/>
<path fill-rule="evenodd" clip-rule="evenodd" d="M68.3382 92.015L21.8603 75.6624L4.48755 49.8362L68.3382 92.015Z" fill="#FEFEFE"/>
<path d="M67.9027 93.1531L21.0298 76.6606L0 45.4009L77.2859 96.4554L67.9027 93.1531ZM22.6924 74.6611L59.3923 87.5742L8.97395 54.2684L22.6924 74.6611Z" fill="#009846"/>
<path fill-rule="evenodd" clip-rule="evenodd" d="M99.3883 107.887L25.0443 102.882L15.2805 85.7445L99.3883 107.887Z" fill="#FEFEFE"/>
<path d="M99.3023 109.097L24.2714 104.047L12.7478 83.8273L111.991 109.952L99.3023 109.099V109.097ZM25.8196 101.721L86.7829 105.825L17.8128 87.6672L25.8196 101.721Z" fill="#009846"/>
<path fill-rule="evenodd" clip-rule="evenodd" d="M94.3585 113.068L44.4151 132.542L37.2983 122.734L94.3585 113.068Z" fill="#FEFEFE"/>
<path d="M94.8337 114.193L43.9545 134.029L35.1294 121.87L105.882 109.884L94.8337 114.19V114.193ZM44.876 131.053L82.835 116.253L39.4647 123.601L44.8731 131.053H44.876Z" fill="#009846"/>
<path fill-rule="evenodd" clip-rule="evenodd" d="M67.825 77.1877L10.2441 30.1952L24.2917 29.1694L59.0857 60.484L67.825 77.1877Z" fill="#FEFEFE"/>
<path d="M67.01 78.1064L7.09399 29.2104L24.7529 27.9186L60.1136 59.7461C63.9796 67.1571 67.8628 74.5599 71.7402 81.9655L67.0129 78.1064H67.01ZM13.3952 31.1798L63.9166 72.4096L58.0618 61.2217L23.8372 30.4173L13.3952 31.1825V31.1798Z" fill="#009846"/>
<path fill-rule="evenodd" clip-rule="evenodd" d="M186.072 53.1003L214.911 41.2843L228.321 11.673L186.072 53.1003Z" fill="#FEFEFE"/>
<path d="M191.415 49.595L213.956 40.3572L224.438 17.2134L191.415 49.595ZM215.406 42.3978L180.732 56.6083L232.21 6.12976C226.761 18.1542 221.295 30.1732 215.87 42.2086L215.409 42.3978H215.406Z" fill="#009A9C"/>
<path fill-rule="evenodd" clip-rule="evenodd" d="M203.038 3.18909L183.957 12.1471L191.578 36.2426L203.038 3.18909Z" fill="#FEFEFE"/>
<path d="M200.892 5.54259L185.477 12.7808L191.632 32.2493L200.895 5.54259H200.892ZM183.402 11.0611L205.185 0.835938L191.52 40.2336L182.438 11.5137L183.402 11.0611Z" fill="#009A9A"/>
<path fill-rule="evenodd" clip-rule="evenodd" d="M193.664 63.4896L213.844 58.3551L218.388 49.3093L203.688 54.5453L193.664 63.4896Z" fill="#FEFEFE"/>
<path d="M198.222 61.079L212.959 57.3269L215.89 51.4875L204.369 55.5907L198.222 61.0763V61.079ZM214.167 59.5266L189.108 65.9036C193.741 61.7675 198.365 57.6176 203.01 53.4952C208.965 51.364 214.925 49.2521 220.883 47.1292L214.731 59.3812L214.164 59.5239L214.167 59.5266Z" fill="#009A9C"/>
<path d="M140.612 26.4074L147.082 29.3202L147.54 43.0836L136.978 41.1773L139.041 25.7052L140.607 26.4101L140.612 26.4074ZM144.61 30.8754L141.11 29.301L139.788 39.2162L144.919 40.1433L144.61 30.8754Z" fill="url(#paint9_linear)"/>
<path d="M58.2251 160.045L61.1582 155.072L73.2742 155.58L70.8762 164.151L57.3723 161.49L58.2251 160.045ZM62.5919 157.554L61.2755 159.787L69.0505 161.32L70.0177 157.867L62.5919 157.557V157.554Z" fill="#009846"/>
<path fill-rule="evenodd" clip-rule="evenodd" d="M167.529 167.245L170.107 155.275L177.419 162.291L175.267 167.368L167.529 167.245Z" fill="#FEFEFE"/>
<path d="M166.293 167.003L169.349 152.831L178.909 162.008L176.117 168.594L165.989 168.429L166.295 167.003H166.293ZM170.871 157.718L169.074 166.059L174.42 166.144L175.933 162.576L170.871 157.716V157.718Z" fill="#009A99"/>
<path fill-rule="evenodd" clip-rule="evenodd" d="M195.985 125.724L197.682 123.455L204.959 124.873L203.983 128.247L198.729 127.943L195.985 125.724Z" fill="#FEFEFE"/>
<path d="M194.96 125.016L197.135 122.115L206.538 123.944L204.927 129.515L198.242 129.125L194.282 125.924L194.963 125.014L194.96 125.016ZM198.231 124.794L197.69 125.518L199.218 126.753L203.038 126.975L203.379 125.793L198.231 124.791V124.794Z" fill="#009A99"/>
<path d="M142.333 115.241L143.804 118.525L137.313 125.297L133.167 121.097L136.97 115.809L141.869 114.21L142.333 115.244V115.241ZM140.836 118.039L140.473 117.225L138.573 117.844L136.403 120.861L137.279 121.75L140.833 118.039H140.836Z" fill="url(#paint10_linear)"/>
<path d="M95.685 71.0433L103.469 67.6932L103.814 70.6723L97.1879 74.8388L95.685 71.0433Z" fill="#FEFEFE" stroke="url(#paint11_linear)" stroke-width="2"/>
<path d="M154.534 144.243L150.952 130.121L160.123 134.63L155.61 148.489L154.532 144.243H154.534ZM154.709 134.682L155.914 139.43L157.081 135.848L154.712 134.682H154.709Z" fill="#009A99"/>
<path d="M172.766 122.221L174.228 120.088L172.322 120.551L172.766 122.224V122.221ZM178.128 118.809L171.733 128.154L169.243 118.796L179.911 116.204L178.128 118.809Z" fill="#009A99"/>
</g>
<defs>
<linearGradient id="paint0_linear" x1="30.6793" y1="105.987" x2="211.397" y2="105.987" gradientUnits="userSpaceOnUse">
<stop stop-color="#009846"/>
<stop offset="1" stop-color="#009A9C"/>
</linearGradient>
<linearGradient id="paint1_linear" x1="126.561" y1="90.2151" x2="190.097" y2="90.2151" gradientUnits="userSpaceOnUse">
<stop stop-color="#009846"/>
<stop offset="1" stop-color="#009A9C"/>
</linearGradient>
<linearGradient id="paint2_linear" x1="168.439" y1="88.4602" x2="185.688" y2="88.4602" gradientUnits="userSpaceOnUse">
<stop stop-color="#009846"/>
<stop offset="1" stop-color="#009A9C"/>
</linearGradient>
<linearGradient id="paint3_linear" x1="140.315" y1="87.0783" x2="160.5" y2="87.0783" gradientUnits="userSpaceOnUse">
<stop stop-color="#009846"/>
<stop offset="1" stop-color="#009A9C"/>
</linearGradient>
<linearGradient id="paint4_linear" x1="160.652" y1="101.845" x2="169.56" y2="101.845" gradientUnits="userSpaceOnUse">
<stop stop-color="#009846"/>
<stop offset="1" stop-color="#009A9C"/>
</linearGradient>
<linearGradient id="paint5_linear" x1="72.9841" y1="55.6814" x2="92.6146" y2="55.6814" gradientUnits="userSpaceOnUse">
<stop stop-color="#009846"/>
<stop offset="1" stop-color="#009A9C"/>
</linearGradient>
<linearGradient id="paint6_linear" x1="146.965" y1="184.021" x2="167.723" y2="184.021" gradientUnits="userSpaceOnUse">
<stop stop-color="#009846"/>
<stop offset="1" stop-color="#009A9C"/>
</linearGradient>
<linearGradient id="paint7_linear" x1="137.779" y1="193.182" x2="150.671" y2="193.182" gradientUnits="userSpaceOnUse">
<stop stop-color="#009846"/>
<stop offset="1" stop-color="#009A9C"/>
</linearGradient>
<linearGradient id="paint8_linear" x1="106.971" y1="186.451" x2="131.713" y2="186.451" gradientUnits="userSpaceOnUse">
<stop stop-color="#009846"/>
<stop offset="1" stop-color="#009A9C"/>
</linearGradient>
<linearGradient id="paint9_linear" x1="136.978" y1="34.3945" x2="147.54" y2="34.3945" gradientUnits="userSpaceOnUse">
<stop stop-color="#009846"/>
<stop offset="1" stop-color="#009A9C"/>
</linearGradient>
<linearGradient id="paint10_linear" x1="133.167" y1="119.753" x2="143.803" y2="119.753" gradientUnits="userSpaceOnUse">
<stop stop-color="#009846"/>
<stop offset="1" stop-color="#009A9C"/>
</linearGradient>
<linearGradient id="paint11_linear" x1="94.3975" y1="71.2849" x2="104.88" y2="71.2849" gradientUnits="userSpaceOnUse">
<stop stop-color="#009846"/>
<stop offset="1" stop-color="#009A9C"/>
</linearGradient>
</defs>
</svg>
