<svg width="372" height="81" viewBox="0 0 372 81" fill="none" xmlns="http://www.w3.org/2000/svg">
<path d="M255.6 18.3999H254.6V61.6999H255.6V18.3999Z" fill="black"/>
<path d="M272.4 45H269V35H274.9V36H270.2V39.2H272.4C274.4 39.2 275.7 40 275.7 42V42.1C275.6 44 274.4 45 272.4 45ZM272.3 44.1C273.8 44.1 274.4 43.4 274.4 42.2V42.1C274.4 40.9 273.7 40.2 272.2 40.2H270.1V44.1H272.3Z" fill="black"/>
<path d="M276.8 43C276.8 41.3 278.6 40.7 280.5 40.7H281.6V40.2C281.6 39 281.2 38.5 280 38.5C279 38.5 278.4 38.9 278.3 39.8H277.1C277.3 38.1 278.6 37.5 280 37.5C281.4 37.5 282.7 38.1 282.7 40.1V45H281.5V44.1C281 44.8 280.3 45.2 279.2 45.2C277.8 45.2 276.8 44.5 276.8 43ZM281.5 42.5V41.6H280.5C279 41.6 278 42 278 43C278 43.8 278.4 44.2 279.4 44.2C280.5 44.2 281.5 43.6 281.5 42.5Z" fill="black"/>
<path d="M289.4 41.8002H285.8V45.0002H284.6V37.7002H285.8V40.8002H289.4V37.7002H290.6V45.0002H289.4V41.8002Z" fill="black"/>
<path d="M293.7 41.3002V45.0002H292.5V37.7002H293.7V41.1002L296.7 37.7002H298.1L295 41.1002L298.4 45.0002H297L293.7 41.3002Z" fill="black"/>
<path d="M40.7 18.5C28.7 18.5 19 28.2 19 40.2C19 52.2 28.7 61.9 40.7 61.9C52.7 61.9 62.4 52.2 62.4 40.2C62.4 28.2 52.7 18.5 40.7 18.5ZM37.7 49.4L36.1 54.1C30.1 52.1 26.1 46.4 26.1 40C26.1 33.6 30.1 28 36.2 25.9L37.8 30.6C33.8 31.9 31.2 35.7 31.2 39.9C31 44.3 33.7 48.1 37.7 49.4ZM45.1 54.2L43.6 49.4C47.7 48.1 50.4 44.3 50.4 40C50.4 35.7 47.7 32 43.7 30.7L45.3 25.9C51.4 27.9 55.5 33.6 55.5 40C55.5 46.6 51.3 52.3 45.1 54.2Z" fill="#00BEF0"/>
<path d="M239.4 44.1001L241.8 47.0001C239.3 49.6001 236.2 50.3001 233.7 50.3001C231.3 50.3001 229.6 49.9001 228.1 49.2001C224.9 47.6001 223.3 44.4001 223.3 40.5001C223.3 34.6001 227.3 30.2001 233.2 30.2001C239.8 30.2001 243 35.1001 242.5 41.5001H227.5C227.6 43.1001 228.5 44.6001 229.8 45.4001C230.9 46.1001 232.2 46.4001 233.9 46.4001C235.8 46.4001 237.7 45.8001 239.4 44.1001ZM227.6 38.0001H238.2C237.9 35.7001 236 33.7001 233 33.7001C229.9 33.7001 228 35.9001 227.6 38.0001ZM126.9 49.7001H132.3L123.8 39.8001L132.2 30.5001H126.9L120.5 37.9001H118.6V30.5001H114.5V49.6001H118.6V42.0001H120.5L126.9 49.7001ZM144.5 34.0001C141 34.0001 138.7 36.7001 138.7 40.1001C138.7 43.5001 141 46.2001 144.5 46.2001C148 46.2001 150.2 43.6001 150.2 40.1001C150.3 36.8001 148.1 34.0001 144.5 34.0001ZM145.2 30.1001C150.6 30.1001 154.6 34.3001 154.6 40.1001C154.6 45.8001 150.7 50.2001 145.2 50.2001C142.6 50.2001 140.5 49.3001 139 47.7001V57.7001H134.8V30.6001H138.9V32.9001C140.5 31.0001 142.6 30.1001 145.2 30.1001ZM199.7 30.6001H182.6V34.4001H189.1V49.7001H193.3V34.4001H199.8V30.6001H199.7ZM111.6 30.6001H94.4V34.4001H100.9V49.7001H105.1V34.4001H111.6V30.6001ZM89.4 40.2001C89.4 36.6001 86.9 34.0001 83.4 34.0001C80 34.0001 77.4 36.6001 77.4 40.2001C77.4 43.8001 79.9 46.4001 83.4 46.4001C86.8 46.4001 89.4 43.8001 89.4 40.2001ZM73.1 40.2001C73.1 34.5001 77.5 30.2001 83.4 30.2001C89.2 30.2001 93.7 34.5001 93.7 40.2001C93.7 45.9001 89.3 50.3001 83.4 50.3001C77.6 50.2001 73.1 45.9001 73.1 40.2001ZM220 30.6001V49.7001H215.9V37.4001L205.9 49.7001H202.6V30.6001H206.7V42.9001L216.7 30.6001H220ZM179.7 49.7001H175.6V30.6001H179.7V49.7001ZM169.1 43.2001C169.1 41.5001 167.9 40.3001 166.3 40.3001H162.1V46.2001H166.3C167.9 46.2001 169.1 44.9001 169.1 43.2001ZM173.2 43.2001C173.2 47.0001 170.4 49.7001 166.4 49.7001H158V30.6001H162.1V36.8001H166.8C170.8 36.8001 173.2 39.4001 173.2 43.2001Z" fill="black"/>
</svg>
