<svg width="229" height="52" viewBox="0 0 229 52" fill="none" xmlns="http://www.w3.org/2000/svg">
<path fill-rule="evenodd" clip-rule="evenodd" d="M57.2607 24.3222L58.0133 21.9042L55.5218 21.9838C55.3127 21.9838 53.7814 21.9379 52.299 20.8596C52.4105 20.8688 52.5189 20.8856 52.6349 20.8856C54.1616 20.8856 55.6409 19.9619 56.2317 18.6405L57.3034 16.2546C55.96 16.2729 54.731 16.1032 54.731 16.1032C54.7203 16.1032 53.7524 15.9762 52.6334 14.8276C51.8303 14.0064 50.8365 13.5705 49.7602 13.5705C49.3341 13.5721 48.9108 13.6397 48.5053 13.7708C48.5617 13.5781 48.6152 13.3808 48.6472 13.1789C48.9877 10.946 47.5572 9.24529 47.5572 9.24529L45.684 6.91753L44.5222 9.65212C44.5176 9.66129 44.2245 10.3036 43.7008 10.6156C43.5421 9.81118 43.1528 8.90729 42.3223 8.04318C40.7544 6.41588 38.8476 6.17118 37.8491 6.17118C37.3865 6.17118 37.0553 6.22318 36.9759 6.23541L34.7149 6.682C34.8446 6.17576 35.124 5.29024 35.6309 4.49647L36.8797 2.54647L33.7393 2.90588L32.7394 0.773882L30.802 1.77565L29.0112 0L27.225 1.77412L25.2847 0.773882L24.2862 2.90435L21.1474 2.54494L22.3977 4.498C22.9061 5.29176 23.1824 6.17271 23.3122 6.67894L21.155 6.25071L21.0802 6.24C20.7823 6.19298 20.4811 6.16996 20.1795 6.17118C19.181 6.17118 17.2742 6.41588 15.7109 8.04318C14.8789 8.90576 14.4881 9.81118 14.3293 10.6156C13.8087 10.3052 13.5171 9.67506 13.5171 9.67506L12.3538 6.92212L10.45 9.26824C10.218 9.56953 9.07145 11.1693 9.38137 13.1835C9.41495 13.3839 9.46686 13.5796 9.52335 13.7724C9.11899 13.6408 8.69663 13.5732 8.27148 13.572C7.19365 13.572 6.19979 14.0079 5.39524 14.8292C4.28077 15.9732 3.31745 16.1032 3.32508 16.1032C3.32508 16.1032 2.30679 16.2867 0.729747 16.2561L1.79689 18.642C2.38923 19.9634 3.8701 20.8872 5.39371 20.8872C5.50974 20.8872 5.61813 20.8704 5.73111 20.8612C4.25024 21.9409 2.72052 21.9853 2.53579 21.9853L0 21.9042L0.767913 24.3207C1.15569 25.5687 2.44725 27.6319 4.92045 27.8536C4.65175 28.9854 4.05483 30.2548 2.74495 30.8024L0.854933 31.5824L1.88543 33.384C2.46709 34.3552 3.83346 35.4915 5.77691 35.4915C6.19674 35.4915 6.60283 35.4472 6.99519 35.3646C7.09442 35.8081 7.21961 36.2516 7.36769 36.6952C7.94477 38.4234 7.44708 39.6286 7.44097 39.6424L6.50971 41.6031L8.59055 42.1536C8.61651 42.1628 9.24702 42.3372 10.0333 42.3372C10.3905 42.3372 10.7325 42.2989 11.0531 42.2225C11.2943 42.1659 11.5263 42.0894 11.7508 41.9992C12.021 42.484 12.3477 42.9275 12.7293 43.3236C14.0637 44.6986 15.9567 45.3945 18.3505 45.3945H18.3582L20.068 45.3715L16.5353 46.8459L19.2177 48.1474C20.1932 48.6246 21.3474 49.1874 22.526 49.6187L22.1901 50.5379L23.1137 50.9615C23.1962 50.9998 24.9763 51.7966 27.9304 51.9664C27.9304 51.9664 28.6433 52 29.0357 52C29.4296 52 30.1349 51.9648 30.1349 51.9648C33.0691 51.7905 34.834 50.9998 34.9164 50.9615L35.8431 50.5379L35.5057 49.6172C36.7148 49.1736 37.9132 48.5864 38.8491 48.1291L41.4811 46.8444L37.959 45.3715L39.6765 45.3945C42.0734 45.3945 43.9665 44.6971 45.2993 43.3221C45.6794 42.9275 46.0046 42.4855 46.2763 41.9992C46.8212 42.2249 47.4057 42.3393 47.9953 42.3356C48.7694 42.3356 49.406 42.1644 49.4228 42.1582L51.5143 41.6031L50.6029 39.6775C50.5815 39.6286 50.0838 38.4234 50.6609 36.6921C50.809 36.2516 50.9327 35.8066 51.0334 35.3646C51.4258 35.4472 51.8364 35.49 52.2593 35.4915C54.7356 35.4915 55.9233 33.7434 56.1523 33.3641L57.1737 31.5808L55.2837 30.8024C53.9707 30.2564 53.3753 28.9869 53.1097 27.8567C55.5508 27.6426 56.8592 25.5779 57.2622 24.3238L57.2607 24.3222Z" fill="#FFFFFE"/>
<path fill-rule="evenodd" clip-rule="evenodd" d="M29.0112 7.40685C27.0113 7.40838 25.5106 8.06603 25.1839 8.84144L29.0112 10.3556L32.8401 8.84144C32.5165 8.06603 31.0158 7.40838 29.0112 7.40685ZM29.0525 47.5371H28.9761C27.764 47.5447 26.0923 47.2954 25.2892 47.0584L24.3213 49.6874C24.9595 49.9153 27.1212 50.3527 29.0158 50.3527C30.9074 50.3527 33.0707 49.9153 33.7073 49.6874L32.7409 47.0599C31.9333 47.2954 30.2646 47.5447 29.0525 47.5371ZM36.3759 44.9218C35.6553 45.3317 34.0477 45.9465 33.1119 46.231L33.8966 48.4027C35.3439 48.0051 36.5392 47.5417 37.5255 47.0446L35.895 46.5017L36.3759 44.9218ZM21.6512 44.9218L22.1336 46.5017L20.5016 47.0446C21.4863 47.5417 22.6863 48.0051 24.129 48.4012L24.9152 46.2294C23.9809 45.945 22.3702 45.3317 21.6512 44.9218ZM29.0112 4.89403C30.5211 4.89403 31.9989 5.2565 33.1378 5.89121C33.2416 5.5425 33.3867 5.11732 33.5836 4.67227L33.1531 4.72427L32.7027 4.77015L32.5119 4.35874L31.9348 3.13979L30.8875 3.68732L30.4784 3.89532L30.1517 3.57415L29.0112 2.44238L27.8739 3.57415L27.5487 3.89532L27.1411 3.68732L26.0877 3.13979L25.5182 4.35874L25.3243 4.77168L24.8724 4.72427L24.445 4.67227C24.6419 5.11732 24.7854 5.5425 24.8908 5.89121C26.0327 5.2565 27.5105 4.89403 29.0128 4.89403H29.0112ZM52.041 18.9906C52.238 19.0579 52.4364 19.0885 52.6334 19.0885C53.4883 19.0885 54.3127 18.5333 54.5951 17.9001C54.5951 17.9001 53.0303 17.8053 51.3479 16.0909C50.8136 15.5372 50.2457 15.3705 49.7602 15.3705C49.0045 15.3705 48.4366 15.7697 48.4366 15.7697C50.4701 16.8556 50.8838 18.5991 52.041 18.9906ZM5.39371 19.087C5.59218 19.087 5.79064 19.0579 5.98148 18.9891C7.14174 18.5976 7.56005 16.8556 9.58899 15.7712C9.58899 15.7712 9.02107 15.3705 8.26995 15.3705C7.78142 15.3705 7.21502 15.5357 6.67764 16.0924C4.99678 17.8053 3.43347 17.9017 3.43347 17.9017C3.71438 18.5333 4.5403 19.0885 5.39371 19.0885V19.087Z" fill="#FFFFFE"/>
<path fill-rule="evenodd" clip-rule="evenodd" d="M51.4288 31.4982C49.8564 30.7182 48.864 28.6535 48.6228 27.9102C48.3633 32.006 46.371 34.8476 44.0428 37.5822C42.8337 39.0015 42.4123 40.381 42.4123 40.381C42.4123 40.381 42.6459 38.818 43.6901 37.5455C45.8626 34.9271 47.9266 31.6664 48.0808 27.8949C48.1862 25.2643 47.5129 23.1308 46.4595 21.372C47.0488 23.2027 46.9648 25.4463 44.9664 27.5401C44.9664 27.5401 48.9465 22.7561 43.3833 17.8497C41.1574 15.9838 38.7208 14.8307 37.4675 14.014C41.9971 15.4975 44.2107 13.8641 44.2107 13.8641C42.7635 15.1228 40.8902 15.1014 39.7284 14.9194C40.0445 15.0738 40.3727 15.236 40.7238 15.4241C44.5451 17.5071 47.977 20.9346 48.5633 25.6788V25.6421C49.4503 30.3022 51.4288 31.4982 51.4288 31.4982ZM52.5921 26.0688C52.6273 26.0718 52.6578 26.0718 52.6929 26.0718C54.8226 26.0718 55.5432 23.7823 55.5432 23.7823H55.502C55.1111 23.7823 51.9448 23.6906 49.7067 20.8351C48.235 18.9586 47.0274 17.3083 44.6428 16.6598L44.4077 16.617L44.3573 16.3769C44.2917 16.0114 44.5405 15.6688 45.1084 15.3002C48.3984 13.1376 46.1618 10.3785 46.1618 10.3785C46.1618 10.3785 45.2244 12.584 43.1222 12.584L42.965 12.5809C42.7268 12.5687 42.4963 12.561 42.2642 12.5106L41.8765 12.4341C41.8765 12.4341 42.4764 10.7976 41.0292 9.29726C39.9407 8.16243 38.614 7.96973 37.8491 7.96973C37.4629 7.96973 37.2186 8.0202 37.2186 8.0202C37.9453 8.97302 38.4705 10.556 37.6308 11.5317C36.9056 12.3698 35.1347 12.4111 35.1347 13.6622C35.1347 14.1914 35.6278 14.8093 36.5133 15.3644C39.1758 17.0468 41.8185 19.2797 42.9177 22.2728C44.2917 26.0045 42.7436 28.4822 40.5361 29.903C40.5361 29.903 41.2292 30.5423 42.2322 30.6249C42.4368 30.6448 42.6367 30.654 42.823 30.654C44.9435 30.654 46.0397 29.6553 46.0397 29.6553C46.0397 29.6553 45.858 31.0348 44.7573 32.3149C43.7375 33.4956 42.4016 34.193 40.3635 34.2221C40.3635 34.2221 40.2994 35.1703 41.2017 35.9931C41.7803 36.5116 43.1131 36.6814 43.1131 36.6814C43.1131 36.6814 40.6154 37.1876 40.3391 40.8903C40.1895 42.8969 39.6796 43.5928 39.6796 43.5928H39.7239C45.5191 43.5928 45.371 38.6038 45.371 38.6038C45.371 38.6038 45.774 40.0813 47.3908 40.4667C47.5862 40.5187 47.7954 40.5386 47.9938 40.5386C48.5129 40.5386 48.9663 40.4162 48.9663 40.4162C48.9663 40.4162 48.119 38.6237 48.9587 36.117C49.6564 34.0355 49.5434 32.4938 49.5434 32.4938C49.5434 32.4938 50.3235 33.6791 52.2609 33.6898H52.2807C52.7383 33.6969 53.1903 33.5882 53.5949 33.3738C53.9995 33.1594 54.3435 32.8462 54.5951 32.4633C50.7311 30.8528 51.1128 25.6574 51.1128 25.6574C51.1128 25.6574 51.6135 26.0336 52.5921 26.0703V26.0688ZM13.9843 37.5822C11.6561 34.8476 9.6638 32.006 9.40121 27.9102C9.16153 28.655 8.17072 30.7197 6.59978 31.4982C6.59978 31.4982 8.57529 30.3022 9.46228 25.6421V25.6788C10.05 20.9346 13.482 17.5071 17.3032 15.4256C17.6544 15.2344 17.9841 15.0738 18.2971 14.9209C17.1368 15.1014 15.2621 15.1228 13.8163 13.8656C13.8163 13.8656 16.03 15.4975 20.5581 14.014C19.3062 14.8307 16.8697 15.9838 14.6453 17.8497C9.08062 22.7561 13.0606 27.5401 13.0606 27.5401C11.0607 25.4448 10.9783 23.2042 11.5676 21.372C10.5142 23.1308 9.83937 25.2643 9.94929 27.8964C10.1004 31.6664 12.163 34.9271 14.3308 37.547C15.3812 38.8164 15.6178 40.3795 15.6178 40.3795C15.6178 40.3795 15.1903 39.0015 13.9843 37.5822ZM14.9155 36.6798C14.9155 36.6798 16.2483 36.5116 16.8269 35.9916C17.7277 35.1703 17.6651 34.2221 17.6651 34.2221C15.6254 34.193 14.2911 33.4956 13.2667 32.3149C12.1706 31.0348 11.9874 29.6553 11.9874 29.6553C11.9874 29.6553 13.0835 30.654 15.201 30.654C15.3919 30.654 15.5903 30.6448 15.7934 30.6249C16.4199 30.5613 17.0127 30.3097 17.4941 29.903C15.2835 28.4822 13.7354 26.0046 15.1079 22.2713C16.2071 19.2813 18.8482 17.0468 21.5138 15.3629C22.3977 14.8093 22.8893 14.1914 22.8893 13.6622C22.8893 12.4111 21.1214 12.3698 20.3963 11.5317C19.5566 10.556 20.0833 8.97302 20.8085 8.0202C20.8085 8.0202 20.5657 7.96973 20.178 7.96973C19.4146 7.96973 18.0879 8.16243 16.9979 9.29726C15.5476 10.7991 16.1506 12.4356 16.1506 12.4356L15.7628 12.5121C15.5323 12.5595 15.2987 12.5687 15.0606 12.5824L14.9079 12.584C12.8011 12.584 11.8653 10.3801 11.8653 10.3801C11.8653 10.3801 9.63174 13.1376 12.9217 15.3002C13.4866 15.6688 13.7354 16.0129 13.6698 16.3769L13.6194 16.6155L13.3797 16.6583C10.9996 17.3083 9.79204 18.9586 8.31728 20.8351C6.07919 23.6906 2.91593 23.7823 2.52358 23.7823H2.48083C2.48083 23.7823 3.20295 26.0718 5.33417 26.0718C5.36776 26.0718 5.39829 26.0718 5.43493 26.0688C6.41353 26.0336 6.9158 25.6574 6.9158 25.6574C6.9158 25.6574 7.29441 30.8528 3.43195 32.4633C3.43195 32.4633 4.13574 33.6914 5.7479 33.6914H5.76622C7.70509 33.6791 8.48369 32.4938 8.48369 32.4938C8.48369 32.4938 8.37072 34.037 9.06535 36.117C9.90501 38.6253 9.06229 40.4147 9.06229 40.4147C9.06229 40.4147 9.51266 40.537 10.0333 40.537C10.2348 40.537 10.4409 40.5187 10.6348 40.4667C12.25 40.0813 12.6545 38.6038 12.6545 38.6038C12.6545 38.6038 12.5065 43.5928 18.3032 43.5928H18.346C18.346 43.5928 17.8376 42.8969 17.6895 40.8903C17.4147 37.1891 14.914 36.6798 14.914 36.6798H14.9155ZM27.7044 18.2963H30.4372V19.2369C30.1166 18.8423 29.4906 18.9234 29.4906 18.9234V20.28C29.4906 20.28 29.512 20.9468 29.7471 21.2358H28.3945C28.6311 20.9468 28.651 20.28 28.651 20.28V18.9234C28.651 18.9234 28.0281 18.8423 27.7044 19.2369V18.2963ZM24.7274 18.437C24.8221 18.5395 24.9152 18.6511 25.0053 18.7628C25.0266 18.7888 25.0465 18.8117 25.0679 18.8423C25.1518 18.9524 25.2358 19.0717 25.3167 19.191L25.3717 19.2721C25.4679 19.4189 25.5595 19.5703 25.6511 19.7278C26.4877 21.1762 27.825 22.0418 29.0112 22.0434C30.2005 22.0418 31.5364 21.1762 32.3745 19.7278C32.4676 19.5673 32.5607 19.4113 32.6585 19.2644C32.7699 19.0934 32.8891 18.9275 33.0157 18.7674C33.1088 18.6511 33.205 18.538 33.3027 18.434C33.3195 18.4187 33.3332 18.4018 33.35 18.3881C33.7775 17.9507 34.2828 17.6173 34.9485 17.4322L34.6523 17.2594H34.637L33.4584 16.5742L32.2508 15.8783L29.0204 17.6433L29.0112 17.6356L29.0067 17.6433L25.7762 15.8783L24.5671 16.5742L23.3885 17.2594H23.3748L23.0771 17.4322C23.7412 17.6157 24.248 17.9461 24.6755 18.385C24.6938 18.4003 24.706 18.4217 24.7274 18.437Z" fill="#FFFFFE"/>
<path fill-rule="evenodd" clip-rule="evenodd" d="M27.9838 12.3164V13.2034L27.8143 13.1239C27.8067 13.1178 27.5563 13.0627 27.1243 12.7171C26.4083 12.1604 26.3945 11.6465 26.3945 11.6465L27.9823 12.3164H27.9838ZM28.7319 16.4718V10.9628L25.2388 9.77295L26.161 15.1106L28.7334 16.4718H28.7319ZM30.0448 12.3164L31.6325 11.6465C31.6325 11.6465 31.6203 12.1604 30.9013 12.7171C30.4692 13.0612 30.2204 13.1178 30.2127 13.1239L30.0448 13.2019V12.3164ZM31.8661 15.1121L32.7836 9.77448L29.2922 10.9628V16.4718L31.8661 15.1106V15.1121ZM23.7916 29.2424C24.132 29.3647 24.5442 29.3907 24.7564 29.3907C24.7641 29.3647 24.7763 29.3326 24.787 29.2928C24.8037 29.2317 24.8221 29.1674 24.8358 29.1001C24.8953 28.7942 24.9152 28.4501 24.9213 28.2268C24.7261 28.1106 24.567 27.9422 24.4618 27.7405C24.332 27.4667 24.1473 27.3382 23.8771 27.3382C23.5259 27.3382 23.1488 27.5524 22.9855 27.6502C22.8572 28.4119 23.4175 29.1032 23.7916 29.2408V29.2424ZM31.5196 26.3197C30.8723 27.0278 29.6005 28.262 29.5395 28.3232L29.4631 28.3997L25.448 28.337C25.4447 28.6697 25.4016 29.0009 25.3198 29.3234L25.2877 29.4504L30.0616 30.313C30.5578 29.9642 31.9241 28.9625 32.4554 28.5694C32.0692 28.0035 32.0325 27.3321 32.1195 26.8611C31.8903 26.716 31.6874 26.5329 31.5196 26.3197Z" fill="#FFFFFE"/>
<path fill-rule="evenodd" clip-rule="evenodd" d="M32.0646 21.4747C31.1395 22.3954 30.2525 22.7364 29.4601 22.816C29.3151 22.8317 29.1694 22.8399 29.0235 22.8404H29.0037C28.7122 22.8404 28.4216 22.8096 28.1365 22.7487C28.0846 22.9551 28.019 23.388 28.2067 23.7979C28.3747 24.1695 28.7151 24.4463 29.2128 24.6314L29.3808 24.6971L29.3823 24.8776C29.3823 24.9311 29.422 26.1027 30.6952 26.4284C30.9028 26.2143 31.0921 26.0201 31.2295 25.8564C30.97 25.2431 31.1074 24.6161 31.4845 24.3087C31.4692 24.3744 31.3013 25.9115 32.5303 26.4835L32.7333 26.5799L32.6722 26.7955C32.6524 26.8613 32.2433 28.3494 33.7318 28.903L33.9943 29.004L33.8768 29.2594C33.8508 29.316 33.2676 30.6664 34.6416 31.4342H37.6202V29.059C36.5607 28.929 36.1134 28.0741 35.9973 27.4684C35.5042 27.3843 35.1241 27.1717 34.863 26.8246C34.2371 25.9987 34.7745 25.2416 34.7821 25.2003C34.7806 25.2064 34.7821 26.0109 35.2767 26.5095C35.5225 26.7481 35.8126 26.9347 36.2538 26.976L36.4691 26.9959L36.4874 27.2176C36.492 27.265 36.6095 28.3555 37.6202 28.5268L37.6186 23.6786C37.6186 22.9261 37.837 22.1706 38.0995 21.4731H32.0646V21.4747ZM24.0451 23.6969L23.9657 26.7833L24.3168 26.8383L25.1717 23.8759L24.7366 22.9643L24.0466 23.6969H24.0451ZM25.8984 35.1277C25.8749 35.127 25.8519 35.1215 25.8306 35.1115C25.8093 35.1015 25.7903 35.0872 25.7747 35.0696C25.7592 35.052 25.7473 35.0314 25.74 35.009C25.7326 34.9867 25.7299 34.9631 25.732 34.9396C25.7334 34.9164 25.7393 34.8937 25.7495 34.8729C25.7598 34.852 25.774 34.8335 25.7915 34.8182C25.809 34.803 25.8294 34.7914 25.8514 34.7841C25.8734 34.7769 25.8967 34.7741 25.9198 34.776C26.0206 34.7806 26.0908 34.8677 26.0877 34.9626C26.0842 35.0095 26.0624 35.0532 26.0269 35.0841C25.9915 35.115 25.9453 35.1307 25.8984 35.1277ZM33.4737 37.8608C33.4997 37.8608 33.5302 37.8639 33.5577 37.8715C34.092 38.0244 34.2249 39.9484 35.1577 40.1197C35.2493 40.1396 35.3348 40.1442 35.408 40.1442C35.6783 40.1442 35.8386 40.0295 36.0126 39.823C36.0126 39.823 35.5424 39.0843 35.1912 38.5842C34.7256 37.9296 34.3638 37.1389 33.4951 37.1389C33.4737 37.1389 33.4493 37.1389 33.4264 37.142C33.261 37.1486 33.101 37.2028 32.9654 37.298C32.6754 37.1058 32.336 37.0022 31.9883 36.9997C31.4463 36.9997 31.0219 37.2506 30.8097 37.2506H30.8021L28.8632 37.0579C28.5594 37.0273 28.3197 36.7214 28.2327 36.6021L28.1991 36.5501C28.1991 36.4966 28.1991 36.443 28.1961 36.3956C28.1304 34.8035 26.903 34.1229 26.4648 34.1107C26.4648 34.1107 26.5167 33.8079 26.3992 33.6931L25.9717 34.2131L24.5672 33.5066L25.5687 34.6811L24.7214 35.637C24.6145 35.7456 24.6282 35.8924 24.6725 35.9551L25.0389 36.2794L25.503 35.9964C25.5259 35.9796 25.5687 35.9735 25.6206 35.9735C25.7488 35.9735 25.9412 36.0071 26.1137 36.0071C26.3045 36.0071 26.4679 35.9674 26.4877 35.7884C26.4297 36.3788 25.8832 37.405 26.2419 38.211L26.5076 38.8197L24.7931 38.572L23.9901 39.9316C23.7428 40.3843 23.7031 40.8737 23.9412 41.1399L24.242 41.5176C24.242 41.5176 24.6634 41.0695 24.7565 40.7743L24.6206 40.6244C24.5061 40.4975 24.5122 40.3843 24.5824 40.2482L25.0862 39.4101L27.1091 39.8888L27.2159 39.7053C27.3533 39.4759 27.5518 39.4086 27.7686 39.4086C27.8587 39.4086 27.9503 39.4193 28.0449 39.4346C28.4205 39.5095 29.0388 39.6089 29.6571 39.6089C30.3364 39.6089 31.0097 39.4866 31.3685 39.0843C32.1013 40.1748 33.5882 40.3476 33.4707 40.9028L33.0799 42.7717C33.3394 42.7595 33.5882 42.7427 33.8249 42.7106L34.1974 40.7667C34.2276 40.6016 34.254 40.4359 34.2768 40.2696C34.1333 40.1228 33.7867 39.8154 33.5898 39.4407C33.3287 38.9344 33.4707 38.6699 33.2264 38.0122C33.2264 38.0122 33.3028 37.8593 33.4737 37.8593V37.8608Z" fill="#FFFFFE"/>
<path fill-rule="evenodd" clip-rule="evenodd" d="M23.1335 39.627C23.1335 39.627 23.8053 39.3517 23.8663 39.1529L23.7747 38.9296C23.7121 38.7828 23.7198 38.6237 23.8434 38.5381L24.5671 38.0349L25.7777 38.2689C25.7777 38.2689 25.5579 37.9936 25.5793 37.6265L24.4251 37.3818L23.3351 38.0471C23.1449 38.1884 23.0074 38.3894 22.9446 38.6181C22.8818 38.8468 22.8972 39.09 22.9885 39.3089L23.1335 39.6285V39.627ZM31.6936 42.796C31.9088 42.7868 32.15 42.7837 32.4111 42.7837C32.4111 42.7837 33.034 40.9561 33.0691 40.898C32.6065 40.6818 32.155 40.4424 31.7165 40.1807C31.9012 40.459 32.35 40.7756 32.2615 41.0203L31.6936 42.796Z" fill="#FFFFFE"/>
<path fill-rule="evenodd" clip-rule="evenodd" d="M37.6201 31.9572H20.4069V38.4557C20.4069 41.1138 22.3229 42.7763 25.1518 42.7763C27.5136 42.7763 28.1364 42.868 29.0143 43.7444C29.6204 43.1372 30.1211 42.9124 31.1516 42.8267L31.1745 42.7273L31.7165 41.0434C31.6859 41.0052 30.8005 39.9943 30.8005 39.9943C30.4493 40.112 30.1532 40.1319 29.6555 40.1319C29.1471 40.1319 28.5715 40.0707 27.9471 39.9545C27.8886 39.9406 27.8287 39.9334 27.7685 39.9331C27.6922 39.9331 27.6876 39.9392 27.6662 39.9774L27.5594 40.1564L27.3609 40.4837L26.9899 40.3965L25.3381 40.0065L25.1106 40.3812L25.1457 40.4225L25.3457 40.6443L25.2571 40.9348C25.135 41.3126 24.7411 41.7546 24.6205 41.877L24.2083 42.3205L23.8312 41.8448L23.5488 41.4885C23.2511 41.1551 23.1824 40.6443 23.3503 40.109C23.3454 40.1126 23.3396 40.1147 23.3335 40.1151L22.8679 40.3093L22.6588 39.8505L22.5107 39.5278C22.3685 39.1976 22.3429 38.8288 22.4381 38.4821C22.5333 38.1354 22.7436 37.8315 23.0343 37.6206L24.3625 36.8666L25.6297 37.1159C25.6602 36.9935 25.706 36.5592 25.7411 36.4475C25.7167 36.4445 25.6938 36.4399 25.6693 36.4399L24.9396 36.7121L24.2373 36.2258C24.2373 36.2258 23.9625 35.9597 24.2114 35.6935L24.8907 34.6581L23.1656 32.4864L25.8174 33.5784L25.9945 33.3597L26.3518 32.9284L26.7579 33.3168C26.8646 33.4214 26.9389 33.5548 26.9716 33.7007C27.7013 33.9867 29.0112 34.8294 29.1272 36.1998L28.7181 36.3634V36.3741C28.8112 36.4858 28.8891 36.5317 28.9135 36.5363L30.8066 36.7228C30.8554 36.7137 30.9134 36.6923 30.9806 36.6739C31.2173 36.5928 31.5699 36.4751 31.9882 36.4751C32.3302 36.4751 32.66 36.5546 32.976 36.7045C33.0935 36.6586 33.2355 36.6265 33.4034 36.6158L33.495 36.6127C34.5072 36.6127 35.011 37.3728 35.4156 37.98C35.4828 38.0855 35.5499 38.1834 35.6202 38.2813C35.9743 38.783 36.4369 39.5155 36.4552 39.5477L36.6644 39.8734L36.4079 40.1732C36.2125 40.4026 35.9148 40.6703 35.408 40.6703C35.2931 40.6693 35.1786 40.6575 35.066 40.6351C34.9621 40.6151 34.8608 40.5838 34.7637 40.5418C34.7482 40.6497 34.7303 40.7573 34.7103 40.8645L34.379 42.6034C36.3636 42.114 37.6247 40.6091 37.6247 38.4557L37.6201 31.9572ZM20.4069 31.4341H33.7958C33.1271 30.7398 33.1378 29.8634 33.3073 29.293C33.1267 29.206 32.9587 29.0949 32.808 28.9626C32.2844 29.3495 30.6875 30.5165 30.2707 30.8101L30.1806 30.8713L24.9259 29.917H24.819C24.6938 29.917 24.5091 29.9124 24.3076 29.8864C24.286 29.983 24.2369 30.0714 24.1663 30.1407C24.0956 30.21 24.0065 30.2573 23.9095 30.2769C23.8126 30.2965 23.7121 30.2875 23.6202 30.251C23.5282 30.2145 23.4488 30.1522 23.3916 30.0714C23.3513 30.0163 23.3225 29.9537 23.3068 29.8872C23.291 29.8208 23.2887 29.7518 23.3 29.6845L23.3198 29.5698C22.7794 29.1874 22.2771 28.331 22.5 27.4286L22.5214 27.3338L22.5977 27.2787C22.6747 27.2261 22.7542 27.1771 22.8359 27.1319L22.4542 27.0707C22.3864 27.0591 22.3258 27.0214 22.2853 26.9657C22.2449 26.91 22.2277 26.8407 22.2374 26.7725C22.2618 26.6287 22.3946 26.5278 22.5366 26.5538L23.445 26.6975L23.529 23.4843L24.8816 22.0466L25.7274 23.8314L24.8358 26.9239L25.6388 27.0508C25.7074 27.0621 25.7687 27.1001 25.8093 27.1566C25.85 27.2131 25.8666 27.2834 25.8556 27.3521C25.8458 27.413 25.8145 27.4684 25.7675 27.5083C25.7204 27.5481 25.6607 27.5697 25.5991 27.5693L25.5579 27.5678L24.903 27.4607C24.9121 27.4821 24.9243 27.4928 24.9335 27.5143C25.0064 27.6409 25.1161 27.7423 25.248 27.8048L29.2524 27.8706C29.4219 27.7039 29.8417 27.291 30.2753 26.8535C29.8979 26.7148 29.5666 26.4734 29.3185 26.1565C29.0704 25.8397 28.9154 25.4598 28.8708 25.0595C28.3212 24.824 27.9395 24.4723 27.7288 24.0134C27.4723 23.4445 27.5639 22.8755 27.6326 22.5987C27.0983 22.4045 26.5365 22.0466 25.9625 21.4746H19.9291C20.1886 22.172 20.4069 22.9276 20.4069 23.6785V31.4326V31.4341Z" fill="#FFE52B"/>
<path fill-rule="evenodd" clip-rule="evenodd" d="M25.9197 34.7759C25.8965 34.774 25.8731 34.7768 25.851 34.7842C25.8289 34.7915 25.8085 34.8032 25.7909 34.8186C25.7734 34.834 25.7592 34.8528 25.749 34.8738C25.7389 34.8949 25.7331 34.9177 25.7319 34.941C25.7301 34.9644 25.7329 34.9878 25.7404 35.01C25.7478 35.0322 25.7597 35.0526 25.7753 35.07C25.7908 35.0875 25.8097 35.1016 25.8309 35.1115C25.8521 35.1214 25.875 35.1269 25.8984 35.1276C25.945 35.1306 25.991 35.1151 26.0264 35.0845C26.0617 35.0539 26.0838 35.0106 26.0877 34.964C26.0902 34.9167 26.0739 34.8705 26.0424 34.8352C26.011 34.8 25.9668 34.7786 25.9197 34.7759ZM33.8981 48.4029L33.1118 46.2311C34.0477 45.9451 35.6553 45.3303 36.3774 44.922L35.8965 46.5019L37.5254 47.0448C36.5392 47.5403 35.3454 48.0037 33.8981 48.4014V48.4029ZM29.0158 50.3529C27.1212 50.3529 24.9594 49.9155 24.3213 49.6876L25.2892 47.0601C26.0922 47.2956 27.7624 47.5449 28.9761 47.5373H29.0524C30.2646 47.5449 31.9333 47.2941 32.7409 47.0601L33.7072 49.6876C33.0691 49.917 30.9073 50.3529 29.0158 50.3529ZM20.5031 47.0448L22.1336 46.5019L21.6512 44.922C22.3702 45.3303 23.9824 45.9467 24.9152 46.2311L24.1289 48.4029C22.6862 48.0053 21.4878 47.5403 20.5031 47.0448ZM37.5987 46.563L36.6064 46.1807L36.8812 45.1529L37.1819 44.0319C37.1819 44.0319 35.4263 44.9893 32.9485 45.7066C32.2462 45.9084 31.7149 46.0017 31.7149 46.0017V46.7649C31.7149 46.7649 30.3898 46.9943 29.0524 46.9943H28.9761C27.6357 46.9943 26.3136 46.7649 26.3136 46.7649V46.0002C26.3136 46.0002 25.7808 45.9084 25.0785 45.7066C22.6038 44.9877 20.8481 44.0319 20.8481 44.0319L21.1443 45.1529L21.4252 46.1807L20.4298 46.563L19.326 46.976C20.5901 47.5893 22.3427 48.4809 23.9457 48.9214L23.5687 49.9583C23.5687 49.9583 25.6022 50.8882 28.9898 50.8974V50.8989H29.0356V50.8974C32.4279 50.8882 34.4614 49.9583 34.4614 49.9583L34.0798 48.9214C35.6843 48.4809 37.4399 47.5908 38.6979 46.976L37.5987 46.563ZM24.874 4.72291L25.3243 4.77185L25.5182 4.35891L26.0861 3.13997L27.1395 3.6875L27.5487 3.89703L29.0112 2.44103L30.1516 3.57279L30.4783 3.89703L30.8875 3.6875L31.9348 3.13997L32.5119 4.35891L32.7027 4.77185L33.1531 4.72291L33.5836 4.67244C33.3866 5.1175 33.2416 5.54115 33.1363 5.89291C31.9989 5.25515 30.5211 4.8942 29.0127 4.8942C27.5105 4.8942 26.0327 5.25515 24.8908 5.89291C24.7676 5.47721 24.6187 5.0696 24.445 4.67244L24.8724 4.72291H24.874ZM29.0112 5.52891C31.031 5.52891 32.6447 6.20185 33.5378 6.91609C33.5378 6.91609 33.8034 5.31479 34.7072 3.90315L33.0813 4.08668L32.231 2.27432L30.5974 3.12009L29.0112 1.54785L27.4311 3.12009L25.7945 2.27432L24.9457 4.0882L23.3198 3.90162C24.2251 5.31479 24.4892 6.91456 24.4892 6.91456C25.3869 6.20032 26.996 5.52891 29.0112 5.52891ZM54.5951 32.4634C54.5951 32.4634 53.8928 33.6915 52.2807 33.6915H52.2608C50.325 33.6793 49.5434 32.494 49.5434 32.494C49.5434 32.494 49.6563 34.0356 48.9602 36.1171C48.1205 38.6254 48.9663 40.4148 48.9663 40.4148C48.9663 40.4148 48.5144 40.5387 47.9938 40.5387C47.7953 40.5387 47.5877 40.5188 47.3908 40.4668C45.774 40.0829 45.371 38.6055 45.371 38.6055C45.371 38.6055 45.5206 43.5929 39.7238 43.5929H39.678C39.678 43.5929 40.1895 42.897 40.3406 40.8904C40.6154 37.1893 43.113 36.68 43.113 36.68C43.113 36.68 41.7803 36.5117 41.2017 35.9933C40.2994 35.172 40.362 34.2222 40.362 34.2222C42.4016 34.1931 43.739 33.4973 44.7573 32.315C45.4135 31.5587 45.8562 30.6405 46.0397 29.6554C46.0397 29.6554 44.9435 30.6541 42.823 30.6541C42.6367 30.6541 42.4383 30.6449 42.2337 30.625C41.2291 30.544 40.536 29.9031 40.536 29.9031C42.7436 28.4823 44.2916 26.0031 42.9192 22.2714C41.82 19.2814 39.1758 17.0469 36.5148 15.3646C35.6293 14.8094 35.1347 14.1915 35.1347 13.6608C35.1347 12.4113 36.9056 12.3715 37.6323 11.5319C38.472 10.5561 37.9453 8.97315 37.2186 8.02032C37.2186 8.02032 37.4628 7.96985 37.8491 7.96985C38.6155 7.96985 39.9406 8.16256 41.0307 9.29738C42.4764 10.7993 41.8764 12.4357 41.8764 12.4357L42.2642 12.5122C42.4963 12.5596 42.7268 12.5703 42.9665 12.5826L43.1222 12.5841C45.2244 12.5841 46.1633 10.3787 46.1633 10.3787C46.1633 10.3787 48.3984 13.1377 45.1084 15.3003C44.542 15.6689 44.2916 16.013 44.3573 16.377L44.4092 16.6171L44.6428 16.6584C47.0274 17.3084 48.235 18.9602 49.7082 20.8353C51.9463 23.6907 55.1126 23.7824 55.5019 23.7824H55.5447C55.5447 23.7824 54.8226 26.072 52.6929 26.072C52.6578 26.072 52.6272 26.072 52.5921 26.0689C51.6151 26.0337 51.1112 25.6575 51.1112 25.6575C51.1112 25.6575 50.7311 30.8529 54.5951 32.4634ZM52.6929 26.7724C55.3035 26.7724 56.1767 24.1067 56.2134 23.9935L56.5034 23.0529L55.5264 23.0835H55.5233C55.1768 23.0835 52.2975 23.007 50.2563 20.4024L50.0624 20.1608C48.7281 18.4586 47.4625 16.8389 45.2 16.1002C45.2904 16.0209 45.3869 15.9488 45.4885 15.8846C46.6885 15.0923 47.3877 14.1303 47.5617 13.0123C47.8198 11.3315 46.7496 9.99173 46.7038 9.93668L45.9771 9.03432L45.5221 10.1049C45.4916 10.1707 44.7283 11.8836 43.1222 11.8836H43.0031C42.8932 11.879 42.7879 11.8744 42.684 11.8653C42.7405 11.1006 42.6016 9.91985 41.5329 8.8095C40.249 7.47432 38.6735 7.27397 37.8491 7.27397C37.4094 7.27397 37.1163 7.32903 37.0842 7.33209L35.9866 7.55079L36.6629 8.4455C37.1942 9.13679 37.6766 10.4108 37.1056 11.0761C36.9224 11.2902 36.5469 11.46 36.1881 11.6328C35.4492 11.9739 34.4385 12.451 34.4385 13.6608C34.4385 14.4439 35.0446 15.2651 36.1438 15.961C39.3926 18.012 41.3986 20.1531 42.2642 22.5161C43.6046 26.15 41.8566 28.2239 40.1574 29.3159L39.3971 29.8068L40.0643 30.4216C40.1544 30.5011 40.9681 31.2215 42.1726 31.3255C42.4016 31.3408 42.6199 31.353 42.8245 31.353C43.5955 31.353 44.2535 31.2307 44.7878 31.0686C44.6281 31.3478 44.442 31.611 44.2321 31.8547C43.2627 32.9834 42.0688 33.4973 40.3513 33.5248L39.7132 33.534L39.6643 34.1763C39.6582 34.3063 39.6109 35.4977 40.733 36.5102C40.9055 36.6662 41.1131 36.7962 41.3314 36.9002C40.5681 37.5884 39.7956 38.7875 39.646 40.84C39.5193 42.5529 39.1116 43.1876 39.1071 43.1953L38.4017 44.275L39.6765 44.2919C41.7818 44.2919 43.3939 43.7107 44.5099 42.5544C45.088 41.9471 45.5194 41.2152 45.771 40.4148C46.3909 40.9444 47.1791 41.235 47.9938 41.2346C48.5892 41.2346 49.0869 41.1076 49.1418 41.0954L49.9556 40.8782L49.5968 40.1166C49.5693 40.0554 48.8915 38.526 49.6212 36.3435C49.9357 35.3999 50.096 34.5556 50.1739 33.8964C50.6868 34.1656 51.3723 34.3859 52.2593 34.3889C54.2745 34.3889 55.1615 32.8794 55.2012 32.8167L55.5981 32.1223L54.8623 31.8195C52.4623 30.8193 51.9311 28.1336 51.8242 26.6807C52.0425 26.722 52.2898 26.7602 52.5692 26.7679L52.6929 26.7724Z" fill="#1A1919"/>
<path fill-rule="evenodd" clip-rule="evenodd" d="M49.7601 15.3706C50.2456 15.3706 50.8135 15.5373 51.3479 16.0925C53.0302 17.8055 54.5951 17.9018 54.5951 17.9018C54.3111 18.5335 53.4867 19.0886 52.6333 19.0886C52.4364 19.0886 52.2364 19.058 52.0425 18.9892C50.8838 18.5977 50.47 16.8557 48.438 15.7713C48.438 15.7713 49.0029 15.3706 49.7601 15.3706ZM48.1067 16.3892C49.0792 16.9092 49.6472 17.6082 50.1448 18.226C50.6334 18.8302 51.096 19.4113 51.8242 19.653C52.0807 19.7417 52.3539 19.7845 52.6333 19.7845C53.7218 19.7845 54.8164 19.1146 55.2317 18.1878L55.6485 17.261L54.6394 17.1998C54.592 17.1998 53.2928 17.079 51.8486 15.5985C51.2532 14.9898 50.5341 14.6717 49.7601 14.6717C48.8136 14.6717 48.1113 15.1458 48.035 15.1947L47.1068 15.8509L48.1067 16.3892ZM48.5632 25.6437V25.6789C47.977 20.9346 44.545 17.5087 40.7238 15.4257C40.3727 15.236 40.0444 15.0739 39.7284 14.921C40.8902 15.1015 42.7634 15.1229 44.2107 13.8657C44.2107 13.8657 41.997 15.4976 37.4674 14.014C38.7193 14.8307 41.1574 15.9839 43.3832 17.8498C48.9449 22.7562 44.9664 27.5402 44.9664 27.5402C46.9663 25.4464 47.0488 23.2043 46.4595 21.372C47.5129 23.1309 48.1846 25.2644 48.0808 27.8965C47.9281 31.6665 45.8625 34.9272 43.6901 37.5471C42.6459 38.8165 42.4138 40.3796 42.4138 40.3796C42.4138 40.3796 42.8352 39.0016 44.0428 37.5838C46.3709 34.8462 48.3632 32.006 48.6228 27.9103C48.864 28.6551 49.8563 30.7198 51.4288 31.4983C51.4288 31.4983 49.4517 30.3023 48.5632 25.6437ZM18.3047 43.5929C12.5079 43.5929 12.656 38.6055 12.656 38.6055C12.656 38.6055 12.2499 40.0829 10.6362 40.4667C10.4391 40.5164 10.2365 40.5406 10.0332 40.5386C9.51414 40.5386 9.06224 40.4163 9.06224 40.4163C9.06224 40.4163 9.90649 38.6238 9.0653 36.1171C8.37219 34.0371 8.48516 32.4939 8.48516 32.4939C8.48516 32.4939 7.70504 33.6792 5.7677 33.6915H5.74785C4.13722 33.6915 3.43342 32.4633 3.43342 32.4633C7.29589 30.8529 6.91728 25.6575 6.91728 25.6575C6.91728 25.6575 6.41348 26.0337 5.43641 26.0704H5.33412C3.2029 26.0704 2.48078 23.7824 2.48078 23.7824H2.52506C2.91894 23.7824 6.08066 23.6906 8.31723 20.8352C9.79046 18.9586 10.9996 17.3084 13.3797 16.6599L13.6193 16.6171L13.6697 16.377C13.7369 16.013 13.4865 15.6689 12.9217 15.3003C9.63169 13.1377 11.8652 10.3802 11.8652 10.3802C11.8652 10.3802 12.7995 12.584 14.9078 12.584L15.0605 12.5825C15.2987 12.5703 15.5323 12.5596 15.7628 12.5106L16.1506 12.4357C16.1506 12.4357 15.549 10.7992 16.9994 9.29734C18.0894 8.16251 19.413 7.96981 20.1779 7.96981C20.5672 7.96981 20.8069 8.02028 20.8069 8.02028C20.0832 8.9731 19.5581 10.556 20.3947 11.5318C21.1214 12.3715 22.8908 12.4112 22.8908 13.6607C22.8908 14.1915 22.3977 14.8093 21.5137 15.3645C18.8497 17.0469 16.207 19.2798 15.1078 22.2729C13.7369 26.0046 15.2849 28.4823 17.494 29.9046C17.494 29.9046 16.7994 30.5439 15.7948 30.625C15.598 30.644 15.4003 30.6537 15.2025 30.654C13.0835 30.654 11.9873 29.6569 11.9873 29.6569C11.9873 29.6569 12.1705 31.0349 13.2667 32.3165C14.2895 33.4972 15.6254 34.1931 17.6635 34.2222C17.6635 34.2222 17.7291 35.1704 16.8269 35.9932C16.2483 36.5132 14.9155 36.6815 14.9155 36.6815C14.9155 36.6815 17.4146 37.1892 17.6894 40.8904C17.839 42.897 18.3459 43.5929 18.3459 43.5929H18.3047ZM18.9199 43.1952C18.9184 43.1876 18.5138 42.5529 18.3841 40.8399C18.2314 38.7875 17.4589 37.5884 16.694 36.9002C16.9154 36.7962 17.1215 36.6662 17.2925 36.5102C18.4146 35.4977 18.3673 34.3078 18.3596 34.1763L18.3169 33.5339L17.6742 33.5247C15.9612 33.4972 14.7659 32.9833 13.7964 31.8546C13.5875 31.6103 13.4014 31.3471 13.2407 31.0685C13.7751 31.2322 14.4285 31.353 15.2025 31.353C15.4086 31.353 15.6254 31.3407 15.8529 31.3255C16.6321 31.2475 17.3688 30.9326 17.9642 30.4231L18.6314 29.8067L17.8711 29.3173C16.1673 28.2238 14.4254 26.1515 15.7643 22.516C16.6299 20.1531 18.6314 18.0135 21.8862 15.961C22.9854 15.2651 23.5869 14.4438 23.5869 13.6607C23.5869 12.451 22.5793 11.9738 21.8404 11.6327C21.4801 11.4599 21.1046 11.2886 20.9229 11.076C20.3504 10.4107 20.8313 9.13675 21.3641 8.44545L22.045 7.55075L20.9412 7.33204C20.9107 7.32746 20.6206 7.27393 20.1779 7.27393C19.355 7.27393 17.781 7.47428 16.4986 8.80946C15.4284 9.91981 15.288 11.102 15.3429 11.8652C15.2391 11.8744 15.1353 11.879 15.0254 11.8836H14.9078C13.2957 11.8836 12.5354 10.1706 12.5064 10.1049L12.053 9.03428L11.3202 9.93663C11.279 9.99169 10.2057 11.3315 10.4683 13.0123C10.6408 14.1287 11.34 15.0923 12.54 15.8845C12.6713 15.9686 12.7614 16.0405 12.827 16.1002C10.5614 16.8389 9.29888 18.4585 7.96457 20.1608L7.77221 20.4024C5.73258 23.007 2.84566 23.085 2.50063 23.085L1.51746 23.0544L1.81668 23.9935C1.8518 24.1066 2.722 26.7724 5.33412 26.7724L5.45931 26.7678C5.73564 26.7602 5.98448 26.7219 6.20432 26.6791C6.09746 28.132 5.56312 30.8192 3.1632 31.8179L2.4304 32.1238L2.82734 32.8166C2.86398 32.8793 3.75555 34.3889 5.7738 34.3889C6.49616 34.3961 7.20955 34.2282 7.85312 33.8995C7.93098 34.5571 8.09281 35.3998 8.4073 36.3435C9.13705 38.5244 8.45768 40.0553 8.43173 40.1165L8.07144 40.8782L8.88515 41.0938C8.94011 41.1091 9.44086 41.2345 10.0332 41.2345C10.8482 41.2366 11.6369 40.9457 12.256 40.4147C12.4774 41.0984 12.8575 41.8707 13.5155 42.5544C14.6361 43.7091 16.2467 44.2918 18.3505 44.2918L19.6252 44.275L18.9199 43.1952Z" fill="#1A1919"/>
<path fill-rule="evenodd" clip-rule="evenodd" d="M6.67769 16.0925C7.21508 15.5373 7.78147 15.3691 8.27001 15.3691C9.02113 15.3691 9.59057 15.7713 9.59057 15.7713C7.56011 16.8572 7.1418 18.5977 5.98153 18.9907C5.79257 19.0563 5.59375 19.0889 5.39377 19.0871C4.54036 19.0871 3.71443 18.5334 3.43353 17.9018C3.43353 17.9018 4.99683 17.8054 6.67769 16.0925ZM5.39377 19.7845C5.67315 19.7845 5.94642 19.7417 6.20595 19.653C6.93265 19.4113 7.39675 18.8317 7.88529 18.226C8.38451 17.6097 8.94632 16.9107 9.92033 16.3907L10.9218 15.8508L9.99056 15.1932C9.91423 15.1458 9.21654 14.6732 8.27001 14.6732C7.49446 14.6732 6.77387 14.9898 6.18 15.5985C4.73425 17.0805 3.43811 17.1998 3.39078 17.2013L2.38318 17.261L2.79538 18.1893C3.21369 19.1146 4.30678 19.7845 5.39377 19.7845ZM9.94781 27.8965C9.84095 25.2644 10.5127 23.1308 11.5661 21.372C10.9798 23.2042 11.0592 25.4464 13.0622 27.5417C13.0622 27.5417 9.08067 22.7546 14.6454 17.8513C16.8712 15.9839 19.3063 14.8307 20.5581 14.014C16.0301 15.4975 13.8179 13.8641 13.8179 13.8641C15.2637 15.1228 17.1369 15.103 18.2987 14.9194C17.9842 15.0739 17.6544 15.2345 17.3033 15.4257C13.482 17.5072 10.0516 20.9346 9.46233 25.6788V25.6437C8.57534 30.3022 6.59983 31.4982 6.59983 31.4982C8.1723 30.7182 9.16158 28.6535 9.40279 27.9102C9.66538 32.006 11.6562 34.8477 13.9828 37.5838C15.1919 39.0015 15.6163 40.3795 15.6163 40.3795C15.6163 40.3795 15.3812 38.818 14.3324 37.5471C12.1645 34.9272 10.1005 31.6665 9.94781 27.8965ZM27.7045 18.2964V19.2385C28.0281 18.8424 28.651 18.9234 28.651 18.9234V20.28C28.651 20.28 28.6312 20.9468 28.3945 21.2359H29.7472C29.512 20.9468 29.4891 20.28 29.4891 20.28V18.9234C29.4891 18.9234 30.1151 18.8424 30.4357 19.2385V18.2964H27.7029H27.7045ZM27.1243 12.7171C27.5564 13.0612 27.8068 13.1193 27.8144 13.1239L27.9823 13.2019V12.3164L26.3946 11.6465C26.3946 11.6465 26.4083 12.1604 27.1243 12.7171ZM30.9013 12.7171C31.6188 12.1604 31.6341 11.6465 31.6341 11.6465L30.0449 12.3164V13.2034L30.2128 13.1239C30.2204 13.1193 30.4693 13.0612 30.9013 12.7171Z" fill="#1A1919"/>
<path fill-rule="evenodd" clip-rule="evenodd" d="M29.0128 10.3573L25.1855 8.84012C25.5106 8.06624 27.0114 7.40859 29.0128 7.40706C31.0158 7.40859 32.5165 8.06624 32.8417 8.84012L29.0128 10.3573ZM31.8662 15.1122L29.2937 16.4734V10.9614L32.7852 9.77153L31.8662 15.1092V15.1122ZM33.46 16.5744L34.6355 17.2595H34.6523L34.9485 17.4324C34.2844 17.6159 33.776 17.9508 33.3501 18.3882L33.3043 18.4341C33.2038 18.5415 33.1076 18.6527 33.0157 18.7675L32.9623 18.8379C32.8707 18.9556 32.7837 19.0765 32.7028 19.2019L32.6585 19.2646C32.5595 19.416 32.4653 19.5706 32.3761 19.728C31.5364 21.1764 30.2006 22.042 29.0128 22.0451C27.8251 22.042 26.4877 21.1764 25.6511 19.728C25.5622 19.5735 25.469 19.4216 25.3717 19.2722L25.3168 19.1912C25.237 19.0731 25.1545 18.9568 25.0694 18.8425C25.0481 18.8119 25.0282 18.7889 25.0068 18.7629C24.9172 18.6514 24.824 18.5427 24.7275 18.4372C24.7076 18.4219 24.6939 18.402 24.6756 18.3852C24.2394 17.9276 23.6867 17.5981 23.0771 17.4324L23.3764 17.2595H23.3886L24.5687 16.5744L25.7763 15.8785L29.0067 17.6434L29.0128 17.6373L29.022 17.6434L32.2509 15.8785L33.46 16.5744ZM38.1011 21.4746C37.837 22.172 37.6186 22.9275 37.6186 23.6785L37.6217 28.5267C36.6126 28.3585 36.492 27.2665 36.4889 27.2191L36.4706 26.9973L36.2523 26.9774C35.8821 26.9447 35.5361 26.779 35.2783 26.5109C34.7821 26.0139 34.7821 25.2094 34.7821 25.2018C34.776 25.2431 34.2386 25.9971 34.8615 26.8229C35.1241 27.1716 35.5057 27.3873 35.9973 27.4714C36.1133 28.0755 36.5622 28.9305 37.6217 29.062V31.4326H34.6432C33.2692 30.6664 33.8508 29.3174 33.8783 29.2593L33.9943 29.0024L33.7317 28.9029C32.2432 28.3493 32.6539 26.8596 32.6738 26.7954L32.7348 26.5782L32.5303 26.4834C31.3028 25.9114 31.4692 24.3728 31.486 24.3086C31.1074 24.616 30.9715 25.2415 31.2311 25.8579C31.0906 26.02 30.9013 26.2142 30.6952 26.4284C30.3366 26.3499 30.0137 26.1554 29.7764 25.8748C29.5392 25.5943 29.4006 25.2433 29.3823 24.876L29.3807 24.6955L29.2128 24.6313C28.7166 24.4478 28.3762 24.1694 28.2067 23.7978C28.019 23.3864 28.0846 22.9566 28.1365 22.7471C28.4218 22.8063 28.7123 22.8371 29.0037 22.8388H29.0235C29.1716 22.8388 29.3166 22.8296 29.4601 22.8159C30.254 22.7364 31.1395 22.3953 32.0646 21.4746H38.1011ZM34.3791 42.6034L34.7119 40.8645L34.7653 40.5433C34.9707 40.6239 35.1889 40.6669 35.4096 40.6702C35.9164 40.6702 36.2126 40.4011 36.4095 40.1732L36.6629 39.8749L36.4553 39.5476C36.437 39.5155 35.9744 38.7829 35.6202 38.2813C35.5499 38.1822 35.4822 38.0812 35.4172 37.9785C35.0126 37.3728 34.5073 36.6127 33.4936 36.6127L33.4035 36.6158C33.2575 36.6236 33.1135 36.653 32.976 36.7029C32.6676 36.5552 32.3302 36.4779 31.9883 36.4766C31.6443 36.4849 31.3043 36.5511 30.9822 36.6724C30.915 36.6922 30.854 36.7136 30.8067 36.7228L28.9136 36.5362C28.8892 36.5301 28.8128 36.4842 28.7182 36.3741V36.3634L29.1273 36.1998C29.0128 34.8294 27.7014 33.9867 26.9717 33.7007C26.9393 33.5542 26.865 33.4202 26.7579 33.3153L26.3518 32.9284L25.9946 33.3581L25.819 33.5784L23.1657 32.4848L24.8908 34.6581L24.2114 35.6935C23.9611 35.9581 24.2374 36.2258 24.2374 36.2258L24.9397 36.7121L25.6694 36.4384C25.6938 36.4384 25.7152 36.4445 25.7412 36.4475C25.7061 36.5592 25.6603 36.9951 25.6297 37.1159L24.3641 36.8666L23.0359 37.6206C22.3504 38.1253 22.2573 38.9573 22.5123 39.5278L22.6588 39.852L22.868 40.3093L23.3336 40.1166C23.3412 40.1135 23.3474 40.112 23.3519 40.1074C23.184 40.6442 23.2527 41.1535 23.5504 41.4885L23.8328 41.8448L24.2084 42.322L24.6206 41.8769C24.7427 41.7546 25.1366 41.3126 25.2572 40.9333L25.3458 40.6442L25.1458 40.4225L25.1122 40.3812L25.3381 40.0065L26.99 40.398L27.3625 40.4836L27.561 40.1548L27.6678 39.9774C27.6877 39.9392 27.6922 39.9331 27.7686 39.9331C27.8281 39.9331 27.8861 39.9392 27.9487 39.9545C28.512 40.0659 29.0844 40.1247 29.6586 40.1304C30.1517 40.1304 30.4494 40.112 30.8005 39.9942C30.8005 39.9942 31.6875 41.0036 31.7181 41.0434L31.1746 42.7258L31.1502 42.8267C30.1227 42.9108 29.622 43.1372 29.0159 43.7444C28.1365 42.8695 27.5152 42.7762 25.1534 42.7762C22.3245 42.7762 20.407 41.1138 20.407 38.4541V31.9572H37.6217L37.6247 38.4541C37.6247 40.6091 36.3637 42.1125 34.3791 42.6034ZM23.7763 38.9298L23.8664 39.1546C23.8054 39.3503 23.1336 39.6287 23.1336 39.6287L22.9901 39.3091C22.8985 39.09 22.8828 38.8465 22.9456 38.6175C23.0084 38.3884 23.1461 38.1871 23.3367 38.0458L24.4252 37.3805L25.5809 37.6252C25.558 37.9938 25.7778 38.2691 25.7778 38.2691L24.5687 38.0366L23.8435 38.5382C23.7214 38.6239 23.7122 38.7829 23.7763 38.9298ZM34.1959 40.7651L33.8249 42.7089C33.5867 42.7426 33.3363 42.7609 33.0799 42.7701L33.4707 40.9042C33.5867 40.3475 32.1028 40.1747 31.3685 39.0842C31.0097 39.488 30.3364 39.6088 29.6586 39.6088C29.0388 39.6088 28.422 39.5094 28.0449 39.4345C27.9541 39.4187 27.8622 39.41 27.7701 39.4085C27.5518 39.4085 27.3549 39.4758 27.2175 39.7067L27.1106 39.8902L25.0862 39.4115L24.5824 40.2481C24.5122 40.3842 24.5061 40.4974 24.6206 40.6244L24.758 40.7742C24.6633 41.0694 24.242 41.5175 24.242 41.5175L23.9412 41.1398C23.7031 40.8736 23.7428 40.3842 23.9901 39.9315L24.7931 38.5704L26.5076 38.8196L26.2419 38.2094C25.8831 37.4034 26.4297 36.3787 26.4877 35.7884C26.4679 35.9673 26.3045 36.0071 26.1152 36.0071C25.9412 36.0071 25.7488 35.9749 25.6206 35.9749C25.5702 35.9749 25.5259 35.9795 25.503 35.9964L25.0389 36.2793L24.6725 35.9551C24.6282 35.8939 24.6145 35.7455 24.7214 35.6354L25.5702 34.6811L24.5687 33.5065L25.9702 34.2146L26.3992 33.6931C26.5167 33.8093 26.4648 34.1106 26.4648 34.1106C26.903 34.1228 28.1319 34.8034 28.196 36.394C28.2006 36.4429 28.2006 36.4965 28.2006 36.55L28.2327 36.602C28.3197 36.7228 28.5594 37.0302 28.8632 37.0578L30.8021 37.2505H30.8097C31.0234 37.2505 31.4463 36.9996 31.9883 36.9996C32.286 36.9996 32.6142 37.0761 32.9654 37.2979C32.9654 37.2979 33.1425 37.1572 33.4279 37.1419C33.4493 37.1388 33.4737 37.1388 33.4936 37.1388C34.3638 37.1388 34.7256 37.928 35.1928 38.5841C35.5439 39.0827 36.0126 39.8229 36.0126 39.8229C35.8401 40.0294 35.6782 40.1441 35.408 40.1441C35.324 40.1444 35.2401 40.1362 35.1577 40.1196C34.2264 39.9468 34.0905 38.0243 33.5592 37.8714C33.5313 37.864 33.5026 37.8604 33.4737 37.8607C33.3028 37.8607 33.2279 38.0136 33.2279 38.0136C33.4722 38.6698 33.3287 38.9344 33.5913 39.4406C33.7867 39.8153 34.1333 40.1227 34.2768 40.2695C34.2768 40.2695 34.2386 40.554 34.1959 40.7666V40.7651ZM32.4112 42.7839C32.1516 42.7839 31.9104 42.7869 31.6936 42.7961L32.2616 41.0205C32.3501 40.7742 31.9013 40.4576 31.7165 40.1793C31.9959 40.3567 32.7211 40.7452 33.0707 40.8981C32.8441 41.5243 32.6243 42.1529 32.4112 42.7839ZM23.9657 26.7832L24.0466 23.6968L24.7366 22.9642L25.1702 23.8758L24.3153 26.8382L23.9641 26.7847L23.9657 26.7832ZM24.4618 27.7406C24.5666 27.9416 24.7252 28.1095 24.9198 28.2254C24.9145 28.5188 24.8864 28.8112 24.8359 29.1002C24.8206 29.1675 24.8053 29.2302 24.7855 29.2929C24.7763 29.3327 24.7641 29.3648 24.7565 29.3908C24.5443 29.3908 24.1305 29.3648 23.7931 29.2409C23.4176 29.1033 22.8573 28.412 22.9871 27.6504C23.1489 27.5509 23.5244 27.3384 23.8771 27.3384C24.1473 27.3384 24.3321 27.4668 24.4618 27.7406ZM32.4555 28.5695C31.9257 28.9626 30.5578 29.9644 30.0616 30.3131L25.2862 29.4505L25.3198 29.3235C25.3809 29.0742 25.4465 28.7347 25.4496 28.3355L29.4632 28.3998L29.5395 28.3233C29.6006 28.2621 30.8723 27.0279 31.5196 26.3198C31.6738 26.514 31.8662 26.6975 32.1196 26.8596C32.0341 27.3338 32.0692 28.0036 32.4555 28.5695ZM25.9625 21.4746C26.5381 22.0466 27.0984 22.4029 27.6327 22.5987C27.564 22.874 27.4724 23.446 27.7289 24.0134C27.9396 24.4722 28.3212 24.824 28.8724 25.0595C28.9334 25.6254 29.2891 26.4773 30.2769 26.8535C29.8433 27.2909 29.422 27.7039 29.254 27.8691L25.2481 27.8064C25.1157 27.743 25.006 27.6405 24.9336 27.5127C24.9259 27.4928 24.9122 27.4821 24.903 27.4607L25.558 27.5678L25.5992 27.5693C25.6608 27.5697 25.7205 27.5481 25.7675 27.5082C25.8146 27.4684 25.8458 27.413 25.8557 27.3521C25.8667 27.2836 25.8503 27.2135 25.81 27.1571C25.7697 27.1006 25.7087 27.0624 25.6404 27.0508L24.8359 26.9224L25.7274 23.8314L24.8832 22.0466L23.529 23.4842L23.4466 26.6975L22.5367 26.5522C22.3962 26.5247 22.2619 26.6287 22.2359 26.7709C22.2258 26.8398 22.2429 26.9099 22.2837 26.9662C22.3246 27.0225 22.3858 27.0606 22.4543 27.0722L22.8359 27.1304C22.6985 27.2084 22.6084 27.2711 22.5978 27.2787L22.5214 27.3338L22.5001 27.4286C22.2787 28.3309 22.7794 29.1874 23.3199 29.5698L23.3 29.6845C23.2787 29.8221 23.3092 29.9598 23.3916 30.0714C23.4386 30.1392 23.5014 30.1945 23.5746 30.2324C23.6477 30.2702 23.7291 30.2895 23.8115 30.2886C23.9272 30.2876 24.0391 30.2475 24.1292 30.1748C24.2193 30.102 24.2822 30.0009 24.3076 29.8879C24.5091 29.9108 24.6939 29.9169 24.8191 29.9169H24.9275L30.1807 30.8698L30.2708 30.8101C30.6891 30.5165 32.286 29.3495 32.8081 28.9626C32.9531 29.0865 33.1134 29.1996 33.3073 29.2929C33.1379 29.8634 33.1272 30.7398 33.7959 31.4341H20.407V23.68C20.407 22.9275 20.1887 22.172 19.9291 21.4746H25.9625ZM25.2389 9.77459L28.7334 10.9629V16.4719L26.161 15.1107L25.2389 9.77306V9.77459ZM33.7638 9.10929C33.7638 7.76494 31.5089 6.55518 29.0205 6.55518H29.0052C26.5167 6.55518 24.2634 7.76494 24.2634 9.10929L24.3122 9.43965L25.3061 15.1642L24.3076 15.7454L21.726 17.2595H21.7352C21.7352 17.2595 21.1551 17.5593 20.8848 17.7428C19.9017 18.428 19.6925 19.4282 20.2635 19.8412C20.4039 19.026 21.0467 18.1741 22.2482 18.1741C23.1153 18.1741 23.7748 18.6238 24.3092 19.2952C24.4466 19.4649 24.5763 19.6469 24.6969 19.8412C24.8465 20.0874 24.9977 20.3046 25.1458 20.5126H18.4926C18.9811 21.4991 19.4467 22.5436 19.4467 23.6785V38.4556C19.4467 42.0314 22.1871 43.7382 25.1519 43.7382C27.4434 43.7382 27.7518 43.6342 29.0159 44.8975C30.2738 43.6342 30.5838 43.7382 32.8768 43.7382C35.8431 43.7382 38.5789 42.0314 38.5789 38.4556V23.6785C38.5789 22.5436 39.0445 21.4991 39.5361 20.5126H32.8799C33.0295 20.3046 33.1791 20.0874 33.3287 19.8412C33.4508 19.6469 33.5806 19.4649 33.715 19.2952C34.2523 18.6207 34.9119 18.1741 35.779 18.1741C36.9805 18.1741 37.6217 19.026 37.7637 19.8412C38.3346 19.4282 38.1285 18.428 37.1377 17.7428C36.8752 17.5593 36.292 17.2595 36.292 17.2595H36.3027L33.715 15.7454L32.7226 15.1642L33.715 9.43965L33.7638 9.10929Z" fill="#1A1919"/>
<path d="M76.5165 33.7387H81.0965V23.0634H87.3864V19.1787H70.2267V23.0634H76.5165V33.7387ZM101.279 19.1787L93.6458 27.6517V19.1787H89.2184V33.7387H93.1267L100.76 25.2658V33.7387H105.187V19.1787H101.279ZM112.969 28.3246H120.083V33.7387H124.51V19.1787H120.083V24.5011H112.969V19.1787H108.541V33.7387H112.969V28.3246ZM136.84 33.7387C137.847 33.7387 138.763 33.6469 139.618 33.4022C141.908 32.7599 143.404 30.894 143.404 28.3552C143.404 25.9387 142.122 24.2564 140.076 23.4917C139.099 23.1246 137.939 23.094 136.84 23.094H132.29V19.1787H127.863V33.7387H136.84ZM132.29 26.5199H136.076C136.687 26.5199 137.267 26.5199 137.786 26.7034C138.519 26.9481 138.947 27.5599 138.947 28.294C138.947 29.0587 138.519 29.7011 137.817 30.0069C137.328 30.2211 136.84 30.2211 136.076 30.2211H132.29V26.5199ZM150.122 28.2328H151.343L156.625 33.7387H162.518L155.16 26.1528L162.243 19.1787H156.686L151.343 24.654H150.122V19.1787H145.694V33.7387H150.122V28.2328Z" fill="black"/>
<path d="M171.628 18.7813C165.674 18.7813 162.102 22.146 162.102 26.4895C162.102 30.833 165.674 34.1977 171.628 34.1977C177.551 34.1977 181.124 30.833 181.124 26.4895C181.124 22.146 177.551 18.7813 171.628 18.7813ZM171.628 30.6495C168.666 30.6495 166.773 28.8754 166.773 26.4895C166.773 24.1036 168.666 22.3601 171.628 22.3601C174.559 22.3601 176.483 24.1036 176.483 26.4895C176.483 28.8754 174.559 30.6495 171.628 30.6495ZM195.868 19.8213V18.353H191.441V19.8213C185.884 19.9436 182.556 22.2989 182.556 26.4589C182.556 30.6189 185.884 32.7907 191.441 32.913V34.3813H195.868V32.913C201.456 32.7907 204.784 30.6189 204.784 26.4589C204.784 22.2989 201.456 19.9436 195.868 19.8213ZM191.441 29.793C188.388 29.6707 187.044 28.4166 187.044 26.4589C187.044 24.5013 188.388 23.0942 191.441 22.9719V29.793ZM195.868 29.793V22.9719C198.952 23.0942 200.265 24.5013 200.265 26.4589C200.265 28.4166 198.952 29.6707 195.868 29.793ZM219.513 19.8213V18.353H215.086V19.8213C209.529 19.9436 206.201 22.2989 206.201 26.4589C206.201 30.6189 209.529 32.7907 215.086 32.913V34.3813H219.513V32.913C225.101 32.7907 228.429 30.6189 228.429 26.4589C228.429 22.2989 225.101 19.9436 219.513 19.8213ZM215.086 29.793C212.033 29.6707 210.689 28.4166 210.689 26.4589C210.689 24.5013 212.033 23.0942 215.086 22.9719V29.793ZM219.513 29.793V22.9719C222.597 23.0942 223.91 24.5013 223.91 26.4589C223.91 28.4166 222.597 29.6707 219.513 29.793Z" fill="black"/>
</svg>
