<svg width="219" height="65" viewBox="0 0 219 65" fill="none" xmlns="http://www.w3.org/2000/svg">
<path d="M24.812 2.30566C20.4105 2.30566 17.057 3.70297 16.9871 3.70297C16.8474 3.77284 16.7077 3.91257 16.7775 4.12217L17.1967 6.91678C17.1967 6.98665 17.2666 7.05652 17.2666 7.05652C17.3364 7.05652 17.4063 7.12638 17.4762 7.05652C17.4762 7.05652 19.2228 6.56746 20.8996 6.21813C23.6942 5.72907 25.2312 5.8688 25.9998 6.63732C26.419 7.05652 26.6286 7.61544 26.4888 8.45383L26.419 9.01275C26.419 9.01275 23.0654 9.43194 20.8297 9.85114C18.594 10.2703 17.1967 10.7594 16.1487 11.458C13.8432 12.9252 13.2842 15.8596 13.7034 17.9555C14.1226 19.772 15.7295 21.9379 21.179 21.9379H21.6681C30.052 21.9379 31.1698 20.5406 31.5191 17.4665L32.0082 13.4143L32.637 8.1045C32.8466 6.42773 32.5671 5.24001 31.7287 4.2619C30.541 2.93445 28.3053 2.30566 24.812 2.30566ZM25.9998 12.5759L25.7902 14.1828L25.3011 18.1651H25.2312C25.1614 18.1651 24.323 18.4446 22.8558 18.4446C22.2969 18.4446 21.1092 18.4446 20.3407 17.6761C19.9215 17.2569 19.7119 16.6281 19.7119 15.8596C19.7119 14.2527 20.69 13.2745 22.5764 12.9252C24.5326 12.5759 26.0696 12.3663 26.0696 12.3663L25.9998 12.5759Z" fill="#F1361D"/>
<path d="M100.756 2.30566H100.127C95.6554 2.30566 92.6512 3.56324 91.184 6.0784C89.9963 8.1045 89.3675 14.8814 89.3675 14.9513C89.2278 16.2788 89.3675 17.2569 89.7168 18.1651C90.9744 21.5187 95.3061 21.9379 97.8212 21.9379C102.293 21.9379 105.297 20.6803 106.764 18.235C107.183 17.4665 107.882 15.3705 108.511 9.64154V9.43194C108.65 8.24423 108.581 7.26611 108.301 6.35786C107.323 3.14405 103.69 2.37553 100.756 2.30566ZM101.804 14.7417V14.8116C101.734 15.5801 101.524 16.6281 100.756 17.3267C100.267 17.8158 99.498 18.0953 98.5898 18.1651C97.7514 18.235 97.1226 18.0953 96.5637 17.8158C95.865 17.4665 95.4458 16.6281 95.3759 15.7897C95.3061 15.2308 95.7951 11.9471 96.0746 10.1306L96.2143 9.29221C96.3541 8.52369 96.6335 7.47571 97.5418 6.70719C98.1007 6.21813 98.8692 6.00853 99.6377 6.00853C100.406 6.00853 101.035 6.14826 101.454 6.42773C102.223 6.91678 102.432 7.82504 102.502 8.45383C102.502 8.87302 102.293 11.0388 101.804 14.7417Z" fill="#F1361D"/>
<path d="M88.8086 2.44531H86.1537C83.918 2.44531 83.0098 3.70289 82.5207 4.33168L75.7437 12.7155L75.9533 12.2265L77.1411 2.72477C77.1411 2.65491 77.1411 2.58504 77.0712 2.51518C77.0013 2.44531 77.0013 2.44531 76.9315 2.44531H71.4121C71.2724 2.44531 71.1326 2.58504 71.0628 2.72477L68.7572 21.2391C68.7572 21.309 68.7572 21.3789 68.8271 21.3789C68.8969 21.4487 68.8969 21.4487 68.9668 21.4487H71.8313C74.067 21.4487 75.0451 19.9815 75.3944 19.5624L81.9618 10.9689L81.7522 11.5278L80.5645 21.2391C80.5645 21.309 80.5645 21.3789 80.6343 21.4487C80.7042 21.5186 80.7042 21.5186 80.8439 21.5186H86.3633C86.503 21.5186 86.6428 21.3789 86.7126 21.2391L89.0182 2.65491C89.0182 2.58504 89.0182 2.51518 88.9483 2.51518C88.8785 2.44531 88.8785 2.44531 88.8086 2.44531Z" fill="#F1361D"/>
<path d="M128.702 2.30566L123.043 3.00432C122.903 3.00432 122.763 3.14405 122.693 3.35365L121.925 9.85114L121.855 10.1306H116.475L117.384 2.51526C117.384 2.44539 117.384 2.37553 117.314 2.37553C117.244 2.30566 117.244 2.30566 117.174 2.30566L111.515 3.00432C111.375 3.00432 111.235 3.14405 111.166 3.35365L109 21.2392C109 21.3091 109 21.3789 109.07 21.4488C109.139 21.5187 109.139 21.5187 109.209 21.5187H114.729C114.868 21.5187 115.008 21.3789 115.078 21.2392L115.986 14.0431V13.9732H121.366L120.458 21.2392C120.458 21.3091 120.458 21.3789 120.528 21.4488C120.597 21.5187 120.597 21.5187 120.667 21.5187H122.065C124.65 21.5187 126.466 21.2392 126.885 18.235L128.842 2.51526C128.842 2.44539 128.842 2.37553 128.772 2.37553C128.772 2.30566 128.772 2.30566 128.702 2.30566Z" fill="#F1361D"/>
<path d="M68.8969 6.56742L69.3859 2.72482C69.3859 2.65495 69.3859 2.58508 69.316 2.51522C69.2462 2.44535 69.2462 2.44535 69.1763 2.44535H48.1468C47.8674 2.44535 47.4482 2.58508 47.1687 2.93441L41.3 10.1306H40.4616L41.3699 2.58508C41.3699 2.51522 41.3699 2.44535 41.3 2.44535C41.2301 2.37549 41.2301 2.37549 41.1603 2.37549L35.5012 3.07414C35.3614 3.07414 35.2217 3.21387 35.1518 3.42347L32.9161 21.309C32.9161 21.3789 32.9161 21.4488 32.986 21.5186C33.0559 21.5885 33.0559 21.5885 33.1257 21.5885H38.6451C38.7848 21.5885 38.9246 21.4488 38.9944 21.309L39.9726 13.9732H40.8109L44.8631 21.1693C44.933 21.309 45.1426 21.4488 45.3522 21.4488H51.3606C51.4305 21.4488 51.5702 21.3789 51.5004 21.2392L46.0508 12.0868L50.5921 6.77701H57.1595L55.343 21.2392C55.343 21.309 55.343 21.3789 55.4128 21.4488C55.4827 21.5186 55.4827 21.5186 55.5526 21.5186H61.0719C61.2117 21.5186 61.3514 21.3789 61.3514 21.2392L63.098 6.84688H68.5475C68.7571 6.84688 68.8969 6.70715 68.8969 6.56742Z" fill="#F1361D"/>
<path d="M13.1444 2.44531H7.83458C7.34552 2.51518 7.06606 2.65491 6.85646 2.86451C6.85646 2.86451 0.358975 10.7593 0.219244 10.899C-0.130083 11.3182 0.00964761 11.7374 0.149379 11.947L5.31942 21.0295C5.45916 21.309 5.80848 21.5186 6.15781 21.5186H10.7689C11.1183 21.5186 11.258 21.309 11.1183 21.0295L5.94821 11.947L13.4238 2.86451C13.5636 2.65491 13.4238 2.44531 13.1444 2.44531Z" fill="#F1361D"/>
<path d="M143.094 12.0169L137.924 2.93437C137.784 2.65491 137.435 2.44531 137.086 2.44531H132.475C132.125 2.44531 131.986 2.65491 132.125 2.93437L137.295 12.0169L129.82 21.0994C129.61 21.309 129.68 21.5186 130.029 21.5186H135.339C135.758 21.4487 136.108 21.309 136.317 21.0994C136.317 21.0994 142.815 13.2046 142.954 13.0649C143.374 12.5758 143.234 12.1566 143.094 12.0169Z" fill="#F1361D"/>
<path d="M16.01 54.1692C16.08 54.2391 16.08 54.3788 16.08 54.3788C16.08 54.5884 15.94 54.6583 15.73 54.6583H12.796C12.656 54.6583 12.517 54.5884 12.447 54.4487L5.18099 44.8771H4.063L2.94499 54.2391C2.94499 54.4487 2.666 54.6583 2.386 54.6583H0.429986C0.219986 54.6583 -0.0590047 54.4487 0.0109953 54.2391L2.59599 33.4891C2.59599 33.1397 2.80499 33 3.15499 33H5.18099C5.38999 33 5.59998 33.2096 5.59998 33.4891L4.48199 42.4318H5.59998L14.752 33.2096C14.892 33.0699 15.032 33 15.172 33H17.966C18.106 33 18.246 33.1397 18.246 33.2795C18.246 33.3493 18.246 33.4192 18.176 33.4891L7.69599 43.6894L16.01 54.1692Z" fill="black"/>
<path d="M32.009 46.973C31.45 51.3745 30.262 55.0774 24.044 55.0774C21.599 55.0774 20.062 54.5185 19.154 53.6102C18.176 52.6321 17.896 51.1649 17.896 49.558C17.896 48.7196 17.966 47.8813 18.106 47.0429C18.665 42.5715 19.852 38.9385 26.07 38.9385C28.446 38.9385 29.983 39.4974 30.891 40.4056C31.939 41.3838 32.219 42.8509 32.219 44.5277C32.219 45.2264 32.149 46.0648 32.009 46.973ZM28.516 41.7331C27.957 41.244 27.118 40.9646 25.791 40.9646C21.809 40.9646 21.39 43.2701 20.9 46.973C20.761 47.8813 20.691 48.7895 20.691 49.558C20.691 50.6759 20.831 51.5143 21.39 52.1431C21.948 52.702 22.857 53.0513 24.324 53.0513C28.306 53.0513 28.725 50.7457 29.214 47.0429C29.354 46.0648 29.424 45.1565 29.424 44.388C29.424 43.2003 29.214 42.3619 28.516 41.7331Z" fill="black"/>
<path d="M35.1531 54.2389L36.9691 39.7768C36.9691 39.4973 37.1791 39.3576 37.3891 39.2877L39.4151 38.8685C39.6241 38.7987 39.7641 39.0083 39.7641 39.2877L38.9961 45.5057H46.6811L47.3791 39.7768C47.3791 39.4973 47.5891 39.3576 47.7991 39.2877L49.8251 38.8685C50.0341 38.7987 50.1741 39.0083 50.1741 39.2877L48.3571 54.2389C48.3571 54.5184 48.1481 54.6581 47.8681 54.6581H46.0521C45.7721 54.6581 45.6331 54.4485 45.6331 54.2389L46.4711 47.6017H38.7861L37.9481 54.2389C37.9481 54.5184 37.7381 54.6581 37.4581 54.6581H35.6421C35.2931 54.6581 35.0831 54.5184 35.1531 54.2389Z" fill="black"/>
<path d="M77.561 43.4099L76.234 54.239C76.234 54.5185 76.024 54.6582 75.745 54.6582H73.928C73.719 54.6582 73.509 54.5185 73.579 54.239L74.836 43.6195C74.836 43.34 74.906 43.0605 74.906 42.7811C74.906 42.292 74.767 41.8728 74.557 41.5934C74.208 41.1742 73.509 41.0344 72.531 41.0344C70.295 41.0344 67.92 41.5934 67.361 41.803L65.824 54.3089C65.824 54.5883 65.614 54.7281 65.335 54.7281H63.518C63.239 54.7281 63.099 54.5883 63.099 54.3089L64.427 43.5496C64.427 43.34 64.496 43.1304 64.496 42.9208C64.496 42.292 64.357 41.803 64.007 41.5235C63.658 41.1742 63.029 41.0344 62.121 41.0344C59.885 41.0344 57.51 41.5934 56.951 41.803L55.414 54.3089C55.414 54.5883 55.204 54.7281 54.925 54.7281H53.108C52.829 54.7281 52.689 54.5883 52.689 54.3089L54.226 42.0126C54.366 40.8248 54.576 40.3358 56.182 39.8467C57.789 39.3577 60.654 38.9385 62.54 38.9385C64.357 38.9385 65.614 39.2878 66.383 40.0563C67.92 39.4974 71.064 38.9385 73.02 38.9385C74.906 38.9385 76.234 39.2179 77.002 40.0563C77.491 40.6152 77.771 41.3139 77.771 42.292C77.631 42.5715 77.631 42.8509 77.561 43.4099Z" fill="black"/>
<path d="M95.656 46.973C94.958 52.4226 93.211 55.0774 87.901 55.0774C86.155 55.0774 84.618 54.798 83.57 54.5185L83.71 56.2652L83.22 59.968C83.22 60.2475 83.011 60.3174 82.801 60.3872L80.845 60.8064C80.566 60.8763 80.426 60.6667 80.496 60.3872L82.731 42.0825C82.871 40.8249 83.081 40.266 84.618 39.7769C86.295 39.218 88.6 38.8687 90.486 38.8687C92.513 38.8687 93.77 39.2879 94.609 40.1262C95.587 41.0345 95.866 42.5017 95.866 44.3182C95.866 45.1565 95.796 46.0648 95.656 46.973ZM92.513 42.1523C91.954 41.2441 90.906 41.0345 89.508 41.0345C88.041 41.0345 85.945 41.5934 85.456 41.6633L84.129 52.5623C84.408 52.6322 85.805 53.0513 87.832 53.0513C91.045 53.0513 92.233 51.654 92.792 47.0429C92.932 46.0648 93.002 45.2264 93.002 44.5976C93.002 43.4099 92.862 42.6414 92.513 42.1523Z" fill="black"/>
<path d="M112.354 43.9688L111.446 51.654C111.167 53.75 110.608 54.239 108.512 54.6582C107.603 54.8678 106.136 55.0774 104.599 55.0774C103.272 55.0774 101.525 55.0774 100.198 54.3787C99.08 53.8198 98.311 52.8417 98.311 51.0951C98.311 50.1868 98.521 48.9991 98.87 48.1607C99.778 46.1346 101.665 45.925 103.901 45.5757L109.56 44.6674C109.63 43.9688 109.769 43.2003 109.769 42.6413C109.769 42.0824 109.56 41.6632 108.931 41.3838C108.442 41.1742 107.673 41.1043 106.416 41.1043C104.18 41.1043 102.294 41.6632 101.106 41.8728C100.966 41.8728 100.826 41.9427 100.757 41.9427C100.617 41.9427 100.547 41.8728 100.477 41.7331L100.337 40.2659C100.337 39.9865 100.477 39.9166 100.687 39.8467C101.665 39.5673 104.32 38.9385 107.045 38.9385C109.14 38.9385 110.468 39.2179 111.306 39.707C112.215 40.2659 112.564 41.1043 112.564 42.0126C112.494 42.5016 112.424 43.4797 112.354 43.9688ZM101.595 48.7895C101.246 49.3484 101.176 50.0471 101.176 50.6759C101.176 51.4444 101.455 52.0033 101.874 52.3526C102.573 52.9814 103.831 53.0513 104.879 53.0513C106.136 53.0513 107.464 52.9116 108.582 52.5622L109.28 46.7634L103.97 47.6018C102.992 47.7415 102.154 47.8813 101.595 48.7895Z" fill="black"/>
<path d="M115.289 50.8156C115.289 47.3922 117.524 46.1347 121.227 45.6456C122.764 45.436 125.209 45.1565 125.209 43.1304C125.209 41.3838 123.603 41.0345 121.786 41.0345C119.83 41.0345 118.013 41.4537 117.524 41.5934C117.315 41.5934 117.175 41.5934 117.175 41.3838L117.105 39.8468C117.105 39.6372 117.245 39.4974 117.454 39.4276C118.083 39.218 119.83 38.8687 122.275 38.8687C124.86 38.8687 127.794 39.6372 127.794 43.0606C127.794 46.3443 125.349 47.4621 122.275 47.9512C120.389 48.2306 117.874 48.3005 117.874 50.7458C117.874 52.5623 119.55 52.9815 121.297 52.9815C123.603 52.9815 125.629 52.2828 126.048 52.213C126.118 52.213 126.188 52.213 126.257 52.213C126.467 52.213 126.537 52.3527 126.537 52.4924L126.677 53.9596C126.677 54.1692 126.537 54.3089 126.397 54.3089C125.978 54.4487 123.952 55.1473 121.646 55.1473C118.852 55.0774 115.289 54.5884 115.289 50.8156Z" fill="black"/>
<path d="M132.825 49.4183C132.825 52.0732 134.362 52.9815 137.436 52.9815C139.322 52.9815 140.79 52.4226 141.628 52.0732C141.907 51.9335 142.047 52.0732 142.117 52.3527L142.327 53.6801C142.327 53.8897 142.257 54.0295 141.977 54.1692C140.79 54.6582 138.903 55.0774 136.877 55.0774C131.917 55.0774 130.1 53.1911 130.1 49.2087C130.1 48.5101 130.17 47.8114 130.24 46.973C130.869 41.8729 132.406 38.8687 138.135 38.8687C141.977 38.8687 144.213 40.3358 144.213 43.6195C144.213 48.2306 141.418 48.6498 137.296 48.6498H132.825C132.825 48.9293 132.825 49.1389 132.825 49.4183ZM141.418 43.9688C141.488 41.9427 140.44 41.0345 137.925 41.0345C134.222 41.0345 133.314 43.1304 133.035 46.8333H137.506C140.231 46.7635 141.418 46.4141 141.418 43.9688Z" fill="black"/>
<path d="M146.728 54.2389L148.545 39.7768C148.545 39.4973 148.754 39.3576 148.964 39.2877L150.99 38.8685C151.199 38.7987 151.339 39.0083 151.339 39.2877L150.571 45.5057H158.256L158.955 39.7768C158.955 39.4973 159.164 39.3576 159.374 39.2877L161.4 38.8685C161.609 38.7987 161.749 39.0083 161.749 39.2877L159.933 54.2389C159.933 54.5184 159.723 54.6581 159.444 54.6581H157.627C157.348 54.6581 157.208 54.4485 157.208 54.2389L158.046 47.6017H150.361L149.523 54.2389C149.523 54.5184 149.313 54.6581 149.034 54.6581H147.147C146.868 54.6581 146.658 54.5184 146.728 54.2389Z" fill="black"/>
<path d="M189.136 43.4099L187.809 54.239C187.809 54.5185 187.599 54.6582 187.32 54.6582H185.503C185.294 54.6582 185.084 54.5185 185.154 54.239L186.412 43.6195C186.412 43.34 186.481 43.0605 186.481 42.7811C186.481 42.292 186.342 41.8728 186.132 41.5934C185.783 41.1742 185.084 41.0344 184.106 41.0344C181.87 41.0344 179.495 41.5934 178.936 41.803L177.399 54.3089C177.399 54.5883 177.189 54.7281 176.91 54.7281H175.093C174.814 54.7281 174.674 54.5883 174.674 54.3089L176.002 43.5496C176.002 43.34 176.071 43.1304 176.071 42.9208C176.071 42.292 175.932 41.803 175.582 41.5235C175.233 41.1742 174.604 41.0344 173.696 41.0344C171.46 41.0344 169.085 41.5934 168.526 41.803L166.989 54.3089C166.989 54.5883 166.779 54.7281 166.5 54.7281H164.614C164.334 54.7281 164.194 54.5883 164.194 54.3089L165.731 42.0126C165.871 40.8248 166.081 40.3358 167.688 39.8467C169.295 39.3577 172.159 38.9385 174.045 38.9385C175.862 38.9385 177.119 39.2878 177.888 40.0563C179.425 39.4974 182.569 38.9385 184.525 38.9385C186.412 38.9385 187.739 39.2179 188.508 40.0563C188.997 40.6152 189.276 41.3139 189.276 42.292C189.206 42.5715 189.136 42.8509 189.136 43.4099Z" fill="black"/>
<path d="M192.001 54.2389L193.817 39.7768C193.817 39.4973 194.027 39.3576 194.237 39.2877L196.263 38.8685C196.472 38.7987 196.612 39.0083 196.612 39.2877L195.913 44.8071H201.013C204.018 44.8071 205.764 45.9249 205.764 48.7196C205.764 48.999 205.764 49.3483 205.694 49.6977C205.275 53.2608 203.109 54.6581 199.756 54.6581H192.42C192.141 54.6581 191.931 54.5184 192.001 54.2389ZM202.9 49.7675C202.9 49.4881 202.97 49.2086 202.97 48.999C202.97 47.7414 202.411 46.7633 200.594 46.7633H195.634L194.935 52.7019H199.896C201.992 52.7019 202.69 51.4443 202.9 49.7675ZM207.651 54.2389L209.467 39.7768C209.467 39.4973 209.677 39.3576 209.886 39.2877L211.912 38.8685C212.122 38.7987 212.262 39.0083 212.262 39.2877L210.445 54.2389C210.445 54.5184 210.236 54.6581 209.956 54.6581H208.14C207.86 54.6581 207.651 54.5184 207.651 54.2389Z" fill="black"/>
</svg>
