<svg width="172" height="60" viewBox="0 0 172 60" fill="none" xmlns="http://www.w3.org/2000/svg">
<path d="M19.417 -0.000190735C23.5327 -0.000190735 24.8259 2.92846 25.9109 5.85252C26.3667 7.09422 37.0619 36.1512 37.3835 37.0234C37.4691 37.2667 37.4112 37.6661 37.0341 37.8107C36.6547 37.953 31.0977 40.0967 30.7901 40.2114C30.4824 40.3285 30.1376 40.1586 30.0266 39.8534C29.9109 39.5527 27.6044 33.218 27.3453 32.5111H11.4933C11.2435 33.218 8.90919 39.5665 8.80509 39.8534C8.69867 40.1449 8.36784 40.3422 8.03933 40.2114C7.71081 40.0829 2.13302 37.9392 1.79988 37.8107C1.48062 37.6867 1.33487 37.3264 1.44592 37.0234C1.83921 35.9355 12.3725 7.34439 12.9092 5.85252C13.9549 2.97207 15.2921 -0.000190735 19.417 -0.000190735ZM0.59919 51.9926C0.266049 51.9926 0 52.268 0 52.6031V59.3946C0 59.7297 0.266049 60.0005 0.59919 60.0005H38.2186C38.5587 60.0005 38.8247 59.7297 38.8247 59.3946V52.6031C38.8247 52.268 38.5587 51.9926 38.2186 51.9926H0.59919ZM19.38 9.4881L14.022 25.4511H24.8259L19.4494 9.4881H19.38ZM99.7802 35.6624C98.9913 35.9263 98.4708 35.9906 97.8508 35.9906C96.5691 35.9906 95.8589 35.4879 95.8589 34.1843C95.8589 32.8255 96.7611 32.3711 98.5333 32.3711C98.9659 32.3711 99.3915 32.433 99.5905 32.5019V33.4751C99.5905 34.524 99.6483 35.2125 99.7802 35.6624ZM104.335 37.2185C103.389 35.7932 103.142 34.9532 103.142 33.156V29.5067C103.142 27.542 102.91 26.8328 102.387 26.1167C101.659 25.1022 100.444 24.6616 98.2117 24.6616C96.6316 24.6616 95.0977 24.8314 93.6125 25.2078L94.1492 27.8014C95.1533 27.6614 96.2059 27.542 96.9485 27.542C99.3198 27.542 99.5905 27.8817 99.5905 29.6467V30.3054C99.063 30.1654 98.4708 30.0644 97.7837 30.0644C94.214 30.0644 92.3285 31.7973 92.3285 34.6663C92.3285 37.3562 94.3436 38.8228 96.7981 38.8228C97.7143 38.8228 98.6721 38.6553 99.4309 38.3477C99.8889 38.1503 100.088 38.0333 100.68 37.6523C101.036 38.1664 101.751 38.692 102.043 38.7907L104.335 37.2185ZM139.646 35.6624C138.853 35.9263 138.341 35.9906 137.717 35.9906C136.43 35.9906 135.711 35.4879 135.711 34.1843C135.711 32.8255 136.625 32.3711 138.401 32.3711C138.834 32.3711 139.262 32.433 139.456 32.5019V33.4751C139.456 34.524 139.512 35.2125 139.646 35.6624ZM144.206 37.2185C143.253 35.7932 143.01 34.9532 143.01 33.156V29.5067C143.01 27.542 142.774 26.8328 142.246 26.1167C141.527 25.1022 140.31 24.6616 138.071 24.6616C136.493 24.6616 134.95 24.8314 133.464 25.2078L133.994 27.8014C135.001 27.6614 136.056 27.542 136.819 27.542C139.176 27.542 139.456 27.8817 139.456 29.6467V30.3054C138.929 30.1654 138.341 30.0644 137.64 30.0644C134.066 30.0644 132.173 31.7973 132.173 34.6663C132.173 37.3562 134.193 38.8228 136.659 38.8228C137.587 38.8228 138.536 38.6553 139.287 38.3477C139.752 38.1503 139.944 38.0333 140.537 37.6523C140.898 38.1664 141.612 38.692 141.906 38.7907L144.206 37.2185ZM172 38.5176C172 38.5176 170.043 34.3794 169.564 33.4383C169.025 32.378 168.525 31.6458 167.424 31.3818V31.3222C168.162 31.1822 168.75 30.7392 169.393 29.385C170.001 28.0653 170.182 27.7807 170.54 27.4663C170.892 27.1541 171.373 27.2666 171.373 27.2666L171.553 24.8268C171.042 24.7579 170.475 24.7557 169.89 24.7878C168.918 24.8452 168.416 25.1229 167.938 25.6003C167.563 25.9652 167.308 26.5115 166.994 27.1381C166.66 27.822 166.397 28.3729 166.05 29.0683C165.705 29.7821 165.543 30.1034 164.615 30.1034H164.012V19.2954H160.437V38.5176H164.012V32.9908L164.5 32.9816C165.525 32.9816 165.705 33.2364 166.246 34.3082C166.88 35.5866 168.095 38.5176 168.095 38.5176H172ZM71.3083 38.5176H75.4332L69.1937 19.6167C68.5367 19.3987 67.7247 19.2633 66.8571 19.2633C65.9109 19.2633 65.5732 19.3872 64.8328 19.6167L58.2302 38.5176H62.1885C62.1885 38.5176 62.723 36.8605 63.3522 34.8063H70.1909C70.8016 36.8582 71.3083 38.5176 71.3083 38.5176ZM64.3563 31.6366C64.3563 31.6366 65.4991 27.8427 65.6773 27.2528C66.1307 25.7242 66.8201 23.2959 66.8201 23.2959H66.9335C66.9335 23.2959 67.572 25.8114 67.9884 27.2253C68.1457 27.7876 69.2377 31.6366 69.2377 31.6366H64.3563ZM110.425 29.4746C109.164 29.4746 108.139 30.4959 108.139 31.7468C108.139 33.0068 109.164 34.0213 110.425 34.0213C111.688 34.0213 112.708 33.0068 112.708 31.7468C112.708 30.4959 111.688 29.4746 110.425 29.4746ZM80.3308 19.2954H76.7472V38.5153H80.3308V19.2954ZM151.528 27.7164C153.508 27.7578 153.754 28.164 153.754 29.8119V38.5176H157.305V29.5067C157.305 27.542 157.073 26.8328 156.546 26.1167C155.817 25.1022 154.385 24.6616 151.963 24.6616C149.566 24.6616 148.039 24.914 146.075 25.4947V38.5176H149.663V27.8817C150.605 27.7463 150.772 27.7164 151.528 27.7164ZM89.1937 18.9534C86.9543 18.9534 85.7351 19.3941 85.0179 20.4063C84.4905 21.1247 84.2568 21.85 84.2568 23.8192V25.4947H82.4777V28.3683H84.2568V38.5176H87.8103L87.801 28.3683H91.343V25.4947H87.801L87.8103 23.9546C87.8103 22.1919 88.081 21.85 90.4546 21.85C90.7114 21.85 91.0006 21.8637 91.3083 21.8867L91.8681 19.1256C90.9913 19.0108 90.0937 18.9534 89.1937 18.9534ZM117.705 19.1325C118.924 19.0613 121.649 18.9603 123.359 18.9603C123.671 18.9603 123.995 18.9626 124.319 18.9787C127.681 18.9787 129.608 21.407 129.608 24.2576C129.608 26.197 128.713 27.4846 126.614 28.2512C129.083 28.7929 130.376 30.7048 130.376 33.0436C130.376 34.7604 129.888 36.1237 128.992 37.0532C127.831 38.1871 126.073 38.8228 123.732 38.8228C121.65 38.8228 119.035 38.7586 117.705 38.6805V19.1325ZM123.359 22.2814C122.767 22.2814 122.034 22.2929 121.307 22.3182V26.9338H123.361C124.176 26.9338 124.831 26.7089 125.277 26.2751C125.703 25.8665 125.925 25.2881 125.925 24.6019C125.925 23.1261 125.12 22.2906 123.623 22.2814H123.359ZM123.433 35.5086H123.588C125.455 35.5086 126.598 34.524 126.612 32.5409C126.593 31.8294 126.318 31.173 125.825 30.6979C125.286 30.1608 124.523 29.8808 123.628 29.8808H121.307V35.4879C121.962 35.5017 122.684 35.504 123.433 35.5086Z" fill="#EE2A23"/>
</svg>
