<svg width="269" height="42" viewBox="0 0 269 42" fill="none" xmlns="http://www.w3.org/2000/svg">
<path d="M120.278 12.701L125.886 8.56201H107.112V33.3556H125.886V29.2166H112.476V22.8863H123.935V18.7473H112.476V12.701H120.278Z" fill="#21A038"/>
<path d="M92.9309 18.2198H86.4294V12.701H96.8319L102.439 8.56201H81.0657V33.3556H92.2402C98.4979 33.3556 102.114 30.5151 102.114 25.5645C102.114 20.8168 98.8636 18.2198 92.9309 18.2198ZM92.037 29.2166H86.4294V22.3588H92.037C95.4503 22.3588 97.035 23.495 97.035 25.808C97.035 28.121 95.3284 29.2166 92.037 29.2166Z" fill="#21A038"/>
<path d="M141.083 8.56201H130.884V33.3556H136.247V26.3355H141.123C147.625 26.3355 151.688 22.9269 151.688 17.4488C151.688 11.9706 147.625 8.56201 141.083 8.56201ZM140.961 22.1965H136.207V12.701H140.961C144.415 12.701 146.284 14.4054 146.284 17.4488C146.284 20.4922 144.415 22.1965 140.961 22.1965Z" fill="#21A038"/>
<path d="M71.8822 27.9992C70.46 28.7702 68.8753 29.176 67.2499 29.176C62.4144 29.176 58.9199 25.7268 58.9199 20.979C58.9199 16.2313 62.4144 12.7821 67.2499 12.7821C68.9972 12.7415 70.7038 13.3097 72.1261 14.3241L75.9863 11.4836L75.7425 11.2401C73.5076 9.25177 70.5007 8.2373 67.0874 8.2373C63.3897 8.2373 60.017 9.49525 57.5789 11.7677C55.1409 14.1212 53.7593 17.4081 53.8406 20.8167C53.7999 24.2659 55.1409 27.5934 57.5789 30.0281C60.1389 32.4223 63.5522 33.7614 67.0467 33.6802C70.907 33.6802 74.2797 32.3411 76.5552 29.9064L73.1013 27.3499L71.8822 27.9992Z" fill="#21A038"/>
<path d="M216.175 8.60259V33.3962H221.539V23.2515H232.957V33.3962H238.321V8.60259H232.957V18.7879H221.539V8.60259H216.175ZM206.951 33.3962H212.599L202.116 8.60259H196.671L185.984 33.3962H191.388L193.542 28.405H204.919L206.951 33.3962ZM195.167 24.266L199.312 14.3242L203.213 24.266H195.167ZM250.349 23.3733H253.681L261.889 33.3556H268.797L257.825 20.5328L267.415 8.56201H261.279L253.315 19.1937H250.349V8.56201H244.985V33.3556H250.349V23.3733ZM168.267 18.2603V12.7416H182.286V8.60259H162.903V33.3962H174.078C180.336 33.3962 183.952 30.5557 183.952 25.6051C183.952 20.8574 180.701 18.2603 174.769 18.2603H168.267ZM168.267 29.2572V22.3994H173.875C177.288 22.3994 178.873 23.5356 178.873 25.8486C178.873 28.1616 177.207 29.2978 173.875 29.2978H168.267V29.2572Z" fill="#21A038"/>
<path d="M37.0585 8.40039C38.0337 9.65833 38.8464 11.038 39.5372 12.4988L20.7641 26.3362L12.881 21.3856V15.4611L20.7234 20.3711L37.0585 8.40039Z" fill="#21A038"/>
<path d="M4.87605 20.9789C4.87605 20.6948 4.87605 20.4514 4.91669 20.1673L0.162461 19.9238C0.162461 20.2485 0.121826 20.6137 0.121826 20.9383C0.121826 26.6193 2.43799 31.7728 6.17636 35.5061L9.54902 32.138C6.66397 29.2975 4.87605 25.3614 4.87605 20.9789Z" fill="url(#paint0_linear)"/>
<path d="M20.7234 5.15348C21.0078 5.15348 21.2516 5.15348 21.5361 5.19406L21.7799 0.446341C21.4548 0.446341 21.0891 0.405762 20.764 0.405762C15.0752 0.405762 9.91464 2.71875 6.17627 6.452L9.54893 9.82004C12.3933 6.93895 16.3755 5.15348 20.7234 5.15348Z" fill="url(#paint1_linear)"/>
<path d="M20.7236 36.8047C20.4392 36.8047 20.1954 36.8047 19.9109 36.7642L19.6671 41.5119C19.9922 41.5119 20.3579 41.5525 20.683 41.5525C26.3718 41.5525 31.5324 39.2395 35.2707 35.5062L31.8981 32.1382C29.0537 35.0599 25.1121 36.8047 20.7236 36.8047Z" fill="url(#paint2_linear)"/>
<path d="M29.6632 7.91289L33.686 4.95064C30.1508 2.11012 25.6404 0.365234 20.7236 0.365234V5.11295C24.0557 5.15353 27.1439 6.168 29.6632 7.91289Z" fill="url(#paint3_linear)"/>
<path d="M41.3658 20.9788C41.3658 19.7209 41.2439 18.5035 41.0408 17.2861L36.6116 20.573C36.6116 20.6948 36.6116 20.8571 36.6116 20.9788C36.6116 25.6454 34.5799 29.825 31.3698 32.7061L34.5799 36.2364C38.7246 32.5032 41.3658 27.025 41.3658 20.9788Z" fill="#21A038"/>
<path d="M20.7235 36.805C16.0505 36.805 11.8652 34.776 8.98014 31.5703L5.44495 34.776C9.22395 38.9557 14.669 41.5527 20.7235 41.5527V36.805Z" fill="url(#paint4_linear)"/>
<path d="M10.1179 9.25155L6.90778 5.72119C2.72243 9.49502 0.121826 14.9326 0.121826 20.9788H4.87606C4.87606 16.3528 6.90778 12.1326 10.1179 9.25155Z" fill="url(#paint5_linear)"/>
<defs>
<linearGradient id="paint0_linear" x1="5.66903" y1="34.9284" x2="0.892391" y2="20.8895" gradientUnits="userSpaceOnUse">
<stop offset="0.1444" stop-color="#F2E913"/>
<stop offset="0.3037" stop-color="#E7E518"/>
<stop offset="0.5823" stop-color="#CADB26"/>
<stop offset="0.891" stop-color="#A3CD39"/>
</linearGradient>
<linearGradient id="paint1_linear" x1="7.53147" y1="5.91626" x2="19.8265" y2="1.15222" gradientUnits="userSpaceOnUse">
<stop offset="0.0592" stop-color="#0FA8E0"/>
<stop offset="0.5385" stop-color="#0099F9"/>
<stop offset="0.9234" stop-color="#0291EB"/>
</linearGradient>
<linearGradient id="paint2_linear" x1="19.388" y1="37.5148" x2="34.0666" y2="34.1416" gradientUnits="userSpaceOnUse">
<stop offset="0.1226" stop-color="#A3CD39"/>
<stop offset="0.2846" stop-color="#86C339"/>
<stop offset="0.8693" stop-color="#21A038"/>
</linearGradient>
<linearGradient id="paint3_linear" x1="19.7468" y1="3.38919" x2="31.9426" y2="7.21526" gradientUnits="userSpaceOnUse">
<stop offset="0.0566" stop-color="#0291EB"/>
<stop offset="0.79" stop-color="#0C8ACB"/>
</linearGradient>
<linearGradient id="paint4_linear" x1="6.65378" y1="35.5283" x2="19.7447" y2="40.5015" gradientUnits="userSpaceOnUse">
<stop offset="0.1324" stop-color="#F2E913"/>
<stop offset="0.2977" stop-color="#EBE716"/>
<stop offset="0.5306" stop-color="#D9E01F"/>
<stop offset="0.8023" stop-color="#BBD62D"/>
<stop offset="0.9829" stop-color="#A3CD39"/>
</linearGradient>
<linearGradient id="paint5_linear" x1="3.76462" y1="21.5523" x2="8.93061" y2="7.88814" gradientUnits="userSpaceOnUse">
<stop offset="0.0698" stop-color="#A3CD39"/>
<stop offset="0.2599" stop-color="#81C55F"/>
<stop offset="0.9216" stop-color="#0FA8E0"/>
</linearGradient>
</defs>
</svg>
