<svg width="126" height="34" viewBox="0 0 126 34" fill="none" xmlns="http://www.w3.org/2000/svg">
<path d="M16.4309 12.7127L26.1045 26.6387H20.6887L12.3598 14.7607H8.3634V26.6387H3.62V4.63264H0.0344238L2.42481 0.20166H8.3634V10.6648H12.3598L20.2779 0.20166H25.6564L16.4309 12.7127ZM24.6479 17.1065C24.6479 15.0462 25.1209 13.2464 26.0672 11.7073C26.9884 10.2676 28.2458 9.16293 29.8394 8.39347C31.4331 7.62389 33.1512 7.23916 34.9937 7.23916C36.8862 7.23916 38.5918 7.61147 40.1106 8.3562C41.7042 9.12566 42.9617 10.2676 43.8829 11.7819C44.8042 13.2712 45.2649 15.0462 45.2649 17.1065C45.2649 19.1917 44.8042 20.9914 43.8829 22.5056C42.9617 23.9951 41.7042 25.1494 40.1106 25.9685C38.5419 26.7628 36.8363 27.16 34.9937 27.16C33.1761 27.16 31.4704 26.7628 29.8768 25.9685C28.2583 25.1741 26.976 24.0198 26.0298 22.5056C25.1085 20.9666 24.6479 19.1669 24.6479 17.1065ZM105.211 7.83495H109.432V10.4041C110.079 9.41114 110.938 8.6541 112.009 8.13272C113.104 7.58662 114.511 7.31357 116.229 7.31357C117.997 7.31357 119.566 7.71073 120.936 8.50515C122.255 9.3243 123.276 10.491 123.998 12.0052C124.746 13.4947 125.118 15.2075 125.118 17.1437C125.118 19.1048 124.746 20.8424 123.998 22.3566C123.276 23.8461 122.255 25.0004 120.936 25.8196C120.313 26.2416 119.578 26.5519 118.732 26.7504C117.91 26.9739 117.076 27.0856 116.229 27.0856C114.76 27.0856 113.665 26.9739 112.942 26.7504C111.449 26.3036 110.39 25.559 109.768 24.5163V33.3038H105.211V7.83495ZM47.6927 7.83495H52.2119V14.9841H59.9434V7.83495H64.4253V26.6387H59.9434V18.7076H52.2119V26.6387H47.6927V7.83495ZM66.4048 7.83495H83.7724V11.4094H77.3482V26.6387H72.7543V11.4094H66.4048V7.83495ZM90.0098 7.83495C91.7029 12.4521 93.2468 17.0196 94.6412 21.5375C95.9608 17.0692 97.4548 12.5018 99.1231 7.83495H103.68L96.7327 27.011C96.16 28.5749 95.6123 29.7789 95.0894 30.6229C94.5167 31.4669 93.8071 32.0998 92.9605 32.522C92.1387 32.9687 91.0431 33.1922 89.6737 33.1922C88.9018 33.1922 88.4785 33.1797 88.4038 33.1549L86.8724 29.5803C87.3455 29.6797 87.9307 29.7292 88.6279 29.7292C89.4745 29.7292 90.1592 29.6051 90.6822 29.3569C91.1552 29.1583 91.5163 28.8852 91.7653 28.5378C92.0142 28.215 92.2259 27.8055 92.4001 27.3089L85.2291 7.83495H90.0098ZM29.2418 17.0692C29.2418 19.1296 29.7399 20.7059 30.7359 21.7981C31.7319 22.8656 33.1138 23.3993 34.8817 23.3993C36.6744 23.3993 38.0688 22.8656 39.0648 21.7981C40.0857 20.7059 40.5962 19.1296 40.5962 17.0692C40.5962 15.0586 40.0982 13.5443 39.1022 12.5265C38.1062 11.484 36.6994 10.9627 34.8817 10.9627C33.0889 10.9627 31.6945 11.484 30.6985 12.5265C29.7274 13.5443 29.2418 15.0586 29.2418 17.0692ZM109.656 17.1065C109.706 18.9682 110.203 20.4577 111.15 21.5748C112.096 22.6918 113.428 23.2503 115.146 23.2503C116.864 23.2503 118.184 22.6918 119.105 21.5748C120.051 20.4577 120.537 18.9682 120.562 17.1065C120.537 15.2695 120.051 13.8049 119.105 12.7127C118.184 11.5957 116.864 11.0371 115.146 11.0371C113.428 11.0371 112.096 11.5832 111.15 12.6754C110.203 13.7678 109.706 15.2447 109.656 17.1065Z" fill="#222222"/>
</svg>
