<svg width="293" height="39" viewBox="0 0 293 39" fill="none" xmlns="http://www.w3.org/2000/svg">
<g clip-path="url(#clip0)">
<path d="M85.404 11.0396C82.9563 11.0396 80.8639 13.1149 80.8639 15.5803V19.49H74.5865V11.0396H74.3737C71.926 11.0396 69.8322 13.1149 69.8322 15.5803V31.0605H70.045C72.494 31.0605 74.5865 28.9865 74.5865 26.5198V22.7437H80.8639V31.0605H85.6155V11.0396H85.404Z" fill="black"/>
<path d="M274.276 11.0396C271.828 11.0396 269.736 13.1149 269.736 15.5803V19.49H263.457V11.0396H263.244C260.796 11.0396 258.704 13.1149 258.704 15.5803V31.0605H258.918C261.363 31.0605 263.457 28.9865 263.457 26.5198V22.7437H269.736V31.0605H274.486V11.0396H274.276Z" fill="black"/>
<path d="M58.4936 27.5215C55.5857 27.5215 53.6646 22.7315 53.6646 17.1168C53.6646 11.505 55.6907 7.57438 58.4936 7.57438C61.2937 7.57438 63.4248 11.505 63.4248 17.1168C63.4248 23.4725 61.5936 27.5215 58.4936 27.5215ZM58.4936 3.71338C52.9791 3.71338 49.4092 8.50481 48.913 15.4747H43.3004V4.10756H43.2645C40.5349 4.10756 38.4065 6.28738 38.4065 8.96863V31.0607H38.4438C41.1223 31.0385 43.3004 28.8308 43.3004 26.091V19.0487H48.913C49.3359 25.5896 52.9197 31.487 58.4936 31.487C64.8871 31.487 68.2842 25.2553 68.2842 17.1531C68.2842 9.57592 64.6673 3.71338 58.4936 3.71338Z" fill="black"/>
<path d="M102.54 11.0396C100.983 11.0396 99.5869 11.5424 98.4716 13.328L92.2729 24.1965V11.0396H87.5214V31.0605H89.5337C91.0678 31.0605 92.4651 30.5604 93.6025 28.772L100.149 17.5331V26.5198C100.149 28.9865 102.24 31.0605 104.687 31.0605H104.902V11.0396H102.54Z" fill="black"/>
<path d="M198.103 11.0396C196.546 11.0396 195.145 11.5424 194.035 13.328L187.835 24.1965V11.0396H183.082V31.0605H185.097C186.63 31.0605 188.027 30.5604 189.163 28.772L195.71 17.5331V26.5198C195.71 28.9865 197.803 31.0605 200.25 31.0605H200.46V11.0396H198.103Z" fill="black"/>
<path d="M121.779 21.298C120.679 18.795 119.034 17.008 116.656 16.079L125.215 4.10596H119.881L111.612 15.9703V4.15889H111.507C108.775 4.15889 106.718 6.15903 106.718 8.87649V31.0591H106.825C109.556 31.0591 111.612 29.0576 111.612 26.3415V18.1139C114.06 18.1139 115.906 19.7603 116.791 21.9025L120.307 31.0591H125.692L121.779 21.298Z" fill="black"/>
<path d="M215.779 11.0396H201.487V14.8671H206.294V31.0605H206.507C208.988 31.0605 210.972 29.0199 210.972 26.5546V14.8671H215.779V11.0396Z" fill="black"/>
<path d="M166.55 27.414C168.75 25.0628 169.8 20.8341 170.298 17.5846L170.617 14.6888H174.306L175.441 27.414H166.55ZM179.838 27.2719L178.206 11.0396H166.822L166.113 15.902C165.475 20.2282 164.468 25.6659 160.622 27.9851L160.94 36.2781H161.194C163.068 36.2781 164.59 34.746 164.59 32.8531L164.654 31.0605H177.611L177.787 36.2781H178.039C179.917 36.2781 181.438 34.746 181.438 32.8531L181.605 27.9851L179.838 27.2719Z" fill="black"/>
<path d="M289.924 24.6604C288.87 22.5599 287.62 20.9554 285.739 20.1698L292.776 11.041H287.657L280.845 20.0626V11.041H276.089V31.0592H276.302C278.751 31.0592 280.845 28.9866 280.845 26.5198V21.961C282.828 21.961 284.249 23.4458 285.03 25.1966L287.886 31.0592H293L289.924 24.6604Z" fill="black"/>
<path d="M231.444 27.7637L228.569 27.7581V18.1934C229.173 18.0499 230.237 17.8452 231.159 17.8452C234.598 17.8452 236.61 19.9094 236.61 22.4639C236.61 25.2134 234.672 27.7637 231.444 27.7637ZM231.657 14.1959C230.487 14.1959 229.244 14.3965 228.569 14.5747V8.28739H234.867C237.12 8.28739 238.946 6.44882 238.946 4.17846V4.10742H223.818V31.0592H231.516C237.278 31.0592 241.576 27.9267 241.576 22.5684C241.576 17.9775 238.006 14.1959 231.657 14.1959Z" fill="black"/>
<path d="M148.098 19.6558C148.098 16.1165 149.339 14.2222 151.998 14.1526H152.178C153.489 14.1526 155.937 14.5802 156.079 18.5484L148.098 19.6558ZM160.194 20.5138C160.194 14.5092 157.319 11.0396 152.142 11.0396C146.891 11.0396 143.7 15.0092 143.7 21.1238C143.7 27.4126 147.14 31.346 152.923 31.346C156.112 31.346 158.349 30.5591 159.554 29.9156V25.9487C158.349 26.8067 156.682 27.8778 153.383 27.8778C150.404 27.8778 148.771 26.1632 148.382 22.9095L160.194 21.2659V20.5138Z" fill="black"/>
<path d="M253.068 28.6286C252.607 28.7372 251.437 28.8068 250.445 28.8068C247.89 28.8068 246.401 27.6995 246.401 25.2328C246.401 21.908 248.919 21.05 253.068 20.6572V28.6286ZM242.178 25.3762C242.178 29.1314 244.911 31.346 250.158 31.346H251.154C252.996 31.346 256.049 31.0591 257.362 30.8084V18.0832C257.362 13.0787 254.027 11.0396 250.017 11.0396C246.967 11.0396 244.629 11.9366 243.388 12.5424V15.7251C245.48 14.6164 247.358 13.9005 249.238 13.9005C251.509 13.9005 253.068 14.5802 253.068 17.118V18.4412C247.147 19.0137 242.178 20.2282 242.178 25.3762Z" fill="black"/>
<path d="M133.007 28.2721C132.332 28.2721 131.799 28.1996 131.339 28.0227V14.402C131.941 14.1875 132.544 14.0802 133.325 14.0802C136.412 14.0802 137.76 16.3325 137.76 21.1225C137.76 24.3386 136.944 28.2721 133.007 28.2721ZM133.431 11.041C130.739 11.041 128.501 11.5048 126.764 12.4353L126.658 12.5077V38.9957H126.906C129.353 38.9957 131.339 36.9593 131.339 34.4912V31.0257C132.013 31.2026 132.936 31.3461 133.965 31.3461C139.106 31.3461 142.477 27.1996 142.477 20.9791C142.477 14.7948 139.071 11.041 133.431 11.041Z" fill="black"/>
<path fill-rule="evenodd" clip-rule="evenodd" d="M17.2179 8.61511C17.2276 8.60118 17.2372 8.58586 17.2483 8.57054C17.504 8.19586 17.3976 7.91729 17.2262 7.76825C17.1184 7.67215 14.5533 6.10657 14.5533 6.10657C14.3681 5.98122 14.2451 5.76811 14.2451 5.52436C14.2451 5.14132 14.4731 4.85161 14.99 4.70815C16.6388 4.25129 22.4366 4.01172 24.4075 4.01172C25.0902 4.01172 26.2677 4.00893 27.325 4.03957L27.278 3.99361C24.3895 1.50736 20.6385 0.00585938 16.5421 0.00585938C7.40516 0.00585938 0 7.4674 0 16.6756C0 20.7232 1.43045 24.4324 3.81038 27.3212C5.88902 24.3084 11.0193 16.8859 12.1429 15.3691C13.4379 13.621 16.3928 9.73497 16.8917 9.07615L16.9166 9.0455L17.2179 8.61511Z" fill="#E2001A"/>
<path fill-rule="evenodd" clip-rule="evenodd" d="M6.45572 29.8877C9.24752 32.055 12.7442 33.3434 16.5421 33.3434C25.6776 33.3434 33.0828 25.8805 33.0828 16.6737C33.0828 13.8866 32.4042 11.261 31.2059 8.95308L31.2073 8.95447C31.7767 8.40151 32.4332 7.5268 32.002 6.42922C31.8666 6.1033 31.2239 5.3623 31.0581 5.18262L31.0815 5.24669C31.4837 6.47101 30.6877 7.23847 30.1155 7.7594C29.8017 8.04772 25.6016 12.0383 20.6759 16.3784C16.3334 20.2046 11.4782 24.0976 8.66428 26.2203C4.7074 29.2038 3.93758 29.6384 3.93758 29.6384C3.83254 29.6955 3.6584 29.7443 3.53125 29.7443C3.28939 29.7443 3.07931 29.6356 2.94663 29.4601L2.94249 29.4559C2.92176 29.5075 2.91485 29.552 2.93281 29.5827C3.35711 30.2763 4.06059 31.0772 4.47106 31.0772C4.59821 31.0772 4.77374 31.0285 4.87878 30.9728C4.87878 30.9728 5.18974 30.7986 6.45572 29.8877Z" fill="#E2001A"/>
<path fill-rule="evenodd" clip-rule="evenodd" d="M17.2414 8.56881C17.4957 8.19552 17.3892 7.91695 17.2192 7.76652C17.1114 7.67181 14.5463 6.10485 14.5463 6.10485C14.3611 5.97949 14.2381 5.76777 14.2381 5.52402C14.2381 5.1396 14.4661 4.85127 14.983 4.70642C16.6305 4.24956 22.4297 4.01138 24.3991 4.01138C25.3293 4.01138 27.1716 4.00442 28.3836 4.0852C29.7436 4.17435 30.776 4.45849 31.0317 5.12149C31.5362 6.42102 30.7028 7.22331 30.1112 7.76374C29.7989 8.05067 25.5988 12.0412 20.673 16.3813C16.3306 20.2075 11.4739 24.0992 8.66143 26.2233C4.70454 29.2068 3.93473 29.6413 3.93473 29.6413C3.82969 29.6985 3.65555 29.7472 3.52702 29.7472C3.11792 29.7472 2.7959 29.431 2.7959 29.0159C2.7959 28.8599 2.84289 28.7123 2.92581 28.5939C2.92581 28.5939 10.7166 17.2811 12.136 15.3673C13.554 13.4563 16.9566 8.9797 16.9566 8.9797C16.9566 8.9797 16.9967 8.92956 17.2414 8.56881Z" fill="#FEFEFE"/>
</g>
<defs>
<clipPath id="clip0">
<rect width="293" height="39" fill="white"/>
</clipPath>
</defs>
</svg>
