<svg width="264" height="171" viewBox="0 0 264 171" fill="none" xmlns="http://www.w3.org/2000/svg">
<g clip-path="url(#clip0)">
<rect width="264" height="171" fill="url(#paint0_linear)"/>
<g filter="url(#filter0_d)">
<path d="M-25.8154 -13.7556C-63.7869 23.0212 -62.6616 85.4319 -23.3017 125.643C16.0582 165.854 78.7477 168.637 116.719 131.861C135.586 113.587 127.61 99.7087 138.866 58.7493C138.53 33.371 134.008 12.6935 114.205 -7.53769C95.9742 -26.163 81.0044 -37.7674 57.5375 -40.1211C30.3408 -42.8488 -5.43189 -33.4977 -25.8154 -13.7556Z" fill="url(#paint1_linear)"/>
<path d="M-25.8154 -13.7556C-63.7869 23.0212 -62.6616 85.4319 -23.3017 125.643C16.0582 165.854 78.7477 168.637 116.719 131.861C135.586 113.587 127.61 99.7087 138.866 58.7493C138.53 33.371 134.008 12.6935 114.205 -7.53769C95.9742 -26.163 81.0044 -37.7674 57.5375 -40.1211C30.3408 -42.8488 -5.43189 -33.4977 -25.8154 -13.7556Z" fill="url(#paint2_radial)" fill-opacity="0.29"/>
</g>
<g filter="url(#filter1_d)">
<path d="M180.83 80.7959C157.398 103.491 158.092 142.004 182.381 166.818C206.67 191.632 245.355 193.35 268.787 170.655C280.43 159.379 275.508 150.814 282.454 125.538C282.247 109.877 279.456 97.1175 267.236 84.6329C255.986 73.1394 246.748 65.9783 232.267 64.5259C215.484 62.8426 193.409 68.6131 180.83 80.7959Z" fill="url(#paint3_linear)"/>
<path d="M180.83 80.7959C157.398 103.491 158.092 142.004 182.381 166.818C206.67 191.632 245.355 193.35 268.787 170.655C280.43 159.379 275.508 150.814 282.454 125.538C282.247 109.877 279.456 97.1175 267.236 84.6329C255.986 73.1394 246.748 65.9783 232.267 64.5259C215.484 62.8426 193.409 68.6131 180.83 80.7959Z" fill="url(#paint4_radial)"/>
<path d="M180.83 80.7959C157.398 103.491 158.092 142.004 182.381 166.818C206.67 191.632 245.355 193.35 268.787 170.655C280.43 159.379 275.508 150.814 282.454 125.538C282.247 109.877 279.456 97.1175 267.236 84.6329C255.986 73.1394 246.748 65.9783 232.267 64.5259C215.484 62.8426 193.409 68.6131 180.83 80.7959Z" fill="url(#paint5_radial)" fill-opacity="0.29"/>
</g>
</g>
<path fill-rule="evenodd" clip-rule="evenodd" d="M90.8475 52.2605V88.6198C93.4277 88.7933 96.7824 88.8803 100.911 88.8803C105.04 88.8803 108.309 87.9417 110.717 86.0638C113.126 84.186 114.33 81.4735 114.33 77.9263C114.33 75.6654 113.762 73.8226 112.627 72.3968C111.492 70.936 109.943 69.9448 107.982 69.4238V69.3192C111.423 67.7194 113.143 64.955 113.143 61.0247C113.143 58.2082 112.163 55.9998 110.201 54.4C108.241 52.8002 105.264 52 101.273 52C98.0387 52 94.5638 52.087 90.848 52.2605H90.8475ZM97.195 72.9704H101.685C103.681 72.9704 105.229 73.3699 106.33 74.1701C107.431 74.9353 107.982 76.0824 107.982 77.6127C107.982 81.1254 105.779 82.8812 101.375 82.8812C100.206 82.8812 98.8119 82.7947 97.1944 82.6207V72.9704H97.195ZM97.195 58.1557C98.3305 58.0511 99.6556 57.9991 101.17 57.9991C102.959 57.9991 104.352 58.3987 105.35 59.1988C106.348 59.964 106.847 61.0767 106.847 62.5375C106.847 64.1022 106.348 65.302 105.35 66.1366C104.387 66.9713 103.096 67.3883 101.479 67.3883H97.195V58.1551V58.1557ZM126.056 88.6718H132.404V52.1565H126.056V88.6718ZM143.845 58.1557H162.786L142.813 84.29V88.6718H171.818V82.6727H151.277L171.302 56.5903V52.1565H143.845V58.1557V58.1557ZM90 121.999H93.4564V107.713L99.7222 116.461H100.229L106.438 107.629V121.999H109.866V102.119H106.607L100.2 111.406L93.4846 102.119H90V121.999V121.999ZM114.204 121.999H117.688L119.739 116.916H128.141L130.192 121.999H133.873L125.555 102.062H122.52L114.203 121.999H114.204ZM123.954 106.578L126.82 113.65H121.06L123.953 106.578H123.954ZM141.681 121.999V114.558H144.097L149.52 121.999H153.707L147.553 113.877C148.547 113.536 149.426 112.893 150.195 111.946C150.963 110.961 151.347 109.712 151.347 108.197C151.347 104.107 148.967 102.063 144.21 102.063C143.479 102.063 142.542 102.072 141.4 102.091C140.257 102.11 139.199 102.119 138.224 102.119V122H141.681V121.999ZM143.591 105.357C143.798 105.338 143.947 105.328 144.041 105.328C146.476 105.328 147.694 106.294 147.694 108.225C147.694 109.171 147.338 109.92 146.626 110.469C145.933 111.018 145.034 111.293 143.929 111.293H141.681V105.385H142.72C143.095 105.366 143.385 105.357 143.591 105.357V105.357ZM158.124 121.999H161.581V111.747L169.617 121.999H174L165.402 111.378L173.494 102.119H169.335L161.58 111.548V102.119H158.124V121.999H158.124Z" fill="white"/>
<defs>
<filter id="filter0_d" x="-77.5742" y="-55.5859" width="246.44" height="252.306" filterUnits="userSpaceOnUse" color-interpolation-filters="sRGB">
<feFlood flood-opacity="0" result="BackgroundImageFix"/>
<feColorMatrix in="SourceAlpha" type="matrix" values="0 0 0 0 0 0 0 0 0 0 0 0 0 0 0 0 0 0 127 0" result="hardAlpha"/>
<feOffset dx="3" dy="12"/>
<feGaussianBlur stdDeviation="13.5"/>
<feColorMatrix type="matrix" values="0 0 0 0 0 0 0 0 0 0 0 0 0 0 0 0 0 0 1 0"/>
<feBlend mode="normal" in2="BackgroundImageFix" result="effect1_dropShadow"/>
<feBlend mode="normal" in="SourceGraphic" in2="effect1_dropShadow" result="shape"/>
</filter>
<filter id="filter1_d" x="139.701" y="49.2393" width="172.754" height="176.374" filterUnits="userSpaceOnUse" color-interpolation-filters="sRGB">
<feFlood flood-opacity="0" result="BackgroundImageFix"/>
<feColorMatrix in="SourceAlpha" type="matrix" values="0 0 0 0 0 0 0 0 0 0 0 0 0 0 0 0 0 0 127 0" result="hardAlpha"/>
<feOffset dx="3" dy="12"/>
<feGaussianBlur stdDeviation="13.5"/>
<feColorMatrix type="matrix" values="0 0 0 0 0 0 0 0 0 0 0 0 0 0 0 0 0 0 1 0"/>
<feBlend mode="normal" in2="BackgroundImageFix" result="effect1_dropShadow"/>
<feBlend mode="normal" in="SourceGraphic" in2="effect1_dropShadow" result="shape"/>
</filter>
<linearGradient id="paint0_linear" x1="82.8837" y1="85.5" x2="131.751" y2="132.58" gradientUnits="userSpaceOnUse">
<stop stop-color="#2F2E52"/>
<stop offset="1" stop-color="#05042E"/>
</linearGradient>
<linearGradient id="paint1_linear" x1="65.3582" y1="120.781" x2="-44.2506" y2="66.3235" gradientUnits="userSpaceOnUse">
<stop offset="0.0833333" stop-color="#080E2B"/>
<stop offset="0.909138" stop-color="#040922"/>
</linearGradient>
<radialGradient id="paint2_radial" cx="0" cy="0" r="1" gradientUnits="userSpaceOnUse" gradientTransform="translate(138.235 61.2393) rotate(-122.572) scale(88.136 105.678)">
<stop offset="0.361005" stop-color="#525252"/>
<stop offset="0.827489" stop-color="#050505"/>
<stop offset="0.99031" stop-color="#070101"/>
</radialGradient>
<linearGradient id="paint3_linear" x1="237.093" y1="163.818" x2="169.454" y2="130.212" gradientUnits="userSpaceOnUse">
<stop offset="0.0833333" stop-color="#070645"/>
<stop offset="0.909138" stop-color="#0A0950"/>
</linearGradient>
<radialGradient id="paint4_radial" cx="0" cy="0" r="1" gradientUnits="userSpaceOnUse" gradientTransform="translate(198.001 82.1334) rotate(-0.933396) scale(54.7904 68.249)">
<stop offset="0.361005" stop-color="#202020"/>
<stop offset="0.827489" stop-color="#050505"/>
<stop offset="0.99031" stop-color="#070101"/>
</radialGradient>
<radialGradient id="paint5_radial" cx="0" cy="0" r="1" gradientUnits="userSpaceOnUse" gradientTransform="translate(282.065 127.075) rotate(-122.572) scale(54.3883 65.2134)">
<stop offset="0.361005" stop-color="#041157"/>
<stop offset="0.827489" stop-color="#010A3A"/>
<stop offset="0.99031" stop-color="#29278E"/>
</radialGradient>
<clipPath id="clip0">
<rect width="264" height="171" rx="4" fill="white"/>
</clipPath>
</defs>
</svg>
