<svg width="41" height="41" viewBox="0 0 41 41" fill="none" xmlns="http://www.w3.org/2000/svg">
<path d="M39.7527 30.3849L37.9015 26.435H38.8401V25.1184H32.1635C32.0597 24.7176 31.8633 24.356 31.5987 24.0532V20.896L29.6238 18.9211L27.6489 20.896V24.0532C27.3843 24.356 27.1879 24.7176 27.0841 25.1184H23.699V22.4852C24.4252 22.4852 25.0157 21.8947 25.0157 21.1686V19.852C25.0157 19.1259 24.4252 18.5354 23.699 18.5354H20.4075V17.727C20.4075 16.3621 19.5489 15.1239 18.2719 14.6447L15.1411 13.4708V12.9134C15.6393 12.4663 16.0231 11.8964 16.2436 11.249C17.484 11.0365 18.4326 9.96002 18.4326 8.66077V6.02754C18.4326 2.76108 15.7749 0.102783 12.5078 0.102783C9.24072 0.102783 6.58307 2.76108 6.58307 6.02754V8.66077C6.58307 9.96002 7.53163 11.0365 8.77207 11.249C8.99257 11.8957 9.37637 12.4656 9.8746 12.9134V13.4708L6.74443 14.6453C5.46671 15.1239 4.60815 16.3621 4.60815 17.727V18.5354H1.31661C0.590483 18.5354 0 19.1259 0 19.852V21.1686C0 21.8947 0.590483 22.4852 1.31661 22.4852V36.968H23.699V34.3347H25.5296L26.5171 30.3849H25.2689L23.4181 26.435H27.0841C27.1879 26.8359 27.3843 27.1972 27.6489 27.5V36.968C26.5602 36.968 25.674 37.8538 25.674 38.9429V40.9178H33.5736V38.9429C33.5736 37.8538 32.6874 36.968 31.5987 36.968V27.5C31.8633 27.1972 32.0597 26.8359 32.1635 26.435H35.8295L33.9787 30.3849H32.7305L33.718 34.3347H40.0124L40.9998 30.3849H39.7527ZM29.6238 27.0934C28.8977 27.0934 28.3072 26.5029 28.3072 25.7767C28.3072 25.0506 28.8977 24.4601 29.6238 24.4601C30.3499 24.4601 30.9404 25.0506 30.9404 25.7767C30.9404 26.5029 30.3499 27.0934 29.6238 27.0934ZM29.6238 20.7829L30.2821 21.4412V23.2371C30.0703 23.1818 29.8523 23.1435 29.6238 23.1435C29.3953 23.1435 29.1773 23.1818 28.9655 23.2371V21.4412L29.6238 20.7829ZM12.5078 12.6106C11.0556 12.6106 9.8746 11.4296 9.8746 9.97738V7.29723C11.0135 7.19276 12.1108 6.83532 13.0813 6.21494L13.0864 6.22041C13.6441 6.77778 14.3696 7.14647 15.1411 7.28276V9.97738C15.1411 11.4296 13.9601 12.6106 12.5078 12.6106ZM16.4577 9.79416V7.5277C16.8495 7.75624 17.116 8.17604 17.116 8.66141C17.116 9.14646 16.8495 9.56594 16.4577 9.79416ZM12.5078 1.4194C15.0482 1.4194 17.116 3.48625 17.116 6.02754V6.39334C16.727 6.16705 16.2812 6.02754 15.7994 6.02754C15.1359 6.02754 14.4866 5.75818 14.0173 5.28952L13.2497 4.52192L12.4689 5.04265C11.5027 5.6865 10.3777 6.02754 9.21629 6.02754C8.73446 6.02754 8.28862 6.16705 7.89968 6.39334V6.02754C7.89968 3.48625 9.9675 1.4194 12.5078 1.4194ZM7.89968 8.66077C7.89968 8.1754 8.16615 7.7556 8.55799 7.52706V9.79352C8.16615 9.56594 7.89968 9.14582 7.89968 8.66077ZM12.5078 13.9272C12.9701 13.9272 13.4117 13.843 13.8244 13.6968V13.9272C13.8244 14.6534 13.234 15.2438 12.5078 15.2438C11.7817 15.2438 11.1912 14.6534 11.1912 13.9272V13.6968C11.6039 13.843 12.0456 13.9272 12.5078 13.9272ZM5.92476 17.727C5.92476 16.9079 6.4397 16.1654 7.20634 15.8777L10.0392 14.815C10.4059 15.8295 11.369 16.5604 12.5078 16.5604C13.6467 16.5604 14.6097 15.8295 14.9758 14.815L17.8093 15.8777C18.5759 16.1654 19.0909 16.9079 19.0909 17.727V18.5354H5.92476V17.727ZM1.31661 19.852H23.699L23.7003 21.1686H1.31661V19.852ZM22.3824 35.6513H6.58307V26.435H17.116V25.1184H5.26645V35.6513H2.63323V22.4852H22.3824V25.1184H20.4075V26.435H21.3468L19.4959 30.3849H18.2478L19.2352 34.3347H22.3824V35.6513ZM24.5017 33.0181H20.2632L19.934 31.7015H24.8308L24.5017 33.0181ZM20.9495 30.3849L22.3824 27.3277L23.8154 30.3849H20.9495ZM32.257 38.9429V39.6012H26.9906V38.9429C26.9906 38.5793 27.2857 38.2846 27.6489 38.2846H31.5987C31.9619 38.2846 32.257 38.5793 32.257 38.9429ZM28.9655 36.968V28.3164C29.1773 28.3717 29.3953 28.41 29.6238 28.41C29.8523 28.41 30.0703 28.3717 30.2821 28.3164V36.968H28.9655ZM36.8652 27.3277L38.2981 30.3849H35.4322L36.8652 27.3277ZM38.9844 33.0181H34.7459L34.4168 31.7015H39.3136L38.9844 33.0181Z" fill="white"/>
</svg>
