<svg width="39" height="39" viewBox="0 0 39 39" fill="none" xmlns="http://www.w3.org/2000/svg">
<path d="M25.2363 16.0839C25.1494 16.5703 24.9042 17.6037 24.3236 18.1997C24.0686 18.4614 24.0134 18.8542 24.1859 19.1772C24.3343 19.4547 24.6187 19.6214 24.9239 19.6213C24.9749 19.6213 25.0266 19.6166 25.0782 19.607C27.7891 19.1044 28.9452 17.9978 29.4368 17.1116C34.0722 17.0375 37.8202 13.2436 37.8202 8.59106C37.8202 3.90093 34.0047 0.0781719 29.3147 0.0693359C29.3095 0.0693359 29.3043 0.0693359 29.299 0.0693359C28.3646 0.0693359 27.4454 0.220461 26.5668 0.518522C26.269 0.619525 26.1095 0.942799 26.2105 1.24048C26.3115 1.53823 26.6352 1.69759 26.9325 1.59673C27.6931 1.33866 28.4893 1.20788 29.299 1.20788H29.3127C33.3759 1.21549 36.6816 4.52752 36.6816 8.59106C36.6816 12.6621 33.3696 15.9742 29.2963 15.9742C28.9504 15.9742 28.6389 16.1678 28.4832 16.4795C27.9801 17.4876 26.7009 18.0282 25.6547 18.3103C26.1141 17.5305 26.3091 16.6304 26.3897 16.0858C26.446 15.705 26.2545 15.3305 25.9132 15.1542C23.4473 13.8794 21.9155 11.3646 21.9154 8.59122C21.9154 6.29799 22.9584 4.17203 24.7769 2.75881C25.0252 2.56587 25.0701 2.20824 24.8771 1.96C24.6842 1.71168 24.3265 1.66689 24.0783 1.85983C21.9802 3.49037 20.7769 5.94386 20.7769 8.59122C20.7769 11.7338 22.4811 14.5888 25.2363 16.0839Z" fill="white"/>
<path d="M9.51169 15.1578C9.19725 15.1578 8.94238 15.4126 8.94238 15.7271V16.687C8.94238 17.0014 9.19725 17.2563 9.51169 17.2563C9.82613 17.2563 10.081 17.0014 10.081 16.687V15.7271C10.081 15.4126 9.82613 15.1578 9.51169 15.1578Z" fill="white"/>
<path d="M13.8944 15.1578C13.58 15.1578 13.3251 15.4126 13.3251 15.7271V16.687C13.3251 17.0014 13.58 17.2563 13.8944 17.2563C14.2088 17.2563 14.4638 17.0014 14.4638 16.687V15.7271C14.4637 15.4126 14.2088 15.1578 13.8944 15.1578Z" fill="white"/>
<path d="M12.0407 19.4033C11.9556 19.4944 11.8401 19.5445 11.7156 19.5445C11.5866 19.5445 11.4641 19.4886 11.3794 19.3912C11.1734 19.1538 10.8138 19.1285 10.5763 19.3346C10.339 19.5408 10.3137 19.9004 10.5198 20.1377C10.8209 20.4843 11.2566 20.683 11.7155 20.683C12.1523 20.683 12.574 20.5 12.8723 20.1808C13.087 19.9511 13.0749 19.5909 12.8452 19.3762C12.6157 19.1615 12.2555 19.1738 12.0407 19.4033Z" fill="white"/>
<path d="M22.8465 34.9993H22.2264V22.7413C22.2264 22.1969 21.7836 21.754 21.2392 21.754H20.0689V17.3815C20.2652 17.0982 20.3807 16.7547 20.3807 16.3846V16.3695C20.3807 15.9995 20.2652 15.656 20.0689 15.3727V12.1229C20.0689 7.51004 16.316 3.75713 11.703 3.75713C7.09015 3.75713 3.33724 7.51004 3.33724 12.1229V15.3727C3.14087 15.656 3.02539 15.9995 3.02539 16.3696V16.3847C3.02539 16.7547 3.14087 17.0982 3.33724 17.3815V21.7541H2.16701C1.62261 21.7541 1.17975 22.197 1.17975 22.7414V26.471C1.17975 26.7854 1.43462 27.0403 1.74906 27.0403C2.0635 27.0403 2.31837 26.7854 2.31837 26.471V22.8926H21.088V34.9994H2.31829V29.0484C2.31829 28.734 2.06342 28.4791 1.74898 28.4791C1.43455 28.4791 1.17967 28.734 1.17967 29.0484V34.9994H0.986731C0.442711 34.9993 0 35.4421 0 35.9863V37.944C0 38.4882 0.442711 38.9308 0.986883 38.9308H22.8465C23.3906 38.9308 23.8333 38.4881 23.8333 37.944V35.9863C23.8333 35.4421 23.3906 34.9993 22.8465 34.9993ZM4.47586 12.1229C4.47586 8.13777 7.71796 4.89567 11.7031 4.89567C15.6883 4.89567 18.9304 8.13777 18.9304 12.1229V14.642C18.8316 14.6246 18.7301 14.6151 18.6264 14.6151H18.4148V13.8411C18.4148 13.5179 18.1337 13.2539 17.812 13.2728C14.2024 13.4847 12.2088 11.3651 12.1237 11.2725C12.0013 11.1392 11.7985 11.0643 11.6184 11.0865C11.4408 11.1085 11.3013 11.2588 11.1798 11.3763C11.1104 11.4436 11.0382 11.5081 10.9648 11.571C10.4055 12.0493 9.75906 12.4285 9.07969 12.7085C7.97908 13.1623 6.78067 13.3422 5.59406 13.2727C5.43022 13.2631 5.26713 13.3272 5.15265 13.4447C5.02422 13.5764 4.99131 13.7741 4.99131 13.9523V14.615H4.77986C4.67612 14.615 4.57465 14.6246 4.47586 14.6419V12.1229ZM4.16401 16.3846V16.3695C4.16401 16.0299 4.44029 15.7536 4.77986 15.7536H4.99131V17.0004H4.77986C4.44021 17.0004 4.16401 16.7242 4.16401 16.3846ZM4.47586 21.754V18.1121C4.57465 18.1295 4.67619 18.139 4.77986 18.139H5.03748C5.19599 19.512 5.76918 20.7604 6.63015 21.754H4.47586ZM15.1334 21.754H8.27516C6.97255 20.7348 6.13237 19.1509 6.13001 17.373V15.1844L6.12993 15.1821V14.4256C9.00138 14.4159 10.9058 13.1134 11.703 12.4353C12.5002 13.1135 14.4045 14.4159 17.2762 14.4256V15.1844V17.3654C17.2762 19.1457 16.4367 20.7331 15.1334 21.754ZM18.9304 21.754H16.7762C17.6371 20.7604 18.2102 19.512 18.3686 18.139H18.6263C18.7301 18.139 18.8315 18.1294 18.9303 18.1121L18.9304 21.754ZM19.2422 16.3846C19.2422 16.7242 18.9659 17.0004 18.6263 17.0004H18.4147V15.7537H18.6263C18.9659 15.7537 19.2422 16.0299 19.2422 16.3696V16.3846ZM22.6948 37.7922H1.13854V36.1379H22.6948V37.7922Z" fill="white"/>
<path d="M13.5611 28.9459C13.5611 27.6896 12.539 26.6673 11.2825 26.6673C10.0261 26.6673 9.00391 27.6895 9.00391 28.9459C9.00391 30.2024 10.0261 31.2246 11.2825 31.2246C12.539 31.2246 13.5611 30.2024 13.5611 28.9459ZM10.1425 28.9459C10.1425 28.3173 10.6539 27.8059 11.2826 27.8059C11.9112 27.8059 12.4227 28.3173 12.4227 28.9459C12.4227 29.5746 11.9112 30.086 11.2826 30.086C10.6539 30.086 10.1425 29.5746 10.1425 28.9459Z" fill="white"/>
<path d="M25.5061 6.35116H33.091C33.4054 6.35116 33.6603 6.09629 33.6603 5.78185C33.6603 5.46741 33.4054 5.21254 33.091 5.21254H25.5061C25.1916 5.21254 24.9368 5.46741 24.9368 5.78185C24.9368 6.09636 25.1916 6.35116 25.5061 6.35116Z" fill="white"/>
<path d="M33.6602 8.18279C33.6602 7.86835 33.4053 7.61348 33.0908 7.61348H25.506C25.1915 7.61348 24.9366 7.86835 24.9366 8.18279C24.9366 8.49723 25.1915 8.7521 25.506 8.7521H33.0908C33.4054 8.7521 33.6602 8.49723 33.6602 8.18279Z" fill="white"/>
<path d="M25.5061 10.0145C25.1916 10.0145 24.9368 10.2694 24.9368 10.5838C24.9368 10.8982 25.1916 11.1531 25.5061 11.1531H30.0568C30.3713 11.1531 30.6261 10.8982 30.6261 10.5838C30.6261 10.2694 30.3713 10.0145 30.0568 10.0145H25.5061Z" fill="white"/>
</svg>
