<svg width="198" height="52" viewBox="0 0 198 52" fill="none" xmlns="http://www.w3.org/2000/svg">
<path d="M25.9546 19.6535L41.2673 41.5298H32.6945L19.5103 22.8707H13.1843V41.5298H5.67575V6.9606H0L3.78383 0H13.1843V16.4365H19.5103L32.0442 0H40.558L25.9546 19.6535ZM38.9616 26.5556C38.9616 23.3191 39.7104 20.4919 41.2083 18.0742C42.6665 15.8124 44.6569 14.0772 47.1795 12.8685C49.7021 11.6595 52.4218 11.0552 55.3385 11.0552C58.334 11.0552 61.034 11.64 63.4382 12.8099C65.9608 14.0187 67.9512 15.8124 69.4095 18.1913C70.8679 20.5309 71.5971 23.3191 71.5971 26.5556C71.5971 29.8314 70.8679 32.6585 69.4095 35.0371C67.9512 37.3769 65.9608 39.1902 63.4382 40.477C60.9551 41.7248 58.2551 42.3486 55.3385 42.3486C52.4612 42.3486 49.7613 41.7248 47.2387 40.477C44.6767 39.229 42.6468 37.4157 41.1491 35.0371C39.6907 32.6194 38.9616 29.7923 38.9616 26.5556ZM166.488 11.9911H173.169V16.0269C174.194 14.4671 175.554 13.2779 177.249 12.4589C178.983 11.601 181.21 11.1721 183.929 11.1721C186.728 11.1721 189.211 11.7959 191.379 13.0439C193.467 14.3307 195.083 16.1635 196.227 18.5421C197.41 20.8819 198 23.5726 198 26.6142C198 29.6948 197.41 32.4245 196.227 34.8031C195.083 37.1429 193.467 38.9562 191.379 40.243C190.393 40.9059 189.23 41.3934 187.89 41.7052C186.59 42.0563 185.269 42.2317 183.929 42.2317C181.604 42.2317 179.87 42.0563 178.727 41.7052C176.362 41.0033 174.687 39.8336 173.701 38.1957V52H166.488V11.9911ZM75.4401 11.9911H82.5938V23.2216H94.8322V11.9911H101.927V41.5298H94.8322V29.0709H82.5938V41.5298H75.4401V11.9911ZM105.06 11.9911H132.552V17.6062H122.383V41.5298H115.111V17.6062H105.06V11.9911ZM142.425 11.9911C145.106 19.2441 147.55 26.4192 149.757 33.5163C151.846 26.4971 154.211 19.3221 156.851 11.9911H164.064L153.068 42.1147C152.161 44.5714 151.294 46.4627 150.466 47.7885C149.56 49.1144 148.436 50.1086 147.096 50.7717C145.795 51.4735 144.061 51.8246 141.894 51.8246C140.672 51.8246 140.002 51.805 139.883 51.766L137.459 46.1507C138.208 46.3068 139.134 46.3847 140.238 46.3847C141.578 46.3847 142.662 46.1897 143.49 45.7998C144.239 45.4878 144.81 45.0588 145.204 44.513C145.598 44.006 145.934 43.3626 146.209 42.5826L134.858 11.9911H142.425ZM46.2335 26.4971C46.2335 29.7338 47.0219 32.21 48.5985 33.9257C50.1751 35.6026 52.3626 36.441 55.1611 36.441C57.9989 36.441 60.2061 35.6026 61.7827 33.9257C63.3987 32.21 64.2069 29.7338 64.2069 26.4971C64.2069 23.3386 63.4185 20.9598 61.8419 19.361C60.2653 17.7233 58.0384 16.9045 55.1611 16.9045C52.3231 16.9045 50.116 17.7233 48.5394 19.361C47.0022 20.9598 46.2335 23.3386 46.2335 26.4971ZM173.524 26.5556C173.603 29.4803 174.391 31.8201 175.889 33.5749C177.387 35.3296 179.495 36.207 182.215 36.207C184.935 36.207 187.023 35.3296 188.481 33.5749C189.98 31.8201 190.748 29.4803 190.787 26.5556C190.748 23.67 189.98 21.3692 188.481 19.6535C187.023 17.8987 184.935 17.0214 182.215 17.0214C179.495 17.0214 177.387 17.8792 175.889 19.595C174.391 21.3109 173.603 23.631 173.524 26.5556Z" fill="#222222"/>
</svg>
