<svg width="219" height="46" viewBox="0 0 219 46" fill="none" xmlns="http://www.w3.org/2000/svg">
<path d="M37.4481 2C31.0052 2 26.0964 4.13523 25.994 4.13523C25.7895 4.242 25.5851 4.45552 25.6872 4.77581L26.3009 9.04625C26.3009 9.15302 26.4032 9.25978 26.4032 9.25978C26.5053 9.25978 26.6077 9.36654 26.71 9.25978C26.71 9.25978 29.2667 8.51245 31.7212 7.97864C35.8119 7.23131 38.0618 7.44483 39.1868 8.6192C39.8005 9.25978 40.1073 10.1139 39.9026 11.395L39.8005 12.2491C39.8005 12.2491 34.8915 12.8897 31.6188 13.5302C28.3462 14.1708 26.3009 14.9181 24.7668 15.9857C21.392 18.2277 20.5737 22.7118 21.1874 25.9145C21.801 28.6903 24.1532 32 32.1301 32H32.8461C45.1184 32 46.7547 29.8648 47.266 25.1673L47.9819 18.9751L48.9024 10.8612C49.2092 8.29893 48.8001 6.48398 47.5728 4.98933C45.8342 2.96085 42.5616 2 37.4481 2ZM39.1868 17.6939L38.88 20.1494L38.1641 26.2348H38.0618C37.9596 26.2348 36.7323 26.6619 34.5846 26.6619C33.7665 26.6619 32.028 26.6619 30.903 25.4875C30.2894 24.847 29.9826 23.8861 29.9826 22.7118C29.9826 20.2563 31.4143 18.7615 34.1757 18.2277C37.0391 17.6939 39.289 17.3736 39.289 17.3736L39.1868 17.6939Z" fill="#F1361D"/>
<path d="M152.223 2H151.276C144.545 2 140.023 3.92171 137.815 7.76512C136.027 10.8612 135.081 21.217 135.081 21.3238C134.87 23.3523 135.081 24.847 135.606 26.2348C137.499 31.3594 144.019 32 147.805 32C154.536 32 159.058 30.0783 161.266 26.3416C161.896 25.1673 162.949 21.9644 163.895 13.2099V12.8897C164.105 11.0747 164.001 9.58006 163.579 8.19216C162.107 3.28114 156.639 2.10677 152.223 2ZM153.8 21.0035V21.1103C153.695 22.2847 153.378 23.8861 152.223 24.9536C151.486 25.701 150.329 26.1281 148.962 26.2348C147.7 26.3416 146.754 26.1281 145.912 25.701C144.861 25.1673 144.23 23.8861 144.124 22.6049C144.019 21.7509 144.755 16.7331 145.176 13.9573L145.386 12.6761C145.597 11.5018 146.017 9.90035 147.385 8.72597C148.226 7.97864 149.383 7.65835 150.539 7.65835C151.696 7.65835 152.642 7.87187 153.273 8.29893C154.431 9.04625 154.745 10.4342 154.851 11.395C154.851 12.0356 154.536 15.3451 153.8 21.0035Z" fill="#F1361D"/>
<path d="M134.679 3H130.617C127.197 3 125.807 4.84615 125.059 5.76923L114.69 18.0769L115.01 17.359L116.828 3.41025C116.828 3.3077 116.828 3.20513 116.721 3.10257C116.614 3 116.614 3 116.507 3H108.062C107.848 3 107.634 3.20513 107.528 3.41025L104 30.5897C104 30.6923 104 30.7949 104.107 30.7949C104.214 30.8974 104.214 30.8974 104.321 30.8974H108.703C112.124 30.8974 113.621 28.7435 114.155 28.1283L124.203 15.5128L123.883 16.3333L122.066 30.5897C122.066 30.6923 122.066 30.7949 122.172 30.8974C122.279 31 122.279 31 122.493 31H130.938C131.152 31 131.366 30.7949 131.472 30.5897L135 3.3077C135 3.20513 135 3.10257 134.893 3.10257C134.786 3 134.786 3 134.679 3Z" fill="#F1361D"/>
<path d="M194.788 2L186.232 3.05455C186.021 3.05455 185.809 3.26546 185.703 3.58183L184.542 13.3891L184.436 13.8109H176.302L177.676 2.31637C177.676 2.21091 177.676 2.10546 177.57 2.10546C177.464 2 177.464 2 177.359 2L168.803 3.05455C168.591 3.05455 168.379 3.26546 168.275 3.58183L165 30.5781C165 30.6836 165 30.789 165.106 30.8945C165.21 31 165.21 31 165.316 31H173.662C173.872 31 174.084 30.789 174.19 30.5781L175.562 19.7164V19.6109H183.697L182.324 30.5781C182.324 30.6836 182.324 30.789 182.43 30.8945C182.534 31 182.534 31 182.64 31H184.754C188.662 31 191.408 30.5781 192.041 26.0436L195 2.31637C195 2.21091 195 2.10546 194.894 2.10546C194.894 2 194.894 2 194.788 2Z" fill="#F1361D"/>
<path d="M104.263 8.32727L105 2.52728C105 2.42182 105 2.31635 104.895 2.21091C104.789 2.10545 104.789 2.10545 104.684 2.10545H72.9694C72.548 2.10545 71.9158 2.31635 71.4943 2.84363L62.6437 13.7055H61.3793L62.7492 2.31635C62.7492 2.21091 62.7491 2.10545 62.6437 2.10545C62.5383 2 62.5383 2 62.4331 2L53.8986 3.05454C53.6878 3.05454 53.4771 3.26545 53.3717 3.58181L50 30.5781C50 30.6836 50 30.7891 50.1054 30.8945C50.2108 31 50.2108 31 50.3161 31H58.6399C58.8506 31 59.0614 30.7891 59.1667 30.5781L60.6419 19.5055H61.9061L68.0172 30.3673C68.1226 30.5781 68.4387 30.7891 68.7548 30.7891H77.8161C77.9215 30.7891 78.1322 30.6836 78.0269 30.4728L69.8084 16.6582L76.6571 8.64363H86.5614L83.8219 30.4728C83.8219 30.5781 83.8219 30.6836 83.9272 30.7891C84.0326 30.8945 84.0326 30.8945 84.138 30.8945H92.4617C92.6725 30.8945 92.8832 30.6836 92.8832 30.4728L95.5172 8.74909H103.736C104.052 8.74909 104.263 8.53818 104.263 8.32727Z" fill="#F1361D"/>
<path d="M19.504 3H11.6252C10.8995 3.10257 10.4848 3.3077 10.1738 3.61539C10.1738 3.61539 0.532657 15.2051 0.32532 15.4102C-0.193021 16.0256 0.0143154 16.641 0.221653 16.9487L7.89311 30.282C8.10046 30.6923 8.61879 31 9.13713 31H15.9792C16.4976 31 16.7049 30.6923 16.4976 30.282L8.82612 16.9487L19.9186 3.61539C20.1261 3.3077 19.9186 3 19.504 3Z" fill="#F1361D"/>
<path d="M216.783 17.0513L208.76 3.71795C208.542 3.3077 208.001 3 207.459 3H200.304C199.76 3 199.545 3.3077 199.76 3.71795L207.784 17.0513L196.183 30.3846C195.858 30.6923 195.966 31 196.508 31H204.748C205.398 30.8974 205.941 30.6923 206.266 30.3846C206.266 30.3846 216.35 18.7949 216.565 18.5898C217.217 17.8718 217 17.2564 216.783 17.0513Z" fill="#F1361D"/>
</svg>
