<svg width="105" height="39" viewBox="0 0 105 39" fill="none" xmlns="http://www.w3.org/2000/svg">
<rect width="104" height="39" rx="6" fill="#28A8E9"/>
<path d="M19 29C23.9718 29 28 24.9718 28 20C28 15.0282 23.9718 11 19 11C14.0282 11 10 15.0282 10 20C10 24.9718 14.0282 29 19 29ZM14.1182 19.805L22.7958 16.4592C23.1985 16.3137 23.5503 16.5575 23.4198 17.1665L23.4205 17.1657L21.943 24.1265C21.8335 24.62 21.5402 24.74 21.13 24.5075L18.88 22.8492L17.7947 23.8948C17.6747 24.0148 17.5735 24.116 17.341 24.116L17.5008 21.8263L21.6707 18.059C21.8523 17.8992 21.6302 17.8093 21.391 17.9683L16.2378 21.2127L14.0163 20.5197C13.534 20.3667 13.5235 20.0375 14.1182 19.805Z" fill="white"/>
<path d="M32.4583 16.1406H35.6301V25H37.1614V16.1406H40.3382V14.8182H32.4583V16.1406ZM43.8912 25.1541C45.5567 25.1541 46.735 24.3338 47.073 23.0909L45.6661 22.8374C45.3976 23.5582 44.7513 23.9261 43.9061 23.9261C42.6334 23.9261 41.7783 23.1009 41.7385 21.6293H47.1675V21.1023C47.1675 18.343 45.5169 17.2642 43.7868 17.2642C41.659 17.2642 40.257 18.8849 40.257 21.2315C40.257 23.603 41.6391 25.1541 43.8912 25.1541ZM41.7435 20.5156C41.8031 19.4318 42.5887 18.4922 43.7968 18.4922C44.9502 18.4922 45.7058 19.3473 45.7108 20.5156H41.7435ZM50.0505 14.8182H48.564V25H50.0505V14.8182ZM55.0888 25.1541C56.7543 25.1541 57.9325 24.3338 58.2706 23.0909L56.8636 22.8374C56.5952 23.5582 55.9489 23.9261 55.1037 23.9261C53.831 23.9261 52.9759 23.1009 52.9361 21.6293H58.3651V21.1023C58.3651 18.343 56.7145 17.2642 54.9844 17.2642C52.8565 17.2642 51.4545 18.8849 51.4545 21.2315C51.4545 23.603 52.8367 25.1541 55.0888 25.1541ZM52.9411 20.5156C53.0007 19.4318 53.7862 18.4922 54.9943 18.4922C56.1477 18.4922 56.9034 19.3473 56.9084 20.5156H52.9411ZM62.9633 28.0227C64.9072 28.0227 66.4086 27.1328 66.4086 25.169V17.3636H64.9519V18.6016H64.8426C64.5791 18.1293 64.0521 17.2642 62.6302 17.2642C60.7858 17.2642 59.4285 18.7209 59.4285 21.152C59.4285 23.5881 60.8156 24.8857 62.6203 24.8857C64.0223 24.8857 64.5642 24.0952 64.8326 23.608H64.9271V25.1094C64.9271 26.3075 64.1068 26.8246 62.9782 26.8246C61.7403 26.8246 61.2581 26.2031 60.9946 25.7656L59.7169 26.2926C60.1196 27.2273 61.1387 28.0227 62.9633 28.0227ZM62.9484 23.6527C61.621 23.6527 60.9299 22.6335 60.9299 21.1321C60.9299 19.6655 61.6061 18.527 62.9484 18.527C64.246 18.527 64.942 19.5859 64.942 21.1321C64.942 22.7081 64.2311 23.6527 62.9484 23.6527ZM68.1495 25H69.636V20.3366C69.636 19.3374 70.4066 18.6165 71.4605 18.6165C71.7688 18.6165 72.1168 18.6712 72.2361 18.706V17.2841C72.087 17.2642 71.7936 17.2493 71.6047 17.2493C70.7098 17.2493 69.9442 17.7564 69.6658 18.5767H69.5862V17.3636H68.1495V25ZM75.4237 25.169C76.6864 25.169 77.3974 24.5277 77.6808 23.956H77.7404V25H79.1921V19.929C79.1921 17.7067 77.4421 17.2642 76.2291 17.2642C74.847 17.2642 73.5742 17.821 73.0771 19.2131L74.4741 19.5312C74.6928 18.9893 75.2497 18.4673 76.2489 18.4673C77.2085 18.4673 77.7007 18.9695 77.7007 19.8345V19.8693C77.7007 20.4112 77.1438 20.4013 75.7717 20.5604C74.3249 20.7294 72.8434 21.1072 72.8434 22.8423C72.8434 24.3438 73.972 25.169 75.4237 25.169ZM75.7468 23.9759C74.9066 23.9759 74.3001 23.598 74.3001 22.8622C74.3001 22.0668 75.006 21.7834 75.8661 21.669C76.3484 21.6044 77.4918 21.4751 77.7056 21.2614V22.2457C77.7056 23.1506 76.9847 23.9759 75.7468 23.9759ZM80.9193 25H82.4058V20.2919C82.4058 19.2628 83.1267 18.5469 83.9718 18.5469C84.7971 18.5469 85.3689 19.0938 85.3689 19.924V25H86.8504V20.1328C86.8504 19.2131 87.4122 18.5469 88.3816 18.5469C89.1672 18.5469 89.8135 18.9844 89.8135 20.0185V25H91.3V19.8793C91.3 18.1342 90.3255 17.2642 88.9434 17.2642C87.8447 17.2642 87.0194 17.7912 86.6515 18.6065H86.572C86.2389 17.7713 85.5379 17.2642 84.5187 17.2642C83.5095 17.2642 82.7588 17.7663 82.4406 18.6065H82.3461V17.3636H80.9193V25Z" fill="white"/>
</svg>
