<svg width="104" height="40" viewBox="0 0 104 40" fill="none" xmlns="http://www.w3.org/2000/svg">
<rect width="104" height="40" rx="6" fill="#804FA1"/>
<g clip-path="url(#clip0)">
<path d="M36.3663 22.4198C36.9033 17.8995 36.1083 15.0458 34.6743 13.755L34.6751 13.7543C32.3606 11.55 24.5441 11.2238 21.7751 13.8533C20.5316 15.1395 20.0936 17.0273 20.0456 19.3643C19.9976 21.702 19.9406 26.0813 24.0213 27.2693H24.0251L24.0213 29.0835C24.0213 29.0835 23.9936 29.8185 24.4631 29.9663C25.0001 30.1403 25.2431 29.799 26.9133 27.804C29.7063 28.0463 31.8513 27.4913 32.0951 27.4103C32.6591 27.2213 35.8503 26.799 36.3663 22.4198ZM27.1886 26.5275C27.1886 26.5275 25.4208 28.7318 24.8711 29.304C24.6911 29.49 24.4938 29.4728 24.4968 29.1038C24.4968 28.8615 24.5103 26.0918 24.5103 26.0918C21.0506 25.1003 21.2546 21.3713 21.2921 19.4205C21.3296 17.469 21.6866 15.8708 22.7396 14.7945C25.1688 12.5168 32.0216 13.026 33.7676 14.667C35.9021 16.5593 35.1423 21.9053 35.1468 22.0875C34.7081 25.743 32.1221 25.9748 31.6466 26.133C31.4433 26.2005 29.5571 26.6858 27.1886 26.5275Z" fill="white"/>
<path d="M28.1665 15.2228C27.8778 15.2228 27.8778 15.6728 28.1665 15.6765C30.4068 15.6938 32.2518 17.2553 32.272 20.1195C32.272 20.4218 32.7145 20.418 32.7108 20.1158H32.71C32.686 17.0295 30.6715 15.24 28.1665 15.2228Z" fill="white"/>
<path d="M31.1132 19.6448C31.1065 19.9433 31.5482 19.9575 31.552 19.6553C31.5887 17.9535 30.5395 16.5518 28.5677 16.404C28.279 16.383 28.249 16.8368 28.537 16.8578C30.247 16.9875 31.1477 18.1545 31.1132 19.6448Z" fill="white"/>
<path d="M30.6407 21.5805C30.2702 21.366 29.8929 21.4995 29.7369 21.7102L29.4107 22.1325C29.2449 22.347 28.9352 22.3185 28.9352 22.3185C26.6747 21.7207 26.0702 19.3552 26.0702 19.3552C26.0702 19.3552 26.0424 19.035 26.2494 18.8632L26.6574 18.5257C26.8614 18.3637 26.9904 17.9737 26.7827 17.5905C26.2277 16.5877 25.8549 16.242 25.6652 15.9765C25.4657 15.7267 25.1657 15.6705 24.8537 15.8392H24.8469C24.1982 16.2187 23.4879 16.929 23.7152 17.6602C24.1029 18.4312 24.8154 20.889 27.0864 22.746C28.1537 23.6242 29.8427 24.5242 30.5597 24.732L30.5664 24.7425C31.2729 24.978 31.9599 24.24 32.3267 23.5717V23.5665C32.4894 23.2432 32.4354 22.9372 32.1977 22.737C31.7762 22.326 31.1402 21.8722 30.6407 21.5805Z" fill="white"/>
<path d="M28.8768 18.078C29.5975 18.12 29.947 18.4965 29.9845 19.2698C29.998 19.572 30.4368 19.551 30.4233 19.2488C30.3753 18.2393 29.8488 17.6768 28.9008 17.6243C28.612 17.607 28.585 18.0608 28.8768 18.078Z" fill="white"/>
</g>
<path d="M44.9518 16.2727H43.5285L46.6691 25H48.1904L51.331 16.2727H49.9077L47.4787 23.3807H47.3807L44.9518 16.2727ZM52.2363 25H53.5104V18.4545H52.2363V25ZM52.8797 17.4446C53.3187 17.4446 53.6851 17.1037 53.6851 16.6861C53.6851 16.2685 53.3187 15.9233 52.8797 15.9233C52.4365 15.9233 52.0743 16.2685 52.0743 16.6861C52.0743 17.1037 52.4365 17.4446 52.8797 17.4446ZM55.074 25H56.3184V23.9815H56.4249C56.655 24.3991 57.1238 25.1278 58.3169 25.1278C59.9022 25.1278 61.0527 23.858 61.0527 21.7401C61.0527 19.6179 59.8851 18.3693 58.3042 18.3693C57.0897 18.3693 56.6507 19.1108 56.4249 19.5156H56.3482V16.2727H55.074V25ZM56.3226 21.7273C56.3226 20.3594 56.9192 19.4517 58.0314 19.4517C59.1863 19.4517 59.7658 20.4276 59.7658 21.7273C59.7658 23.0398 59.1692 24.0412 58.0314 24.0412C56.9363 24.0412 56.3226 23.1037 56.3226 21.7273ZM65.0517 25.1321C66.4793 25.1321 67.4892 24.429 67.779 23.3636L66.573 23.1463C66.3429 23.7642 65.7889 24.0795 65.0645 24.0795C63.9736 24.0795 63.2407 23.3722 63.2066 22.1108H67.86V21.6591C67.86 19.294 66.4452 18.3693 64.9622 18.3693C63.1384 18.3693 61.9367 19.7585 61.9367 21.7699C61.9367 23.8026 63.1213 25.1321 65.0517 25.1321ZM63.2108 21.1562C63.262 20.2273 63.9353 19.4219 64.9708 19.4219C65.9594 19.4219 66.6071 20.1548 66.6114 21.1562H63.2108ZM69.0209 25H70.295V21.0028C70.295 20.1463 70.9556 19.5284 71.859 19.5284C72.1232 19.5284 72.4215 19.5753 72.5237 19.6051V18.3864C72.3959 18.3693 72.1445 18.3565 71.9825 18.3565C71.2155 18.3565 70.5593 18.7912 70.3206 19.4943H70.2524V18.4545H69.0209V25Z" fill="white"/>
<defs>
<clipPath id="clip0">
<rect width="18" height="18" fill="white" transform="translate(19 12)"/>
</clipPath>
</defs>
</svg>
