<svg width="262" height="85" viewBox="0 0 262 85" fill="none" xmlns="http://www.w3.org/2000/svg">
<path fill-rule="evenodd" clip-rule="evenodd" d="M15.6745 12.1479L23.1416 18.3072L33.9287 23.9606L41.5781 28.8854L45.1113 33.5155L45.1929 27.8917L47.4063 23.48L50.6522 21.4275L54.1207 20.1839L60.1122 21.2284L61.5475 16.3107L62.4677 16.2213L63.3507 18.1264L63.4334 13.5999L65.6309 11.1501L67.0662 12.47L67.1945 9.96848L69.1333 7.85813L71.1485 6.73438L71.5481 8.09081L73.4626 5.19099L75.2127 4.875L74.5958 7.41818L75.9187 6.2355L77.5099 5.7864L75.2435 11.0841L73.6894 25.3444L71.617 29.4848L71.5979 34.4686L70.1139 39.9675L69.8934 47.5483L67.6588 48.7919L66.4015 51.7202L60.9878 56.3839L58.1437 57.1276L56.3638 59.0988L56.8197 61.1227L55.5794 64.2268L56.5356 67.3623L56.6903 68.5674L55.8815 69.4452L53.7402 66.4946L53.3713 72.0179L51.8999 72.4802L50.1741 69.8354L49.1109 72.0626L48.0615 73.0187L46.7184 72.6174L46.1883 70.7062L44.6163 72.3471L42.9255 73.0492L42.1569 72.1164L42.1283 70.7021L40.2022 72.0179L38.9047 72.216L38.4859 70.3983L39.8046 67.1266L36.7262 69.9573L35.1309 70.1311L34.6899 68.5298L35.0333 66.3778L32.9312 67.6275L32.0005 67.2993L32.2093 65.3414L33.3796 63.2321L30.4221 64.3213L30.033 63.4739L30.8705 61.96L32.7637 60.5791L41.3566 56.0577L33.3468 58.0299L34.5839 56.0039L45.2905 53.3266L45.7367 50.9287L44.7466 50.5497L42.6329 50.3678L40.4682 50.7468L39.475 49.8395L38.3736 49.9014L36.9987 49.9268L36.0043 48.7421L33.4475 48.5257L33.4507 46.585L30.0563 46.3219L30.0595 44.5265L27.8949 44.619L26.4776 43.5765L26.3112 42.3003L24.1667 41.9224L21.7932 39.4544L23.0854 39.0876L20.2328 38.0207L18.6363 36.584L20.007 35.5487L17.3515 34.5417L15.3607 31.5637L16.3275 30.5669L15.1625 30.3576L13.0371 26.8451L13.8152 25.0894L11.9982 22.8277L11.8594 20.3962L14.0473 20.4653L12.0979 17.7687L12.5717 16.5342L13.4018 16.138L12.8611 14.8699L13.4675 13.7604L14.9229 14.8841L14.5869 12.7088L15.6745 12.1479Z" fill="#FEFEFE"/>
<path d="M15.9775 11.8062L23.4086 17.936C31.3081 22.0765 34.6833 23.9064 41.9066 28.5568L44.6617 32.1669L44.7253 27.7857C45.4906 26.2463 46.2655 24.7091 47.0394 23.1738L50.4379 21.0248L54.0761 19.7202L59.7749 20.7139L61.1816 15.8938L62.7548 15.7424L62.9191 16.096L62.9678 13.4298L65.5968 10.4985L66.6473 11.4638L66.7332 9.78829C67.4307 9.02727 68.1261 8.2632 68.8289 7.50725C69.6939 7.01853 70.5653 6.53895 71.4335 6.05531L71.7123 7.00024L73.1751 4.78524L75.8306 4.30566L75.3991 6.08376L75.679 5.83381L78.3111 5.09209L75.7013 11.1925L74.1461 25.465L72.0833 29.5861L72.0642 34.5272L70.579 40.0301L70.3533 47.8101L68.0296 49.1035L66.7925 51.986C64.9321 53.5813 63.0696 55.1795 61.2198 56.7859L58.4032 57.5225L56.8693 59.2214L57.3061 61.158L56.0721 64.2468C56.6859 66.2606 56.9382 66.8326 57.181 68.7103L55.8358 70.1694L54.1206 67.807L53.8174 72.3488L51.6962 73.0153L50.2365 70.778L49.4966 72.3285L48.1821 73.5244L46.3302 72.9716L45.9539 71.6132L44.8938 72.7197L42.7801 73.5975L41.6914 72.2756L41.6766 71.5603L40.3843 72.4433L38.542 72.7258L37.9981 70.3634L38.6087 68.8475L36.9349 70.3868L34.7798 70.6205L34.2106 68.5528L34.4151 67.2726L32.982 68.1251L31.4979 67.6008L31.7523 65.2059L32.3767 64.0801L30.1717 64.892L29.5124 63.4553L30.5046 61.6609C33.1738 59.6969 34.6738 59.0598 37.8752 57.3752L32.3777 58.7296L34.2784 55.6154L44.8811 52.9645L45.2087 51.2077L44.6362 50.9893L42.655 50.8186L40.3176 51.2281L39.2988 50.2984C38.4455 50.3461 37.6345 50.3624 36.777 50.3786L35.7646 49.1726L32.9788 48.9359L32.9809 46.9982L29.5866 46.7351L29.5898 44.9946L27.7431 45.0738L26.0343 43.817L25.8859 42.681L23.9259 42.3345L20.9386 39.2285L21.6414 39.0283L19.9782 38.4065L17.9185 36.5532L19.0761 35.6774L17.0387 34.9052L14.7691 31.5115L15.4051 30.8562L14.8645 30.7586L12.5143 26.8753L13.2776 25.1531L11.5391 22.9889L11.3652 19.9305L13.1334 19.9864L11.5741 17.8304L12.1953 16.2087L12.8037 15.9181L12.3458 14.8452L13.3168 13.0671L14.2825 13.8129L14.0737 12.4615L15.7348 11.605L15.9775 11.8052V11.8062ZM22.8351 18.6473L15.6118 12.6881L15.0966 12.9543L15.5609 15.9547L13.6157 14.452L13.374 14.894L13.9974 16.3551L12.9458 16.856L12.6203 17.7054L14.961 20.9425L12.3532 20.8602L12.456 22.6648L14.3514 25.023L13.5574 26.8143L15.4581 29.9549L17.2475 30.276L15.9489 31.6131L17.663 34.1756L20.9354 35.4162L19.3517 36.6131L20.4849 37.6322L24.5269 39.1431L22.6443 39.6786L24.4029 41.5075L26.7318 41.919L26.9174 43.3343L28.0431 44.1634L30.5269 44.0568L30.5226 45.906L33.9169 46.1691L33.9137 48.1128L36.2416 48.31L37.2179 49.4733L38.3469 49.452L39.6497 49.3789L40.6176 50.2638L42.6083 49.9153L44.8546 50.1084L46.2634 50.6479L45.6974 53.6879L34.8869 56.3906L34.3144 57.3285L44.8355 54.7375L33.0159 60.9568L31.2339 62.2563L30.5512 63.4908L30.67 63.7489L34.3791 62.3833L32.6629 65.4762L32.5007 66.9983L32.877 67.1314L35.648 65.4833L35.1646 68.5081L35.4763 69.642L36.5141 69.5292L40.996 65.4081L38.9713 70.4345L39.2639 71.7077L40.0165 71.5918L42.5755 69.8442L42.6179 71.9576L43.0663 72.5012L44.3352 71.9749L46.4203 69.7995L47.1019 72.2624L47.9362 72.5114L48.7228 71.7961L50.1093 68.8912L52.1012 71.9454L52.9227 71.6873L53.3573 65.1826L55.9248 68.7205L56.1983 68.4238L56.0732 67.4433L55.0863 64.2061L56.3319 61.0879L55.8559 58.9765L57.8817 56.7331L60.7534 55.9812L66.0102 51.4536L67.2865 48.4817L69.4331 47.2858L69.6483 39.9041L71.1313 34.4103L71.1515 29.3829L73.2334 25.2232L74.7864 10.9761L76.7094 6.48104L76.1592 6.63548L73.7942 8.75192L74.5956 5.44365L73.7497 5.59605L71.3836 9.18069L70.8631 7.41479L69.4363 8.21036L67.6543 10.15L67.4847 13.4756L65.6646 11.8031L63.8996 13.7712L63.782 20.1561L62.1791 16.7005L61.9131 16.7269L60.4491 21.7432L54.1651 20.6479L50.8651 21.8306L47.7719 23.7865L45.6592 27.998L45.5595 34.8645L41.2483 29.2142L33.6858 24.3453L22.8732 18.6778L22.8382 18.6493L22.8351 18.6473Z" fill="#009846"/>
<path d="M69.4799 26.5313L66.7248 25.4075L63.8298 27.2232L62.4867 29.745L57.6539 26.3707L49.5953 26.6918L47.9491 29.5245L47.825 32.5636L48.9964 35.8627C50.6056 37.0942 50.6374 37.1582 52.1098 38.6751L55.6483 40.3547L59.3553 40.9186L62.7072 40.5254L66.181 37.91L69.0686 34.8284L69.4163 32.3106L69.4799 26.5333V26.5313ZM66.8605 24.488L70.4212 25.9399C70.3756 29.7257 70.4393 31.704 69.9569 35.2216C68.9117 36.3352 67.8644 37.4477 66.8245 38.5654C65.5725 39.5012 64.3259 40.4441 63.0793 41.386C61.8369 41.5302 60.5924 41.6735 59.351 41.8239L55.3578 41.2173L51.5416 39.4067L49.8519 37.6662L48.1982 36.4002L46.8848 32.6987L47.0236 29.2766L49.0335 25.818C52.0017 25.6981 54.9698 25.5762 57.938 25.4634L62.1485 28.4028L63.1068 26.6044L66.6294 24.3955L66.8605 24.49V24.488Z" fill="#009846"/>
<path d="M67.0438 31.3122L65.3222 31.4555L64.1774 32.249L63.7194 33.6258L64.2876 33.5709L65.9106 33.1309L67.0438 31.3132V31.3122ZM65.1155 30.5705L68.7865 30.2646L66.5222 33.897L64.4668 34.4549L62.3965 34.656L63.3813 31.6963L64.9904 30.5817L65.1166 30.5715L65.1155 30.5705Z" fill="#009846"/>
<path d="M52.6559 29.1973L55.481 29.5194L56.9491 30.4349L59.4562 34.7755C57.9074 34.363 56.3597 33.9464 54.8099 33.5379L52.6612 31.706L51.9785 29.1201L52.6548 29.1973H52.6559ZM55.1587 30.3871L53.222 30.1667L53.4997 31.2173L55.2753 32.7302L57.5608 33.3388L56.2474 31.0648L55.1587 30.3871V30.3871Z" fill="#009846"/>
<path d="M61.779 36.1228L60.5621 35.9003L60.4889 36.3301L60.8419 36.9031L61.1864 37.9161L61.6412 37.2405L61.779 36.1238V36.1228ZM60.2642 34.933L62.8136 35.3994L62.5476 37.5504L60.9087 39.9889L59.9843 37.274L59.5137 36.5079L59.7957 34.8477L60.2663 34.934L60.2642 34.933Z" fill="#009846"/>
<path fill-rule="evenodd" clip-rule="evenodd" d="M78.3184 34.0346L80.3823 30.3301L85.5087 32.0076L78.3184 34.0346Z" fill="#FEFEFE"/>
<path d="M77.9065 33.8241L80.158 29.7822L87.0548 32.0399L77.3828 34.766L77.9075 33.8231L77.9065 33.8241ZM80.6065 30.8775L79.2559 33.3029L83.9626 31.9759L80.6065 30.8765V30.8775Z" fill="white"/>
<path d="M29.3655 18.8139L33.4527 20.3371L27.566 21.7436L29.3655 18.8139Z" fill="#FEFEFE" stroke="#009846" stroke-width="0.5"/>
<path d="M61.5921 67.4244L59.7387 75.7265L55.5278 60.0109L61.5921 67.4244Z" fill="#FEFEFE" stroke="#009846"/>
<path d="M51.5421 78.44L51.7316 64.4196L55.0406 81.6101L51.5421 78.44Z" fill="#FEFEFE" stroke="#009846"/>
<path d="M42.9126 67.4001L48.0294 60.5747L46.1361 74.1603L40.4018 77.7253L42.9126 67.4001Z" fill="#FEFEFE" stroke="#009846"/>
<path fill-rule="evenodd" clip-rule="evenodd" d="M41.5614 61.335L31.7728 76.2019L26.7598 76.2354L41.5614 61.335Z" fill="#FEFEFE"/>
<path d="M41.9564 61.5742L32.0322 76.6484L25.6602 76.6911L44.4709 57.7549L41.9564 61.5742V61.5742ZM31.5127 75.7563L38.6501 64.9171L27.8577 75.7817L31.5127 75.7573V75.7563Z" fill="#009846"/>
<path fill-rule="evenodd" clip-rule="evenodd" d="M44.1906 47.5293L31.5292 53.1389L25.1699 50.3448L35.056 47.0273L44.1906 47.5293Z" fill="#FEFEFE"/>
<path d="M44.3874 47.9377L31.532 53.6327L23.9219 50.2899C27.6109 49.0513 31.2978 47.8026 34.991 46.5752C38.6896 46.7682 42.3881 46.9816 46.0866 47.1858L44.3874 47.9387V47.9377ZM31.5289 52.6451L42.2959 47.8757L35.1225 47.4815L26.4194 50.4016L31.5278 52.6451H31.5289Z" fill="#009846"/>
<path fill-rule="evenodd" clip-rule="evenodd" d="M25.3152 33.7762L8.09772 27.7185L1.66211 18.1514L25.3152 33.7762Z" fill="#FEFEFE"/>
<path d="M25.1541 34.1983L7.79037 28.0888L0 16.5088L28.6301 35.4216L25.1541 34.1983ZM8.40627 27.3481L22.0015 32.1316L3.32435 19.7937L8.40627 27.3481Z" fill="#009846"/>
<path fill-rule="evenodd" clip-rule="evenodd" d="M36.8174 39.6567L9.27707 37.8024L5.66016 31.4541L36.8174 39.6567Z" fill="#FEFEFE"/>
<path d="M36.7862 40.1041L8.99151 38.2335L4.72266 30.7432L41.4865 40.4211L36.7862 40.1051V40.1041ZM9.565 37.3719L32.1485 38.8919L6.59896 32.1656L9.565 37.3719V37.3719Z" fill="#009846"/>
<path fill-rule="evenodd" clip-rule="evenodd" d="M34.954 41.5762L16.4528 48.7902L13.8164 45.1567L34.954 41.5762Z" fill="#FEFEFE"/>
<path d="M35.1307 41.9927L16.2829 49.3408L13.0137 44.8366L39.2236 40.3965L35.1307 41.9917V41.9927ZM16.6242 48.2384L30.6859 42.7558L14.6197 45.4778L16.6232 48.2384H16.6242Z" fill="#009846"/>
<path fill-rule="evenodd" clip-rule="evenodd" d="M25.1254 28.2842L3.79492 10.8761L8.99875 10.4961L21.888 22.0964L25.1254 28.2842Z" fill="#FEFEFE"/>
<path d="M24.8225 28.624L2.62695 10.5108L9.16858 10.0322L22.2677 21.8225C23.6999 24.5679 25.1384 27.3102 26.5748 30.0536L24.8235 28.624H24.8225ZM4.9612 11.2403L23.6766 26.5136L21.5077 22.3692L8.82936 10.9579L4.9612 11.2413V11.2403Z" fill="#009846"/>
<path fill-rule="evenodd" clip-rule="evenodd" d="M68.9297 19.3611L79.613 14.984L84.5804 4.01465L68.9297 19.3611Z" fill="#FEFEFE"/>
<path d="M70.9084 18.0624L79.2585 14.6403L83.1415 6.06681L70.9084 18.0624ZM79.7959 15.3962L66.9512 20.6604L86.0206 1.96094C84.0022 6.41532 81.9775 10.8677 79.9676 15.3261L79.797 15.3962H79.7959Z" fill="#009846"/>
<path fill-rule="evenodd" clip-rule="evenodd" d="M75.215 0.87207L68.1465 4.1905L70.9694 13.1165L75.215 0.87207Z" fill="#FEFEFE"/>
<path d="M74.4203 1.74355L68.7098 4.42492L70.99 11.6369L74.4214 1.74355H74.4203ZM67.9412 3.78785L76.0104 0L70.9486 14.5946L67.584 3.9555L67.9412 3.78785V3.78785Z" fill="#009846"/>
<path fill-rule="evenodd" clip-rule="evenodd" d="M71.7422 23.21L79.2177 21.308L80.9011 17.957L75.4556 19.8967L71.7422 23.21Z" fill="#FEFEFE"/>
<path d="M73.431 22.3171L78.8903 20.9271L79.9758 18.7639L75.708 20.2839L73.431 22.316V22.3171ZM79.3376 21.742L70.0547 24.1043C71.7709 22.5721 73.484 21.0348 75.2044 19.5077C77.4104 18.7182 79.6185 17.9358 81.8256 17.1494L79.5464 21.6881L79.3365 21.741L79.3376 21.742Z" fill="#009846"/>
<path d="M52.0885 9.473L54.4853 10.552L54.6549 15.6506L50.7422 14.9445L51.5065 9.21289L52.0863 9.47402L52.0885 9.473ZM53.5694 11.1282L52.2729 10.5449L51.7832 14.218L53.6839 14.5614L53.5694 11.1282Z" fill="white"/>
<path d="M21.5698 58.9778L22.6564 57.1357L27.1447 57.3237L26.2563 60.4989L21.2539 59.5133L21.5698 58.9778ZM23.1875 58.0553L22.6998 58.8823L25.58 59.4503L25.9383 58.1711L23.1875 58.0563V58.0553Z" fill="white"/>
<path fill-rule="evenodd" clip-rule="evenodd" d="M62.0605 61.645L63.0157 57.2109L65.7241 59.81L64.9269 61.6907L62.0605 61.645Z" fill="#FEFEFE"/>
<path d="M61.6026 61.5556L62.7348 56.3057L66.2764 59.7054L65.2418 62.1449L61.4902 62.084L61.6037 61.5556H61.6026ZM63.2987 58.1163L62.633 61.2061L64.6132 61.2376L65.174 59.9157L63.2987 58.1153V58.1163Z" fill="white"/>
<path fill-rule="evenodd" clip-rule="evenodd" d="M72.6016 46.2641L73.2302 45.4238L75.9259 45.9491L75.5644 47.1989L73.6182 47.0861L72.6016 46.2641Z" fill="#FEFEFE"/>
<path d="M72.2219 46.0017L73.0276 44.9268L76.5109 45.6045L75.9141 47.6681L73.4378 47.5238L71.9707 46.3381L72.223 46.0007L72.2219 46.0017ZM73.4336 45.9194L73.2332 46.1877L73.7993 46.6449L75.2145 46.7272L75.3406 46.2893L73.4336 45.9184V45.9194Z" fill="#009846"/>
<path d="M52.7254 42.3811L53.2703 43.5973L50.8661 46.1059L49.3301 44.5503L50.7389 42.5914L52.5537 41.999L52.7254 42.3821V42.3811ZM52.171 43.4174L52.0364 43.1157L51.3325 43.3453L50.529 44.4629L50.8534 44.7921L52.17 43.4174H52.171Z" fill="#009846"/>
<path d="M35.6124 26.0768L38.2204 24.9543L38.3188 25.8039L36.0654 27.2209L35.6124 26.0768Z" fill="#FEFEFE" stroke="#009846"/>
<path d="M57.2471 53.1242L55.9199 47.8926L59.3174 49.563L57.6457 54.6971L57.2461 53.1242H57.2471ZM57.3118 49.5823L57.7581 51.3411L58.1906 50.0141L57.3128 49.5823H57.3118Z" fill="#009A99"/>
<path d="M64.0003 44.9665L64.5419 44.176L63.8359 44.3478L64.0003 44.9675V44.9665ZM65.9868 43.7026L63.6176 47.1643L62.6953 43.6975L66.6472 42.7373L65.9868 43.7026V43.7026Z" fill="#009A99"/>
<path d="M101.178 39.2236V22.0976H111.561V24.0553H103.407V28.9736C104.333 28.876 105.269 28.8263 106.212 28.8263C108.24 28.8263 109.816 29.2753 110.944 30.1716C112.072 31.068 112.635 32.2997 112.635 33.8652C112.635 35.6099 112.019 36.9553 110.786 37.9013C109.554 38.8473 107.819 39.3212 105.583 39.3212C105.216 39.3212 104.384 39.3053 103.093 39.2715C102.848 39.2715 102.574 39.268 102.268 39.2591C101.961 39.2502 101.725 39.2431 101.56 39.2343C101.395 39.2254 101.267 39.2218 101.18 39.2218L101.178 39.2236ZM106.081 30.7822C105.276 30.7822 104.386 30.8319 103.407 30.9295V37.2659C104.367 37.3316 105.206 37.3635 105.923 37.3635C107.391 37.3635 108.506 37.0742 109.265 36.4956C110.026 35.917 110.406 35.0899 110.406 34.0125C110.406 33.0008 110.035 32.211 109.291 31.6395C108.55 31.068 107.479 30.7822 106.079 30.7822H106.081ZM124.695 28.2139H127.08L122.362 39.2236C121.506 41.1654 120.762 42.4522 120.133 43.0893C119.469 43.7745 118.708 44.117 117.852 44.117C117.084 44.117 116.34 43.888 115.623 43.4319L116.304 41.9392C116.863 42.1842 117.301 42.3066 117.614 42.3066C118.103 42.3066 118.544 42.1114 118.938 41.7191C119.332 41.3269 119.729 40.6915 120.131 39.8111L120.393 39.2236L114.731 28.2139H117.247L120.707 35.2106C120.777 35.3242 121.013 35.8797 121.415 36.8736C121.572 36.3359 121.755 35.7732 121.966 35.1857L124.692 28.2139H124.695ZM137.043 28.2139H139.481L135.261 33.5226L139.744 39.2236H137.174L133.714 34.7704L130.202 39.2236H127.763L132.22 33.6203L128.024 28.2139H130.593L133.792 32.3725L137.043 28.2139ZM143.047 39.2236H140.792L148.683 22H150.596L158.487 39.2236H156.102L153.742 34.0374H145.379L143.045 39.2236H143.047ZM152.879 32.0796L149.575 24.7635L146.271 32.0796H152.879ZM169.213 36.2134L170.209 37.6333C169.195 38.8562 167.683 39.4685 165.673 39.4685C163.786 39.4685 162.257 38.9467 161.086 37.9031C159.933 36.8595 159.355 35.4644 159.355 33.7197C159.355 32.1045 159.923 30.7432 161.059 29.6338C162.194 28.5245 163.619 27.9708 165.333 27.9708C167.394 27.9708 168.943 28.4517 169.973 29.4137L169.003 30.9544C168.094 30.1876 166.966 29.8042 165.622 29.8042C164.52 29.8042 163.568 30.1787 162.765 30.9295C161.978 31.6625 161.586 32.5926 161.586 33.7179C161.586 34.9088 161.987 35.8548 162.792 36.5559C163.613 37.273 164.627 37.6315 165.833 37.6315C167.197 37.6315 168.322 37.1576 169.214 36.2116L169.213 36.2134ZM181.377 36.2134L182.374 37.6333C181.36 38.8562 179.848 39.4685 177.838 39.4685C175.951 39.4685 174.422 38.9467 173.25 37.9031C172.098 36.8595 171.52 35.4644 171.52 33.7197C171.52 32.1045 172.088 30.7432 173.224 29.6338C174.359 28.5245 175.784 27.9708 177.498 27.9708C179.559 27.9708 181.107 28.4517 182.138 29.4137L181.168 30.9544C180.259 30.1876 179.131 29.8042 177.787 29.8042C176.685 29.8042 175.732 30.1787 174.93 30.9295C174.142 31.6625 173.751 32.5926 173.751 33.7179C173.751 34.9088 174.152 35.8548 174.956 36.5559C175.778 37.273 176.792 37.6315 177.998 37.6315C179.361 37.6315 180.487 37.1576 181.379 36.2116L181.377 36.2134ZM194.014 31.0271L187.197 39.2236H185.1V28.2139H187.197V36.4104L194.014 28.2139H196.112V39.2236H194.014V31.0271ZM208.984 36.2134L209.981 37.6333C208.967 38.8562 207.455 39.4685 205.445 39.4685C203.558 39.4685 202.029 38.9467 200.857 37.9031C199.705 36.8595 199.127 35.4644 199.127 33.7197C199.127 32.1045 199.695 30.7432 200.831 29.6338C201.966 28.5245 203.391 27.9708 205.104 27.9708C207.166 27.9708 208.714 28.4517 209.745 29.4137L208.775 30.9544C207.866 30.1876 206.738 29.8042 205.393 29.8042C204.292 29.8042 203.339 30.1787 202.537 30.9295C201.749 31.6625 201.358 32.5926 201.358 33.7179C201.358 34.9088 201.759 35.8548 202.563 36.5559C203.385 37.273 204.399 37.6315 205.605 37.6315C206.968 37.6315 208.094 37.1576 208.986 36.2116L208.984 36.2134ZM215.381 30.1699H211.056V28.2121H221.805V30.1699H217.48V39.2218H215.383V30.1699H215.381ZM232.998 36.4814L233.655 38.022C232.519 38.984 231.041 39.465 229.223 39.465C227.3 39.465 225.771 38.9432 224.636 37.8995C223.483 36.8559 222.905 35.4608 222.905 33.7161C222.905 32.069 223.447 30.6988 224.531 29.6054C225.596 28.5121 227.083 27.9672 228.987 27.9672C230.56 27.9672 231.863 28.4411 232.894 29.3871C233.942 30.3172 234.467 31.5241 234.467 33.0079C234.467 33.4818 234.423 33.922 234.336 34.3284H225.265C225.353 35.3561 225.767 36.1637 226.511 36.7512C227.253 37.3387 228.211 37.6315 229.381 37.6315C230.92 37.6315 232.125 37.2482 232.998 36.4814ZM228.883 29.8024C227.852 29.8024 227 30.0722 226.326 30.61C225.653 31.1478 225.256 31.8578 225.134 32.7381H232.291C232.24 31.8241 231.911 31.107 231.308 30.5852C230.705 30.0634 229.896 29.8024 228.883 29.8024ZM248.073 39.2218H245.976V34.5734H239.421V39.2218H237.324V28.2121H239.421V32.7381H245.976V28.2121H248.073V39.2218ZM254.706 30.1699H250.38V28.2121H261.13V30.1699H256.805V39.2218H254.707V30.1699H254.706Z" fill="white"/>
<path d="M107.968 47.6828H109.616L104.624 52.9468L109.872 58.8828H108.128L103.056 53.0428L107.968 47.6828ZM102.784 58.8828H101.424V47.6828H102.784V58.8828ZM110.845 57.9868C110.141 57.2615 109.789 56.3601 109.789 55.2828C109.789 54.1948 110.141 53.2988 110.845 52.5948C111.56 51.8801 112.488 51.5228 113.629 51.5228C114.771 51.5228 115.693 51.8801 116.397 52.5948C117.112 53.2988 117.469 54.1948 117.469 55.2828C117.469 56.3708 117.112 57.2721 116.397 57.9868C115.693 58.6908 114.771 59.0428 113.629 59.0428C112.499 59.0428 111.571 58.6908 110.845 57.9868ZM111.853 53.4428C111.384 53.9121 111.149 54.5255 111.149 55.2828C111.149 56.0401 111.379 56.6535 111.837 57.1228C112.307 57.6028 112.904 57.8428 113.629 57.8428C114.355 57.8428 114.947 57.6081 115.405 57.1388C115.875 56.6588 116.109 56.0401 116.109 55.2828C116.109 54.5468 115.875 53.9335 115.405 53.4428C114.947 52.9628 114.355 52.7228 113.629 52.7228C112.904 52.7228 112.312 52.9628 111.853 53.4428ZM125.515 58.8828H124.235V55.8428H120.235V58.8828H118.955V51.6828H120.235V54.6428H124.235V51.6828H125.515V58.8828ZM133.005 56.9148L133.613 57.8428C132.994 58.6428 132.072 59.0428 130.845 59.0428C129.693 59.0428 128.76 58.7015 128.045 58.0188C127.341 57.3361 126.989 56.4241 126.989 55.2828C126.989 54.2268 127.336 53.3361 128.029 52.6108C128.722 51.8855 129.592 51.5228 130.637 51.5228C131.896 51.5228 132.84 51.8375 133.469 52.4668L132.877 53.4748C132.322 52.9735 131.634 52.7228 130.813 52.7228C130.141 52.7228 129.56 52.9681 129.069 53.4588C128.589 53.9388 128.349 54.5468 128.349 55.2828C128.349 56.0615 128.594 56.6801 129.085 57.1388C129.586 57.6081 130.205 57.8428 130.941 57.8428C131.773 57.8428 132.461 57.5335 133.005 56.9148ZM135.304 53.2028L134.968 52.1788C135.683 51.7415 136.483 51.5228 137.368 51.5228C138.339 51.5228 139.043 51.7628 139.48 52.2428C139.918 52.7228 140.136 53.4641 140.136 54.4668V58.8828H138.92V57.9548C138.355 58.6481 137.587 58.9948 136.616 58.9948C135.955 58.9948 135.422 58.7975 135.016 58.4028C134.611 57.9975 134.408 57.4535 134.408 56.7708C134.408 56.0668 134.659 55.5121 135.16 55.1068C135.662 54.6908 136.318 54.4828 137.128 54.4828C137.886 54.4828 138.483 54.6375 138.92 54.9468C138.92 54.1361 138.808 53.5548 138.584 53.2028C138.36 52.8508 137.928 52.6748 137.288 52.6748C136.638 52.6748 135.976 52.8508 135.304 53.2028ZM137.064 57.8428C137.779 57.8428 138.398 57.5335 138.92 56.9148V56.0028C138.472 55.6828 137.934 55.5228 137.304 55.5228C136.867 55.5228 136.499 55.6295 136.2 55.8428C135.912 56.0455 135.768 56.3335 135.768 56.7068C135.768 57.0588 135.88 57.3361 136.104 57.5388C136.339 57.7415 136.659 57.8428 137.064 57.8428ZM148.126 58.8828H146.846V52.9628H144.318L144.238 54.1788C144.153 55.1708 144.025 55.9975 143.854 56.6588C143.694 57.3095 143.481 57.8001 143.214 58.1308C142.958 58.4508 142.686 58.6748 142.398 58.8028C142.11 58.9201 141.758 58.9788 141.342 58.9788L141.246 57.7308C141.364 57.7415 141.486 57.7255 141.614 57.6828C141.742 57.6295 141.881 57.5228 142.03 57.3628C142.19 57.2028 142.329 56.9895 142.446 56.7228C142.574 56.4561 142.686 56.0828 142.782 55.6028C142.889 55.1121 142.958 54.5521 142.99 53.9228L143.118 51.6828H148.126V58.8828ZM151.801 52.9628H149.161V51.6828H155.721V52.9628H153.081V58.8828H151.801V52.9628ZM162.199 53.5228L158.039 58.8828H156.759V51.6828H158.039V57.0428L162.199 51.6828H163.479V58.8828H162.199V53.5228ZM172.005 58.8828H170.725V55.8428H166.725V58.8828H165.445V51.6828H166.725V54.6428H170.725V51.6828H172.005V58.8828ZM175.238 58.8828H173.958V51.6828H178.518V52.8828H175.238V58.8828ZM179.736 57.9868C179.032 57.2615 178.68 56.3601 178.68 55.2828C178.68 54.1948 179.032 53.2988 179.736 52.5948C180.45 51.8801 181.378 51.5228 182.52 51.5228C183.661 51.5228 184.584 51.8801 185.288 52.5948C186.002 53.2988 186.36 54.1948 186.36 55.2828C186.36 56.3708 186.002 57.2721 185.288 57.9868C184.584 58.6908 183.661 59.0428 182.52 59.0428C181.389 59.0428 180.461 58.6908 179.736 57.9868ZM180.744 53.4428C180.274 53.9121 180.04 54.5255 180.04 55.2828C180.04 56.0401 180.269 56.6535 180.728 57.1228C181.197 57.6028 181.794 57.8428 182.52 57.8428C183.245 57.8428 183.837 57.6081 184.296 57.1388C184.765 56.6588 185 56.0401 185 55.2828C185 54.5468 184.765 53.9335 184.296 53.4428C183.837 52.9628 183.245 52.7228 182.52 52.7228C181.794 52.7228 181.202 52.9628 180.744 53.4428ZM187.846 58.8828V51.6828C187.899 51.6828 187.974 51.6828 188.07 51.6828C188.166 51.6721 188.304 51.6668 188.486 51.6668C188.667 51.6561 188.832 51.6508 188.982 51.6508C189.771 51.6295 190.262 51.6188 190.454 51.6188C192.523 51.6188 193.558 52.2375 193.558 53.4748C193.558 53.9015 193.424 54.2695 193.158 54.5788C192.891 54.8775 192.544 55.0588 192.118 55.1228V55.1548C193.238 55.3575 193.798 55.9228 193.798 56.8508C193.798 58.2481 192.694 58.9468 190.486 58.9468C190.379 58.9468 189.91 58.9361 189.078 58.9148C188.918 58.9148 188.742 58.9095 188.55 58.8988C188.358 58.8988 188.208 58.8935 188.102 58.8828C187.995 58.8828 187.91 58.8828 187.846 58.8828ZM190.662 55.6508H189.126V57.8588C189.894 57.8908 190.384 57.9068 190.598 57.9068C191.824 57.9068 192.438 57.5228 192.438 56.7548C192.438 56.0188 191.846 55.6508 190.662 55.6508ZM190.55 52.6588C190.24 52.6588 189.766 52.6748 189.126 52.7068V54.8508H190.742C191.179 54.8508 191.531 54.7495 191.798 54.5468C192.064 54.3441 192.198 54.0721 192.198 53.7308C192.198 53.0161 191.648 52.6588 190.55 52.6588ZM197.711 58.8828H195.391V51.6828H196.671V53.8428H197.855C198.836 53.8428 199.556 54.0668 200.015 54.5148C200.473 54.9521 200.703 55.5548 200.703 56.3228C200.703 57.0481 200.463 57.6561 199.983 58.1468C199.524 58.6375 198.767 58.8828 197.711 58.8828ZM203.359 58.8828H202.079V51.6828H203.359V58.8828ZM197.615 55.0428H196.671V57.6828H197.599C198.207 57.6828 198.649 57.5761 198.927 57.3628C199.204 57.1495 199.343 56.8188 199.343 56.3708C199.343 55.4855 198.767 55.0428 197.615 55.0428ZM210.975 57.0908L211.375 58.0988C210.682 58.7281 209.781 59.0428 208.671 59.0428C207.498 59.0428 206.565 58.7015 205.871 58.0188C205.167 57.3361 204.815 56.4241 204.815 55.2828C204.815 54.2055 205.146 53.3095 205.807 52.5948C206.458 51.8801 207.365 51.5228 208.527 51.5228C209.487 51.5228 210.282 51.8321 210.911 52.4508C211.551 53.0588 211.871 53.8481 211.871 54.8188C211.871 55.1281 211.845 55.4161 211.791 55.6828H206.255C206.309 56.3548 206.559 56.8828 207.007 57.2668C207.466 57.6508 208.053 57.8428 208.767 57.8428C209.706 57.8428 210.442 57.5921 210.975 57.0908ZM208.463 52.7228C207.834 52.7228 207.311 52.8988 206.895 53.2508C206.49 53.6028 206.25 54.0668 206.175 54.6428H210.543C210.511 54.0455 210.309 53.5761 209.935 53.2348C209.573 52.8935 209.082 52.7228 208.463 52.7228ZM221.567 51.6828H223.023L220.143 58.8828C219.621 60.1521 219.167 60.9948 218.783 61.4108C218.378 61.8588 217.914 62.0828 217.391 62.0828C216.922 62.0828 216.469 61.9335 216.031 61.6348L216.447 60.6588C216.789 60.8188 217.055 60.8988 217.247 60.8988C217.546 60.8988 217.813 60.7708 218.047 60.5148C218.293 60.2588 218.538 59.8428 218.783 59.2668L218.943 58.8828L215.487 51.6828H217.023L219.135 56.2588C219.178 56.3335 219.322 56.6961 219.567 57.3468C219.663 56.9948 219.775 56.6268 219.903 56.2428L221.567 51.6828ZM229.232 56.9148L229.84 57.8428C229.222 58.6428 228.299 59.0428 227.072 59.0428C225.92 59.0428 224.987 58.7015 224.272 58.0188C223.568 57.3361 223.216 56.4241 223.216 55.2828C223.216 54.2268 223.563 53.3361 224.256 52.6108C224.95 51.8855 225.819 51.5228 226.864 51.5228C228.123 51.5228 229.067 51.8375 229.696 52.4668L229.104 53.4748C228.55 52.9735 227.862 52.7228 227.04 52.7228C226.368 52.7228 225.787 52.9681 225.296 53.4588C224.816 53.9388 224.576 54.5468 224.576 55.2828C224.576 56.0615 224.822 56.6801 225.312 57.1388C225.814 57.6081 226.432 57.8428 227.168 57.8428C228 57.8428 228.688 57.5335 229.232 56.9148ZM237.215 58.8828H235.935V52.9628H233.407L233.327 54.1788C233.242 55.1708 233.114 55.9975 232.943 56.6588C232.783 57.3095 232.57 57.8001 232.303 58.1308C232.047 58.4508 231.775 58.6748 231.487 58.8028C231.199 58.9201 230.847 58.9788 230.431 58.9788L230.335 57.7308C230.452 57.7415 230.575 57.7255 230.703 57.6828C230.831 57.6295 230.97 57.5228 231.119 57.3628C231.279 57.2028 231.418 56.9895 231.535 56.7228C231.663 56.4561 231.775 56.0828 231.871 55.6028C231.978 55.1121 232.047 54.5521 232.079 53.9228L232.207 51.6828H237.215V58.8828ZM244.25 51.6828H245.706L242.826 58.8828C242.303 60.1521 241.85 60.9948 241.466 61.4108C241.06 61.8588 240.596 62.0828 240.074 62.0828C239.604 62.0828 239.151 61.9335 238.714 61.6348L239.13 60.6588C239.471 60.8188 239.738 60.8988 239.93 60.8988C240.228 60.8988 240.495 60.7708 240.73 60.5148C240.975 60.2588 241.22 59.8428 241.466 59.2668L241.626 58.8828L238.17 51.6828H239.706L241.818 56.2588C241.86 56.3335 242.004 56.6961 242.25 57.3468C242.346 56.9948 242.458 56.6268 242.586 56.2428L244.25 51.6828ZM247.94 58.8828H246.66V51.6828H251.22V52.8828H247.94V58.8828ZM257.536 53.5228L253.376 58.8828H252.096V51.6828H253.376V57.0428L257.536 51.6828H258.816V58.8828H257.536V53.5228Z" fill="white"/>
</svg>
