<svg width="430" height="209" viewBox="0 0 430 209" fill="none" xmlns="http://www.w3.org/2000/svg">
<path d="M156.772 1.06138C187.395 1.09329 211.605 12.7952 235.017 24.1107C258.253 35.3417 282.279 46.955 312.484 46.9865C342.689 47.018 366.739 35.4557 389.998 24.2731C402.462 18.2807 415.351 12.0836 429.067 7.71431L429.624 8.87003C416.022 13.2022 403.187 19.373 390.774 25.3404C367.339 36.6083 343.105 48.2588 312.482 48.2269C281.86 48.195 257.651 36.4942 234.238 25.1773C211.003 13.9463 186.976 2.33324 156.771 2.30176C126.566 2.27029 102.515 13.8332 79.2568 25.0158C55.8214 36.2837 31.5869 47.9342 0.963675 47.9023L0.964978 46.6617C31.1707 46.6931 55.2216 35.13 78.4802 23.9474C101.916 12.6806 126.15 1.02925 156.772 1.06116L156.772 1.06138Z" fill="#009A9C" fill-opacity="0.14"/>
<path d="M156.763 9.38124C187.387 9.41315 211.596 21.115 235.008 32.4315C258.244 43.6625 282.271 55.2758 312.475 55.3073C342.68 55.3387 366.73 43.7756 389.989 32.593C402.453 26.6005 415.343 20.4035 429.058 16.0346L429.615 17.1897C416.014 21.5225 403.178 27.6936 390.766 33.6612C367.33 44.9279 343.096 56.5793 312.474 56.5474C281.851 56.5155 257.642 44.8136 234.229 33.4972C210.994 22.2671 186.967 10.6531 156.762 10.6216C126.557 10.5902 102.506 22.154 79.2481 33.3357C55.8127 44.6033 31.5782 56.2547 0.954977 56.2228L0.95628 54.9824C31.162 55.0139 55.2129 43.4507 78.4715 32.2681C101.907 21.0005 126.141 9.34911 156.763 9.38102L156.763 9.38124Z" fill="#009A9C" fill-opacity="0.14"/>
<path d="M156.755 17.7015C187.378 17.7335 211.587 29.4358 234.999 40.752C258.235 51.9833 282.262 63.5964 312.467 63.6278C342.671 63.6593 366.722 52.0963 389.981 40.9135C402.445 34.9213 415.334 28.724 429.05 24.3554L429.606 25.5104C416.005 29.8428 403.17 36.0144 390.757 41.9817C367.322 53.2487 343.088 64.9001 312.465 64.8682C281.843 64.8363 257.633 53.1344 234.22 41.818C210.985 30.5869 186.958 18.9734 156.753 18.9419C126.549 18.9105 102.498 30.4739 79.2393 41.6565C55.8039 52.9241 31.5694 64.5755 0.946188 64.5436L0.947491 63.303C31.1532 63.3345 55.2041 51.7715 78.4627 40.5887C101.898 29.3213 126.132 17.6694 156.755 17.7013L156.755 17.7015Z" fill="#009A9C" fill-opacity="0.14"/>
<path d="M156.746 26.0224C187.369 26.0543 211.579 37.7562 234.991 49.0719C258.227 60.3039 282.253 71.9172 312.458 71.9486C342.662 71.9801 366.713 60.4169 389.972 49.2343C402.436 43.2419 415.325 37.0448 429.041 32.6753L429.598 33.8304C415.996 38.1636 403.161 44.3349 390.748 50.3016C367.313 61.5693 343.079 73.2207 312.456 73.1888C281.834 73.1569 257.625 61.455 234.211 50.1385C210.976 38.9075 186.95 27.2942 156.744 27.2628C126.54 27.2313 102.489 38.7945 79.2307 49.9771C55.7952 61.2447 31.5608 72.8961 0.937552 72.8642L0.938854 71.6238C31.1445 71.6553 55.1955 60.0921 78.454 48.9086C101.889 37.6416 126.124 25.9903 156.746 26.0222L156.746 26.0224Z" fill="#009A9C" fill-opacity="0.14"/>
<path d="M156.737 34.343C187.361 34.3749 211.57 46.0768 234.982 57.3926C258.218 68.6237 282.245 80.237 312.449 80.2684C342.654 80.2999 366.704 68.7376 389.963 57.5548C402.427 51.5623 415.317 45.3655 429.032 40.9968L429.589 42.1516C415.987 46.484 403.152 52.6556 390.74 58.6223C367.304 69.89 343.07 81.5405 312.448 81.5086C281.825 81.4767 257.616 69.7759 234.203 58.4592C210.968 47.2281 186.941 35.6148 156.736 35.5834C126.531 35.5519 102.48 47.1151 79.222 58.2977C55.7866 69.5654 31.5521 81.2159 0.928885 81.184L0.930188 79.9436C31.1359 79.9751 55.1868 68.4119 78.4454 57.2293C101.881 45.9623 126.115 34.3108 156.737 34.3427L156.737 34.343Z" fill="#009A9C" fill-opacity="0.14"/>
<path d="M156.729 42.6629C187.352 42.6949 211.561 54.3967 234.973 65.7132C258.209 76.9445 282.236 88.5575 312.44 88.589C342.645 88.6205 366.695 77.0575 389.954 65.8747C402.419 59.8823 415.308 53.6854 429.023 49.3168L429.58 50.4716C415.979 54.8049 403.144 60.9755 390.731 66.9429C367.295 78.2099 343.062 89.8613 312.439 89.8294C281.817 89.7975 257.607 78.0956 234.194 66.7791C210.959 55.5479 186.932 43.9348 156.727 43.9033C126.522 43.8719 102.471 55.4348 79.2132 66.6177C55.7778 77.8853 31.5433 89.5367 0.920065 89.5048L0.921368 88.2642C31.127 88.2957 55.178 76.7327 78.4365 65.5499C101.872 54.2822 126.106 42.6308 156.729 42.6627L156.729 42.6629Z" fill="#009A9C" fill-opacity="0.14"/>
<path d="M156.72 50.984C187.343 51.0159 211.553 62.7178 234.965 74.0343C258.201 85.2653 282.227 96.8786 312.432 96.9101C342.636 96.9415 366.687 85.3783 389.946 74.1958C402.41 68.2033 415.299 62.0063 429.015 57.6376L429.571 58.7927C415.97 63.125 403.135 69.2964 390.723 75.264C367.287 86.5307 343.053 98.1821 312.43 98.1502C281.808 98.1183 257.598 86.4164 234.185 75.1C210.95 63.8689 186.924 52.2557 156.718 52.2242C126.514 52.1927 102.463 63.7559 79.2046 74.9385C55.7691 86.2061 31.5346 97.8575 0.911398 97.8256L0.912701 96.5852C31.1184 96.6167 55.1693 85.0535 78.4279 73.8709C101.863 62.6033 126.098 50.9519 156.72 50.9838L156.72 50.984Z" fill="#009A9C" fill-opacity="0.14"/>
<path d="M156.711 59.3043C187.334 59.3362 211.544 71.0381 234.956 82.3546C258.192 93.5858 282.218 105.199 312.423 105.23C342.628 105.262 366.678 93.6989 389.937 82.5161C402.402 76.523 415.29 70.3268 429.006 65.9573L429.563 67.1123C415.961 71.4453 403.126 77.616 390.713 83.5836C367.278 94.8513 343.044 106.503 312.421 106.471C281.799 106.439 257.59 94.737 234.177 83.4205C210.941 72.1893 186.915 60.5762 156.71 60.5447C126.505 60.5132 102.454 72.0762 79.1958 83.259C55.7603 94.5267 31.5258 106.178 0.902609 106.146L0.903912 104.906C31.1096 104.937 55.1605 93.3741 78.4191 82.1913C101.855 70.9236 126.089 59.2722 156.711 59.3041L156.711 59.3043Z" fill="#009A9C" fill-opacity="0.14"/>
<path d="M156.702 67.625C187.326 67.6569 211.535 79.3577 234.947 90.6744C258.183 101.906 282.21 113.519 312.414 113.55C342.619 113.582 366.67 102.019 389.929 90.8368C402.393 84.8443 415.282 78.6473 428.997 74.278L429.554 75.4337C415.953 79.766 403.118 85.9367 390.705 91.9041C367.269 103.171 343.035 114.822 312.413 114.791C281.79 114.759 257.581 103.057 234.168 91.741C210.933 80.5099 186.906 68.8966 156.701 68.8652C126.496 68.8337 102.445 80.3969 79.1871 91.5795C55.7517 102.846 31.5172 114.498 0.893973 114.466L0.895276 113.225C31.1009 113.257 55.1519 101.694 78.4105 90.5111C101.846 79.2434 126.08 67.5929 156.702 67.6248L156.702 67.625Z" fill="#009A9C" fill-opacity="0.14"/>
<path d="M156.694 75.945C187.317 75.9769 211.526 87.6787 234.938 98.9952C258.174 110.226 282.201 121.84 312.406 121.871C342.61 121.902 366.66 110.339 389.92 99.1574C402.384 93.1643 415.273 86.9681 428.989 82.5986L429.545 83.7536C415.944 88.0866 403.109 94.2573 390.696 100.225C367.261 111.493 343.027 123.143 312.404 123.111C281.782 123.079 257.572 111.378 234.159 100.061C210.924 88.8299 186.897 77.2166 156.692 77.1851C126.488 77.1536 102.437 88.7168 79.1783 99.8994C55.7429 111.168 31.5084 122.818 0.885184 122.787L0.886486 121.546C31.0922 121.578 55.1431 110.014 78.4017 98.8319C101.837 87.5642 126.071 75.9128 156.694 75.9447L156.694 75.945Z" fill="#009A9C" fill-opacity="0.14"/>
<path d="M156.685 84.2655C187.308 84.2974 211.518 95.9993 234.93 107.316C258.166 118.547 282.192 130.16 312.397 130.192C342.601 130.223 366.652 118.66 389.911 107.477C402.376 101.485 415.264 95.2887 428.98 90.9193L429.537 92.0742C415.935 96.4065 403.1 102.578 390.688 108.545C367.252 119.812 343.018 131.464 312.395 131.432C281.773 131.4 257.563 119.698 234.15 108.382C210.915 97.1504 186.889 85.5373 156.683 85.5059C126.479 85.4744 102.428 97.0374 79.1696 108.22C55.7342 119.488 31.4997 131.139 0.876486 131.107L0.877789 129.867C31.0835 129.898 55.1344 118.335 78.393 107.152C101.828 95.8848 126.063 84.2334 156.685 84.2653L156.685 84.2655Z" fill="#009A9C" fill-opacity="0.14"/>
<path d="M156.676 92.5865C187.299 92.6184 211.509 104.319 234.921 115.637C258.157 126.867 282.184 138.481 312.388 138.513C342.592 138.544 366.642 126.981 389.901 115.798C402.366 109.806 415.255 103.61 428.971 99.2401L429.528 100.395C415.926 104.728 403.09 110.899 390.677 116.866C367.242 128.133 343.009 139.785 312.386 139.753C281.764 139.721 257.555 128.019 234.142 116.702C210.907 105.471 186.88 93.8582 156.675 93.8267C126.47 93.7952 102.419 105.358 79.1609 116.541C55.7254 127.809 31.4909 139.46 0.867697 139.428L0.869 138.188C31.0747 138.219 55.1256 126.655 78.3842 115.473C101.82 104.205 126.054 92.5544 156.676 92.5863L156.676 92.5865Z" fill="#009A9C" fill-opacity="0.14"/>
<path d="M156.667 100.907C187.29 100.939 211.5 112.64 234.912 123.957C258.148 135.188 282.175 146.801 312.379 146.832C342.584 146.864 366.635 135.301 389.894 124.118C402.359 118.126 415.247 111.93 428.962 107.56L429.519 108.715C415.918 113.048 403.083 119.219 390.671 125.186C367.235 136.453 343.001 148.104 312.378 148.073C281.755 148.041 257.546 136.339 234.133 125.023C210.898 113.792 186.871 102.179 156.666 102.147C126.461 102.116 102.41 113.679 79.1522 124.862C55.7167 136.128 31.4822 147.78 0.858969 147.748L0.860272 146.508C31.0659 146.539 55.1169 134.976 78.3754 123.793C101.811 112.526 126.045 100.875 156.667 100.907L156.667 100.907Z" fill="#009A9C" fill-opacity="0.14"/>
<path d="M156.659 109.228C187.282 109.259 211.491 120.96 234.903 132.277C258.14 143.508 282.166 155.121 312.371 155.153C342.575 155.184 366.626 143.621 389.885 132.439C402.349 126.446 415.238 120.25 428.954 115.88L429.51 117.035C415.909 121.369 403.074 127.539 390.661 133.507C367.226 144.774 342.992 156.425 312.369 156.393C281.747 156.361 257.537 144.659 234.124 133.344C210.889 122.113 186.863 110.499 156.657 110.468C126.453 110.436 102.402 121.999 79.1435 133.182C55.7081 144.449 31.4736 156.1 0.850394 156.069L0.851697 154.828C31.0574 154.859 55.1083 143.296 78.3669 132.114C101.802 120.846 126.037 109.195 156.659 109.227L156.659 109.228Z" fill="#009A9C" fill-opacity="0.14"/>
<path d="M156.65 117.547C187.273 117.579 211.483 129.281 234.895 140.598C258.131 151.829 282.157 163.442 312.362 163.474C342.567 163.505 366.617 151.942 389.876 140.76C402.34 134.767 415.229 128.571 428.945 124.201L429.502 125.356C415.9 129.688 403.065 135.86 390.652 141.827C367.217 153.095 342.983 164.746 312.36 164.714C281.738 164.682 257.529 152.981 234.115 141.663C210.88 130.433 186.854 118.819 156.649 118.788C126.444 118.756 102.393 130.32 79.1347 141.502C55.6993 152.77 31.4648 164.421 0.841574 164.389L0.842877 163.149C31.0486 163.18 55.0995 151.617 78.3581 140.434C101.793 129.167 126.028 117.515 156.65 117.547L156.65 117.547Z" fill="#009A9C" fill-opacity="0.14"/>
<path d="M156.641 125.868C187.265 125.9 211.474 137.602 234.886 148.918C258.122 160.149 282.149 171.763 312.353 171.794C342.558 171.826 366.608 160.262 389.867 149.08C402.331 143.087 415.221 136.891 428.936 132.521L429.493 133.676C415.891 138.009 403.056 144.181 390.644 150.148C367.208 161.415 342.974 173.066 312.352 173.034C281.729 173.003 257.52 161.301 234.107 149.984C210.872 138.753 186.845 127.14 156.64 127.108C126.435 127.077 102.384 138.64 79.1261 149.823C55.6906 161.09 31.4561 172.742 0.832907 172.71L0.83421 171.469C31.0399 171.501 55.0908 159.938 78.3494 148.755C101.785 137.487 126.019 125.836 156.641 125.868L156.641 125.868Z" fill="#009A9C" fill-opacity="0.14"/>
<path d="M156.633 134.189C187.256 134.221 211.465 145.923 234.877 157.239C258.113 168.469 282.14 180.083 312.345 180.115C342.549 180.146 366.6 168.582 389.859 157.401C402.323 151.408 415.212 145.211 428.928 140.842L429.484 141.997C415.883 146.33 403.048 152.5 390.636 158.468C367.199 169.736 342.966 181.387 312.343 181.355C281.721 181.323 257.511 169.621 234.098 158.305C210.863 147.074 186.836 135.46 156.631 135.429C126.427 135.398 102.376 146.961 79.1173 158.143C55.6818 169.411 31.4474 181.062 0.824148 181.03L0.825451 179.79C31.0311 179.822 55.0821 168.257 78.3406 157.076C101.776 145.808 126.01 134.157 156.633 134.189L156.633 134.189Z" fill="#009A9C" fill-opacity="0.14"/>
<path d="M156.624 142.51C187.247 142.542 211.457 154.243 234.869 165.559C258.105 176.79 282.131 188.403 312.336 188.435C342.54 188.466 366.591 176.903 389.85 165.721C402.314 159.729 415.203 153.532 428.919 149.163L429.476 150.318C415.874 154.651 403.039 160.821 390.626 166.789C367.191 178.057 342.957 189.707 312.334 189.675C281.712 189.643 257.502 177.942 234.089 166.626C210.854 155.395 186.828 143.781 156.622 143.75C126.418 143.719 102.367 155.281 79.1086 166.464C55.6732 177.732 31.4387 189.382 0.815481 189.351L0.816784 188.11C31.0225 188.142 55.0734 176.578 78.332 165.396C101.767 154.128 126.002 142.477 156.624 142.509L156.624 142.51Z" fill="#009A9C" fill-opacity="0.14"/>
<path d="M156.615 150.829C187.238 150.861 211.448 162.563 234.86 173.879C258.096 185.111 282.122 196.724 312.327 196.755C342.532 196.787 366.582 185.224 389.841 174.042C402.305 168.049 415.194 161.852 428.91 157.483L429.467 158.638C415.865 162.97 403.03 169.142 390.617 175.109C367.182 186.376 342.948 198.028 312.325 197.996C281.703 197.964 257.494 186.262 234.081 174.945C210.846 163.714 186.819 152.101 156.614 152.07C126.409 152.038 102.358 163.601 79.0998 174.784C55.6644 186.052 31.4299 197.703 0.806692 197.671L0.807995 196.43C31.0137 196.462 55.0646 184.899 78.3232 173.716C101.759 162.449 125.993 150.797 156.615 150.829L156.615 150.829Z" fill="#009A9C" fill-opacity="0.14"/>
<path d="M156.607 159.149C187.23 159.181 211.439 170.882 234.851 182.2C258.087 193.43 282.114 205.044 312.318 205.076C342.523 205.107 366.573 193.544 389.832 182.361C402.296 176.369 415.186 170.172 428.901 165.803L429.458 166.957C415.857 171.291 403.021 177.462 390.609 183.429C367.173 194.696 342.939 206.348 312.317 206.316C281.694 206.284 257.485 194.582 234.072 183.265C210.837 172.034 186.81 160.421 156.605 160.39C126.4 160.358 102.349 171.921 79.0912 183.104C55.6557 194.372 31.4212 206.023 0.797995 205.991L0.799298 204.751C31.005 204.782 55.0559 193.218 78.3145 182.036C101.75 170.768 125.984 159.117 156.607 159.149L156.607 159.149Z" fill="#009A9C" fill-opacity="0.14"/>
<path d="M156.597 167.471C187.221 167.503 211.432 179.205 234.845 190.522C247.326 196.554 260.23 202.793 273.924 207.158L273.368 208.314C259.559 203.91 246.599 197.646 234.067 191.588C210.83 180.357 186.802 168.743 156.596 168.711C126.392 168.68 102.341 180.243 79.0825 191.425C66.5355 197.457 53.5625 203.695 39.7424 208.07L39.1885 206.913C52.8926 202.576 65.8117 196.364 78.3055 190.358C101.741 179.09 125.975 167.439 156.597 167.471Z" fill="#009A9C" fill-opacity="0.14"/>
<path d="M428.893 174.123L429.449 175.278C415.848 179.611 403.013 185.783 390.6 191.75C378.054 197.781 365.08 204.019 351.262 208.394L350.709 207.237C364.411 202.9 377.33 196.689 389.823 190.682C402.288 184.69 415.177 178.493 428.892 174.123L428.893 174.123Z" fill="#009A9C" fill-opacity="0.14"/>
<path d="M156.589 175.791C187.213 175.823 211.423 187.526 234.836 198.842C240.602 201.629 246.564 204.511 252.524 207.17L251.791 208.257C245.808 205.588 239.834 202.701 234.057 199.908C210.821 188.677 186.793 177.063 156.588 177.031C126.383 177 102.332 188.563 79.0728 199.746C73.2899 202.526 67.3093 205.402 61.3198 208.058L60.5901 206.969C66.556 204.323 72.5244 201.453 78.2961 198.679C101.733 187.411 125.967 175.759 156.589 175.791Z" fill="#009A9C" fill-opacity="0.14"/>
<path d="M428.884 182.444L429.441 183.599C415.84 187.932 403.006 194.102 390.595 200.069C384.811 202.849 378.829 205.725 372.839 208.382L372.108 207.293C378.075 204.646 384.045 201.776 389.819 199.001C402.281 193.009 415.169 186.813 428.884 182.444L428.884 182.444Z" fill="#009A9C" fill-opacity="0.14"/>
<path d="M156.58 184.112C187.202 184.144 211.411 195.846 234.824 207.162L234.046 208.228C210.81 196.998 186.783 185.384 156.578 185.352C126.376 185.321 102.326 196.883 79.0685 208.064L78.2865 206.998C101.726 195.729 125.959 184.08 156.58 184.112L156.58 184.112Z" fill="#009A9C" fill-opacity="0.14"/>
<path d="M428.875 190.764L429.432 191.919C415.838 196.25 403.009 202.417 390.603 208.381L389.807 207.322C402.285 201.324 415.167 195.131 428.875 190.764L428.875 190.764Z" fill="#009A9C" fill-opacity="0.14"/>
<path d="M156.571 192.433C180.913 192.458 200.819 199.879 217.08 207.133L216.348 208.22C200.255 201.042 180.569 193.698 156.57 193.673C132.571 193.648 112.87 200.95 96.7607 208.096L96.0308 207.007C112.307 199.786 132.23 192.407 156.571 192.433Z" fill="#009A9C" fill-opacity="0.14"/>
</svg>
