<svg width="296" height="126" viewBox="0 0 296 126" fill="none" xmlns="http://www.w3.org/2000/svg">
<path d="M186.642 -47.6393C165.255 -47.5881 148.344 -35.2301 131.991 -23.2791C115.76 -11.418 98.9768 0.846233 77.8819 0.89666C56.7871 0.947087 39.9933 -11.2369 23.7519 -23.0203C15.0485 -29.3346 6.04817 -35.8642 -3.52966 -40.4649L-3.91876 -39.2463C5.57946 -34.683 14.5419 -28.1809 23.2094 -21.893C39.5739 -10.0209 56.4959 2.25626 77.8827 2.20513C99.2694 2.15401 116.18 -10.204 132.535 -22.1551C148.765 -34.0161 165.548 -46.2804 186.643 -46.3308C207.738 -46.3812 224.532 -34.1972 240.773 -22.4138C257.137 -10.541 274.06 1.73617 295.447 1.68505L295.447 0.376339C274.351 0.426768 257.557 -11.7572 241.316 -23.5406C224.951 -35.4134 208.029 -47.6906 186.642 -47.6395L186.642 -47.6393Z" fill="#009A9C" fill-opacity="0.14"/>
<path d="M186.648 -38.8185C165.261 -38.7674 148.351 -26.4094 131.997 -14.4584C115.766 -2.59756 98.9829 9.66692 77.8881 9.71735C56.7932 9.76778 39.999 -2.41644 23.7578 -14.1996C15.0542 -20.5139 6.05427 -27.0438 -3.52356 -31.6444L-3.91265 -30.4256C5.58556 -25.8632 14.5478 -19.3604 23.2149 -13.0723C39.5802 -1.20046 56.502 11.0767 77.8888 11.0256C99.2755 10.9744 116.186 -1.38359 132.541 -13.3346C148.771 -25.1954 165.554 -37.4599 186.649 -37.5103C207.744 -37.5607 224.538 -25.3765 240.779 -13.5933C257.144 -1.72055 274.066 10.5566 295.453 10.5055L295.453 9.19702C274.357 9.24745 257.563 -2.93677 241.322 -14.7199C224.957 -26.5927 208.035 -38.8699 186.648 -38.8188L186.648 -38.8185Z" fill="url(#paint0_linear)" fill-opacity="0.14"/>
<path d="M186.655 -29.9986C165.267 -29.9475 148.357 -17.5894 132.003 -5.63842C115.772 6.22262 98.989 18.4869 77.8942 18.5373C56.7993 18.5877 40.0051 6.40374 23.7639 -5.37967C15.0603 -11.6947 6.06037 -18.2236 -3.51745 -22.8252L-3.90655 -21.6064C5.59166 -17.0433 14.5539 -10.5412 23.2216 -4.25308C39.5861 7.61972 56.5081 19.8969 77.8949 19.8458C99.2816 19.7946 116.192 7.43659 132.547 -4.51442C148.777 -16.3755 165.56 -28.6397 186.655 -28.6901C207.75 -28.7406 224.544 -16.5566 240.785 -4.77316C257.15 7.09964 274.072 19.3768 295.459 19.3257L295.459 18.017C274.363 18.0674 257.569 5.88342 241.328 -5.89999C224.963 -17.7728 208.041 -30.05 186.655 -29.9988L186.655 -29.9986Z" fill="url(#paint1_linear)" fill-opacity="0.14"/>
<path d="M186.661 -21.1784C165.273 -21.1272 148.363 -8.77037 132.009 3.18089C115.778 15.0419 98.9951 27.3062 77.9003 27.3566C56.8054 27.4071 40.0112 15.2231 23.77 3.44059C15.0664 -2.87368 6.06648 -9.40357 -3.51135 -14.0049L-3.90044 -12.7854C5.59777 -8.22302 14.5601 -1.72094 23.2277 4.56694C39.5922 16.439 56.5142 28.7162 77.901 28.6651C99.2877 28.614 116.198 16.2559 132.553 4.3056C148.783 -7.55521 165.566 -19.8197 186.661 -19.8701C207.756 -19.9206 224.551 -7.73633 240.791 4.04686C257.156 15.919 274.078 28.1961 295.465 28.145L295.465 26.8363C274.369 26.8867 257.575 14.7027 241.334 2.91932C224.97 -8.95349 208.047 -21.2297 186.661 -21.1786L186.661 -21.1784Z" fill="url(#paint2_linear)" fill-opacity="0.14"/>
<path d="M186.667 -12.3588C165.28 -12.3077 148.369 0.0503447 132.015 12.0014C115.784 23.8621 99.0012 36.1266 77.9064 36.1771C56.8115 36.2275 40.0177 24.0433 23.7763 12.2608C15.0729 5.94583 6.07258 -0.583096 -3.50525 -5.18468L-3.89434 -3.96591C5.60387 0.597217 14.5663 7.09929 23.2338 13.3874C39.5983 25.2602 56.5203 37.5364 77.9071 37.4853C99.2938 37.4342 116.205 25.0773 132.559 13.1251C148.789 1.26431 165.572 -11.0002 186.668 -11.0506C207.762 -11.101 224.557 1.08319 240.797 12.8664C257.162 24.7401 274.084 37.0163 295.472 36.9652L295.471 35.6567C274.375 35.7072 257.581 23.523 241.34 11.7398C224.976 -0.133016 208.053 -12.4102 186.667 -12.3591L186.667 -12.3588Z" fill="url(#paint3_linear)" fill-opacity="0.14"/>
<path d="M186.673 -3.53867C165.286 -3.48754 148.375 8.87052 132.021 20.8215C115.79 32.6826 99.0073 44.9468 77.9125 44.9973C56.8176 45.0477 40.0234 32.8637 23.7822 21.0803C15.0786 14.766 6.07869 8.23707 -3.49914 3.63572L-3.88824 4.85426C5.60997 9.41668 14.5723 15.9197 23.2393 22.2076C39.6046 34.0797 56.5264 46.3568 77.9133 46.3057C99.2999 46.2546 116.211 33.8965 132.565 21.9455C148.795 10.0845 165.578 -2.17977 186.674 -2.2302C207.769 -2.28063 224.563 9.90336 240.804 21.6868C257.168 33.5596 274.09 45.8368 295.478 45.7856L295.477 44.4769C274.381 44.5274 257.587 32.3434 241.346 20.5599C224.982 8.68714 208.06 -3.59004 186.673 -3.53891L186.673 -3.53867Z" fill="url(#paint4_linear)" fill-opacity="0.14"/>
<path d="M186.679 5.28189C165.292 5.33302 148.381 17.6899 132.027 29.6421C115.796 41.5019 99.0134 53.7674 77.9186 53.8178C56.8239 53.8682 40.0305 41.684 23.7893 29.9008C15.0855 23.5866 6.08537 17.0576 -3.49304 12.4561L-3.88213 13.6748C5.61647 18.2379 14.5795 24.74 23.2468 31.0281C39.6113 42.9 56.5327 55.1772 77.9194 55.126C99.306 55.0749 116.217 42.7169 132.571 30.7658C148.801 18.905 165.584 6.64055 186.68 6.59012C207.775 6.5397 224.569 18.7239 240.81 30.5071C257.174 42.3799 274.097 54.6571 295.484 54.6059L295.483 53.2975C274.388 53.3479 257.593 41.1627 241.352 29.3805C224.988 17.5067 208.066 5.23054 186.679 5.28166L186.679 5.28189Z" fill="url(#paint5_linear)" fill-opacity="0.14"/>
<path d="M186.685 14.1021C165.298 14.1532 148.387 26.5106 132.033 38.4616C115.803 50.3224 99.0195 62.5868 77.9246 62.6373C56.8296 62.6877 40.0355 50.5035 23.794 38.7203C15.0902 32.406 6.09065 25.8771 -3.48718 21.2755L-3.87627 22.4943C5.62194 27.0574 14.5842 33.5595 23.2513 39.8476C39.6162 51.7194 56.538 63.9966 77.9252 63.9455C99.3119 63.8944 116.223 51.5363 132.577 39.5863C148.807 27.7252 165.59 15.461 186.686 15.4106C207.781 15.3601 224.575 27.5441 240.816 39.3275C257.18 51.1994 274.102 63.4765 295.49 63.4254L295.489 62.1169C274.393 62.1674 257.599 49.9832 241.358 38.2C224.994 26.3272 208.072 14.0507 186.685 14.1019L186.685 14.1021Z" fill="url(#paint6_linear)" fill-opacity="0.14"/>
<path d="M186.691 22.9223C165.304 22.9734 148.393 35.3302 132.039 47.2815C115.808 59.1423 99.0254 71.4068 77.9305 71.4572C56.8357 71.5076 40.0418 59.3234 23.8005 47.5412C15.0971 41.226 6.09675 34.697 -3.48108 30.0955L-3.87017 31.3142C5.62804 35.8776 14.5905 42.3797 23.258 48.6675C39.6225 60.5396 56.5445 72.8168 77.9313 72.7657C99.318 72.7146 116.229 60.3565 132.583 48.4062C148.813 36.5454 165.596 24.2809 186.692 24.2305C207.787 24.1801 224.581 36.3643 240.822 48.1475C257.186 60.0195 274.109 72.2967 295.496 72.2456L295.495 70.9369C274.4 70.9873 257.605 58.8031 241.364 47.0199C225 35.1471 208.078 22.8709 186.691 22.922L186.691 22.9223Z" fill="url(#paint7_linear)" fill-opacity="0.14"/>
<path d="M186.697 31.7417C165.31 31.7929 148.399 44.1509 132.046 56.1019C115.815 67.9627 99.0317 80.2272 77.9369 80.2776C56.8421 80.3281 40.0482 68.1438 23.8068 56.3614C15.1034 50.0464 6.1031 43.5175 -3.47473 38.9159L-3.86382 40.1347C5.63478 44.6971 14.5969 51.1999 23.2647 57.487C39.629 69.3608 56.5508 81.637 77.9377 81.5859C99.3243 81.5347 116.235 69.1779 132.59 57.2257C148.82 45.3656 165.603 33.1004 186.698 33.05C207.793 32.9995 224.587 45.1845 240.828 56.9669C257.192 68.8407 274.115 81.1169 295.502 81.0658L295.501 79.7573C274.406 79.8077 257.612 67.6235 241.371 55.8403C225.006 43.9675 208.084 31.6904 186.697 31.7415L186.697 31.7417Z" fill="#009A9C" fill-opacity="0.14"/>
<path d="M186.703 40.5618C165.316 40.613 148.405 52.971 132.051 64.922C115.821 76.7828 99.0376 89.0473 77.9427 89.0977C56.8479 89.1481 40.054 76.9639 23.8127 65.1808C15.1093 58.8665 6.10896 52.3369 -3.46887 47.7353L-3.85796 48.954C5.64025 53.5172 14.6027 60.0202 23.2702 66.3081C39.6347 78.1801 56.5567 90.4573 77.9435 90.4062C99.3302 90.3551 116.241 77.997 132.595 66.046C148.826 54.185 165.609 41.9207 186.704 41.8703C207.799 41.8199 224.593 54.0038 240.834 65.7873C257.198 77.6601 274.121 89.9372 295.508 89.8861L295.507 88.5774C274.412 88.6278 257.617 76.4436 241.377 64.6604C225.012 52.7876 208.09 40.5105 186.703 40.5616L186.703 40.5618Z" fill="#009A9C" fill-opacity="0.14"/>
<path d="M186.709 49.3823C165.322 49.4334 148.411 61.7914 132.058 73.7424C115.827 85.6023 99.0437 97.8677 77.9488 97.9181C56.854 97.9686 40.0598 85.7834 23.8186 74.0012C15.115 67.6869 6.11506 61.157 -3.46277 56.5555L-3.85186 57.7742C5.64635 62.3376 14.6086 68.8394 23.2757 75.1275C39.641 87.0003 56.5628 99.2775 77.9496 99.2264C99.3363 99.1752 116.247 86.8172 132.602 74.8662C148.832 63.0054 165.615 50.7409 186.71 50.6905C207.805 50.6401 224.599 62.8243 240.84 74.6075C257.204 86.4802 274.127 98.7574 295.514 98.7063L295.513 97.3978C274.418 97.4483 257.624 85.2631 241.383 73.4809C225.018 61.6081 208.096 49.3309 186.709 49.382L186.709 49.3823Z" fill="url(#paint8_linear)" fill-opacity="0.14"/>
<path d="M186.715 58.2027C165.328 58.2538 148.417 70.6111 132.064 82.5621C115.833 94.4229 99.0498 106.687 77.9549 106.738C56.8601 106.788 40.0662 94.6041 23.8249 82.8216C15.1215 76.5073 6.12117 69.9777 -3.45666 65.3768L-3.84576 66.5956C5.65245 71.158 14.6149 77.6601 23.2824 83.9482C39.6469 95.821 56.5689 108.097 77.9557 108.046C99.3424 107.995 116.253 95.6381 132.608 83.6869C148.838 71.8258 165.621 59.5616 186.716 59.5111C207.811 59.4607 224.605 71.6447 240.846 83.4281C257.21 95.3009 274.133 107.577 295.52 107.526L295.52 106.218C274.424 106.268 257.63 94.0837 241.389 82.3006C225.024 70.4278 208.102 58.1513 186.715 58.2024L186.715 58.2027Z" fill="url(#paint9_linear)" fill-opacity="0.14"/>
<path d="M186.721 67.0218C165.334 67.0729 148.424 79.431 132.07 91.382C115.839 103.243 99.0559 115.507 77.961 115.558C56.8662 115.608 40.0724 103.424 23.831 91.6417C15.1276 85.3265 6.12727 78.7975 -3.45056 74.1959L-3.83965 75.4147C5.65895 79.9771 14.621 86.4799 23.2889 92.768C39.6532 104.64 56.575 116.917 77.9618 116.866C99.3485 116.815 116.259 104.457 132.614 92.506C148.844 80.6449 165.627 68.3807 186.722 68.3303C207.817 68.2798 224.611 80.4638 240.852 92.2472C257.217 104.12 274.139 116.397 295.526 116.346L295.526 115.037C274.43 115.088 257.636 102.904 241.395 91.1204C225.03 79.2476 208.108 66.9704 186.721 67.0215L186.721 67.0218Z" fill="url(#paint10_linear)" fill-opacity="0.14"/>
<path d="M186.728 75.8415C165.34 75.8926 148.43 88.2499 132.076 100.202C115.845 112.062 99.062 124.327 77.9672 124.378C56.8723 124.428 40.0785 112.244 23.8371 100.461C15.1337 94.1464 6.13337 87.6165 -3.44446 83.0159L-3.83355 84.2337C5.66466 88.797 14.6271 95.2998 23.2946 101.588C39.6591 113.46 56.5811 125.737 77.9679 125.686C99.3546 125.635 116.265 113.277 132.62 101.326C148.85 89.4648 165.633 77.2004 186.728 77.1499C207.823 77.0995 224.617 89.2837 240.858 101.067C257.223 112.94 274.145 125.217 295.532 125.166L295.532 123.857C274.436 123.908 257.642 111.723 241.401 99.9403C225.036 88.0666 208.114 75.7901 186.728 75.8412L186.728 75.8415Z" fill="url(#paint11_linear)" fill-opacity="0.14"/>
<defs>
<linearGradient id="paint0_linear" x1="145.78" y1="10.8633" x2="385.36" y2="-20.6233" gradientUnits="userSpaceOnUse">
<stop stop-color="#009A9C"/>
<stop offset="1" stop-color="#FEFEFE" stop-opacity="0"/>
</linearGradient>
<linearGradient id="paint1_linear" x1="145.786" y1="19.6835" x2="385.366" y2="-11.8029" gradientUnits="userSpaceOnUse">
<stop stop-color="#009A9C"/>
<stop offset="1" stop-color="#FEFEFE" stop-opacity="0"/>
</linearGradient>
<linearGradient id="paint2_linear" x1="145.792" y1="28.5028" x2="385.372" y2="-2.98415" gradientUnits="userSpaceOnUse">
<stop stop-color="#009A9C"/>
<stop offset="1" stop-color="#FEFEFE" stop-opacity="0"/>
</linearGradient>
<linearGradient id="paint3_linear" x1="145.798" y1="37.323" x2="385.378" y2="5.83645" gradientUnits="userSpaceOnUse">
<stop stop-color="#009A9C"/>
<stop offset="1" stop-color="#FEFEFE" stop-opacity="0"/>
</linearGradient>
<linearGradient id="paint4_linear" x1="145.804" y1="46.1435" x2="385.384" y2="14.6571" gradientUnits="userSpaceOnUse">
<stop stop-color="#009A9C"/>
<stop offset="1" stop-color="#FEFEFE" stop-opacity="0"/>
</linearGradient>
<linearGradient id="paint5_linear" x1="145.81" y1="54.9638" x2="385.391" y2="23.4772" gradientUnits="userSpaceOnUse">
<stop stop-color="#009A9C"/>
<stop offset="1" stop-color="#FEFEFE" stop-opacity="0"/>
</linearGradient>
<linearGradient id="paint6_linear" x1="145.816" y1="63.7832" x2="385.396" y2="32.2962" gradientUnits="userSpaceOnUse">
<stop stop-color="#009A9C"/>
<stop offset="1" stop-color="#FEFEFE" stop-opacity="0"/>
</linearGradient>
<linearGradient id="paint7_linear" x1="145.822" y1="72.6034" x2="385.402" y2="41.1164" gradientUnits="userSpaceOnUse">
<stop stop-color="#009A9C"/>
<stop offset="1" stop-color="#FEFEFE" stop-opacity="0"/>
</linearGradient>
<linearGradient id="paint8_linear" x1="145.841" y1="99.0641" x2="385.421" y2="67.5775" gradientUnits="userSpaceOnUse">
<stop stop-color="#009A9C"/>
<stop offset="1" stop-color="#FEFEFE" stop-opacity="0"/>
</linearGradient>
<linearGradient id="paint9_linear" x1="145.847" y1="107.884" x2="385.427" y2="76.3968" gradientUnits="userSpaceOnUse">
<stop stop-color="#009A9C"/>
<stop offset="1" stop-color="#FEFEFE" stop-opacity="0"/>
</linearGradient>
<linearGradient id="paint10_linear" x1="145.853" y1="116.704" x2="385.433" y2="85.2175" gradientUnits="userSpaceOnUse">
<stop stop-color="#009A9C"/>
<stop offset="1" stop-color="#FEFEFE" stop-opacity="0"/>
</linearGradient>
<linearGradient id="paint11_linear" x1="145.859" y1="125.524" x2="385.439" y2="94.0372" gradientUnits="userSpaceOnUse">
<stop stop-color="#009A9C"/>
<stop offset="1" stop-color="#FEFEFE" stop-opacity="0"/>
</linearGradient>
</defs>
</svg>
