<svg width="104" height="40" viewBox="0 0 104 40" fill="none" xmlns="http://www.w3.org/2000/svg">
<rect width="104" height="40" rx="6" fill="#00E676"/>
<g clip-path="url(#clip0)">
<path d="M22.1304 21.7303L22.1236 21.7865C20.4744 20.9645 20.3019 20.855 20.0889 21.1745C19.9411 21.3958 19.5106 21.8975 19.3809 22.046C19.2496 22.1923 19.1191 22.2035 18.8964 22.1023C18.6714 21.9898 17.9491 21.7535 17.0941 20.9885C16.4281 20.3923 15.9811 19.661 15.8491 19.436C15.6294 19.0565 16.0891 19.0025 16.5076 18.2105C16.5826 18.053 16.5444 17.9293 16.4889 17.8175C16.4326 17.705 15.9849 16.6025 15.7974 16.163C15.6174 15.725 15.4321 15.7805 15.2934 15.7805C14.8614 15.743 14.5456 15.749 14.2674 16.0385C13.0569 17.369 13.3621 18.7415 14.3979 20.201C16.4334 22.865 17.5179 23.3555 19.5009 24.0365C20.0364 24.2068 20.5246 24.1828 20.9109 24.1273C21.3414 24.059 22.2361 23.5865 22.4229 23.0578C22.6141 22.529 22.6141 22.0903 22.5579 21.989C22.5024 21.8878 22.3554 21.8315 22.1304 21.7303Z" fill="white"/>
<path d="M24.39 13.5867C18.6233 8.01196 9.0795 12.0552 9.07575 19.9197C9.07575 21.4917 9.4875 23.0247 10.272 24.3785L9 29L13.7513 27.761C19.68 30.9635 26.997 26.711 27 19.9242C27 17.5422 26.07 15.3005 24.3787 13.616L24.39 13.5867ZM25.5015 19.8995C25.497 25.6242 19.2127 29.1995 14.2425 26.2775L13.9725 26.117L11.16 26.8482L11.9137 24.1145L11.7345 23.8332C8.6415 18.9095 12.195 12.4745 18.054 12.4745C20.0445 12.4745 21.9128 13.2507 23.3197 14.657C24.726 16.0512 25.5015 17.9195 25.5015 19.8995Z" fill="white"/>
</g>
<path d="M36.1578 25H37.4873L39.324 18.4631H39.3922L41.2288 25H42.5541L44.9788 16.2727H43.5896L41.8936 23.0355H41.8126L40.0442 16.2727H38.672L36.9035 23.0312H36.8226L35.1223 16.2727H33.7373L36.1578 25ZM47.0986 21.1136C47.0986 20.0696 47.7591 19.473 48.6667 19.473C49.5446 19.473 50.0687 20.0312 50.0687 20.9901V25H51.3429V20.8366C51.3429 19.2045 50.448 18.3693 49.1014 18.3693C48.0829 18.3693 47.4693 18.8125 47.1625 19.5199H47.0815V16.2727H45.8244V25H47.0986V21.1136ZM54.6952 25.1449C55.7776 25.1449 56.387 24.5952 56.6299 24.1051H56.681V25H57.9253V20.6534C57.9253 18.7486 56.4253 18.3693 55.3856 18.3693C54.2009 18.3693 53.11 18.8466 52.6839 20.0398L53.8813 20.3125C54.0688 19.848 54.5461 19.4006 55.4026 19.4006C56.225 19.4006 56.6469 19.831 56.6469 20.5724V20.6023C56.6469 21.0668 56.1696 21.0582 54.9935 21.1946C53.7535 21.3395 52.4836 21.6634 52.4836 23.1506C52.4836 24.4375 53.4509 25.1449 54.6952 25.1449ZM54.9722 24.1222C54.252 24.1222 53.7321 23.7983 53.7321 23.1676C53.7321 22.4858 54.3373 22.2429 55.0745 22.1449C55.4878 22.0895 56.4679 21.9787 56.6512 21.7955V22.6392C56.6512 23.4148 56.0333 24.1222 54.9722 24.1222ZM62.425 18.4545H61.0827V16.8864H59.8086V18.4545H58.8498V19.4773H59.8086V23.3423C59.8043 24.5312 60.712 25.1065 61.7177 25.0852C62.1225 25.081 62.3952 25.0043 62.5444 24.9489L62.3142 23.8963C62.229 23.9134 62.0713 23.9517 61.8668 23.9517C61.4534 23.9517 61.0827 23.8153 61.0827 23.0781V19.4773H62.425V18.4545ZM68.3811 20.0526C68.1169 19.0341 67.32 18.3693 65.9052 18.3693C64.4265 18.3693 63.3782 19.1491 63.3782 20.3082C63.3782 21.2372 63.9407 21.8551 65.168 22.1278L66.276 22.3707C66.9066 22.5114 67.2007 22.7926 67.2007 23.2017C67.2007 23.7088 66.6595 24.1051 65.8243 24.1051C65.0615 24.1051 64.5714 23.777 64.418 23.1335L63.1865 23.321C63.3995 24.4801 64.3626 25.1321 65.8328 25.1321C67.4137 25.1321 68.5089 24.2926 68.5089 23.108C68.5089 22.1832 67.9208 21.6122 66.7191 21.3352L65.6794 21.0966C64.9592 20.9261 64.6481 20.6832 64.6524 20.2401C64.6481 19.7372 65.1936 19.3793 65.918 19.3793C66.7106 19.3793 67.0771 19.8182 67.2262 20.2571L68.3811 20.0526ZM70.4965 25L71.2977 22.6903H74.7068L75.5036 25H76.9014L73.7607 16.2727H72.2394L69.0988 25H70.4965ZM71.6812 21.5824L72.9681 17.858H73.0363L74.3232 21.5824H71.6812ZM77.8066 27.4545H79.0808V23.9815H79.1575C79.3876 24.3991 79.8563 25.1278 81.0495 25.1278C82.6347 25.1278 83.7853 23.858 83.7853 21.7401C83.7853 19.6179 82.6177 18.3693 81.0367 18.3693C79.8222 18.3693 79.3833 19.1108 79.1575 19.5156H79.0509V18.4545H77.8066V27.4545ZM79.0552 21.7273C79.0552 20.3594 79.6518 19.4517 80.764 19.4517C81.9188 19.4517 82.4984 20.4276 82.4984 21.7273C82.4984 23.0398 81.9018 24.0412 80.764 24.0412C79.6688 24.0412 79.0552 23.1037 79.0552 21.7273ZM84.9601 27.4545H86.2342V23.9815H86.3109C86.5411 24.3991 87.0098 25.1278 88.203 25.1278C89.7882 25.1278 90.9388 23.858 90.9388 21.7401C90.9388 19.6179 89.7712 18.3693 88.1902 18.3693C86.9757 18.3693 86.5368 19.1108 86.3109 19.5156H86.2044V18.4545H84.9601V27.4545ZM86.2087 21.7273C86.2087 20.3594 86.8053 19.4517 87.9175 19.4517C89.0723 19.4517 89.6519 20.4276 89.6519 21.7273C89.6519 23.0398 89.0553 24.0412 87.9175 24.0412C86.8223 24.0412 86.2087 23.1037 86.2087 21.7273Z" fill="white"/>
<defs>
<clipPath id="clip0">
<rect width="18" height="18" fill="white" transform="translate(9 11)"/>
</clipPath>
</defs>
</svg>
