<svg width="32" height="32" viewBox="0 0 32 32" fill="none" xmlns="http://www.w3.org/2000/svg">
<path d="M31.9412 7.58808C31.831 7.17851 31.5623 6.82935 31.1947 6.61767C30.8268 6.40494 30.3893 6.3474 29.979 6.45754C29.5692 6.56794 29.22 6.83638 29.0083 7.20403L28.7417 7.66801C28.4884 7.52246 28.1647 7.60812 28.0166 7.86016L26.6621 10.1689L26.1981 9.90226C26.0752 9.83118 25.9289 9.81192 25.7919 9.84889C25.6547 9.88612 25.5381 9.97621 25.4675 10.0996C25.323 10.3545 25.411 10.6784 25.6649 10.8248L26.1289 11.0914L21.5963 18.946L20.4764 21.9377L19.9432 22.9347C19.631 23.4778 19.6643 24.153 20.0286 24.6625L18.8288 26.1341L18.4929 25.2918C18.3414 24.9164 17.9907 24.6591 17.5873 24.6276C17.1838 24.5959 16.7971 24.7953 16.5891 25.1424L16.3972 25.4676L16.216 23.3346C16.1743 22.83 15.7835 22.4244 15.281 22.3634C14.7782 22.3028 14.3022 22.604 14.1416 23.0841L12.8298 27.0194C12.7382 27.2977 12.8881 27.5977 13.1657 27.6914C13.2178 27.7156 13.2738 27.7302 13.331 27.7339C13.5602 27.7346 13.7643 27.5886 13.8377 27.3714L15.144 23.4362L15.3307 25.6009C15.3692 26.0628 15.7012 26.4468 16.1527 26.5515C16.6042 26.6562 17.0713 26.4573 17.309 26.0597L17.5064 25.7342L17.837 26.5716C17.9774 26.9244 18.2948 27.1761 18.6705 27.2321C19.0462 27.2881 19.4232 27.14 19.6607 26.8434L20.9032 25.2705C21.0407 25.3064 21.1823 25.3244 21.3245 25.3239C21.896 25.3283 22.4266 25.0273 22.7162 24.5344L23.2494 23.6439L25.2811 21.1751L29.8616 13.2244L30.3255 13.491C30.4492 13.5618 30.5393 13.6787 30.576 13.8164C30.613 13.9531 30.5937 14.0989 30.5229 14.2216L28.3899 17.917C28.3095 18.0384 28.2821 18.1873 28.3144 18.3295C28.3467 18.4714 28.4355 18.594 28.5605 18.6687C28.6834 18.7401 28.8297 18.7593 28.9667 18.7224C29.1039 18.6851 29.2205 18.5951 29.2911 18.4716L31.4241 14.7762C31.6368 14.4083 31.6943 13.9708 31.5839 13.5605C31.4735 13.1507 31.2051 12.8015 30.8374 12.5898L30.3735 12.3232L31.7066 10.0142C31.8521 9.76088 31.7664 9.4375 31.5147 9.28909L31.7813 8.8251C31.9997 8.45147 32.0575 8.00519 31.9412 7.58808ZM29.9308 7.73727C30.0014 7.61385 30.1185 7.5235 30.2563 7.48679C30.3932 7.45294 30.538 7.47195 30.6614 7.54017C30.7851 7.61073 30.8752 7.7279 30.9122 7.86537C30.946 8.00233 30.927 8.1471 30.8588 8.27051L30.5922 8.7345L29.6642 8.20125L29.9308 7.73727ZM22.6628 22.6256L22.3962 22.471L21.607 22.0122L22.3641 19.986L24.0438 20.9564L22.6628 22.6256ZM21.0631 24.1665C20.8378 24.0095 20.7686 23.7075 20.9032 23.4679L21.1698 23.0042L22.0975 23.5374L21.8309 23.996C21.7562 24.1256 21.6307 24.2178 21.4846 24.2503C21.3385 24.2826 21.1857 24.2524 21.0631 24.1665ZM24.6518 20.082L22.8068 19.0156L27.0727 11.6246L28.9177 12.6911L24.6518 20.082ZM29.451 11.7686L27.606 10.7021L28.6724 8.85713L30.5174 9.92362L29.451 11.7686Z" fill="#009846"/>
<path d="M8.41447 23.8999L6.52703 25.7824L5.39649 24.6519C5.18846 24.4452 4.85258 24.4452 4.64454 24.6519C4.54352 24.7521 4.48676 24.8883 4.48676 25.0305C4.48676 25.1726 4.54352 25.3091 4.64454 25.4091L5.77508 26.5396C5.97504 26.738 6.24531 26.8492 6.52703 26.8489C6.81031 26.8505 7.08292 26.7393 7.28419 26.5396L9.16642 24.6519C9.34764 24.4402 9.3354 24.1249 9.13856 23.9281C8.94146 23.731 8.62615 23.7187 8.41447 23.8999Z" fill="#009846"/>
<path d="M2.13293 25.3342C2.13293 27.8376 4.16228 29.8667 6.6655 29.8667C9.16872 29.8667 11.1981 27.8376 11.1981 25.3342C11.1981 25.0397 10.9593 24.8009 10.6648 24.8009C10.3703 24.8009 10.1316 25.0397 10.1316 25.3342C10.1316 27.2484 8.57975 28.8002 6.6655 28.8002C4.75124 28.8002 3.19942 27.2484 3.19942 25.3342C3.19942 23.4199 4.75124 21.8681 6.6655 21.8681C7.41589 21.866 8.14623 22.1095 8.74509 22.5615C8.98073 22.7383 9.31505 22.6904 9.49158 22.4547C9.66837 22.2191 9.62072 21.885 9.38509 21.7082C8.01162 20.6782 6.17391 20.5126 4.6385 21.2802C3.10282 22.048 2.13293 23.6175 2.13293 25.3342Z" fill="#009846"/>
<path d="M19.1968 4.27132C19.4912 4.27132 19.73 4.03282 19.73 3.73808C19.73 3.4436 19.4912 3.20483 19.1968 3.20483H5.33244C5.03796 3.20483 4.79919 3.4436 4.79919 3.73808V5.87105C4.79919 6.16579 5.03796 6.40429 5.33244 6.40429H19.1968C19.4912 6.40429 19.73 6.16579 19.73 5.87105C19.73 5.57657 19.4912 5.3378 19.1968 5.3378H5.86568V4.27132H19.1968Z" fill="#009846"/>
<path d="M6.93217 7.4707C6.63769 7.4707 6.39893 7.70946 6.39893 8.00394C6.39893 8.29868 6.63769 8.53718 6.93217 8.53718H17.597C17.8915 8.53718 18.1303 8.29868 18.1303 8.00394C18.1303 7.70946 17.8915 7.4707 17.597 7.4707H6.93217Z" fill="#009846"/>
<path d="M20.7964 11.2034H9.0651C8.77062 11.2034 8.53186 11.4421 8.53186 11.7366C8.53186 12.0313 8.77062 12.2698 9.0651 12.2698H20.7964C21.0909 12.2698 21.3297 12.0313 21.3297 11.7366C21.3297 11.4421 21.0909 11.2034 20.7964 11.2034Z" fill="#009846"/>
<path d="M15.464 14.9361C15.464 14.6416 15.2252 14.4028 14.9308 14.4028H4.26591C3.97143 14.4028 3.73267 14.6416 3.73267 14.9361C3.73267 15.2308 3.97143 15.4693 4.26591 15.4693H14.9308C15.2252 15.4693 15.464 15.2308 15.464 14.9361Z" fill="#009846"/>
<path d="M20.7965 14.4028H17.0638C16.7693 14.4028 16.5305 14.6416 16.5305 14.9361C16.5305 15.2308 16.7693 15.4693 17.0638 15.4693H20.7965C21.0909 15.4693 21.3297 15.2308 21.3297 14.9361C21.3297 14.6416 21.0909 14.4028 20.7965 14.4028Z" fill="#009846"/>
<path d="M9.59833 18.1356C9.89281 18.1356 10.1316 17.8971 10.1316 17.6023C10.1316 17.3079 9.89281 17.0691 9.59833 17.0691H4.26591C3.97143 17.0691 3.73267 17.3079 3.73267 17.6023C3.73267 17.8971 3.97143 18.1356 4.26591 18.1356H9.59833Z" fill="#009846"/>
<path d="M11.7314 18.1356H15.4641C15.7585 18.1356 15.9973 17.8971 15.9973 17.6023C15.9973 17.3079 15.7585 17.0691 15.4641 17.0691H11.7314C11.4369 17.0691 11.1981 17.3079 11.1981 17.6023C11.1981 17.8971 11.4369 18.1356 11.7314 18.1356Z" fill="#009846"/>
<path d="M23.9959 24.5345C23.7014 24.5345 23.4627 24.7733 23.4627 25.0678V30.4002C23.4627 30.6949 23.2239 30.9334 22.9294 30.9334H1.59973C1.30525 30.9334 1.06648 30.6949 1.06648 30.4002V1.6051C1.06648 1.31062 1.30525 1.07186 1.59973 1.07186H22.9294C23.2239 1.07186 23.4627 1.31062 23.4627 1.6051V11.6195C23.4627 11.914 23.7014 12.1528 23.9959 12.1528C24.2904 12.1528 24.5292 11.914 24.5292 11.6195V1.6051C24.5292 0.721655 23.8129 0.00537109 22.9294 0.00537109H1.59973C0.716284 0.00537109 0 0.721655 0 1.6051V30.4002C0 31.2839 0.716284 31.9999 1.59973 31.9999H22.9294C23.8129 31.9999 24.5292 31.2839 24.5292 30.4002V25.0678C24.5292 24.7733 24.2904 24.5345 23.9959 24.5345Z" fill="#009846"/>
</svg>
