<svg width="73" height="87" viewBox="0 0 73 87" fill="none" xmlns="http://www.w3.org/2000/svg">
<path d="M66.962 39.3495L66.3516 38.1231C63.8946 33.1568 62.5972 27.6453 62.5942 22.2659C62.7421 19.616 63.7351 16.2137 64.4598 13.7305C64.6743 12.9927 64.8716 12.3171 65.028 11.733C65.6339 9.46157 65.6427 7.44211 65.0541 5.73024C63.235 0.439193 60.1097 0 56.7944 0C53.4791 0 50.3538 0.439193 48.5345 5.73024C47.9459 7.44228 47.9548 9.46157 48.5606 11.7346C48.7171 12.3173 48.9143 12.9929 49.1288 13.7307C49.8537 16.2139 50.8466 19.616 50.9916 22.1849C50.9916 27.6455 49.6943 33.1569 47.2372 38.1233L46.6544 39.2932C46.6519 39.2984 46.6493 39.3036 46.6468 39.3086L46.0572 38.1224C43.6001 33.1575 42.3028 27.6462 42.2998 22.2652C42.4477 19.6167 43.4407 16.2146 44.1654 13.7314C44.3799 12.992 44.5771 12.318 44.7336 11.7339C45.3395 9.46226 45.3483 7.44297 44.7597 5.7311C42.9404 0.438675 39.8151 0.000863534 36.4998 0.000863534C33.1845 0.000863534 30.0592 0.438675 28.2399 5.7311C27.6514 7.44314 27.6602 9.46243 28.266 11.7339C28.4225 12.3181 28.6197 12.992 28.8342 13.7314C29.5591 16.2146 30.552 19.6167 30.697 22.1856C30.697 27.6462 29.3997 33.1576 26.9426 38.1226L26.3529 39.3088C26.3504 39.3036 26.3478 39.2984 26.3453 39.2934L25.7626 38.1235C23.3055 33.1571 22.0082 27.6457 22.0052 22.2662C22.1531 19.6164 23.1461 16.2141 23.8708 13.7309C24.0853 12.9931 24.2825 12.3174 24.439 11.7334C25.0449 9.46191 25.0537 7.44245 24.4651 5.73058C22.6461 0.439193 19.5208 0 16.2056 0C12.8903 0 9.76498 0.439193 7.94568 5.73024C7.3571 7.44228 7.36591 9.46157 7.97176 11.7346C8.12824 12.3173 8.32547 12.9929 8.53997 13.7307C9.26482 16.2139 10.2577 19.616 10.4028 22.1849C10.4028 27.6455 9.10541 33.1569 6.64831 38.1233L6.03796 39.3497C3.53458 44.3682 0.420678 50.6131 0.259888 56.5347V63.7827C0.259888 68.7432 1.66607 73.1834 3.10696 77.3075C5.32348 83.6481 8.34878 86.9996 11.8568 86.9996H20.5545C22.7085 86.9996 24.6533 85.7758 26.3576 83.3567C28.0614 85.757 30.0167 87.0003 32.1514 87.0003H40.8491C42.9837 87.0003 44.9391 85.757 46.6429 83.3567C48.3471 85.7758 50.292 86.9996 52.446 86.9996H61.1437C64.6517 86.9996 67.677 83.6481 69.8935 77.3075C71.3344 73.1834 72.7406 68.7433 72.7406 63.7827V56.4955C72.5791 50.6129 69.4654 44.368 66.962 39.3495ZM51.2757 6.67391C52.5151 3.06727 54.0199 2.89906 56.7944 2.89906C59.5689 2.89906 61.0736 3.06727 62.3131 6.67391C62.7103 7.8307 62.6813 9.28178 62.226 10.985C62.0753 11.5503 61.8839 12.2042 61.6767 12.9188C61.2932 14.2305 60.8395 15.7852 60.4611 17.3954H53.1299C52.7512 15.792 52.2964 14.2333 51.9122 12.9188C51.7049 12.2042 51.5135 11.5505 51.3628 10.985C50.9077 9.28178 50.8787 7.8307 51.2757 6.67391ZM53.6983 20.2946H59.8964C59.8018 20.9376 59.7316 21.5719 59.6981 22.1847C59.6981 23.9719 59.8287 25.7637 60.0814 27.5426H53.5037C53.7587 25.7428 53.89 23.9245 53.8895 22.1035C53.8568 21.52 53.7897 20.9129 53.6983 20.2946ZM30.9813 6.6746C32.2207 3.06796 33.7254 2.89975 36.5 2.89975C39.2745 2.89975 40.7791 3.06796 42.0187 6.6746C42.4159 7.83001 42.3869 9.28092 41.9316 10.9857C41.7808 11.5496 41.5895 12.2033 41.3822 12.9195C40.9988 14.231 40.5453 15.7856 40.1667 17.3954H32.8353C32.4566 15.7921 32.002 14.2338 31.6177 12.9195C31.4105 12.2035 31.2191 11.5496 31.0684 10.9857C30.6131 9.28092 30.5841 7.82983 30.9813 6.6746ZM33.4037 20.2946H39.602C39.5073 20.9378 39.4372 21.5723 39.4035 22.1854C39.4035 23.9722 39.5341 25.7639 39.7868 27.5428H33.2089C33.464 25.743 33.5952 23.9251 33.5949 22.1042C33.5624 21.5205 33.4951 20.9131 33.4037 20.2946ZM10.6869 6.67391C11.9262 3.06727 13.431 2.89906 16.2056 2.89906C18.9801 2.89906 20.4847 3.06727 21.7242 6.67391C22.1215 7.8307 22.0924 9.28178 21.6372 10.985C21.4864 11.5503 21.2951 12.2042 21.0878 12.9188C20.7044 14.2305 20.2507 15.7852 19.8723 17.3954H12.5411C12.1623 15.792 11.7076 14.2333 11.3233 12.9188C11.1161 12.2042 10.9247 11.5505 10.7739 10.985C10.3187 9.28178 10.2897 7.8307 10.6869 6.67391ZM13.1094 20.2946H19.3075C19.2129 20.9376 19.143 21.5719 19.1093 22.1847C19.1093 23.9719 19.2398 25.7637 19.4925 27.5426H12.9148C13.1699 25.7428 13.3011 23.9245 13.3006 22.1035C13.2678 21.52 13.2006 20.9129 13.1094 20.2946ZM20.5543 84.1002H11.8566C9.75617 84.1002 7.56573 81.2765 5.84367 76.3521C4.48533 72.4627 3.15894 68.2895 3.15894 63.7825V56.5751C3.30108 51.3333 6.25678 45.406 8.63271 40.6426L9.24737 39.4075C10.6567 36.5587 11.7091 33.5414 12.3894 30.4418H20.0186C20.699 33.5334 21.7524 36.5549 23.1636 39.4075L23.7492 40.5861C24.0736 41.2358 24.4064 41.9054 24.7412 42.5891C22.6731 46.9237 20.6821 51.8315 20.5543 56.5352V63.7832C20.5543 68.7423 21.9605 73.184 23.4014 77.308C23.8129 78.4855 24.2527 79.5594 24.7179 80.5283C23.718 82.2829 22.2691 84.1002 20.5543 84.1002ZM40.8487 84.1008H32.1511C30.0506 84.1008 27.8602 81.2755 26.1381 76.3512C24.7798 72.4619 23.4534 68.2886 23.4534 63.7832V56.5742C23.5955 51.3324 26.5512 45.4065 28.9271 40.6431L29.5418 39.4081C30.9511 36.5587 32.0034 33.541 32.6837 30.4418H40.313C40.9935 33.5333 42.0466 36.5549 43.4578 39.4081L44.0725 40.6431C46.4484 45.4065 49.4041 51.3324 49.5462 56.535V63.783C49.5462 68.2884 48.2199 72.4619 46.8615 76.3511C45.1396 81.2755 42.9494 84.1008 40.8487 84.1008ZM69.8408 63.7825C69.8408 68.2893 68.5145 72.4627 67.1561 76.3505C65.4341 81.2763 63.2436 84.1001 61.1432 84.1001H52.4457C50.7308 84.1001 49.2822 82.2827 48.2822 80.5282C48.7475 79.5591 49.1872 78.4852 49.5988 77.3079C51.0396 73.1838 52.4458 68.7421 52.4458 63.783V56.4958C52.318 51.8234 50.3271 46.922 48.2589 42.5888C48.5938 41.9052 48.9266 41.2356 49.2509 40.5859L49.8366 39.4074C51.2459 36.5586 52.2983 33.5412 52.9786 30.4416H60.6078C61.2882 33.5333 62.3416 36.5548 63.7528 39.4074L64.3674 40.6424C66.7434 45.4058 69.6991 51.3333 69.8412 56.5343V63.7825H69.8408Z" fill="#343A3F"/>
</svg>
