<svg width="31" height="31" viewBox="0 0 31 31" fill="none" xmlns="http://www.w3.org/2000/svg">
<path d="M24.5 24C23.9485 24 23.5 23.5515 23.5 23C23.5 22.4485 23.9485 22 24.5 22C25.0515 22 25.5 22.4485 25.5 23H26.5C26.5 22.071 25.86 21.2945 25 21.071V20H24V21.071C23.14 21.2945 22.5 22.071 22.5 23C22.5 24.103 23.397 25 24.5 25C25.0515 25 25.5 25.4485 25.5 26C25.5 26.5515 25.0515 27 24.5 27C23.9485 27 23.5 26.5515 23.5 26H22.5C22.5 26.929 23.14 27.7055 24 27.929V29H25V27.929C25.86 27.7055 26.5 26.929 26.5 26C26.5 24.897 25.603 24 24.5 24Z" fill="#009846"/>
<path d="M29 24H28V25H29V24Z" fill="#009846"/>
<path d="M21 24H20V25H21V24Z" fill="#009846"/>
<path d="M25 18.0255V2H22V1.5C22 0.673 21.327 0 20.5 0C19.673 0 19 0.673 19 1.5V2H18V1.5C18 0.673 17.327 0 16.5 0C15.673 0 15 0.673 15 1.5V2H14V1.5C14 0.673 13.327 0 12.5 0C11.673 0 11 0.673 11 1.5V2H10V1.5C10 0.673 9.327 0 8.5 0C7.673 0 7 0.673 7 1.5V2H6V1.5C6 0.673 5.327 0 4.5 0C3.673 0 3 0.673 3 1.5V2H0V25H18.0255C18.282 28.3505 21.0845 31 24.5 31C26.059 31 27.567 30.4395 28.746 29.4215L28.0925 28.6645C27.095 29.526 25.819 30 24.5 30C21.4675 30 19 27.5325 19 24.5C19 21.4675 21.4675 19 24.5 19C27.5325 19 30 21.4675 30 24.5C30 25.768 29.581 26.959 28.7875 27.945L29.567 28.572C30.491 27.423 31 25.977 31 24.5C31 21.0845 28.3505 18.282 25 18.0255ZM20 1.5C20 1.2245 20.2245 1 20.5 1C20.7755 1 21 1.2245 21 1.5V3.5C21 3.7755 20.7755 4 20.5 4C20.2245 4 20 3.7755 20 3.5V1.5ZM16 1.5C16 1.2245 16.2245 1 16.5 1C16.7755 1 17 1.2245 17 1.5V3.5C17 3.7755 16.7755 4 16.5 4C16.2245 4 16 3.7755 16 3.5V1.5ZM12 1.5C12 1.2245 12.2245 1 12.5 1C12.7755 1 13 1.2245 13 1.5V3.5C13 3.7755 12.7755 4 12.5 4C12.2245 4 12 3.7755 12 3.5V1.5ZM8 1.5C8 1.2245 8.2245 1 8.5 1C8.7755 1 9 1.2245 9 1.5V3.5C9 3.7755 8.7755 4 8.5 4C8.2245 4 8 3.7755 8 3.5V1.5ZM4 1.5C4 1.2245 4.2245 1 4.5 1C4.7755 1 5 1.2245 5 1.5V3.5C5 3.7755 4.7755 4 4.5 4C4.2245 4 4 3.7755 4 3.5V1.5ZM22 18H19V15H22V18ZM22 14H19V11H22V14ZM22 10H19V7H22V10ZM24 18.0255C23.6585 18.0515 23.325 18.1045 23 18.182V6H14V10H2V23H11V19H21.0515C19.3555 20.0675 18.187 21.8925 18.0255 24H1V3H3V3.5C3 4.327 3.673 5 4.5 5C5.327 5 6 4.327 6 3.5V3H7V3.5C7 4.327 7.673 5 8.5 5C9.327 5 10 4.327 10 3.5V3H11V3.5C11 4.327 11.673 5 12.5 5C13.327 5 14 4.327 14 3.5V3H15V3.5C15 4.327 15.673 5 16.5 5C17.327 5 18 4.327 18 3.5V3H19V3.5C19 4.327 19.673 5 20.5 5C21.327 5 22 4.327 22 3.5V3H24V18.0255ZM15 14V11H18V14H15ZM18 15V18H15V15H18ZM15 10V7H18V10H15ZM11 14V11H14V14H11ZM14 15V18H11V15H14ZM7 18V15H10V18H7ZM10 19V22H7V19H10ZM7 14V11H10V14H7ZM3 18V15H6V18H3ZM6 19V22H3V19H6ZM3 14V11H6V14H3Z" fill="#009846"/>
</svg>
