<svg width="32" height="32" viewBox="0 0 32 32" fill="none" xmlns="http://www.w3.org/2000/svg">
<path d="M1.5 31H30.5C30.6326 31 30.7598 30.9473 30.8536 30.8536C30.9473 30.7598 31 30.6326 31 30.5V28.5C31 28.3674 30.9473 28.2402 30.8536 28.1464C30.7598 28.0527 30.6326 28 30.5 28H30V27H30.5C30.6326 27 30.7598 26.9473 30.8536 26.8536C30.9473 26.7598 31 26.6326 31 26.5V24.5C31 24.3674 30.9473 24.2402 30.8536 24.1464C30.7598 24.0527 30.6326 24 30.5 24H29V22.5C29 22.3674 28.9473 22.2402 28.8536 22.1464C28.7598 22.0527 28.6326 22 28.5 22H27.6415C28.3869 21.3449 28.8621 20.436 28.9744 19.45C29.0868 18.464 28.8284 17.4714 28.2494 16.6654C27.6705 15.8594 26.8124 15.2976 25.8422 15.0892C24.8719 14.8809 23.8588 15.0409 23 15.5381V8C23 7.93434 22.9871 7.86932 22.9619 7.80865C22.9368 7.74799 22.9 7.69287 22.8536 7.64644L16.3536 1.14644C16.3071 1.10001 16.252 1.06318 16.1913 1.03805C16.1307 1.01293 16.0657 0.999998 16 1H1.5C1.36739 1 1.24021 1.05268 1.14645 1.14645C1.05268 1.24021 1 1.36739 1 1.5V30.5C1 30.6326 1.05268 30.7598 1.14645 30.8536C1.24021 30.9473 1.36739 31 1.5 31ZM14 28V27H21V28H14ZM15 26V25H22V26H15ZM22 30H15V29H22V30ZM22 28V27H29V28H22ZM30 30H23V29H30V30ZM30 25V26H23V25H30ZM28 23V24H21V23H28ZM25 16C25.5933 16 26.1734 16.1759 26.6667 16.5056C27.1601 16.8352 27.5446 17.3038 27.7716 17.8519C27.9987 18.4001 28.0581 19.0033 27.9424 19.5853C27.8266 20.1672 27.5409 20.7018 27.1213 21.1213C26.7018 21.5409 26.1672 21.8266 25.5853 21.9424C25.0033 22.0581 24.4001 21.9987 23.8519 21.7716C23.3038 21.5446 22.8352 21.1601 22.5056 20.6667C22.1759 20.1734 22 19.5933 22 19C22.0009 18.2046 22.3173 17.4421 22.8797 16.8797C23.4421 16.3173 24.2046 16.0009 25 16ZM16.5 2.70706L21.2929 7.5H16.5V2.70706ZM2 2H15.5V8C15.5 8.13261 15.5527 8.25979 15.6464 8.35355C15.7402 8.44732 15.8674 8.5 16 8.5H22V16.3585C21.6523 16.7521 21.3857 17.2104 21.2154 17.7072C21.0452 18.204 20.9747 18.7296 21.008 19.2537C21.0413 19.7778 21.1778 20.2902 21.4095 20.7615C21.6413 21.2327 21.9638 21.6536 22.3585 22H20.5C20.3674 22 20.2402 22.0527 20.1464 22.1464C20.0527 22.2402 20 22.3674 20 22.5V24H14.5C14.3674 24 14.2402 24.0527 14.1464 24.1464C14.0527 24.2402 14 24.3674 14 24.5V26H13.5C13.3674 26 13.2402 26.0527 13.1464 26.1464C13.0527 26.2402 13 26.3674 13 26.5V28.5C13 28.6326 13.0527 28.7598 13.1464 28.8536C13.2402 28.9473 13.3674 29 13.5 29H14V30H2V2Z" fill="#009846"/>
<path d="M4 13.5H20C20.1326 13.5 20.2598 13.4473 20.3536 13.3536C20.4473 13.2598 20.5 13.1326 20.5 13C20.5 12.8674 20.4473 12.7402 20.3536 12.6464C20.2598 12.5527 20.1326 12.5 20 12.5H4C3.86739 12.5 3.74021 12.5527 3.64645 12.6464C3.55268 12.7402 3.5 12.8674 3.5 13C3.5 13.1326 3.55268 13.2598 3.64645 13.3536C3.74021 13.4473 3.86739 13.5 4 13.5Z" fill="#009846"/>
<path d="M4 16H20C20.1326 16 20.2598 15.9473 20.3536 15.8536C20.4473 15.7598 20.5 15.6326 20.5 15.5C20.5 15.3674 20.4473 15.2402 20.3536 15.1464C20.2598 15.0527 20.1326 15 20 15H4C3.86739 15 3.74021 15.0527 3.64645 15.1464C3.55268 15.2402 3.5 15.3674 3.5 15.5C3.5 15.6326 3.55268 15.7598 3.64645 15.8536C3.74021 15.9473 3.86739 16 4 16Z" fill="#009846"/>
<path d="M4 18.5H19C19.1326 18.5 19.2598 18.4473 19.3536 18.3536C19.4473 18.2598 19.5 18.1326 19.5 18C19.5 17.8674 19.4473 17.7402 19.3536 17.6464C19.2598 17.5527 19.1326 17.5 19 17.5H4C3.86739 17.5 3.74021 17.5527 3.64645 17.6464C3.55268 17.7402 3.5 17.8674 3.5 18C3.5 18.1326 3.55268 18.2598 3.64645 18.3536C3.74021 18.4473 3.86739 18.5 4 18.5Z" fill="#009846"/>
<path d="M19.5 20.5C19.5 20.3674 19.4473 20.2402 19.3536 20.1464C19.2598 20.0527 19.1326 20 19 20H4C3.86739 20 3.74021 20.0527 3.64645 20.1464C3.55268 20.2402 3.5 20.3674 3.5 20.5C3.5 20.6326 3.55268 20.7598 3.64645 20.8536C3.74021 20.9473 3.86739 21 4 21H19C19.1326 21 19.2598 20.9473 19.3536 20.8536C19.4473 20.7598 19.5 20.6326 19.5 20.5Z" fill="#009846"/>
<path d="M11 23C11 22.8674 10.9473 22.7402 10.8536 22.6464C10.7598 22.5527 10.6326 22.5 10.5 22.5H4C3.86739 22.5 3.74021 22.5527 3.64645 22.6464C3.55268 22.7402 3.5 22.8674 3.5 23C3.5 23.1326 3.55268 23.2598 3.64645 23.3536C3.74021 23.4473 3.86739 23.5 4 23.5H10.5C10.6326 23.5 10.7598 23.4473 10.8536 23.3536C10.9473 23.2598 11 23.1326 11 23Z" fill="#009846"/>
<path d="M4 11H12.5C12.6326 11 12.7598 10.9473 12.8536 10.8536C12.9473 10.7598 13 10.6326 13 10.5C13 10.3674 12.9473 10.2402 12.8536 10.1464C12.7598 10.0527 12.6326 10 12.5 10H4.5V9.70706L6 8.20706L6.64644 8.85356C6.69287 8.89999 6.74799 8.93683 6.80865 8.96196C6.86932 8.98708 6.93434 9.00002 7 9.00002C7.06566 9.00002 7.13068 8.98708 7.19135 8.96196C7.25201 8.93683 7.30713 8.89999 7.35356 8.85356L9 7.20706L9.64644 7.85356C9.69287 7.89999 9.74799 7.93683 9.80865 7.96196C9.86932 7.98708 9.93434 8.00002 10 8.00002C10.0657 8.00002 10.1307 7.98708 10.1913 7.96196C10.252 7.93683 10.3071 7.89999 10.3536 7.85356L12 6.20706V6.5C12 6.63261 12.0527 6.75979 12.1464 6.85355C12.2402 6.94732 12.3674 7 12.5 7C12.6326 7 12.7598 6.94732 12.8536 6.85355C12.9473 6.75979 13 6.63261 13 6.5V5C13 4.86739 12.9473 4.74021 12.8536 4.64645C12.7598 4.55268 12.6326 4.5 12.5 4.5H11C10.8674 4.5 10.7402 4.55268 10.6464 4.64645C10.5527 4.74021 10.5 4.86739 10.5 5C10.5 5.13261 10.5527 5.25979 10.6464 5.35355C10.7402 5.44732 10.8674 5.5 11 5.5H11.2929L10 6.79294L9.35356 6.14644C9.30713 6.10001 9.25201 6.06317 9.19135 6.03804C9.13068 6.01292 9.06566 5.99998 9 5.99998C8.93434 5.99998 8.86932 6.01292 8.80865 6.03804C8.74799 6.06317 8.69287 6.10001 8.64644 6.14644L7 7.79294L6.35356 7.14644C6.30713 7.10001 6.25201 7.06317 6.19135 7.03804C6.13068 7.01292 6.06566 6.99998 6 6.99998C5.93434 6.99998 5.86932 7.01292 5.80865 7.03804C5.74799 7.06317 5.69287 7.10001 5.64644 7.14644L4.5 8.29294V4.5C4.5 4.36739 4.44732 4.24021 4.35355 4.14645C4.25979 4.05268 4.13261 4 4 4C3.86739 4 3.74021 4.05268 3.64645 4.14645C3.55268 4.24021 3.5 4.36739 3.5 4.5V10.5C3.5 10.6326 3.55268 10.7598 3.64645 10.8536C3.74021 10.9473 3.86739 11 4 11Z" fill="#009846"/>
</svg>
