<svg width="80" height="80" viewBox="0 0 80 80" fill="none" xmlns="http://www.w3.org/2000/svg">
<path d="M58.3042 3.14475L12.1417 0.0570904C10.6369 -0.0425971 9.33172 1.0985 9.23094 2.60287L8.86984 8.0024H2.73438C1.22672 8.0024 0 9.22912 0 10.7368V77.2158C0 78.7235 1.22672 79.9502 2.73438 79.9502H38.0689C38.3752 79.9502 38.6786 79.8251 38.8958 79.6088L44.2298 74.2983C44.2841 74.3099 44.3394 74.3191 44.3962 74.3229L53.5028 74.9319C54.9562 75.0279 56.3161 73.8457 56.4136 72.3861L60.85 6.05568C60.9498 4.56693 59.7928 3.24428 58.3042 3.14475ZM39.2408 75.9419V67.8013C39.2408 67.586 39.4161 67.4107 39.6314 67.4107H47.7408L39.2408 75.9419ZM54.075 72.2299C54.0369 72.4658 53.8983 72.5871 53.6594 72.5935L46.4281 72.1097L51.3894 67.1705C51.6103 66.9507 51.7345 66.6518 51.7345 66.34V10.7369C51.7345 9.22928 50.5078 8.00256 49.0002 8.00256H36.8138C35.2986 8.00256 35.2986 10.3463 36.8138 10.3463H49.0002C49.2156 10.3463 49.3908 10.5216 49.3908 10.7369V65.0669H39.6314C38.1238 65.0669 36.897 66.2936 36.897 67.8013V77.6065H2.73438C2.51906 77.6065 2.34375 77.4311 2.34375 77.2158V10.7369C2.34375 10.5216 2.51906 10.3463 2.73438 10.3463H30.5731C32.0883 10.3463 32.0883 8.00256 30.5731 8.00256H11.2188L11.5694 2.75943C11.6075 2.52334 11.7461 2.40225 11.9852 2.39584L58.1477 5.48334C58.3837 5.52146 58.505 5.66006 58.5114 5.89912L54.075 72.2299Z" fill="#343A3F"/>
<path d="M41.848 37.0386H9.8866C9.23941 37.0386 8.71472 37.5633 8.71472 38.2104C8.71472 38.8576 9.23941 39.3823 9.8866 39.3823H41.848C42.4954 39.3823 43.0199 38.8576 43.0199 38.2104C43.0199 37.5633 42.4954 37.0386 41.848 37.0386Z" fill="#343A3F"/>
<path d="M41.848 45.2081H9.8866C9.23941 45.2081 8.71472 45.7328 8.71472 46.38C8.71472 47.0272 9.23941 47.5519 9.8866 47.5519H41.848C42.4954 47.5519 43.0199 47.0272 43.0199 46.38C43.0199 45.7328 42.4954 45.2081 41.848 45.2081Z" fill="#343A3F"/>
<path d="M8.71472 30.041C8.71472 30.6882 9.23941 31.2129 9.8866 31.2129H41.848C42.4954 31.2129 43.0199 30.6882 43.0199 30.041C43.0199 29.3938 42.4954 28.8691 41.848 28.8691H9.8866C9.23941 28.8691 8.71472 29.3938 8.71472 30.041Z" fill="#343A3F"/>
<path d="M14.3448 21.8715C14.3448 22.5186 14.8695 23.0433 15.5167 23.0433H36.2178C36.865 23.0433 37.3897 22.5186 37.3897 21.8715C37.3897 21.2243 36.865 20.6996 36.2178 20.6996H15.5167C14.8695 20.6996 14.3448 21.2243 14.3448 21.8715Z" fill="#343A3F"/>
<path d="M30.4305 68.5606C28.3228 68.5663 26.2151 68.5708 24.1075 68.5741C23.3991 68.5752 22.6908 68.5761 21.9825 68.5766C20.6989 68.5775 19.8341 68.3199 19.5466 66.908C19.3034 65.7142 17.6147 65.8747 17.2866 66.908C16.4756 69.4606 15.1344 68.4605 14.3831 66.7435C13.6336 65.0305 13.4414 63.1133 13.1141 61.2903C12.8734 59.9508 10.8475 60.3263 10.8122 61.6019C10.7656 63.2817 10.6087 64.9349 10.1823 66.5641C9.74249 68.245 9.08327 69.8605 8.4289 71.4666C7.85843 72.8667 10.1269 73.4691 10.6889 72.0897C11.2687 70.6666 11.8494 69.2356 12.2816 67.7594C13.0847 69.6906 14.7462 71.875 17.1139 70.5877C17.5544 70.3481 17.9658 70.0077 18.3269 69.6106C19.5581 71.0335 21.3908 70.9213 23.1056 70.9192C25.5473 70.9161 27.9891 70.9108 30.4308 70.9044C31.9384 70.9005 31.9412 68.5567 30.4305 68.5606Z" fill="#343A3F"/>
<path d="M79.0519 38.5062C78.443 37.9002 77.6058 37.5894 76.7558 37.5665L75.8702 37.5708V35.896C75.8702 34.8758 75.2643 33.798 74.3963 33.2613V30.9023C74.3963 26.0477 66.8382 26.0688 66.8382 30.9251V33.2844C65.954 33.831 65.3608 34.8065 65.3608 35.9176V37.6335C61.4599 37.8991 61.4488 43.8437 65.3652 44.076C65.3902 49.3221 65.389 54.4823 65.3608 59.8162C65.3532 61.2871 67.6966 61.3733 67.7046 59.8285C67.7327 54.4901 67.734 49.3254 67.7091 44.0749L73.5233 44.046C73.5233 44.046 73.5158 61.366 73.5158 69.1685C73.5158 72.9713 67.7004 72.9966 67.7004 69.129L67.7024 66.9919C67.7938 65.4794 65.4544 65.3383 65.3629 66.8507V68.856C65.3629 70.5747 65.8944 72.0304 66.9235 73.0543C67.0151 75.5063 68.0482 77.879 69.7936 79.6099C70.2944 80.1068 70.9877 79.9549 71.4724 79.5815C73.2482 77.8026 74.2488 75.4574 74.3113 72.9543C75.0849 72.1838 75.8594 71.408 75.8594 68.7518L75.8604 58.0719C77.8869 58.6483 80.0001 57.0801 80.0001 54.9554V40.7879C80.0001 39.9249 79.6633 39.1146 79.0519 38.5062ZM67.7046 37.6113V35.9174C67.7046 35.5707 67.9426 35.2799 68.2629 35.1935L72.9543 35.1702C73.0855 35.2027 73.2066 35.2648 73.3047 35.3626C73.4477 35.5049 73.5265 35.6943 73.5265 35.896V37.5826L67.7046 37.6113ZM70.6219 29.4863C71.3413 29.4863 72.0524 30.1916 72.0524 30.9023V32.8032L69.1818 32.8174V30.9251C69.1819 30.1355 69.8276 29.4902 70.6219 29.4863ZM70.6202 76.9708C70.0754 76.1987 69.6813 75.3254 69.4613 74.4074C69.8241 74.486 70.1916 74.5269 70.5593 74.5269C70.9697 74.5269 71.3801 74.476 71.7841 74.3774C71.5694 75.3093 71.176 76.1879 70.6202 76.9708ZM77.6563 54.9554C77.6563 56.0649 75.8669 56.1523 75.8669 54.9758C75.8669 54.9758 75.869 43.8862 75.8702 42.8696C75.871 42.214 75.326 41.6963 74.6893 41.6963L65.566 41.7416C64.4344 41.7416 64.4608 39.9712 65.5776 39.9657L76.7674 39.9102C77.3085 39.9563 77.6047 40.249 77.6561 40.7879V54.9554H77.6563Z" fill="#343A3F"/>
</svg>
