<svg width="32" height="32" viewBox="0 0 32 32" fill="none" xmlns="http://www.w3.org/2000/svg">
<path d="M28.4153 19.4739H21.7931V18.8072C21.7931 17.1958 22.4936 15.4739 24.4598 15.4739C25.8752 15.4739 26.5263 16.3544 26.8233 17.0931C26.9607 17.4348 27.3492 17.6001 27.6906 17.4629C28.0322 17.3256 28.1977 16.9373 28.0605 16.5957C27.5197 15.2508 26.4697 14.4009 25.1265 14.1917V6.81069C25.1265 6.63387 25.0562 6.46431 24.9312 6.33931L18.7864 0.19525C18.6615 0.07025 18.492 0 18.3152 0H4.04309C2.89578 0 1.9624 0.933375 1.9624 2.08069V29.9194C1.9624 31.0666 2.89578 32 4.04309 32H23.0458C24.193 32 25.1265 31.0666 25.1265 29.9193V28.549H28.4153C29.3099 28.549 30.0376 27.8213 30.0376 26.9268V21.0961C30.0375 20.2016 29.3098 19.4739 28.4153 19.4739ZM22.8502 6.144H18.9818V2.276L18.9817 2.27588L22.8502 6.144ZM23.7932 29.9193H23.7931C23.7931 30.3314 23.4579 30.6666 23.0458 30.6666H4.04309C3.63097 30.6666 3.29578 30.3314 3.29578 29.9193V2.08069C3.29578 1.66856 3.63097 1.33337 4.04309 1.33337H17.6484V6.81069C17.6484 7.17881 17.9469 7.47738 18.3151 7.47738H23.7931V14.1897L23.7939 14.1901C22.9913 14.3121 22.2971 14.6604 21.7467 15.2174C21.7349 15.2168 21.7232 15.2156 21.7112 15.2156H8.98747C8.61934 15.2156 8.32078 15.5142 8.32078 15.8823C8.32078 16.2504 8.61934 16.549 8.98747 16.549H20.8771C20.6028 17.2093 20.4598 17.9726 20.4598 18.8072V19.475C19.5858 19.4987 18.882 20.2166 18.882 21.0961V24.2157H6.11115C5.74303 24.2157 5.44447 24.5142 5.44447 24.8824C5.44447 25.2505 5.74303 25.5491 6.11115 25.5491H18.882V26.9268C18.882 27.8214 19.6098 28.5491 20.5043 28.5491H23.7932V29.9193ZM28.7042 26.9268C28.7042 27.0861 28.5746 27.2157 28.4153 27.2157H20.5042C20.3449 27.2157 20.2153 27.0861 20.2153 26.9268V21.0961C20.2153 20.9367 20.3449 20.8072 20.5042 20.8072H28.4153C28.5746 20.8072 28.7042 20.9367 28.7042 21.0961V26.9268Z" fill="#009846"/>
<path d="M24.4597 22.9871C24.0916 22.9871 23.793 23.2856 23.793 23.6538V24.3694C23.793 24.7375 24.0916 25.0361 24.4597 25.0361C24.8278 25.0361 25.1264 24.7375 25.1264 24.3694V23.6538C25.1264 23.2856 24.8279 22.9871 24.4597 22.9871Z" fill="#009846"/>
<path d="M6.11115 7.54895H14.0445C14.4126 7.54895 14.7111 7.25039 14.7111 6.88226C14.7111 6.51414 14.4126 6.21558 14.0445 6.21558H6.11115C5.74302 6.21558 5.44446 6.51408 5.44446 6.88226C5.44446 7.25045 5.74302 7.54895 6.11115 7.54895Z" fill="#009846"/>
<path d="M7.51111 9.88226C7.51111 10.2504 7.80961 10.549 8.1778 10.549H17.1778C17.5459 10.549 17.8445 10.2505 17.8445 9.88226C17.8445 9.51408 17.5459 9.21558 17.1778 9.21558H8.1778C7.80961 9.21564 7.51111 9.51414 7.51111 9.88226Z" fill="#009846"/>
<path d="M17.1778 12.2158H8.1778C7.80967 12.2158 7.51111 12.5144 7.51111 12.8825C7.51111 13.2506 7.80961 13.5492 8.1778 13.5492H17.1778C17.5459 13.5492 17.8445 13.2507 17.8445 12.8825C17.8445 12.5143 17.5459 12.2158 17.1778 12.2158Z" fill="#009846"/>
<path d="M6.11115 16.549H6.17914C6.54727 16.549 6.84583 16.2505 6.84583 15.8823C6.84583 15.5141 6.54733 15.2156 6.17914 15.2156H6.11115C5.74302 15.2156 5.44446 15.5141 5.44446 15.8823C5.44446 16.2504 5.74302 16.549 6.11115 16.549Z" fill="#009846"/>
<path d="M7.51111 18.8823C7.51111 19.2504 7.80961 19.549 8.1778 19.549H17.1778C17.5459 19.549 17.8445 19.2504 17.8445 18.8823C17.8445 18.5141 17.5459 18.2156 17.1778 18.2156H8.1778C7.80961 18.2156 7.51111 18.5141 7.51111 18.8823Z" fill="#009846"/>
<path d="M16.3126 21.2156H8.1778C7.80967 21.2156 7.51111 21.5141 7.51111 21.8823C7.51111 22.2505 7.80961 22.549 8.1778 22.549H16.3126C16.6807 22.549 16.9793 22.2504 16.9793 21.8823C16.9793 21.5141 16.6808 21.2156 16.3126 21.2156Z" fill="#009846"/>
<path d="M17.1778 27.2156H8.1778C7.80967 27.2156 7.51111 27.5141 7.51111 27.8823C7.51111 28.2504 7.80961 28.549 8.1778 28.549H17.1778C17.5459 28.549 17.8445 28.2505 17.8445 27.8823C17.8445 27.5141 17.5459 27.2156 17.1778 27.2156Z" fill="#009846"/>
</svg>
