<svg width="35" height="28" viewBox="0 0 35 28" fill="none" xmlns="http://www.w3.org/2000/svg">
<path d="M19.5008 13.9156H18.6853V12.1662C18.6853 10.3304 17.1113 8.83691 15.1766 8.83691C13.2418 8.83691 11.6678 10.3304 11.6678 12.1662V13.9156H10.8525C10.5654 13.9156 10.3326 14.1365 10.3326 14.4089V21.6818C10.3326 21.9543 10.5654 22.1751 10.8525 22.1751H19.5008C19.7879 22.1751 20.0207 21.9543 20.0207 21.6818V14.4089C20.0207 14.1365 19.7879 13.9156 19.5008 13.9156ZM12.7076 12.1662C12.7076 10.8745 13.8152 9.82358 15.1766 9.82358C16.5379 9.82358 17.6455 10.8745 17.6455 12.1662V13.9157H12.7076V12.1662ZM18.9809 21.1886H11.3724V14.9023H18.9809V21.1886Z" fill="url(#paint0_linear)"/>
<path d="M14.7833 18.4256V19.3636C14.7833 19.5769 14.9594 19.7498 15.1766 19.7498C15.3937 19.7498 15.5698 19.5769 15.5698 19.3636V18.4256C16.045 18.2648 16.3876 17.8217 16.3876 17.3012C16.3876 16.6455 15.8443 16.1121 15.1766 16.1121C14.5088 16.1121 13.9656 16.6455 13.9656 17.3012C13.9656 17.8217 14.3081 18.2649 14.7833 18.4256ZM15.1766 16.8844C15.4106 16.8844 15.6011 17.0714 15.6011 17.3012C15.6011 17.531 15.4106 17.718 15.1766 17.718C14.9425 17.718 14.7521 17.531 14.7521 17.3012C14.7521 17.0714 14.9425 16.8844 15.1766 16.8844Z" fill="url(#paint1_linear)"/>
<path d="M34.2065 8.04622C33.8993 7.61952 33.4386 7.37481 32.9425 7.37481H30.9155V5.06402C30.9155 4.16486 30.2477 3.43338 29.4269 3.43338H15.2606C15.1632 3.43338 15.0759 3.36595 15.043 3.26553L14.4342 1.3991C14.2293 0.770867 13.6825 0.348877 13.0734 0.348877H5.9714C5.36245 0.348877 4.81562 0.770952 4.61068 1.3991L4.00174 3.26562C3.96897 3.36604 3.88152 3.43347 3.78421 3.43347H2.13307C1.31231 3.4333 0.64447 4.16486 0.64447 5.06402V25.8797C0.64447 26.7789 1.31231 27.5103 2.13307 27.5103H29.4269C30.2181 27.5103 30.8652 26.8302 30.9111 25.9759L34.5078 9.54936C34.6235 9.02078 34.5136 8.47293 34.2065 8.04622ZM29.7422 25.8796C29.7422 26.0701 29.6007 26.225 29.4269 26.225H2.13307C1.95919 26.225 1.81777 26.07 1.81777 25.8796V5.06402C1.81777 4.87355 1.95927 4.71863 2.13307 4.71863H3.78421C4.37602 4.71863 4.90745 4.30847 5.1066 3.69797L5.71554 1.83145C5.7541 1.71338 5.85688 1.63404 5.9714 1.63404H13.0734C13.188 1.63404 13.2907 1.71338 13.3293 1.83154L13.9382 3.69806C14.1374 4.30855 14.6688 4.71863 15.2606 4.71863H29.4269C29.6008 4.71863 29.7422 4.87363 29.7422 5.06402V25.8796ZM33.3669 9.24956L30.9155 20.4451V8.65997H32.9425C33.1267 8.65997 33.2362 8.77402 33.2852 8.84205C33.3341 8.90999 33.4098 9.05334 33.3669 9.24956Z" fill="url(#paint2_linear)"/>
<defs>
<linearGradient id="paint0_linear" x1="10.3324" y1="15.5061" x2="20.0205" y2="15.5061" gradientUnits="userSpaceOnUse">
<stop stop-color="#009846"/>
<stop offset="1" stop-color="#009A9C"/>
</linearGradient>
<linearGradient id="paint1_linear" x1="13.9655" y1="17.9309" x2="16.3876" y2="17.9309" gradientUnits="userSpaceOnUse">
<stop stop-color="#009846"/>
<stop offset="1" stop-color="#009A9C"/>
</linearGradient>
<linearGradient id="paint2_linear" x1="0.643933" y1="13.9298" x2="34.5522" y2="13.9298" gradientUnits="userSpaceOnUse">
<stop stop-color="#009846"/>
<stop offset="1" stop-color="#009A9C"/>
</linearGradient>
</defs>
</svg>
