<svg width="33" height="36" viewBox="0 0 33 36" fill="none" xmlns="http://www.w3.org/2000/svg">
<path d="M3.09375 16.3125H17.5312C17.668 16.3125 17.7992 16.2532 17.8959 16.1477C17.9926 16.0423 18.0469 15.8992 18.0469 15.75V10.125C18.0469 9.97582 17.9926 9.83274 17.8959 9.72725C17.7992 9.62176 17.668 9.5625 17.5312 9.5625H3.09375C2.957 9.5625 2.82585 9.62176 2.72915 9.72725C2.63245 9.83274 2.57812 9.97582 2.57812 10.125V15.75C2.57812 15.8992 2.63245 16.0423 2.72915 16.1477C2.82585 16.2532 2.957 16.3125 3.09375 16.3125ZM3.60938 10.6875H17.0156V15.1875H3.60938V10.6875Z" fill="url(#paint0_linear)"/>
<path d="M6.1875 17.4375H3.09375C2.957 17.4375 2.82585 17.4968 2.72915 17.6023C2.63245 17.7077 2.57812 17.8508 2.57812 18V21.375C2.57812 21.5242 2.63245 21.6673 2.72915 21.7727C2.82585 21.8782 2.957 21.9375 3.09375 21.9375H6.1875C6.32425 21.9375 6.4554 21.8782 6.5521 21.7727C6.6488 21.6673 6.70312 21.5242 6.70312 21.375V18C6.70312 17.8508 6.6488 17.7077 6.5521 17.6023C6.4554 17.4968 6.32425 17.4375 6.1875 17.4375ZM5.67188 20.8125H3.60938V18.5625H5.67188V20.8125Z" fill="url(#paint1_linear)"/>
<path d="M11.3438 17.4375H8.25C8.11325 17.4375 7.9821 17.4968 7.8854 17.6023C7.7887 17.7077 7.73438 17.8508 7.73438 18V21.375C7.73438 21.5242 7.7887 21.6673 7.8854 21.7727C7.9821 21.8782 8.11325 21.9375 8.25 21.9375H11.3438C11.4805 21.9375 11.6117 21.8782 11.7084 21.7727C11.8051 21.6673 11.8594 21.5242 11.8594 21.375V18C11.8594 17.8508 11.8051 17.7077 11.7084 17.6023C11.6117 17.4968 11.4805 17.4375 11.3438 17.4375ZM10.8281 20.8125H8.76562V18.5625H10.8281V20.8125Z" fill="url(#paint2_linear)"/>
<path d="M11.3438 23.0625H8.25C8.11325 23.0625 7.9821 23.1218 7.8854 23.2273C7.7887 23.3327 7.73438 23.4758 7.73438 23.625V27C7.73438 27.1492 7.7887 27.2923 7.8854 27.3977C7.9821 27.5032 8.11325 27.5625 8.25 27.5625H11.3438C11.4805 27.5625 11.6117 27.5032 11.7084 27.3977C11.8051 27.2923 11.8594 27.1492 11.8594 27V23.625C11.8594 23.4758 11.8051 23.3327 11.7084 23.2273C11.6117 23.1218 11.4805 23.0625 11.3438 23.0625ZM10.8281 26.4375H8.76562V24.1875H10.8281V26.4375Z" fill="url(#paint3_linear)"/>
<path d="M6.1875 23.0625H3.09375C2.957 23.0625 2.82585 23.1218 2.72915 23.2273C2.63245 23.3327 2.57812 23.4758 2.57812 23.625V27C2.57812 27.1492 2.63245 27.2923 2.72915 27.3977C2.82585 27.5032 2.957 27.5625 3.09375 27.5625H6.1875C6.32425 27.5625 6.4554 27.5032 6.5521 27.3977C6.6488 27.2923 6.70312 27.1492 6.70312 27V23.625C6.70312 23.4758 6.6488 23.3327 6.5521 23.2273C6.4554 23.1218 6.32425 23.0625 6.1875 23.0625ZM5.67188 26.4375H3.60938V24.1875H5.67188V26.4375Z" fill="url(#paint4_linear)"/>
<path d="M11.3438 28.6875H8.25C8.11325 28.6875 7.9821 28.7468 7.8854 28.8523C7.7887 28.9577 7.73438 29.1008 7.73438 29.25V32.625C7.73438 32.7742 7.7887 32.9173 7.8854 33.0227C7.9821 33.1282 8.11325 33.1875 8.25 33.1875H11.3438C11.4805 33.1875 11.6117 33.1282 11.7084 33.0227C11.8051 32.9173 11.8594 32.7742 11.8594 32.625V29.25C11.8594 29.1008 11.8051 28.9577 11.7084 28.8523C11.6117 28.7468 11.4805 28.6875 11.3438 28.6875ZM10.8281 32.0625H8.76562V29.8125H10.8281V32.0625Z" fill="url(#paint5_linear)"/>
<path d="M6.1875 28.6875H3.09375C2.957 28.6875 2.82585 28.7468 2.72915 28.8523C2.63245 28.9577 2.57812 29.1008 2.57812 29.25V32.625C2.57812 32.7742 2.63245 32.9173 2.72915 33.0227C2.82585 33.1282 2.957 33.1875 3.09375 33.1875H6.1875C6.32425 33.1875 6.4554 33.1282 6.5521 33.0227C6.6488 32.9173 6.70312 32.7742 6.70312 32.625V29.25C6.70312 29.1008 6.6488 28.9577 6.5521 28.8523C6.4554 28.7468 6.32425 28.6875 6.1875 28.6875ZM5.67188 32.0625H3.60938V29.8125H5.67188V32.0625Z" fill="url(#paint6_linear)"/>
<path d="M27.3281 24.1874C26.3579 24.1889 25.4077 24.4889 24.5868 25.0531C23.7659 25.6173 23.1076 26.4227 22.6875 27.3767C22.1516 26.1656 21.2375 25.2026 20.1094 24.6604V10.1249C20.1086 9.37923 19.8367 8.66438 19.3534 8.13713C18.87 7.60988 18.2148 7.31327 17.5312 7.31238H16.5V1.12488C16.5 1.01365 16.4697 0.904915 16.4131 0.812435C16.3564 0.719954 16.2759 0.647876 16.1817 0.605311C16.0875 0.562747 15.9838 0.551608 15.8838 0.573302C15.7838 0.594996 15.6919 0.64855 15.6198 0.727193L14.4375 2.017L13.2552 0.727193C13.1585 0.62174 13.0274 0.5625 12.8906 0.5625C12.7539 0.5625 12.6228 0.62174 12.5261 0.727193L11.3438 2.017L10.1614 0.727193C10.0647 0.62174 9.9336 0.5625 9.79688 0.5625C9.66015 0.5625 9.52902 0.62174 9.43233 0.727193L8.25 2.017L7.06767 0.727193C6.97098 0.62174 6.83985 0.5625 6.70312 0.5625C6.5664 0.5625 6.43527 0.62174 6.33858 0.727193L5.15625 2.017L3.97392 0.727193C3.90181 0.64855 3.80995 0.594996 3.70994 0.573302C3.60993 0.551608 3.50627 0.562747 3.41207 0.605311C3.31786 0.647876 3.23734 0.719954 3.18068 0.812435C3.12402 0.904915 3.09377 1.01365 3.09375 1.12488V7.31238C2.41024 7.31327 1.75496 7.60988 1.27164 8.13713C0.78833 8.66438 0.516444 9.37923 0.515625 10.1249V32.6249C0.516444 33.3705 0.78833 34.0854 1.27164 34.6126C1.75496 35.1399 2.41024 35.4365 3.09375 35.4374H18.0469C19.0171 35.4359 19.9673 35.1358 20.7882 34.5716C21.6091 34.0075 22.2674 33.2021 22.6875 32.248C23.087 33.1535 23.7017 33.9256 24.4676 34.484C25.2335 35.0423 26.1226 35.3666 27.0423 35.4229C27.962 35.4792 28.8788 35.2656 29.6972 34.8043C30.5155 34.3429 31.2056 33.6508 31.6955 32.7998C32.1854 31.9488 32.4573 30.9701 32.4829 29.9655C32.5085 28.961 32.2867 27.9674 31.8408 27.088C31.3949 26.2087 30.7411 25.4758 29.9474 24.9657C29.1538 24.4555 28.2493 24.1868 27.3281 24.1874ZM4.125 2.48275L4.7917 3.21007C4.8884 3.31552 5.01952 3.37476 5.15625 3.37476C5.29298 3.37476 5.4241 3.31552 5.5208 3.21007L6.70312 1.92025L7.88545 3.21007C7.98215 3.31552 8.11327 3.37476 8.25 3.37476C8.38673 3.37476 8.51785 3.31552 8.61455 3.21007L9.79688 1.92025L10.9792 3.21007C11.0759 3.31552 11.207 3.37476 11.3438 3.37476C11.4805 3.37476 11.6116 3.31552 11.7083 3.21007L12.8906 1.92025L14.073 3.21007C14.1696 3.31552 14.3008 3.37476 14.4375 3.37476C14.5742 3.37476 14.7054 3.31552 14.802 3.21007L15.4688 2.48275V7.31238H4.125V2.48275ZM3.09375 34.3124C2.68349 34.3124 2.29004 34.1346 1.99994 33.8181C1.70985 33.5016 1.54688 33.0724 1.54688 32.6249V10.1249C1.54688 9.67733 1.70985 9.2481 1.99994 8.93164C2.29004 8.61517 2.68349 8.43738 3.09375 8.43738H17.5312C17.9415 8.43738 18.335 8.61517 18.6251 8.93164C18.9151 9.2481 19.0781 9.67733 19.0781 10.1249V24.2999C18.7387 24.2246 18.3932 24.1869 18.0469 24.1874V17.9999C18.0469 17.8507 17.9925 17.7076 17.8959 17.6021C17.7992 17.4966 17.668 17.4374 17.5312 17.4374H13.4062C13.2695 17.4374 13.1383 17.4966 13.0416 17.6021C12.9449 17.7076 12.8906 17.8507 12.8906 17.9999V26.9999C12.8915 27.1336 12.9366 27.2624 13.0176 27.3628C13.0986 27.4631 13.21 27.5282 13.3315 27.5461C12.8586 28.7087 12.7629 30.0124 13.0601 31.2424C13.3573 32.4723 14.0297 33.5551 14.9665 34.3124H3.09375ZM13.9317 26.4374H13.9219V18.5624H17.0156V24.2999C15.783 24.5781 14.6862 25.3383 13.9317 26.4374ZM18.0469 34.3124C17.231 34.3124 16.4335 34.0485 15.7551 33.554C15.0768 33.0595 14.5481 32.3567 14.2359 31.5344C13.9237 30.7122 13.842 29.8074 14.0011 28.9345C14.1603 28.0616 14.5532 27.2597 15.1301 26.6304C15.707 26.0011 16.442 25.5725 17.2421 25.3988C18.0423 25.2252 18.8717 25.3143 19.6254 25.6549C20.3792 25.9955 21.0234 26.5723 21.4767 27.3123C21.9299 28.0523 22.1719 28.9224 22.1719 29.8124C22.1706 31.0054 21.7357 32.1493 20.9623 32.9929C20.189 33.8365 19.1405 34.311 18.0469 34.3124ZM27.3281 34.3124C26.5123 34.3124 25.7148 34.0485 25.0364 33.554C24.358 33.0595 23.8293 32.3567 23.5171 31.5344C23.2049 30.7122 23.1232 29.8074 23.2824 28.9345C23.4415 28.0616 23.8344 27.2597 24.4113 26.6304C24.9882 26.0011 25.7232 25.5725 26.5234 25.3988C27.3235 25.2252 28.1529 25.3143 28.9067 25.6549C29.6604 25.9955 30.3047 26.5723 30.7579 27.3123C31.2112 28.0523 31.4531 28.9224 31.4531 29.8124C31.4519 31.0054 31.0169 32.1493 30.2436 32.9929C29.4703 33.8365 28.4218 34.311 27.3281 34.3124Z" fill="url(#paint7_linear)"/>
<path d="M28.3594 28.6875H29.3906C29.3906 28.2399 29.2277 27.8107 28.9376 27.4943C28.6475 27.1778 28.254 27 27.8438 27V26.4375H26.8125V27C26.4022 27 26.0088 27.1778 25.7187 27.4943C25.4286 27.8107 25.2656 28.2399 25.2656 28.6875C25.2656 29.1351 25.4286 29.5643 25.7187 29.8807C26.0088 30.1972 26.4022 30.375 26.8125 30.375V31.5C26.6757 31.5 26.5446 31.4407 26.4479 31.3352C26.3512 31.2298 26.2969 31.0867 26.2969 30.9375H25.2656C25.2656 31.3851 25.4286 31.8143 25.7187 32.1307C26.0088 32.4472 26.4022 32.625 26.8125 32.625V33.1875H27.8438V32.625C28.254 32.625 28.6475 32.4472 28.9376 32.1307C29.2277 31.8143 29.3906 31.3851 29.3906 30.9375C29.3906 30.4899 29.2277 30.0607 28.9376 29.7443C28.6475 29.4278 28.254 29.25 27.8438 29.25V28.125C27.9805 28.125 28.1117 28.1843 28.2084 28.2898C28.3051 28.3952 28.3594 28.5383 28.3594 28.6875ZM28.3594 30.9375C28.3594 31.0867 28.3051 31.2298 28.2084 31.3352C28.1117 31.4407 27.9805 31.5 27.8438 31.5V30.375C27.9805 30.375 28.1117 30.4343 28.2084 30.5398C28.3051 30.6452 28.3594 30.7883 28.3594 30.9375ZM26.8125 29.25C26.6757 29.25 26.5446 29.1907 26.4479 29.0852C26.3512 28.9798 26.2969 28.8367 26.2969 28.6875C26.2969 28.5383 26.3512 28.3952 26.4479 28.2898C26.5446 28.1843 26.6757 28.125 26.8125 28.125V29.25Z" fill="url(#paint8_linear)"/>
<path d="M27.3281 11.8125C26.3083 11.8125 25.3114 12.1424 24.4635 12.7605C23.6155 13.3786 22.9546 14.2571 22.5644 15.2849C22.1741 16.3127 22.072 17.4437 22.271 18.5349C22.4699 19.626 22.961 20.6283 23.6821 21.415C24.4032 22.2016 25.322 22.7374 26.3222 22.9544C27.3224 23.1715 28.3592 23.0601 29.3013 22.6343C30.2435 22.2086 31.0488 21.4876 31.6154 20.5626C32.182 19.6376 32.4844 18.55 32.4844 17.4375C32.4829 15.9462 31.9391 14.5164 30.9725 13.4618C30.0058 12.4073 28.6952 11.8141 27.3281 11.8125ZM27.3281 21.9375C26.5123 21.9375 25.7148 21.6736 25.0364 21.1791C24.358 20.6846 23.8293 19.9818 23.5171 19.1596C23.2049 18.3373 23.1232 17.4325 23.2824 16.5596C23.4416 15.6867 23.8344 14.8849 24.4113 14.2555C24.9882 13.6262 25.7232 13.1976 26.5234 13.024C27.3236 12.8503 28.153 12.9394 28.9067 13.28C29.6604 13.6206 30.3047 14.1974 30.7579 14.9374C31.2112 15.6775 31.4531 16.5475 31.4531 17.4375C31.4519 18.6306 31.0169 19.7744 30.2436 20.618C29.4703 21.4616 28.4218 21.9362 27.3281 21.9375Z" fill="url(#paint9_linear)"/>
<path d="M28.3594 16.3125H29.3906C29.3906 15.8649 29.2277 15.4357 28.9376 15.1193C28.6475 14.8028 28.254 14.625 27.8438 14.625V14.0625H26.8125V14.625C26.4022 14.625 26.0088 14.8028 25.7187 15.1193C25.4286 15.4357 25.2656 15.8649 25.2656 16.3125C25.2656 16.7601 25.4286 17.1893 25.7187 17.5057C26.0088 17.8222 26.4022 18 26.8125 18V19.125C26.6757 19.125 26.5446 19.0657 26.4479 18.9602C26.3512 18.8548 26.2969 18.7117 26.2969 18.5625H25.2656C25.2656 19.0101 25.4286 19.4393 25.7187 19.7557C26.0088 20.0722 26.4022 20.25 26.8125 20.25V20.8125H27.8438V20.25C28.254 20.25 28.6475 20.0722 28.9376 19.7557C29.2277 19.4393 29.3906 19.0101 29.3906 18.5625C29.3906 18.1149 29.2277 17.6857 28.9376 17.3693C28.6475 17.0528 28.254 16.875 27.8438 16.875V15.75C27.9805 15.75 28.1117 15.8093 28.2084 15.9148C28.3051 16.0202 28.3594 16.1633 28.3594 16.3125ZM28.3594 18.5625C28.3594 18.7117 28.3051 18.8548 28.2084 18.9602C28.1117 19.0657 27.9805 19.125 27.8438 19.125V18C27.9805 18 28.1117 18.0593 28.2084 18.1648C28.3051 18.2702 28.3594 18.4133 28.3594 18.5625ZM26.8125 16.875C26.6757 16.875 26.5446 16.8157 26.4479 16.7102C26.3512 16.6048 26.2969 16.4617 26.2969 16.3125C26.2969 16.1633 26.3512 16.0202 26.4479 15.9148C26.5446 15.8093 26.6757 15.75 26.8125 15.75V16.875Z" fill="url(#paint10_linear)"/>
<path d="M19.0781 28.6875H20.1094C20.1094 28.2399 19.9464 27.8107 19.6563 27.4943C19.3662 27.1778 18.9728 27 18.5625 27V26.4375H17.5312V27C17.121 27 16.7275 27.1778 16.4374 27.4943C16.1473 27.8107 15.9844 28.2399 15.9844 28.6875C15.9844 29.1351 16.1473 29.5643 16.4374 29.8807C16.7275 30.1972 17.121 30.375 17.5312 30.375V31.5C17.3945 31.5 17.2633 31.4407 17.1666 31.3352C17.0699 31.2298 17.0156 31.0867 17.0156 30.9375H15.9844C15.9844 31.3851 16.1473 31.8143 16.4374 32.1307C16.7275 32.4472 17.121 32.625 17.5312 32.625V33.1875H18.5625V32.625C18.9728 32.625 19.3662 32.4472 19.6563 32.1307C19.9464 31.8143 20.1094 31.3851 20.1094 30.9375C20.1094 30.4899 19.9464 30.0607 19.6563 29.7443C19.3662 29.4278 18.9728 29.25 18.5625 29.25V28.125C18.6993 28.125 18.8304 28.1843 18.9271 28.2898C19.0238 28.3952 19.0781 28.5383 19.0781 28.6875ZM19.0781 30.9375C19.0781 31.0867 19.0238 31.2298 18.9271 31.3352C18.8304 31.4407 18.6993 31.5 18.5625 31.5V30.375C18.6993 30.375 18.8304 30.4343 18.9271 30.5398C19.0238 30.6452 19.0781 30.7883 19.0781 30.9375ZM17.5312 29.25C17.3945 29.25 17.2633 29.1907 17.1666 29.0852C17.0699 28.9798 17.0156 28.8367 17.0156 28.6875C17.0156 28.5383 17.0699 28.3952 17.1666 28.2898C17.2633 28.1843 17.3945 28.125 17.5312 28.125V29.25Z" fill="url(#paint11_linear)"/>
<defs>
<linearGradient id="paint0_linear" x1="2.57788" y1="12.9375" x2="18.0466" y2="12.9375" gradientUnits="userSpaceOnUse">
<stop stop-color="#009846"/>
<stop offset="1" stop-color="#009A9C"/>
</linearGradient>
<linearGradient id="paint1_linear" x1="2.57806" y1="19.6875" x2="6.70306" y2="19.6875" gradientUnits="userSpaceOnUse">
<stop stop-color="#009846"/>
<stop offset="1" stop-color="#009A9C"/>
</linearGradient>
<linearGradient id="paint2_linear" x1="7.73431" y1="19.6875" x2="11.8593" y2="19.6875" gradientUnits="userSpaceOnUse">
<stop stop-color="#009846"/>
<stop offset="1" stop-color="#009A9C"/>
</linearGradient>
<linearGradient id="paint3_linear" x1="7.73431" y1="25.3125" x2="11.8593" y2="25.3125" gradientUnits="userSpaceOnUse">
<stop stop-color="#009846"/>
<stop offset="1" stop-color="#009A9C"/>
</linearGradient>
<linearGradient id="paint4_linear" x1="2.57806" y1="25.3125" x2="6.70306" y2="25.3125" gradientUnits="userSpaceOnUse">
<stop stop-color="#009846"/>
<stop offset="1" stop-color="#009A9C"/>
</linearGradient>
<linearGradient id="paint5_linear" x1="7.73431" y1="30.9375" x2="11.8593" y2="30.9375" gradientUnits="userSpaceOnUse">
<stop stop-color="#009846"/>
<stop offset="1" stop-color="#009A9C"/>
</linearGradient>
<linearGradient id="paint6_linear" x1="2.57806" y1="30.9375" x2="6.70306" y2="30.9375" gradientUnits="userSpaceOnUse">
<stop stop-color="#009846"/>
<stop offset="1" stop-color="#009A9C"/>
</linearGradient>
<linearGradient id="paint7_linear" x1="0.515119" y1="18.0002" x2="32.4844" y2="18.0002" gradientUnits="userSpaceOnUse">
<stop stop-color="#009846"/>
<stop offset="1" stop-color="#009A9C"/>
</linearGradient>
<linearGradient id="paint8_linear" x1="25.2656" y1="29.8125" x2="29.3906" y2="29.8125" gradientUnits="userSpaceOnUse">
<stop stop-color="#009846"/>
<stop offset="1" stop-color="#009A9C"/>
</linearGradient>
<linearGradient id="paint9_linear" x1="22.1717" y1="17.4376" x2="32.4842" y2="17.4376" gradientUnits="userSpaceOnUse">
<stop stop-color="#009846"/>
<stop offset="1" stop-color="#009A9C"/>
</linearGradient>
<linearGradient id="paint10_linear" x1="25.2656" y1="17.4375" x2="29.3906" y2="17.4375" gradientUnits="userSpaceOnUse">
<stop stop-color="#009846"/>
<stop offset="1" stop-color="#009A9C"/>
</linearGradient>
<linearGradient id="paint11_linear" x1="15.9843" y1="29.8125" x2="20.1093" y2="29.8125" gradientUnits="userSpaceOnUse">
<stop stop-color="#009846"/>
<stop offset="1" stop-color="#009A9C"/>
</linearGradient>
</defs>
</svg>
