<svg width="32" height="32" viewBox="0 0 32 32" fill="none" xmlns="http://www.w3.org/2000/svg">
<path d="M29.7411 16.752C28.5548 16.5054 26.9478 16.375 25.0938 16.375C24.3286 16.375 23.6063 16.3976 22.9375 16.441V1.71875C22.9375 0.771062 22.1664 0 21.2188 0H1.71875C0.722812 0 0 0.828 0 1.96875V27.9062C0 28.5854 0.750812 29.375 1.71875 29.375H18.1875V30.0938C18.1875 31.1534 19.8876 31.5068 20.4464 31.623C21.6327 31.8696 23.2397 32 25.0938 32C26.9478 32 28.5548 31.8696 29.7411 31.623C30.2999 31.5068 32 31.1534 32 30.0938V18.2812C32 17.2216 30.2999 16.8682 29.7411 16.752ZM31.0625 24.1845C31.0528 24.2046 30.8577 24.5491 29.3936 24.8302C28.2824 25.0436 26.7956 25.1563 25.0938 25.1563C23.3919 25.1563 21.9051 25.0436 20.7939 24.8302C19.2937 24.5422 19.1258 24.1875 19.125 24.1875V22.3608C19.6156 22.5906 20.1702 22.7062 20.4464 22.7636C21.6327 23.0102 23.2397 23.1406 25.0938 23.1406C26.9478 23.1406 28.5548 23.0102 29.7411 22.7636C30.0172 22.7062 30.5719 22.5906 31.0625 22.3608V24.1845ZM12.0625 24.2812C11.8036 24.2812 11.5938 24.4911 11.5938 24.75V25.9375H4.46875C4.22444 25.9375 4.0625 25.7374 4.0625 25.6562V21H11.5938V22.5625C11.5938 22.8214 11.8036 23.0312 12.0625 23.0312C12.3214 23.0312 12.5312 22.8214 12.5312 22.5625V21H18.1875V25.9375H12.5312V24.75C12.5312 24.4911 12.3214 24.2812 12.0625 24.2812ZM20.0625 16.8376C19.3438 17.0139 18.1875 17.4072 18.1875 18.2812V20.0625H12.5312V15.125H19.6562C19.8803 15.125 20.0625 15.3073 20.0625 15.5312V16.8376ZM11.5938 20.0625H4.0625V15.6562C4.0625 15.3385 4.22575 15.125 4.46875 15.125H11.5938V20.0625ZM31.0625 21.2314C31.0528 21.2515 30.8577 21.596 29.3936 21.8771C28.2824 22.0904 26.7956 22.2032 25.0938 22.2032C23.3919 22.2032 21.9051 22.0904 20.7939 21.8771C19.2937 21.5891 19.1258 21.2344 19.125 21.2344V19.4077C19.6156 19.6375 20.1702 19.7531 20.4464 19.8104C21.6327 20.0571 23.2397 20.1875 25.0938 20.1875C26.9478 20.1875 28.5548 20.0571 29.7411 19.8105C30.0172 19.7531 30.5719 19.6376 31.0625 19.4077V21.2314ZM29.3936 17.6386C30.8075 17.91 31.038 18.2407 31.0609 18.2812C31.038 18.3218 30.8075 18.6525 29.3936 18.9239C28.2824 19.1372 26.7956 19.25 25.0938 19.25C23.3919 19.25 21.9051 19.1372 20.7939 18.9239C19.38 18.6525 19.1495 18.3218 19.1266 18.2812C19.1495 18.2407 19.38 17.91 20.7939 17.6386C21.9051 17.4253 23.3919 17.3125 25.0938 17.3125C26.7956 17.3125 28.2824 17.4253 29.3936 17.6386ZM1.71875 28.4375C1.26737 28.4375 0.9375 28.0647 0.9375 27.9062V12.625H16.375C16.6339 12.625 16.8438 12.4152 16.8438 12.1562C16.8438 11.8973 16.6339 11.6875 16.375 11.6875H0.9375V1.96875C0.9375 1.34231 1.24413 0.9375 1.71875 0.9375H21.2188C21.6496 0.9375 22 1.28794 22 1.71875V11.6875H18.5625C18.3036 11.6875 18.0938 11.8973 18.0938 12.1562C18.0938 12.4152 18.3036 12.625 18.5625 12.625H22V16.5193C21.6456 16.5562 21.3118 16.6001 21 16.6507V15.5312C21 14.7903 20.3972 14.1875 19.6562 14.1875H4.46875C3.70269 14.1875 3.125 14.8189 3.125 15.6562V25.6562C3.125 26.3055 3.75294 26.875 4.46875 26.875H18.1875V28.4375H1.71875ZM29.3936 30.7364C28.2824 30.9497 26.7956 31.0625 25.0938 31.0625C23.3919 31.0625 21.9051 30.9497 20.7939 30.7364C19.2937 30.4485 19.1258 30.0938 19.125 30.0938V28.2671C19.6156 28.4969 20.1702 28.6124 20.4464 28.6698C21.6327 28.9164 23.2397 29.0468 25.0938 29.0468C25.9871 29.0468 26.8333 29.0159 27.6087 28.9548C27.8668 28.9344 28.0596 28.7087 28.0392 28.4507C28.0189 28.1926 27.7926 27.9998 27.5352 28.0202C26.7841 28.0793 25.9627 28.1093 25.0938 28.1093C23.3919 28.1093 21.9051 27.9966 20.7939 27.7833C19.2937 27.4954 19.1258 27.1406 19.125 27.1406V25.3139C19.6156 25.5438 20.1702 25.6593 20.4464 25.7167C21.6327 25.9633 23.2397 26.0937 25.0938 26.0937C26.9478 26.0937 28.5548 25.9633 29.7411 25.7167C30.0172 25.6593 30.5719 25.5438 31.0625 25.3139V27.1376C31.0529 27.1576 30.8803 27.4627 29.6396 27.733C29.3866 27.7881 29.2263 28.0379 29.2814 28.2908C29.3354 28.5456 29.5927 28.7048 29.8392 28.649C30.0957 28.5931 30.6035 28.4821 31.0625 28.2674V30.0907C31.0528 30.1109 30.8577 30.4553 29.3936 30.7364Z" fill="#009846"/>
<path d="M21.0625 8.78125V3.84375C21.0625 3.10281 20.4597 2.5 19.7188 2.5H9.375C9.11606 2.5 8.90625 2.70981 8.90625 2.96875C8.90625 3.22769 9.11606 3.4375 9.375 3.4375H19.7188C19.9428 3.4375 20.125 3.61975 20.125 3.84375V8.78125C20.125 9.00525 19.9428 9.1875 19.7188 9.1875H4.46875C4.24475 9.1875 4.0625 9.00525 4.0625 8.78125V3.84375C4.0625 3.61975 4.24475 3.4375 4.46875 3.4375H7.1875C7.44644 3.4375 7.65625 3.22769 7.65625 2.96875C7.65625 2.70981 7.44644 2.5 7.1875 2.5H4.46875C3.72781 2.5 3.125 3.10281 3.125 3.84375V8.78125C3.125 9.52219 3.72781 10.125 4.46875 10.125H19.7188C20.4597 10.125 21.0625 9.52219 21.0625 8.78125Z" fill="#009846"/>
<path d="M9.84375 23H6.46875C6.20981 23 6 23.2098 6 23.4688C6 23.7277 6.20981 23.9375 6.46875 23.9375H9.84375C10.1027 23.9375 10.3125 23.7277 10.3125 23.4688C10.3125 23.2098 10.1027 23 9.84375 23Z" fill="#009846"/>
<path d="M6.78125 18.0625H7.6875V18.9688C7.6875 19.2277 7.89731 19.4375 8.15625 19.4375C8.41519 19.4375 8.625 19.2277 8.625 18.9688V18.0625H9.53125C9.79019 18.0625 10 17.8527 10 17.5938C10 17.3348 9.79019 17.125 9.53125 17.125H8.625V16.2188C8.625 15.9598 8.41519 15.75 8.15625 15.75C7.89731 15.75 7.6875 15.9598 7.6875 16.2188V17.125H6.78125C6.52231 17.125 6.3125 17.3348 6.3125 17.5938C6.3125 17.8527 6.52231 18.0625 6.78125 18.0625Z" fill="#009846"/>
<path d="M17.3037 16.2901C17.1206 16.1071 16.8239 16.1071 16.6408 16.2901L16 16.9309L15.3592 16.2901C15.1761 16.1071 14.8793 16.1071 14.6963 16.2901C14.5132 16.4732 14.5132 16.77 14.6963 16.953L15.3371 17.5938L14.6963 18.2346C14.5132 18.4178 14.5132 18.7145 14.6963 18.8976C14.8794 19.0806 15.1761 19.0806 15.3592 18.8976L16 18.2568L16.6408 18.8976C16.8239 19.0806 17.1206 19.0806 17.3037 18.8976C17.4868 18.7145 17.4868 18.4177 17.3037 18.2346L16.6629 17.5938L17.3037 16.953C17.4868 16.7699 17.4868 16.4731 17.3037 16.2901Z" fill="#009846"/>
<path d="M14.9466 25.0092C15.0666 25.0092 15.1866 24.9635 15.2781 24.872L17.4031 22.747C17.5862 22.5638 17.5862 22.2671 17.4031 22.084C17.22 21.901 16.9233 21.901 16.7402 22.084L14.6152 24.209C14.4321 24.3921 14.4321 24.6889 14.6152 24.872C14.7068 24.9635 14.8268 25.0092 14.9466 25.0092Z" fill="#009846"/>
<path d="M15.0938 22.75C15.3526 22.75 15.5625 22.5401 15.5625 22.2812C15.5625 22.0224 15.3526 21.8125 15.0938 21.8125C14.8349 21.8125 14.625 22.0224 14.625 22.2812C14.625 22.5401 14.8349 22.75 15.0938 22.75Z" fill="#009846"/>
<path d="M16.9688 25.125C17.2276 25.125 17.4375 24.9151 17.4375 24.6562C17.4375 24.3974 17.2276 24.1875 16.9688 24.1875C16.7099 24.1875 16.5 24.3974 16.5 24.6562C16.5 24.9151 16.7099 25.125 16.9688 25.125Z" fill="#009846"/>
<path d="M18.1562 8.3125C18.7593 8.3125 19.25 7.82181 19.25 7.21875V5.40625C19.25 4.80319 18.7593 4.3125 18.1562 4.3125H17.2812C16.6782 4.3125 16.1875 4.80319 16.1875 5.40625V7.21875C16.1875 7.82181 16.6782 8.3125 17.2812 8.3125H18.1562ZM17.125 7.21875V5.40625C17.125 5.32006 17.1951 5.25 17.2812 5.25H18.1562C18.2424 5.25 18.3125 5.32006 18.3125 5.40625V7.21875C18.3125 7.30494 18.2424 7.375 18.1562 7.375H17.2812C17.1951 7.375 17.125 7.30494 17.125 7.21875Z" fill="#009846"/>
</svg>
