<svg width="37" height="40" viewBox="0 0 37 40" fill="none" xmlns="http://www.w3.org/2000/svg">
<path d="M32.9086 19.9519L28.9063 17.1525V12.75C28.9053 11.7557 28.5396 10.8025 27.8893 10.0994C27.2389 9.3964 26.3572 9.00099 25.4375 9V8.375C25.4375 7.87772 25.2548 7.40081 24.9295 7.04917C24.6043 6.69754 24.1631 6.5 23.7031 6.5H20.4911C20.6991 6.12166 20.8101 5.69016 20.8125 5.25C20.8125 4.58696 20.5689 3.95107 20.1352 3.48223C19.7015 3.01339 19.1133 2.75 18.5 2.75C17.8867 2.75 17.2985 3.01339 16.8648 3.48223C16.4311 3.95107 16.1875 4.58696 16.1875 5.25C16.1899 5.69016 16.3009 6.12166 16.5089 6.5H13.2969C12.8369 6.5 12.3957 6.69754 12.0705 7.04917C11.7452 7.40081 11.5625 7.87772 11.5625 8.375V9C10.6428 9.00099 9.76106 9.3964 9.11074 10.0994C8.46042 10.8025 8.09467 11.7557 8.09375 12.75V17.1525L4.09139 19.9519C2.69776 20.9268 1.63324 22.363 1.05681 24.0459C0.480381 25.7288 0.42297 27.5682 0.893151 29.2893C1.36333 31.0104 2.33588 32.5209 3.66555 33.5952C4.99522 34.6695 6.61067 35.25 8.27066 35.25H28.7293C30.3893 35.25 32.0048 34.6695 33.3345 33.5952C34.6641 32.5209 35.6367 31.0104 36.1069 29.2893C36.577 27.5682 36.5196 25.7288 35.9432 24.0459C35.3668 22.363 34.3022 20.9268 32.9086 19.9519ZM17.3438 5.25C17.3438 5.00277 17.4116 4.7611 17.5386 4.55554C17.6657 4.34998 17.8462 4.18976 18.0575 4.09515C18.2688 4.00054 18.5013 3.97579 18.7256 4.02402C18.9499 4.07225 19.1559 4.1913 19.3176 4.36612C19.4793 4.54093 19.5894 4.76366 19.634 5.00614C19.6787 5.24861 19.6558 5.49995 19.5682 5.72835C19.4807 5.95676 19.3325 6.15199 19.1424 6.28934C18.9522 6.42669 18.7287 6.5 18.5 6.5C18.1933 6.5 17.8993 6.3683 17.6824 6.13388C17.4656 5.89946 17.3438 5.58152 17.3438 5.25ZM12.7188 8.375C12.7188 8.20924 12.7797 8.05027 12.8881 7.93306C12.9965 7.81585 13.1435 7.75 13.2969 7.75H23.7031C23.8565 7.75 24.0035 7.81585 24.1119 7.93306C24.2203 8.05027 24.2813 8.20924 24.2813 8.375V9H12.7188V8.375ZM9.25 12.75C9.25 12.087 9.49364 11.4511 9.92732 10.9822C10.361 10.5134 10.9492 10.25 11.5625 10.25H25.4375C26.0508 10.25 26.639 10.5134 27.0727 10.9822C27.5064 11.4511 27.75 12.087 27.75 12.75V16.3438L26.5938 15.535V13.375C26.5938 12.8777 26.411 12.4008 26.0858 12.0492C25.7605 11.6975 25.3194 11.5 24.8594 11.5H12.1406C11.6806 11.5 11.2395 11.6975 10.9142 12.0492C10.589 12.4008 10.4063 12.8777 10.4063 13.375V15.535L9.25 16.3438V12.75ZM25.4375 14H11.5625V13.375C11.5625 13.2092 11.6234 13.0503 11.7318 12.9331C11.8403 12.8158 11.9873 12.75 12.1406 12.75H24.8594C25.0127 12.75 25.1598 12.8158 25.2682 12.9331C25.3766 13.0503 25.4375 13.2092 25.4375 13.375V14ZM28.7293 34H8.27066C6.85964 34.0008 5.48627 33.508 4.35581 32.5951C3.22535 31.6822 2.39853 30.3983 1.99893 28.9354C1.59933 27.4724 1.64842 25.9089 2.13885 24.4786C2.62927 23.0482 3.53471 21.8279 4.71982 21L11.2983 16.4C11.3794 16.3433 11.4461 16.2656 11.4922 16.1739C11.5384 16.0821 11.5625 15.9794 11.5625 15.875V15.25H25.4375V15.875C25.4375 15.9794 25.4616 16.0821 25.5078 16.1739C25.5539 16.2656 25.6206 16.3433 25.7017 16.4L32.2802 21C33.4653 21.8279 34.3707 23.0482 34.8612 24.4786C35.3516 25.9089 35.4007 27.4724 35.0011 28.9354C34.6015 30.3983 33.7747 31.6822 32.6442 32.5951C31.5137 33.508 30.1404 34.0008 28.7293 34Z" fill="url(#paint0_linear)"/>
<path d="M14.4531 26.25H15.6094C15.6094 25.7527 15.4266 25.2758 15.1014 24.9242C14.7761 24.5725 14.335 24.375 13.875 24.375V23.75H12.7188V24.375C12.2588 24.375 11.8176 24.5725 11.4924 24.9242C11.1671 25.2758 10.9844 25.7527 10.9844 26.25C10.9844 26.7473 11.1671 27.2242 11.4924 27.5758C11.8176 27.9275 12.2588 28.125 12.7188 28.125V29.375C12.5654 29.375 12.4184 29.3092 12.31 29.1919C12.2015 29.0747 12.1406 28.9158 12.1406 28.75H10.9844C10.9844 29.2473 11.1671 29.7242 11.4924 30.0758C11.8176 30.4275 12.2588 30.625 12.7188 30.625V31.25H13.875V30.625C14.335 30.625 14.7761 30.4275 15.1014 30.0758C15.4266 29.7242 15.6094 29.2473 15.6094 28.75C15.6094 28.2527 15.4266 27.7758 15.1014 27.4242C14.7761 27.0725 14.335 26.875 13.875 26.875V25.625C14.0283 25.625 14.1754 25.6908 14.2838 25.8081C14.3922 25.9253 14.4531 26.0842 14.4531 26.25ZM14.4531 28.75C14.4531 28.9158 14.3922 29.0747 14.2838 29.1919C14.1754 29.3092 14.0283 29.375 13.875 29.375V28.125C14.0283 28.125 14.1754 28.1908 14.2838 28.3081C14.3922 28.4253 14.4531 28.5842 14.4531 28.75ZM12.7188 26.875C12.5654 26.875 12.4184 26.8092 12.31 26.6919C12.2015 26.5747 12.1406 26.4158 12.1406 26.25C12.1406 26.0842 12.2015 25.9253 12.31 25.8081C12.4184 25.6908 12.5654 25.625 12.7188 25.625V26.875Z" fill="url(#paint1_linear)"/>
<path d="M23.7031 21.25C22.6153 21.2516 21.55 21.5851 20.6296 22.2119C19.7092 22.8388 18.971 23.7337 18.5 24.7938C17.9327 23.517 16.9811 22.4864 15.801 21.8709C14.621 21.2554 13.2826 21.0915 12.0051 21.406C10.7277 21.7205 9.58688 22.4948 8.76974 23.602C7.9526 24.7092 7.50757 26.0836 7.50757 27.5C7.50757 28.9164 7.9526 30.2908 8.76974 31.398C9.58688 32.5052 10.7277 33.2795 12.0051 33.594C13.2826 33.9085 14.621 33.7446 15.801 33.1291C16.9811 32.5136 17.9327 31.483 18.5 30.2063C18.948 31.2123 19.6372 32.0702 20.4959 32.6907C21.3546 33.3111 22.3514 33.6713 23.3827 33.7339C24.4139 33.7965 25.4417 33.5592 26.3593 33.0466C27.2769 32.534 28.0506 31.7649 28.5999 30.8193C29.1492 29.8738 29.4541 28.7863 29.4827 27.6702C29.5114 26.554 29.2628 25.45 28.7628 24.4729C28.2629 23.4959 27.5298 22.6816 26.6399 22.1148C25.7501 21.548 24.736 21.2493 23.7031 21.25ZM13.2969 32.5C12.3821 32.5 11.4879 32.2068 10.7274 31.6574C9.96679 31.1079 9.37399 30.3271 9.02393 29.4134C8.67388 28.4998 8.58229 27.4945 8.76075 26.5246C8.9392 25.5547 9.37969 24.6637 10.0265 23.9645C10.6733 23.2652 11.4974 22.789 12.3946 22.5961C13.2917 22.4032 14.2217 22.5022 15.0668 22.8806C15.9119 23.259 16.6342 23.8999 17.1424 24.7222C17.6506 25.5444 17.9219 26.5111 17.9219 27.5C17.9205 28.8256 17.4328 30.0965 16.5657 31.0339C15.6987 31.9713 14.5231 32.4985 13.2969 32.5ZM23.7031 32.5C22.7884 32.5 21.8942 32.2068 21.1336 31.6574C20.373 31.1079 19.7802 30.3271 19.4302 29.4134C19.0801 28.4998 18.9885 27.4945 19.167 26.5246C19.3455 25.5547 19.7859 24.6637 20.4328 23.9645C21.0796 23.2652 21.9037 22.789 22.8008 22.5961C23.698 22.4032 24.6279 22.5022 25.473 22.8806C26.3181 23.259 27.0405 23.8999 27.5487 24.7222C28.0569 25.5444 28.3281 26.5111 28.3281 27.5C28.3267 28.8256 27.839 30.0965 26.972 31.0339C26.1049 31.9713 24.9293 32.4985 23.7031 32.5Z" fill="url(#paint2_linear)"/>
<path d="M24.8594 26.25H26.0156C26.0156 25.7527 25.8329 25.2758 25.5076 24.9242C25.1824 24.5725 24.7412 24.375 24.2812 24.375V23.75H23.125V24.375C22.665 24.375 22.2239 24.5725 21.8986 24.9242C21.5734 25.2758 21.3906 25.7527 21.3906 26.25C21.3906 26.7473 21.5734 27.2242 21.8986 27.5758C22.2239 27.9275 22.665 28.125 23.125 28.125V29.375C22.9717 29.375 22.8246 29.3092 22.7162 29.1919C22.6078 29.0747 22.5469 28.9158 22.5469 28.75H21.3906C21.3906 29.2473 21.5734 29.7242 21.8986 30.0758C22.2239 30.4275 22.665 30.625 23.125 30.625V31.25H24.2812V30.625C24.7412 30.625 25.1824 30.4275 25.5076 30.0758C25.8329 29.7242 26.0156 29.2473 26.0156 28.75C26.0156 28.2527 25.8329 27.7758 25.5076 27.4242C25.1824 27.0725 24.7412 26.875 24.2812 26.875V25.625C24.4346 25.625 24.5816 25.6908 24.69 25.8081C24.7985 25.9253 24.8594 26.0842 24.8594 26.25ZM24.8594 28.75C24.8594 28.9158 24.7985 29.0747 24.69 29.1919C24.5816 29.3092 24.4346 29.375 24.2812 29.375V28.125C24.4346 28.125 24.5816 28.1908 24.69 28.3081C24.7985 28.4253 24.8594 28.5842 24.8594 28.75ZM23.125 26.875C22.9717 26.875 22.8246 26.8092 22.7162 26.6919C22.6078 26.5747 22.5469 26.4158 22.5469 26.25C22.5469 26.0842 22.6078 25.9253 22.7162 25.8081C22.8246 25.6908 22.9717 25.625 23.125 25.625V26.875Z" fill="url(#paint3_linear)"/>
<defs>
<linearGradient id="paint0_linear" x1="0.577557" y1="19.0002" x2="36.4213" y2="19.0002" gradientUnits="userSpaceOnUse">
<stop stop-color="#009846"/>
<stop offset="1" stop-color="#009A9C"/>
</linearGradient>
<linearGradient id="paint1_linear" x1="10.9843" y1="27.5001" x2="15.6093" y2="27.5001" gradientUnits="userSpaceOnUse">
<stop stop-color="#009846"/>
<stop offset="1" stop-color="#009A9C"/>
</linearGradient>
<linearGradient id="paint2_linear" x1="7.50722" y1="27.5001" x2="29.4846" y2="27.5001" gradientUnits="userSpaceOnUse">
<stop stop-color="#009846"/>
<stop offset="1" stop-color="#009A9C"/>
</linearGradient>
<linearGradient id="paint3_linear" x1="21.3906" y1="27.5001" x2="26.0156" y2="27.5001" gradientUnits="userSpaceOnUse">
<stop stop-color="#009846"/>
<stop offset="1" stop-color="#009A9C"/>
</linearGradient>
</defs>
</svg>
