<svg width="31" height="31" viewBox="0 0 31 31" fill="none" xmlns="http://www.w3.org/2000/svg">
<g clip-path="url(#clip0)">
<path d="M23.706 10.5231C23.4541 10.2713 23.0446 10.2713 22.7928 10.5231L14.2084 19.1075L9.49764 14.3981C9.24577 14.1463 8.83629 14.1463 8.58441 14.3981C8.33254 14.65 8.33254 15.0595 8.58441 15.3114L13.7511 20.478C13.8777 20.6033 14.043 20.6666 14.2083 20.6666C14.3737 20.6666 14.539 20.6033 14.6643 20.478L23.7059 11.4364C23.9579 11.1844 23.9579 10.775 23.706 10.5231Z" fill="#009846"/>
<path d="M28.6014 3.90211L15.6847 0.0271099C15.5633 -0.00903662 15.4355 -0.00903662 15.314 0.0271099L2.39735 3.90211C2.12477 3.98348 1.9375 4.23536 1.9375 4.52084V18.7292C1.9375 24.4409 10.6459 29.5211 15.3089 30.9716C15.3709 30.991 15.4355 31 15.5 31C15.5645 31 15.6291 30.991 15.6911 30.9716C20.3541 29.5197 29.0625 24.4409 29.0625 18.7291V4.52084C29.0625 4.23536 28.8752 3.98476 28.6014 3.90211ZM27.7709 18.7291C27.7709 23.2642 20.5853 28.033 15.5 29.6773C10.4147 28.033 3.22915 23.2642 3.22915 18.7291V5.00134L15.5 1.32009L27.7709 5.00134V18.7291Z" fill="#009846"/>
</g>
<defs>
<clipPath id="clip0">
<rect width="31" height="31" fill="white"/>
</clipPath>
</defs>
</svg>
